<svg xmlns="http://www.w3.org/2000/svg" xmlns:xlink="http://www.w3.org/1999/xlink" width="500" zoomAndPan="magnify" viewBox="0 0 375 374.999991" height="500" preserveAspectRatio="xMidYMid meet" version="1.0"><defs><clipPath id="8b96c01cb8"><path d="M 187.5 152.34375 L 196.074219 152.34375 L 196.074219 156.09375 L 187.5 156.09375 Z M 187.5 152.34375 " clip-rule="nonzero"/></clipPath></defs><g clip-path="url(#8b96c01cb8)"><path fill="#135981" d="M 187.5 152.34375 L 196.070312 152.34375 L 196.070312 156.09375 L 187.5 156.09375 Z M 187.5 152.34375 " fill-opacity="1" fill-rule="nonzero"/></g><path fill="#caddff" d="M 277.316406 330.449219 C 205 372.640625 116.796875 341.816406 68.519531 293.355469 C 5.273438 229.859375 0.0390625 125.53125 44.703125 63.679688 C 63.273438 37.964844 102.042969 2.335938 143.4375 7.140625 C 178.527344 11.210938 183.203125 40.5 241.621094 86.402344 C 307.855469 138.441406 336.480469 128 351.9375 160.835938 C 374.972656 209.757812 340.074219 293.832031 277.316406 330.449219 " fill-opacity="1" fill-rule="nonzero"/><path fill="#38b6ff" d="M 239.171875 210.875 L 175.390625 211.273438 C 174.976562 211.273438 174.839844 211.65625 174.839844 212.023438 L 174.839844 266.292969 C 174.839844 271.488281 138.597656 284.988281 138.246094 284.300781 L 138.203125 290.042969 C 138.199219 291.113281 139.140625 292.0625 140.335938 292.0625 L 141.136719 292.0625 C 141.140625 292.0625 141.144531 292.0625 141.152344 292.0625 L 194.628906 292.0625 C 197.109375 292.0625 199.5625 291.507812 201.808594 290.566406 L 231.214844 278.1875 C 236.507812 275.957031 239.84375 271.167969 239.84375 265.949219 L 239.84375 211.625 C 239.84375 211.257812 239.585938 210.875 239.171875 210.875 " fill-opacity="1" fill-rule="nonzero"/><path fill="#ffffff" d="M 168.382812 208.109375 L 168.382812 262.390625 C 168.382812 267.742188 164.9375 272.617188 159.527344 274.925781 L 139.691406 283.390625 C 138.394531 283.945312 138.835938 285.679688 140.273438 285.679688 L 194.769531 285.679688 C 197.222656 285.679688 199.644531 285.199219 201.859375 284.265625 L 223.835938 275.011719 C 229.289062 272.714844 232.765625 267.820312 232.765625 262.445312 L 232.765625 208.109375 C 232.765625 207.890625 232.5625 207.707031 232.3125 207.707031 L 168.832031 207.707031 C 168.582031 207.707031 168.382812 207.890625 168.382812 208.109375 " fill-opacity="1" fill-rule="nonzero"/><path fill="#111827" d="M 232.3125 208.332031 L 232.320312 208.332031 Z M 169.003906 208.332031 L 169.003906 262.390625 C 169.003906 267.960938 165.378906 273.105469 159.769531 275.496094 L 139.933594 283.960938 C 139.515625 284.144531 139.53125 284.445312 139.554688 284.566406 C 139.601562 284.792969 139.816406 285.0625 140.273438 285.0625 L 194.769531 285.0625 C 197.125 285.0625 199.492188 284.585938 201.617188 283.691406 L 223.597656 274.4375 C 228.789062 272.253906 232.144531 267.542969 232.144531 262.445312 L 232.144531 208.332031 Z M 194.769531 286.304688 L 140.273438 286.304688 C 139.3125 286.304688 138.515625 285.691406 138.335938 284.816406 C 138.167969 283.980469 138.613281 283.179688 139.449219 282.820312 L 159.28125 274.355469 C 164.433594 272.15625 167.757812 267.460938 167.757812 262.390625 L 167.757812 208.109375 C 167.757812 207.546875 168.238281 207.085938 168.832031 207.085938 L 232.3125 207.085938 C 232.90625 207.085938 233.386719 207.546875 233.386719 208.109375 L 233.386719 262.445312 C 233.386719 268.042969 229.734375 273.203125 224.078125 275.582031 L 202.101562 284.835938 C 199.824219 285.796875 197.289062 286.304688 194.769531 286.304688 " fill-opacity="1" fill-rule="nonzero"/><path fill="#135981" d="M 49.5625 238.867188 L 311.835938 239.441406 L 316.390625 239.449219 L 324.855469 239.46875 C 327.261719 239.46875 329.238281 237.589844 329.542969 235.199219 L 351.472656 63.824219 C 352.007812 59.652344 348.96875 55.714844 344.773438 55.714844 L 73.042969 55.964844 L 49.5625 238.867188 " fill-opacity="1" fill-rule="nonzero"/><path fill="#38b6ff" d="M 334.578125 55.675781 C 339.308594 55.675781 343.15625 60.441406 342.546875 65.140625 L 320.460938 235.207031 C 320.15625 237.597656 318.125 239.386719 315.71875 239.386719 L 313.648438 239.464844 L 45.925781 239.386719 C 43.042969 239.386719 40.8125 236.847656 41.183594 233.976562 L 63.714844 60.453125 C 64.023438 58.066406 65.859375 55.675781 68.265625 55.675781 L 334.578125 55.675781 " fill-opacity="1" fill-rule="nonzero"/><path fill="#ffffff" d="M 306.828125 205.640625 L 323.503906 80.625 C 323.84375 77.96875 321.78125 75.617188 319.113281 75.617188 L 82.03125 75.617188 C 80.671875 75.617188 79.527344 76.628906 79.351562 77.976562 L 62.3125 205.640625 L 306.828125 205.640625 " fill-opacity="1" fill-rule="nonzero"/><path fill="#caddff" d="M 319.113281 75.617188 C 321.78125 75.617188 323.84375 77.96875 323.503906 80.625 L 321.707031 92.460938 L 77.066406 92.421875 L 79.351562 77.976562 C 79.527344 76.628906 80.671875 75.617188 82.03125 75.617188 L 319.113281 75.617188 " fill-opacity="1" fill-rule="nonzero"/><path fill="#ffffff" d="M 62.421875 204.585938 L 60.238281 221.191406 C 60.042969 222.65625 61.179688 223.546875 62.65625 223.546875 L 302.019531 223.546875 C 303.375 223.546875 304.523438 222.945312 304.695312 221.59375 L 306.933594 204.585938 L 62.421875 204.585938 " fill-opacity="1" fill-rule="nonzero"/><path fill="#111827" d="M 72.414062 130.605469 C 72.382812 130.605469 72.359375 130.601562 72.328125 130.597656 C 71.988281 130.554688 71.75 130.238281 71.796875 129.898438 L 73.148438 119.761719 C 73.195312 119.421875 73.507812 119.1875 73.847656 119.230469 C 74.1875 119.273438 74.425781 119.589844 74.378906 119.925781 L 73.027344 130.066406 C 72.984375 130.375 72.71875 130.605469 72.414062 130.605469 " fill-opacity="1" fill-rule="nonzero"/><path fill="#111827" d="M 74.929688 111.746094 C 74.902344 111.746094 74.875 111.746094 74.847656 111.742188 C 74.507812 111.695312 74.265625 111.386719 74.3125 111.042969 L 78.734375 77.894531 C 78.949219 76.246094 80.367188 74.996094 82.03125 74.996094 L 275.078125 74.996094 C 275.425781 74.996094 275.703125 75.277344 275.703125 75.617188 C 275.703125 75.960938 275.425781 76.238281 275.078125 76.238281 L 82.03125 76.238281 C 80.988281 76.238281 80.101562 77.019531 79.96875 78.058594 L 75.542969 111.207031 C 75.5 111.519531 75.234375 111.746094 74.929688 111.746094 " fill-opacity="1" fill-rule="nonzero"/><path fill="#111827" d="M 313.023438 159.832031 C 312.992188 159.832031 312.964844 159.832031 312.941406 159.828125 C 312.597656 159.78125 312.359375 159.46875 312.402344 159.128906 L 320.203125 100.671875 C 320.25 100.332031 320.5625 100.09375 320.898438 100.140625 C 321.238281 100.183594 321.476562 100.496094 321.433594 100.835938 L 313.636719 159.292969 C 313.59375 159.605469 313.328125 159.832031 313.023438 159.832031 " fill-opacity="1" fill-rule="nonzero"/><path fill="#111827" d="M 308.1875 196.082031 C 308.15625 196.082031 308.128906 196.082031 308.105469 196.078125 C 307.761719 196.03125 307.523438 195.71875 307.566406 195.378906 L 310.894531 170.457031 C 310.9375 170.117188 311.253906 169.878906 311.589844 169.921875 C 311.929688 169.96875 312.171875 170.28125 312.125 170.617188 L 308.800781 195.542969 C 308.757812 195.855469 308.492188 196.082031 308.1875 196.082031 " fill-opacity="1" fill-rule="nonzero"/><path fill="#caddff" d="M 264.585938 120.550781 L 122.285156 120.550781 L 123.242188 113.414062 L 265.542969 113.414062 L 264.585938 120.550781 " fill-opacity="1" fill-rule="nonzero"/><path fill="#38b6ff" d="M 295.292969 132.3125 L 150.308594 132.3125 L 151.265625 125.175781 L 296.253906 125.175781 L 295.292969 132.3125 " fill-opacity="1" fill-rule="nonzero"/><path fill="#caddff" d="M 276.230469 144.074219 L 201.289062 144.074219 L 202.25 136.9375 L 277.1875 136.9375 L 276.230469 144.074219 " fill-opacity="1" fill-rule="nonzero"/><path fill="#38b6ff" d="M 259.839844 155.832031 L 117.539062 155.832031 L 118.5 148.703125 L 260.800781 148.703125 L 259.839844 155.832031 " fill-opacity="1" fill-rule="nonzero"/><path fill="#38b6ff" d="M 290.546875 167.597656 L 145.566406 167.597656 L 146.523438 160.464844 L 291.507812 160.464844 L 290.546875 167.597656 " fill-opacity="1" fill-rule="nonzero"/><path fill="#caddff" d="M 252.421875 191.121094 L 194.964844 191.121094 L 195.925781 183.984375 L 253.378906 183.984375 L 252.421875 191.121094 " fill-opacity="1" fill-rule="nonzero"/><path fill="#38b6ff" d="M 268.019531 202.875 L 210.5625 202.875 L 211.523438 195.738281 L 268.980469 195.738281 L 268.019531 202.875 " fill-opacity="1" fill-rule="nonzero"/><path fill="#38b6ff" d="M 288.96875 179.359375 L 196.546875 179.359375 L 197.507812 172.226562 L 289.925781 172.226562 L 288.96875 179.359375 " fill-opacity="1" fill-rule="nonzero"/><path fill="#caddff" d="M 99.390625 202.742188 L 85.527344 202.742188 L 86.449219 195.890625 L 100.308594 195.890625 L 99.390625 202.742188 " fill-opacity="1" fill-rule="nonzero"/><path fill="#caddff" d="M 110.957031 120.550781 L 96.511719 120.550781 L 97.46875 113.417969 L 111.917969 113.417969 L 110.957031 120.550781 " fill-opacity="1" fill-rule="nonzero"/><path fill="#caddff" d="M 112.410156 109.738281 L 97.964844 109.738281 L 98.921875 102.605469 L 113.371094 102.605469 L 112.410156 109.738281 " fill-opacity="1" fill-rule="nonzero"/><path fill="#caddff" d="M 109.265625 132.3125 L 94.929688 132.3125 L 95.886719 125.179688 L 110.226562 125.179688 L 109.265625 132.3125 " fill-opacity="1" fill-rule="nonzero"/><path fill="#caddff" d="M 107.199219 144.074219 L 93.589844 144.074219 L 94.550781 136.941406 L 108.15625 136.941406 L 107.199219 144.074219 " fill-opacity="1" fill-rule="nonzero"/><path fill="#caddff" d="M 105.691406 155.835938 L 91.839844 155.835938 L 92.800781 148.703125 L 106.648438 148.703125 L 105.691406 155.835938 " fill-opacity="1" fill-rule="nonzero"/><path fill="#caddff" d="M 104.035156 167.597656 L 90.1875 167.597656 L 91.144531 160.464844 L 104.996094 160.464844 L 104.035156 167.597656 " fill-opacity="1" fill-rule="nonzero"/><path fill="#caddff" d="M 101.28125 190.648438 L 87.261719 190.648438 L 88.222656 183.515625 L 102.242188 183.515625 L 101.28125 190.648438 " fill-opacity="1" fill-rule="nonzero"/><path fill="#caddff" d="M 102.519531 178.886719 L 88.789062 178.886719 L 89.746094 171.753906 L 103.476562 171.753906 L 102.519531 178.886719 " fill-opacity="1" fill-rule="nonzero"/><path fill="#ffffff" d="M 40.445312 129.605469 L 26.503906 129.597656 C 24.351562 129.597656 22.691406 127.703125 22.96875 125.570312 L 29.34375 76.667969 C 29.347656 76.003906 29.886719 75.464844 30.554688 75.464844 L 103.175781 75.503906 C 103.839844 75.503906 104.378906 76.042969 104.382812 76.707031 L 97.820312 127.054688 C 97.628906 128.527344 96.371094 129.632812 94.882812 129.632812 L 40.445312 129.605469 " fill-opacity="1" fill-rule="nonzero"/><path fill="#111827" d="M 40.445312 130.226562 L 26.503906 130.21875 C 25.300781 130.214844 24.152344 129.699219 23.359375 128.792969 C 22.5625 127.886719 22.199219 126.683594 22.351562 125.488281 L 28.722656 76.621094 C 28.75 75.636719 29.5625 74.84375 30.554688 74.84375 L 103.175781 74.882812 C 104.179688 74.882812 105 75.699219 105.003906 76.703125 C 105.003906 76.730469 105.003906 76.757812 105 76.789062 L 100.523438 111.128906 C 100.476562 111.46875 100.171875 111.707031 99.828125 111.664062 C 99.484375 111.621094 99.246094 111.308594 99.289062 110.96875 L 103.761719 76.675781 C 103.742188 76.367188 103.488281 76.125 103.175781 76.125 L 30.554688 76.085938 C 30.230469 76.085938 29.964844 76.351562 29.964844 76.671875 C 29.964844 76.699219 29.960938 76.722656 29.960938 76.746094 L 23.585938 125.648438 C 23.476562 126.488281 23.734375 127.335938 24.292969 127.976562 C 24.851562 128.613281 25.65625 128.976562 26.503906 128.976562 L 40.445312 128.984375 C 40.789062 128.984375 41.066406 129.261719 41.066406 129.605469 C 41.066406 129.949219 40.785156 130.226562 40.445312 130.226562 " fill-opacity="1" fill-rule="nonzero"/><path fill="#135981" d="M 62.199219 107.246094 C 60.21875 107.246094 58.25 106.5 56.734375 105.042969 L 39.777344 88.695312 C 39.53125 88.457031 39.523438 88.066406 39.761719 87.820312 C 40 87.570312 40.394531 87.566406 40.640625 87.800781 L 57.597656 104.148438 C 59.90625 106.371094 63.472656 106.628906 66.074219 104.753906 L 91.238281 86.617188 C 91.515625 86.417969 91.90625 86.480469 92.105469 86.757812 C 92.304688 87.039062 92.242188 87.425781 91.964844 87.625 L 66.796875 105.761719 C 65.414062 106.757812 63.804688 107.246094 62.199219 107.246094 " fill-opacity="1" fill-rule="nonzero"/><path fill="#ffffff" d="M 47.816406 116.113281 C 47.820312 115.445312 48.359375 114.90625 49.027344 114.90625 L 121.648438 114.949219 C 122.3125 114.949219 122.851562 115.484375 122.855469 116.148438 L 116.292969 166.496094 C 116.101562 167.972656 114.84375 169.074219 113.355469 169.074219 L 44.976562 169.039062 C 42.824219 169.039062 41.164062 167.148438 41.441406 165.011719 L 47.816406 116.113281 " fill-opacity="1" fill-rule="nonzero"/><path fill="#111827" d="M 113.355469 169.695312 C 113.355469 169.695312 113.355469 169.695312 113.351562 169.695312 L 100.3125 169.691406 C 99.96875 169.691406 99.691406 169.410156 99.691406 169.066406 C 99.691406 168.726562 99.972656 168.449219 100.3125 168.449219 L 113.355469 168.453125 C 114.527344 168.453125 115.527344 167.578125 115.675781 166.417969 L 122.234375 116.117188 C 122.214844 115.8125 121.960938 115.570312 121.648438 115.570312 L 49.027344 115.53125 C 48.703125 115.53125 48.4375 115.792969 48.4375 116.117188 C 48.4375 116.140625 48.433594 116.164062 48.433594 116.191406 L 44.230469 148.417969 C 44.1875 148.761719 43.878906 149 43.535156 148.957031 C 43.195312 148.910156 42.953125 148.601562 43 148.261719 L 47.195312 116.066406 C 47.222656 115.082031 48.035156 114.285156 49.027344 114.285156 L 121.648438 114.328125 C 122.652344 114.328125 123.472656 115.144531 123.476562 116.148438 C 123.476562 116.175781 123.476562 116.203125 123.472656 116.230469 L 116.910156 166.574219 C 116.675781 168.355469 115.148438 169.695312 113.355469 169.695312 " fill-opacity="1" fill-rule="nonzero"/><path fill="#135981" d="M 81.085938 147.519531 C 79.105469 147.519531 77.136719 146.773438 75.621094 145.3125 L 56.027344 126.425781 C 55.78125 126.1875 55.773438 125.792969 56.011719 125.546875 C 56.25 125.300781 56.644531 125.292969 56.890625 125.53125 L 76.484375 144.417969 C 78.792969 146.644531 82.359375 146.898438 84.960938 145.023438 L 106.976562 129.15625 C 107.253906 128.957031 107.644531 129.019531 107.84375 129.296875 C 108.042969 129.578125 107.980469 129.964844 107.703125 130.164062 L 85.6875 146.03125 C 84.304688 147.027344 82.691406 147.519531 81.085938 147.519531 " fill-opacity="1" fill-rule="nonzero"/><path fill="#135981" d="M 104.132812 122.179688 L 118.195312 101.054688 C 118.855469 100.066406 120.332031 100.125 120.90625 101.167969 L 132.566406 122.292969 C 133.148438 123.351562 132.382812 124.648438 131.175781 124.648438 L 105.453125 124.648438 C 104.1875 124.648438 103.429688 123.234375 104.132812 122.179688 " fill-opacity="1" fill-rule="nonzero"/><path fill="#ffffff" d="M 118.347656 116.792969 L 116.847656 116.761719 C 116.644531 116.730469 116.507812 116.542969 116.53125 116.339844 L 117.777344 106.40625 C 117.804688 106.195312 118 106.042969 118.210938 106.078125 L 120.421875 106.125 C 120.632812 106.15625 120.773438 106.359375 120.730469 106.570312 L 118.773438 116.492188 C 118.734375 116.691406 118.542969 116.824219 118.347656 116.792969 " fill-opacity="1" fill-rule="nonzero"/><path fill="#ffffff" d="M 116.207031 119.058594 C 116.546875 118.460938 117.261719 118.25 117.808594 118.589844 C 118.355469 118.933594 118.523438 119.695312 118.183594 120.296875 C 117.84375 120.898438 117.128906 121.105469 116.582031 120.761719 C 116.035156 120.421875 115.867188 119.660156 116.207031 119.058594 " fill-opacity="1" fill-rule="nonzero"/><path fill="#ffffff" d="M 128.238281 47.988281 C 128.242188 47.574219 128.578125 47.238281 128.992188 47.238281 L 174.105469 47.265625 C 174.519531 47.265625 174.855469 47.597656 174.855469 48.011719 L 170.777344 79.285156 C 170.660156 80.203125 169.878906 80.890625 168.953125 80.890625 L 126.476562 80.867188 C 125.140625 80.867188 124.105469 79.691406 124.277344 78.363281 L 128.238281 47.988281 " fill-opacity="1" fill-rule="nonzero"/><path fill="#111827" d="M 128.992188 47.863281 C 128.917969 47.863281 128.859375 47.917969 128.859375 47.992188 C 128.859375 48.019531 128.859375 48.042969 128.855469 48.066406 L 124.894531 78.445312 C 124.835938 78.898438 124.976562 79.359375 125.277344 79.703125 C 125.582031 80.050781 126.015625 80.246094 126.476562 80.246094 L 168.953125 80.269531 C 169.5625 80.269531 170.085938 79.8125 170.164062 79.207031 L 174.234375 47.988281 C 174.222656 47.929688 174.167969 47.886719 174.105469 47.886719 Z M 168.953125 81.511719 L 126.476562 81.488281 C 125.660156 81.488281 124.882812 81.136719 124.34375 80.523438 C 123.804688 79.910156 123.558594 79.09375 123.664062 78.285156 L 127.621094 47.9375 C 127.648438 47.207031 128.253906 46.617188 128.992188 46.617188 L 174.105469 46.644531 C 174.859375 46.644531 175.472656 47.257812 175.476562 48.007812 C 175.476562 48.035156 175.476562 48.066406 175.472656 48.089844 L 171.394531 79.367188 C 171.234375 80.589844 170.183594 81.511719 168.953125 81.511719 " fill-opacity="1" fill-rule="nonzero"/><path fill="#135981" d="M 148.652344 67.21875 C 147.359375 67.21875 146.078125 66.734375 145.09375 65.78125 L 133.136719 54.359375 C 132.886719 54.125 132.878906 53.730469 133.113281 53.480469 C 133.351562 53.234375 133.746094 53.222656 133.992188 53.464844 L 145.953125 64.886719 C 147.308594 66.191406 149.394531 66.339844 150.917969 65.242188 L 167.105469 53.675781 C 167.386719 53.476562 167.773438 53.539062 167.972656 53.820312 C 168.171875 54.101562 168.105469 54.488281 167.828125 54.6875 L 151.640625 66.253906 C 150.742188 66.898438 149.695312 67.21875 148.652344 67.21875 " fill-opacity="1" fill-rule="nonzero"/><path fill="#135981" d="M 129.695312 75.035156 C 129.53125 75.035156 129.371094 74.972656 129.246094 74.84375 C 129.011719 74.597656 129.019531 74.203125 129.265625 73.964844 L 137.179688 66.410156 C 137.429688 66.175781 137.824219 66.183594 138.058594 66.433594 C 138.296875 66.679688 138.285156 67.074219 138.039062 67.308594 L 130.125 74.863281 C 130.003906 74.980469 129.851562 75.035156 129.695312 75.035156 " fill-opacity="1" fill-rule="nonzero"/><path fill="#135981" d="M 165.847656 75.214844 C 165.675781 75.214844 165.503906 75.144531 165.382812 75.007812 L 158.820312 67.632812 C 158.589844 67.378906 158.613281 66.984375 158.871094 66.757812 C 159.125 66.527344 159.519531 66.554688 159.746094 66.808594 L 166.3125 74.183594 C 166.539062 74.4375 166.515625 74.832031 166.261719 75.058594 C 166.140625 75.164062 165.992188 75.214844 165.847656 75.214844 " fill-opacity="1" fill-rule="nonzero"/><path fill="#ffffff" d="M 136.835938 119.179688 C 136.835938 118.378906 137.210938 117.625 137.851562 117.144531 L 197.265625 72.976562 C 199.8125 71.046875 203.328125 71.039062 205.886719 72.957031 L 262.800781 117.210938 C 263.441406 117.691406 263.8125 118.445312 263.8125 119.242188 L 252.300781 207.597656 C 252.113281 209.039062 250.882812 210.117188 249.429688 210.117188 L 129.453125 210.054688 C 127.089844 210.054688 125.265625 207.976562 125.570312 205.632812 L 136.835938 119.179688 " fill-opacity="1" fill-rule="nonzero"/><path fill="#111827" d="M 201.59375 72.152344 C 200.195312 72.152344 198.800781 72.59375 197.640625 73.472656 L 138.222656 117.640625 C 137.742188 118.003906 137.457031 118.578125 137.457031 119.179688 C 137.457031 119.207031 137.453125 119.234375 137.449219 119.261719 L 126.1875 205.710938 C 126.0625 206.652344 126.351562 207.601562 126.976562 208.3125 C 127.605469 209.027344 128.507812 209.433594 129.453125 209.4375 L 249.429688 209.496094 C 250.570312 209.496094 251.539062 208.644531 251.6875 207.515625 L 263.191406 119.207031 C 263.179688 118.621094 262.898438 118.0625 262.429688 117.707031 L 205.503906 73.445312 C 204.351562 72.585938 202.972656 72.152344 201.59375 72.152344 Z M 249.429688 210.738281 L 129.453125 210.679688 C 128.148438 210.679688 126.90625 210.113281 126.042969 209.132812 C 125.183594 208.152344 124.785156 206.847656 124.953125 205.550781 L 136.214844 119.136719 C 136.226562 118.164062 136.699219 117.234375 137.480469 116.648438 L 196.894531 72.480469 C 199.640625 70.398438 203.496094 70.386719 206.257812 72.457031 L 263.183594 116.722656 C 263.964844 117.3125 264.433594 118.257812 264.433594 119.246094 C 264.433594 119.273438 264.433594 119.296875 264.429688 119.324219 L 252.917969 207.675781 C 252.691406 209.421875 251.191406 210.738281 249.429688 210.738281 " fill-opacity="1" fill-rule="nonzero"/><path fill="#caddff" d="M 246.886719 193.183594 L 135.007812 193.257812 L 148.09375 93.339844 C 148.09375 92.285156 148.949219 91.433594 150 91.433594 L 258.675781 91.488281 C 259.726562 91.488281 260.578125 92.34375 260.578125 93.398438 L 246.886719 193.183594 " fill-opacity="1" fill-rule="nonzero"/><path fill="#111827" d="M 150 92.054688 C 149.65625 92.054688 149.335938 92.1875 149.09375 92.429688 C 148.851562 92.671875 148.714844 92.996094 148.714844 93.339844 C 148.714844 93.367188 148.714844 93.394531 148.710938 93.421875 L 135.71875 192.636719 L 246.347656 192.5625 L 259.957031 93.359375 C 259.9375 92.667969 259.371094 92.109375 258.675781 92.109375 Z M 246.886719 193.183594 L 246.890625 193.183594 Z M 135.011719 193.878906 C 134.832031 193.878906 134.660156 193.800781 134.542969 193.667969 C 134.425781 193.535156 134.371094 193.355469 134.394531 193.179688 L 147.472656 93.296875 C 147.484375 92.636719 147.746094 92.019531 148.214844 91.550781 C 148.691406 91.074219 149.324219 90.8125 150 90.8125 L 258.675781 90.867188 C 260.066406 90.871094 261.199219 92.003906 261.199219 93.398438 C 261.199219 93.425781 261.199219 93.453125 261.195312 93.480469 L 247.503906 193.265625 C 247.460938 193.574219 247.199219 193.804688 246.886719 193.804688 L 135.011719 193.878906 " fill-opacity="1" fill-rule="nonzero"/><path fill="#ffffff" d="M 236.96875 110.835938 L 163.640625 110.835938 C 161.949219 110.835938 160.582031 109.46875 160.582031 107.777344 C 160.582031 106.089844 161.949219 104.722656 163.640625 104.722656 L 236.96875 104.722656 C 238.65625 104.722656 240.027344 106.089844 240.027344 107.777344 C 240.027344 109.46875 238.65625 110.835938 236.96875 110.835938 " fill-opacity="1" fill-rule="nonzero"/><path fill="#ffffff" d="M 208.65625 124.972656 L 161.140625 124.972656 C 159.449219 124.972656 158.082031 123.605469 158.082031 121.914062 C 158.082031 120.226562 159.449219 118.855469 161.140625 118.855469 L 208.65625 118.855469 C 210.34375 118.855469 211.710938 120.226562 211.710938 121.914062 C 211.710938 123.605469 210.34375 124.972656 208.65625 124.972656 " fill-opacity="1" fill-rule="nonzero"/><path fill="#ffffff" d="M 263.074219 124.167969 C 263.355469 122.039062 260.984375 120.578125 259.210938 121.785156 L 198.042969 163.738281 C 197.863281 163.84375 197.679688 163.949219 197.492188 164.039062 C 194.578125 165.464844 191.847656 166.011719 189.429688 164.753906 C 188.785156 164.414062 188.21875 163.945312 187.722656 163.410156 L 141.234375 121.902344 C 139.449219 120.308594 136.605469 121.355469 136.28125 123.726562 L 124.863281 207.230469 C 124.660156 208.722656 125.820312 210.054688 127.328125 210.050781 L 249.527344 209.972656 C 250.773438 209.972656 251.828125 209.050781 251.992188 207.816406 L 263.074219 124.167969 " fill-opacity="1" fill-rule="nonzero"/><path fill="#111827" d="M 263.074219 124.167969 L 263.078125 124.167969 Z M 139.257812 121.757812 C 138.980469 121.757812 138.699219 121.808594 138.425781 121.910156 C 137.589844 122.21875 137.019531 122.929688 136.898438 123.8125 L 125.480469 207.316406 C 125.40625 207.847656 125.566406 208.386719 125.921875 208.792969 C 126.277344 209.199219 126.789062 209.429688 127.328125 209.429688 L 249.527344 209.355469 C 250.457031 209.351562 251.253906 208.65625 251.375 207.734375 L 262.457031 124.085938 C 262.554688 123.335938 262.230469 122.652344 261.585938 122.253906 C 260.941406 121.855469 260.183594 121.875 259.558594 122.300781 L 198.394531 164.25 C 198.15625 164.394531 197.957031 164.503906 197.765625 164.597656 C 194.253906 166.316406 191.515625 166.539062 189.144531 165.304688 C 188.488281 164.960938 187.867188 164.476562 187.289062 163.855469 L 140.820312 122.367188 C 140.375 121.964844 139.824219 121.757812 139.257812 121.757812 Z M 127.328125 210.671875 C 126.429688 210.671875 125.578125 210.285156 124.988281 209.609375 C 124.398438 208.933594 124.128906 208.035156 124.25 207.148438 L 135.664062 123.640625 C 135.851562 122.296875 136.71875 121.210938 137.996094 120.742188 C 139.269531 120.273438 140.636719 120.535156 141.648438 121.4375 L 188.136719 162.949219 C 188.152344 162.960938 188.167969 162.972656 188.179688 162.988281 C 188.667969 163.515625 189.183594 163.925781 189.714844 164.203125 C 191.707031 165.242188 194.09375 165.011719 197.21875 163.484375 C 197.375 163.40625 197.542969 163.3125 197.71875 163.207031 L 258.859375 121.273438 C 259.886719 120.574219 261.179688 120.542969 262.238281 121.195312 C 263.296875 121.847656 263.851562 123.015625 263.6875 124.25 L 252.605469 207.894531 C 252.402344 209.433594 251.078125 210.59375 249.527344 210.59375 L 127.328125 210.671875 " fill-opacity="1" fill-rule="nonzero"/><path fill="#135981" d="M 239.765625 194.640625 C 239.601562 194.640625 239.4375 194.574219 239.316406 194.441406 L 212.15625 165.488281 C 211.921875 165.238281 211.933594 164.84375 212.183594 164.609375 C 212.4375 164.375 212.828125 164.386719 213.0625 164.636719 L 240.222656 193.59375 C 240.457031 193.84375 240.445312 194.238281 240.191406 194.472656 C 240.074219 194.582031 239.921875 194.640625 239.765625 194.640625 " fill-opacity="1" fill-rule="nonzero"/><path fill="#135981" d="M 140.804688 194.144531 C 140.636719 194.144531 140.472656 194.082031 140.351562 193.949219 C 140.117188 193.699219 140.125 193.308594 140.375 193.070312 L 170.457031 164.609375 C 170.707031 164.375 171.097656 164.386719 171.335938 164.632812 C 171.570312 164.882812 171.558594 165.277344 171.308594 165.511719 L 141.230469 193.976562 C 141.109375 194.085938 140.957031 194.144531 140.804688 194.144531 " fill-opacity="1" fill-rule="nonzero"/><path fill="#135981" d="M 153.640625 133.136719 C 164.773438 117.628906 176.007812 98.433594 187.242188 80.019531 C 188.824219 77.417969 192.359375 77.632812 193.738281 80.398438 C 203.050781 98.992188 212.347656 117.679688 221.578125 133.382812 C 222.964844 135.71875 221.152344 139.082031 218.277344 139.511719 C 197.878906 142.382812 177.179688 142.382812 156.78125 139.511719 C 153.765625 139.058594 151.976562 135.429688 153.640625 133.136719 " fill-opacity="1" fill-rule="nonzero"/><path fill="#ffffff" d="M 187.785156 123.445312 C 186.46875 123.414062 185.15625 123.382812 183.839844 123.339844 C 183.316406 123.246094 182.949219 122.714844 183.011719 122.132812 C 184.105469 112.660156 185.199219 103.160156 186.292969 93.664062 C 186.363281 93.050781 186.875 92.621094 187.429688 92.714844 C 189.367188 92.757812 191.308594 92.816406 193.246094 92.886719 C 193.800781 92.988281 194.167969 93.578125 194.058594 94.179688 C 192.34375 103.609375 190.625 113.09375 188.910156 122.582031 C 188.808594 123.152344 188.308594 123.535156 187.785156 123.445312 " fill-opacity="1" fill-rule="nonzero"/><path fill="#ffffff" d="M 182.160156 129.90625 C 183.050781 128.203125 184.9375 127.621094 186.375 128.601562 C 187.8125 129.585938 188.253906 131.773438 187.359375 133.496094 C 186.46875 135.214844 184.582031 135.804688 183.144531 134.804688 C 181.707031 133.800781 181.265625 131.609375 182.160156 129.90625 " fill-opacity="1" fill-rule="nonzero"/><path fill="#ffffff" d="M 268.207031 210.074219 C 268.210938 209.4375 268.726562 208.921875 269.363281 208.921875 L 338.6875 208.960938 C 339.324219 208.960938 339.839844 209.476562 339.839844 210.109375 L 333.578125 258.171875 C 333.390625 259.578125 332.191406 260.636719 330.769531 260.632812 L 265.496094 260.597656 C 263.441406 260.597656 261.855469 258.792969 262.121094 256.753906 L 268.207031 210.074219 " fill-opacity="1" fill-rule="nonzero"/><path fill="#111827" d="M 269.363281 209.546875 C 269.070312 209.546875 268.828125 209.785156 268.828125 210.078125 C 268.828125 210.101562 268.824219 210.128906 268.824219 210.152344 L 262.734375 256.832031 C 262.632812 257.628906 262.875 258.429688 263.40625 259.03125 C 263.933594 259.632812 264.695312 259.976562 265.496094 259.980469 L 330.769531 260.011719 L 330.773438 260.011719 C 331.875 260.011719 332.816406 259.1875 332.960938 258.089844 L 339.21875 210.078125 C 339.199219 209.804688 338.96875 209.582031 338.6875 209.582031 Z M 330.773438 261.253906 C 330.769531 261.253906 330.769531 261.253906 330.769531 261.253906 L 265.496094 261.21875 C 264.339844 261.21875 263.234375 260.722656 262.472656 259.851562 C 261.707031 258.980469 261.355469 257.820312 261.503906 256.675781 L 267.585938 210.027344 C 267.613281 209.070312 268.402344 208.304688 269.363281 208.304688 L 338.6875 208.339844 C 339.664062 208.339844 340.457031 209.132812 340.460938 210.105469 C 340.460938 210.136719 340.460938 210.160156 340.457031 210.1875 L 334.191406 258.25 C 333.96875 259.960938 332.5 261.253906 330.773438 261.253906 " fill-opacity="1" fill-rule="nonzero"/><path fill="#135981" d="M 299.570312 239.292969 C 297.675781 239.292969 295.785156 238.578125 294.335938 237.179688 L 277.316406 220.773438 C 277.070312 220.535156 277.0625 220.140625 277.300781 219.894531 C 277.539062 219.648438 277.929688 219.640625 278.179688 219.878906 L 295.199219 236.285156 C 297.390625 238.398438 300.78125 238.640625 303.253906 236.859375 L 320.9375 224.117188 C 321.214844 223.914062 321.605469 223.976562 321.804688 224.257812 C 322.003906 224.535156 321.941406 224.921875 321.664062 225.121094 L 303.980469 237.867188 C 302.652344 238.820312 301.109375 239.292969 299.570312 239.292969 " fill-opacity="1" fill-rule="nonzero"/><path fill="#135981" d="M 326.277344 253.496094 C 326.105469 253.496094 325.929688 253.421875 325.808594 253.28125 L 312.992188 238.441406 C 312.769531 238.183594 312.796875 237.792969 313.058594 237.566406 C 313.316406 237.34375 313.710938 237.371094 313.933594 237.632812 L 326.746094 252.46875 C 326.972656 252.730469 326.945312 253.121094 326.683594 253.347656 C 326.566406 253.449219 326.421875 253.496094 326.277344 253.496094 " fill-opacity="1" fill-rule="nonzero"/><path fill="#135981" d="M 271.105469 253.089844 C 270.949219 253.089844 270.792969 253.03125 270.675781 252.917969 C 270.429688 252.679688 270.421875 252.285156 270.660156 252.039062 L 284.152344 238.144531 C 284.390625 237.898438 284.785156 237.894531 285.027344 238.132812 C 285.273438 238.371094 285.28125 238.765625 285.042969 239.011719 L 271.554688 252.902344 C 271.429688 253.03125 271.269531 253.089844 271.105469 253.089844 " fill-opacity="1" fill-rule="nonzero"/><path fill="#135981" d="M 320.785156 218.726562 L 334.84375 197.601562 C 335.503906 196.609375 336.980469 196.667969 337.554688 197.710938 L 349.214844 218.839844 C 349.800781 219.898438 349.035156 221.191406 347.824219 221.191406 L 322.105469 221.191406 C 320.839844 221.191406 320.082031 219.78125 320.785156 218.726562 " fill-opacity="1" fill-rule="nonzero"/><path fill="#ffffff" d="M 334.996094 213.335938 L 333.496094 213.308594 C 333.296875 213.273438 333.15625 213.089844 333.183594 212.886719 L 334.429688 202.953125 C 334.457031 202.738281 334.652344 202.589844 334.859375 202.625 L 337.074219 202.667969 C 337.28125 202.703125 337.425781 202.90625 337.378906 203.117188 L 335.425781 213.035156 C 335.382812 213.234375 335.195312 213.367188 334.996094 213.335938 " fill-opacity="1" fill-rule="nonzero"/><path fill="#ffffff" d="M 332.855469 215.605469 C 333.195312 215.003906 333.914062 214.792969 334.460938 215.136719 C 335.003906 215.476562 335.175781 216.238281 334.835938 216.839844 C 334.496094 217.441406 333.777344 217.652344 333.230469 217.308594 C 332.6875 216.96875 332.519531 216.203125 332.855469 215.605469 " fill-opacity="1" fill-rule="nonzero"/><path fill="#caddff" d="M 348.972656 114.847656 L 269.90625 114.847656 L 278.347656 18.375 L 357.410156 18.375 L 348.972656 114.847656 " fill-opacity="1" fill-rule="nonzero"/><path fill="#38b6ff" d="M 321.636719 26.550781 L 283.46875 26.550781 L 283.679688 24.140625 L 321.847656 24.140625 L 321.636719 26.550781 " fill-opacity="1" fill-rule="nonzero"/><path fill="#ffffff" d="M 340.554688 30.730469 L 295.945312 30.730469 L 296.164062 28.222656 L 340.777344 28.222656 L 340.554688 30.730469 " fill-opacity="1" fill-rule="nonzero"/><path fill="#ffffff" d="M 350.128906 34.863281 L 305.519531 34.863281 L 305.738281 32.355469 L 350.351562 32.355469 L 350.128906 34.863281 " fill-opacity="1" fill-rule="nonzero"/><path fill="#ffffff" d="M 344.390625 38.996094 L 321.332031 38.996094 L 321.550781 36.488281 L 344.609375 36.488281 L 344.390625 38.996094 " fill-opacity="1" fill-rule="nonzero"/><path fill="#38b6ff" d="M 318.746094 59.613281 L 280.578125 59.613281 L 280.789062 57.203125 L 318.957031 57.203125 L 318.746094 59.613281 " fill-opacity="1" fill-rule="nonzero"/><path fill="#ffffff" d="M 337.664062 63.792969 L 293.050781 63.792969 L 293.269531 61.289062 L 337.882812 61.289062 L 337.664062 63.792969 " fill-opacity="1" fill-rule="nonzero"/><path fill="#ffffff" d="M 347.238281 67.925781 L 302.625 67.925781 L 302.84375 65.421875 L 347.457031 65.421875 L 347.238281 67.925781 " fill-opacity="1" fill-rule="nonzero"/><path fill="#ffffff" d="M 346.875 72.058594 L 318.4375 72.058594 L 318.65625 69.550781 L 347.09375 69.550781 L 346.875 72.058594 " fill-opacity="1" fill-rule="nonzero"/><path fill="#ffffff" d="M 339.472656 43.128906 L 294.859375 43.128906 L 295.078125 40.621094 L 339.691406 40.621094 L 339.472656 43.128906 " fill-opacity="1" fill-rule="nonzero"/><path fill="#ffffff" d="M 349.046875 47.261719 L 304.433594 47.261719 L 304.652344 44.753906 L 349.265625 44.753906 L 349.046875 47.261719 " fill-opacity="1" fill-rule="nonzero"/><path fill="#ffffff" d="M 337.5625 55.527344 L 319.882812 55.527344 L 320.105469 53.019531 L 337.78125 53.019531 L 337.5625 55.527344 " fill-opacity="1" fill-rule="nonzero"/><path fill="#ffffff" d="M 348.683594 51.394531 L 320.246094 51.394531 L 320.464844 48.886719 L 348.902344 48.886719 L 348.683594 51.394531 " fill-opacity="1" fill-rule="nonzero"/><path fill="#38b6ff" d="M 317.296875 76.144531 L 279.132812 76.144531 L 279.34375 73.734375 L 317.507812 73.734375 L 317.296875 76.144531 " fill-opacity="1" fill-rule="nonzero"/><path fill="#ffffff" d="M 336.21875 80.324219 L 291.605469 80.324219 L 291.824219 77.816406 L 336.4375 77.816406 L 336.21875 80.324219 " fill-opacity="1" fill-rule="nonzero"/><path fill="#ffffff" d="M 344.359375 84.457031 L 301.175781 84.457031 L 301.398438 81.953125 L 344.578125 81.953125 L 344.359375 84.457031 " fill-opacity="1" fill-rule="nonzero"/><path fill="#38b6ff" d="M 345.429688 88.589844 L 316.992188 88.589844 L 317.210938 86.082031 L 345.648438 86.082031 L 345.429688 88.589844 " fill-opacity="1" fill-rule="nonzero"/><path fill="#38b6ff" d="M 323.117188 109.253906 L 299.007812 109.253906 L 299.226562 106.75 L 323.335938 106.75 L 323.117188 109.253906 " fill-opacity="1" fill-rule="nonzero"/><path fill="#ffffff" d="M 335.132812 92.722656 L 290.519531 92.722656 L 290.738281 90.214844 L 335.351562 90.214844 L 335.132812 92.722656 " fill-opacity="1" fill-rule="nonzero"/><path fill="#ffffff" d="M 344.707031 96.855469 L 300.09375 96.855469 L 300.3125 94.351562 L 344.925781 94.351562 L 344.707031 96.855469 " fill-opacity="1" fill-rule="nonzero"/><path fill="#ffffff" d="M 343.984375 105.121094 L 315.542969 105.121094 L 315.765625 102.617188 L 344.203125 102.617188 L 343.984375 105.121094 " fill-opacity="1" fill-rule="nonzero"/><path fill="#ffffff" d="M 332.1875 100.992188 L 315.90625 100.992188 L 316.125 98.484375 L 332.40625 98.484375 L 332.1875 100.992188 " fill-opacity="1" fill-rule="nonzero"/><path fill="#135981" d="M 124.015625 325.203125 C 124.015625 325.203125 122.917969 332.992188 125.441406 336.28125 L 126.203125 337.675781 L 113.476562 336.179688 L 114.183594 334.820312 C 115.441406 332.402344 116.074219 329.773438 116.027344 327.148438 L 124.015625 325.203125 " fill-opacity="1" fill-rule="nonzero"/><path fill="#ffffff" d="M 125.679688 331.972656 L 126.949219 333.460938 C 129.460938 336.40625 132.65625 338.695312 136.25 340.128906 L 139.011719 341.234375 C 139.277344 341.335938 139.46875 341.566406 139.53125 341.84375 L 139.5625 341.984375 C 139.90625 343.546875 138.042969 347.054688 132.339844 348.148438 C 128.8125 348.824219 120.59375 349.132812 110.765625 345.132812 C 110.144531 344.878906 109.757812 344.253906 109.816406 343.582031 C 110.03125 341.148438 110.765625 335.347656 113.027344 332.515625 C 113.28125 332.203125 113.746094 332.164062 114.03125 332.445312 L 116.800781 335.164062 C 118.042969 336.386719 120.039062 336.363281 121.253906 335.117188 L 124.359375 331.929688 C 124.726562 331.554688 125.335938 331.574219 125.679688 331.972656 " fill-opacity="1" fill-rule="nonzero"/><path fill="#111827" d="M 113.558594 332.882812 C 113.539062 332.882812 113.527344 332.890625 113.515625 332.902344 C 111.347656 335.613281 110.640625 341.3125 110.4375 343.636719 C 110.402344 344.035156 110.628906 344.40625 111 344.554688 C 122.210938 349.117188 130.648438 347.84375 132.222656 347.539062 C 136.0625 346.804688 137.722656 345.039062 138.375 344.054688 C 138.929688 343.207031 139.039062 342.5 138.957031 342.117188 L 138.925781 341.976562 C 138.90625 341.902344 138.855469 341.835938 138.78125 341.808594 L 136.019531 340.707031 C 132.347656 339.238281 129.046875 336.871094 126.476562 333.863281 L 125.207031 332.378906 C 125.136719 332.296875 125.050781 332.28125 125.007812 332.28125 C 124.96875 332.28125 124.875 332.289062 124.804688 332.363281 L 121.699219 335.550781 C 120.996094 336.273438 120.054688 336.675781 119.042969 336.6875 C 118.027344 336.699219 117.085938 336.316406 116.367188 335.609375 L 113.597656 332.890625 C 113.582031 332.886719 113.566406 332.882812 113.558594 332.882812 Z M 127.359375 349.171875 C 123.375 349.171875 117.457031 348.523438 110.53125 345.707031 C 109.652344 345.347656 109.117188 344.472656 109.199219 343.53125 C 109.414062 341.09375 110.167969 335.101562 112.542969 332.128906 C 112.777344 331.835938 113.121094 331.660156 113.488281 331.636719 C 113.847656 331.617188 114.207031 331.75 114.46875 332.003906 L 117.234375 334.722656 C 117.710938 335.191406 118.335938 335.445312 119.003906 335.445312 C 119.011719 335.445312 119.023438 335.445312 119.03125 335.445312 C 119.707031 335.4375 120.339844 335.167969 120.808594 334.683594 L 123.914062 331.496094 C 124.210938 331.191406 124.625 331.027344 125.046875 331.042969 C 125.472656 331.054688 125.875 331.246094 126.152344 331.570312 L 127.421875 333.058594 C 129.859375 335.914062 132.992188 338.160156 136.480469 339.550781 L 139.242188 340.65625 C 139.699219 340.839844 140.03125 341.230469 140.136719 341.710938 L 140.167969 341.847656 C 140.351562 342.675781 140.074219 343.726562 139.410156 344.738281 C 138.652344 345.886719 136.746094 347.9375 132.457031 348.757812 C 131.804688 348.886719 130.011719 349.171875 127.359375 349.171875 " fill-opacity="1" fill-rule="nonzero"/><path fill="#111827" d="M 124.628906 344.074219 C 124.625 344.074219 124.617188 344.074219 124.613281 344.074219 C 120.359375 344.039062 116.230469 343.136719 112.351562 341.386719 L 110.191406 340.417969 C 109.878906 340.277344 109.738281 339.910156 109.878906 339.597656 C 110.019531 339.28125 110.386719 339.144531 110.699219 339.285156 L 112.859375 340.257812 C 116.585938 341.929688 120.542969 342.796875 124.625 342.832031 C 124.730469 342.839844 124.785156 342.773438 124.8125 342.738281 C 124.839844 342.703125 124.878906 342.628906 124.847656 342.53125 L 124.484375 341.417969 C 124.3125 340.898438 124.464844 340.351562 124.871094 339.984375 C 125.28125 339.625 125.84375 339.539062 126.339844 339.769531 L 127.417969 340.269531 C 130.460938 341.675781 133.992188 341.78125 137.109375 340.550781 L 137.730469 340.304688 C 138.050781 340.175781 138.410156 340.335938 138.539062 340.652344 C 138.664062 340.972656 138.507812 341.335938 138.1875 341.460938 L 137.566406 341.707031 C 134.132812 343.058594 130.246094 342.945312 126.898438 341.398438 L 125.816406 340.894531 C 125.800781 340.890625 125.75 340.867188 125.695312 340.914062 C 125.640625 340.964844 125.660156 341.015625 125.664062 341.035156 L 126.027344 342.144531 C 126.175781 342.59375 126.09375 343.089844 125.816406 343.472656 C 125.539062 343.851562 125.09375 344.074219 124.628906 344.074219 " fill-opacity="1" fill-rule="nonzero"/><path fill="#135981" d="M 67.902344 310.015625 C 67.902344 310.015625 62.542969 315.964844 62.519531 320.183594 L 62.28125 321.796875 L 53.058594 311.800781 L 54.507812 311.355469 C 56.855469 310.035156 59.277344 309.335938 60.773438 307.089844 L 67.902344 310.015625 " fill-opacity="1" fill-rule="nonzero"/><path fill="#ffffff" d="M 64.425781 318.246094 L 64.097656 320.203125 C 63.449219 324.089844 63.753906 328.070312 64.984375 331.8125 L 65.929688 334.683594 C 66.023438 334.957031 65.96875 335.257812 65.796875 335.488281 L 65.707031 335.601562 C 64.714844 336.894531 60.761719 337.738281 56.179688 334.011719 C 53.347656 331.707031 47.734375 325.5 44.425781 315.230469 C 44.214844 314.582031 44.449219 313.871094 45.007812 313.480469 C 47.046875 312.058594 52.042969 308.835938 55.730469 308.746094 C 56.140625 308.734375 56.472656 309.074219 56.441406 309.480469 L 56.132812 313.417969 C 55.996094 315.179688 57.316406 316.722656 59.082031 316.851562 L 63.59375 317.1875 C 64.128906 317.226562 64.511719 317.714844 64.425781 318.246094 " fill-opacity="1" fill-rule="nonzero"/><path fill="#111827" d="M 64.425781 318.246094 L 64.429688 318.246094 Z M 55.746094 309.367188 C 52.21875 309.449219 47.308594 312.628906 45.363281 313.992188 C 45.03125 314.226562 44.890625 314.648438 45.015625 315.039062 C 48.792969 326.761719 55.304688 332.5 56.574219 333.53125 C 59.660156 336.039062 62.125 336.179688 63.316406 336.042969 C 64.34375 335.921875 64.96875 335.539062 65.214844 335.226562 L 65.304688 335.109375 C 65.351562 335.042969 65.367188 334.957031 65.339844 334.878906 L 64.394531 332.007812 C 63.136719 328.1875 62.820312 324.070312 63.484375 320.105469 L 63.8125 318.140625 C 63.828125 318.03125 63.785156 317.953125 63.753906 317.917969 C 63.726562 317.878906 63.660156 317.816406 63.546875 317.808594 L 59.039062 317.472656 C 58.019531 317.398438 57.089844 316.929688 56.421875 316.152344 C 55.757812 315.378906 55.433594 314.386719 55.515625 313.367188 L 55.820312 309.433594 C 55.824219 309.421875 55.820312 309.40625 55.808594 309.390625 C 55.796875 309.382812 55.78125 309.367188 55.746094 309.367188 Z M 62.671875 337.320312 C 61.132812 337.320312 58.667969 336.835938 55.789062 334.492188 C 54.472656 333.421875 47.71875 327.472656 43.832031 315.421875 C 43.539062 314.503906 43.867188 313.519531 44.652344 312.972656 C 46.691406 311.546875 51.847656 308.21875 55.714844 308.125 C 56.085938 308.117188 56.453125 308.265625 56.710938 308.535156 C 56.960938 308.800781 57.089844 309.164062 57.058594 309.53125 L 56.753906 313.464844 C 56.699219 314.152344 56.914062 314.820312 57.367188 315.34375 C 57.816406 315.867188 58.441406 316.183594 59.128906 316.234375 L 63.640625 316.566406 C 64.066406 316.597656 64.464844 316.8125 64.730469 317.148438 C 64.996094 317.488281 65.109375 317.921875 65.039062 318.347656 L 64.710938 320.308594 C 64.078125 324.078125 64.378906 327.988281 65.574219 331.617188 L 66.523438 334.492188 C 66.675781 334.960938 66.589844 335.472656 66.289062 335.863281 L 66.199219 335.980469 C 65.675781 336.660156 64.679688 337.132812 63.460938 337.277344 C 63.234375 337.300781 62.972656 337.320312 62.671875 337.320312 " fill-opacity="1" fill-rule="nonzero"/><path fill="#111827" d="M 65.515625 334.253906 C 65.414062 334.253906 65.3125 334.230469 65.21875 334.179688 L 64.621094 333.859375 C 61.324219 332.070312 58.871094 328.96875 57.890625 325.351562 L 57.574219 324.183594 C 57.570312 324.164062 57.554688 324.105469 57.472656 324.09375 C 57.394531 324.082031 57.359375 324.132812 57.351562 324.152344 L 56.722656 325.160156 C 56.46875 325.566406 56.035156 325.828125 55.558594 325.859375 C 55.082031 325.890625 54.617188 325.6875 54.3125 325.320312 C 51.558594 321.984375 49.5625 318.179688 48.386719 314.015625 L 47.730469 311.699219 C 47.636719 311.371094 47.828125 311.027344 48.160156 310.933594 C 48.488281 310.839844 48.832031 311.03125 48.925781 311.363281 L 49.582031 313.675781 C 50.710938 317.675781 52.625 321.328125 55.269531 324.53125 C 55.339844 324.613281 55.425781 324.625 55.476562 324.621094 C 55.523438 324.617188 55.609375 324.597656 55.667969 324.503906 L 56.296875 323.496094 C 56.585938 323.027344 57.105469 322.785156 57.652344 322.867188 C 58.199219 322.945312 58.628906 323.328125 58.773438 323.859375 L 59.089844 325.027344 C 59.984375 328.316406 62.214844 331.140625 65.214844 332.765625 L 65.8125 333.089844 C 66.113281 333.253906 66.226562 333.628906 66.0625 333.929688 C 65.949219 334.136719 65.734375 334.253906 65.515625 334.253906 " fill-opacity="1" fill-rule="nonzero"/><path fill="#111827" d="M 103.398438 213.230469 C 103.398438 213.230469 96.664062 223.5 96.578125 241.109375 C 96.480469 261.023438 69.648438 279.714844 59.632812 306.09375 C 60.292969 309.800781 62.714844 312.953125 66.125 314.546875 L 66.21875 314.589844 C 66.21875 314.589844 93.164062 303.746094 103.699219 286.917969 C 109.769531 277.21875 117.75 257.214844 117.75 257.214844 L 114.023438 219.429688 L 113.140625 219.1875 C 110.855469 218.558594 108.714844 217.617188 106.632812 216.511719 C 105.246094 215.773438 104.121094 214.625 103.398438 213.230469 " fill-opacity="1" fill-rule="nonzero"/><path fill="#111827" d="M 106.183594 216.507812 C 106.183594 216.507812 103.066406 232.308594 110.6875 245.578125 C 118.304688 258.84375 117.097656 272.171875 115.390625 278.792969 C 113.683594 285.417969 109.296875 305.316406 113.675781 327.007812 C 113.675781 327.007812 118.738281 329.417969 124.878906 327.40625 C 124.878906 327.40625 141.761719 292.359375 143.273438 270.503906 C 144.789062 248.648438 136.660156 218.652344 136.660156 218.652344 C 136.660156 218.652344 118.0625 223.503906 106.183594 216.507812 " fill-opacity="1" fill-rule="nonzero"/><path fill="#ffffff" d="M 187.492188 143.199219 C 185.085938 143.199219 182.667969 142.90625 180.277344 142.300781 C 172.707031 140.386719 166.332031 135.636719 162.328125 128.933594 C 156.625 119.367188 156.894531 107.171875 163.015625 97.863281 C 163.203125 97.578125 163.589844 97.496094 163.875 97.683594 C 164.164062 97.871094 164.242188 98.261719 164.054688 98.546875 C 158.191406 107.460938 157.933594 119.136719 163.394531 128.296875 C 167.226562 134.71875 173.332031 139.261719 180.582031 141.09375 C 187.832031 142.925781 195.363281 141.828125 201.785156 137.992188 C 205.550781 135.746094 208.65625 132.746094 211.007812 129.078125 C 211.191406 128.789062 211.574219 128.707031 211.863281 128.890625 C 212.152344 129.074219 212.234375 129.460938 212.050781 129.746094 C 209.597656 133.578125 206.355469 136.710938 202.421875 139.058594 C 197.832031 141.796875 192.699219 143.199219 187.492188 143.199219 " fill-opacity="1" fill-rule="nonzero"/><path fill="#ffffff" d="M 214.558594 123.710938 C 214.492188 123.710938 214.429688 123.703125 214.363281 123.679688 C 214.035156 123.570312 213.863281 123.21875 213.972656 122.894531 C 215.222656 119.175781 215.679688 115.320312 215.328125 111.425781 C 215.300781 111.085938 215.550781 110.785156 215.894531 110.753906 C 216.226562 110.722656 216.535156 110.972656 216.566406 111.316406 C 216.929688 115.378906 216.453125 119.40625 215.148438 123.289062 C 215.0625 123.546875 214.816406 123.710938 214.558594 123.710938 " fill-opacity="1" fill-rule="nonzero"/><path fill="#111827" d="M 169.476562 163.496094 C 170.476562 163.929688 171.632812 163.46875 172.0625 162.464844 L 178.164062 148.136719 L 174.546875 146.558594 L 168.445312 160.882812 C 168.019531 161.890625 168.480469 163.054688 169.476562 163.496094 " fill-opacity="1" fill-rule="nonzero"/><path fill="#111827" d="M 157.25 120.8125 C 153.414062 104.070312 163.75 87.421875 180.332031 83.625 C 196.914062 79.824219 213.464844 90.320312 217.300781 107.058594 C 221.132812 123.796875 210.796875 140.449219 194.214844 144.246094 C 177.632812 148.042969 161.082031 137.550781 157.25 120.8125 Z M 152.691406 121.855469 C 157.105469 141.136719 176.171875 153.222656 195.269531 148.847656 C 214.371094 144.472656 226.273438 125.296875 221.855469 106.015625 C 217.441406 86.734375 198.378906 74.648438 179.277344 79.023438 C 160.179688 83.398438 148.273438 102.574219 152.691406 121.855469 " fill-opacity="1" fill-rule="nonzero"/><path fill="#ffffff" d="M 169.984375 169.871094 C 170.433594 170.027344 171.871094 168.15625 172.207031 167.824219 C 173.527344 166.523438 176.59375 164.996094 177.214844 162.28125 C 178.019531 158.761719 176.484375 154.984375 175.589844 155.101562 C 174.695312 155.21875 173.554688 161.898438 170.042969 162.140625 C 170.042969 162.140625 169.253906 162.046875 169.339844 158.75 C 169.351562 158.289062 168.855469 157.96875 168.445312 158.179688 C 167.882812 158.476562 167.164062 159.101562 166.574219 160.441406 C 165.824219 162.15625 165.96875 164.128906 166.085938 165.3125 C 166.164062 166.097656 165.882812 168.445312 166.480469 168.652344 L 169.984375 169.871094 " fill-opacity="1" fill-rule="nonzero"/><path fill="#111827" d="M 166.804688 168.109375 L 170.027344 169.226562 C 170.363281 169 171.070312 168.175781 171.351562 167.851562 C 171.535156 167.636719 171.6875 167.464844 171.773438 167.378906 C 172.148438 167.011719 172.644531 166.628906 173.171875 166.230469 C 174.523438 165.199219 176.203125 163.917969 176.609375 162.144531 C 177.25 159.347656 176.296875 156.550781 175.707031 155.847656 C 175.539062 156.152344 175.304688 156.699219 175.109375 157.160156 C 174.191406 159.316406 172.8125 162.574219 170.085938 162.761719 L 170.027344 162.765625 L 169.972656 162.757812 C 169.355469 162.6875 168.636719 161.925781 168.71875 158.734375 C 168.304688 158.957031 167.679688 159.476562 167.144531 160.695312 C 166.414062 162.355469 166.617188 164.382812 166.703125 165.25 C 166.730469 165.507812 166.722656 165.867188 166.714844 166.285156 C 166.707031 166.777344 166.6875 167.773438 166.804688 168.109375 Z M 170.1875 169.285156 Z M 170.042969 170.503906 C 169.957031 170.503906 169.867188 170.488281 169.78125 170.457031 L 166.277344 169.238281 C 165.421875 168.941406 165.449219 167.636719 165.472656 166.261719 C 165.480469 165.898438 165.488281 165.558594 165.46875 165.375 C 165.316406 163.875 165.242188 161.933594 166.007812 160.191406 C 166.554688 158.953125 167.277344 158.089844 168.160156 157.628906 C 168.546875 157.429688 169 157.449219 169.375 157.683594 C 169.753906 157.917969 169.972656 158.324219 169.960938 158.765625 C 169.914062 160.546875 170.136719 161.246094 170.253906 161.488281 C 172.070312 161.140625 173.203125 158.472656 173.964844 156.675781 C 174.542969 155.320312 174.859375 154.570312 175.507812 154.484375 C 175.765625 154.453125 176.15625 154.507812 176.566406 154.964844 C 177.535156 156.027344 178.535156 159.292969 177.820312 162.417969 C 177.3125 164.632812 175.433594 166.066406 173.925781 167.214844 C 173.429688 167.59375 172.964844 167.949219 172.640625 168.265625 C 172.570312 168.335938 172.449219 168.480469 172.292969 168.660156 C 171.332031 169.78125 170.664062 170.503906 170.042969 170.503906 " fill-opacity="1" fill-rule="nonzero"/><path fill="#135981" d="M 172.265625 169.15625 L 165.203125 166.5625 C 162.425781 171.519531 159.449219 175.777344 156.132812 178.445312 C 154.179688 180.015625 152.066406 181.292969 149.847656 182.28125 C 148.847656 182.730469 147.683594 182.269531 147.28125 181.25 C 146.179688 178.449219 144.351562 174.03125 141.105469 168.828125 C 138.667969 164.917969 134.621094 161.707031 131.261719 160.042969 C 126.042969 157.453125 119.976562 156.203125 114.195312 157.355469 C 103.035156 159.582031 95.40625 166.085938 95.40625 166.085938 C 89.335938 170.933594 78.125 187.832031 82.121094 195.96875 C 87.023438 205.945312 100.242188 200.109375 100.242188 200.109375 C 100.242188 200.109375 100.511719 204.71875 97.753906 211.085938 C 94.40625 218.824219 97.695312 220.828125 97.695312 220.828125 C 111.296875 235.191406 141.441406 221.632812 138.890625 215.472656 C 136.164062 208.878906 136.117188 200.523438 136.117188 200.523438 C 139.886719 204.25 145.035156 203.664062 145.035156 203.664062 C 145.035156 203.664062 148.007812 203.441406 150.0625 202.59375 C 167.917969 196.671875 172.265625 169.15625 172.265625 169.15625 " fill-opacity="1" fill-rule="nonzero"/><path fill="#111827" d="M 100.410156 195.582031 C 100.152344 195.582031 99.910156 195.421875 99.824219 195.164062 C 96.054688 184.269531 97.753906 175.71875 97.828125 175.359375 C 97.898438 175.023438 98.226562 174.808594 98.5625 174.878906 C 98.898438 174.949219 99.113281 175.273438 99.046875 175.609375 C 99.027344 175.695312 97.347656 184.203125 100.996094 194.757812 C 101.109375 195.082031 100.9375 195.4375 100.613281 195.546875 C 100.546875 195.570312 100.476562 195.582031 100.410156 195.582031 " fill-opacity="1" fill-rule="nonzero"/><path fill="#111827" d="M 135.894531 201.199219 C 135.738281 201.199219 135.582031 201.140625 135.460938 201.023438 C 129.558594 195.261719 125.46875 181.9375 125.300781 181.371094 C 125.199219 181.042969 125.382812 180.695312 125.714844 180.597656 C 126.042969 180.496094 126.390625 180.679688 126.488281 181.011719 C 126.527344 181.144531 130.65625 194.597656 136.328125 200.136719 C 136.574219 200.375 136.578125 200.765625 136.339844 201.015625 C 136.21875 201.136719 136.054688 201.199219 135.894531 201.199219 " fill-opacity="1" fill-rule="nonzero"/><path fill="#ffffff" d="M 120.566406 132.433594 C 122.820312 132.445312 124.898438 133.664062 126.03125 135.613281 C 126.554688 136.515625 127.03125 137.359375 127.128906 137.597656 C 127.347656 138.140625 127.832031 139.960938 129.601562 141.714844 C 129.777344 141.886719 129.800781 142.160156 129.652344 142.355469 L 128.515625 143.804688 C 128.4375 143.90625 128.40625 144.035156 128.425781 144.160156 C 128.5625 144.933594 129.238281 147.746094 129.039062 148.253906 C 128.613281 149.328125 126.042969 149.617188 125.28125 149.683594 C 125.140625 149.691406 125.011719 149.773438 124.941406 149.898438 C 124.695312 150.34375 124.042969 151.621094 123.507812 154.808594 C 122.695312 159.660156 127.320312 160.414062 126.378906 160.890625 C 119.804688 164.207031 107.699219 163.453125 108.402344 162.074219 C 108.980469 160.9375 115.621094 158 116.238281 150.019531 C 116.625 145.039062 109.652344 144.628906 114.675781 135.15625 C 115.84375 132.953125 118.371094 132.425781 120.566406 132.433594 " fill-opacity="1" fill-rule="nonzero"/><path fill="#111827" d="M 109.195312 162.105469 C 111.011719 162.789062 119.703125 163.191406 125.449219 160.640625 C 124.386719 159.890625 122.304688 158.238281 122.894531 154.703125 C 123.28125 152.421875 123.785156 150.707031 124.398438 149.597656 C 124.566406 149.292969 124.878906 149.09375 125.230469 149.0625 C 127.125 148.90625 128.308594 148.410156 128.460938 148.023438 C 128.519531 147.679688 128.140625 145.855469 127.976562 145.078125 C 127.90625 144.734375 127.847656 144.445312 127.816406 144.265625 C 127.761719 143.96875 127.839844 143.660156 128.027344 143.425781 L 129.082031 142.074219 C 127.503906 140.472656 126.925781 138.859375 126.644531 138.078125 C 126.609375 137.980469 126.578125 137.894531 126.550781 137.832031 C 126.527344 137.769531 126.375 137.445312 125.492188 135.925781 C 124.46875 134.164062 122.582031 133.066406 120.5625 133.054688 C 120.542969 133.054688 120.523438 133.054688 120.5 133.054688 C 117.839844 133.054688 116.066406 133.859375 115.226562 135.445312 C 112.214844 141.125 113.652344 143.1875 115.171875 145.371094 C 116.078125 146.675781 117.015625 148.027344 116.859375 150.066406 C 116.363281 156.46875 112.074219 159.828125 110.015625 161.441406 C 109.722656 161.667969 109.40625 161.917969 109.195312 162.105469 Z M 114.136719 163.882812 C 111.105469 163.882812 108.683594 163.484375 108.035156 162.832031 C 107.742188 162.539062 107.671875 162.140625 107.851562 161.792969 C 108.046875 161.40625 108.5 161.050781 109.25 160.464844 C 111.316406 158.84375 115.167969 155.828125 115.621094 149.96875 C 115.742188 148.371094 115.007812 147.308594 114.152344 146.082031 C 112.5625 143.796875 110.761719 141.210938 114.128906 134.863281 C 115.1875 132.867188 117.390625 131.8125 120.503906 131.8125 C 120.527344 131.8125 120.546875 131.8125 120.566406 131.8125 C 123.027344 131.824219 125.324219 133.160156 126.566406 135.300781 C 127.5625 137.015625 127.664062 137.269531 127.703125 137.363281 C 127.734375 137.441406 127.769531 137.539062 127.8125 137.660156 C 128.066406 138.367188 128.597656 139.84375 130.039062 141.273438 C 130.441406 141.667969 130.484375 142.296875 130.140625 142.738281 L 129.050781 144.128906 C 129.085938 144.300781 129.132812 144.542969 129.195312 144.824219 C 129.640625 146.960938 129.804688 147.996094 129.617188 148.480469 C 129.109375 149.765625 126.824219 150.167969 125.4375 150.292969 C 124.785156 151.527344 124.363281 153.472656 124.121094 154.910156 C 123.628906 157.851562 125.3125 159.03125 126.316406 159.734375 C 126.785156 160.0625 127.160156 160.324219 127.125 160.796875 C 127.113281 160.957031 127.039062 161.253906 126.65625 161.445312 C 123.210938 163.183594 118.140625 163.882812 114.136719 163.882812 " fill-opacity="1" fill-rule="nonzero"/><path fill="#111827" d="M 124.398438 140.109375 L 127.027344 136.816406 C 128.375 135.128906 127.90625 132.640625 126.039062 131.550781 C 125.519531 131.25 124.914062 130.9375 124.234375 130.644531 C 117.480469 127.738281 109.742188 132.535156 109.734375 139.886719 C 109.730469 142.894531 111.742188 146.382812 116.019531 149.484375 C 116.019531 149.484375 119.023438 147.113281 118.988281 144.554688 C 118.988281 144.554688 116.804688 141.964844 119.878906 140.65625 C 120.46875 140.40625 121.136719 140.425781 121.710938 140.707031 C 122.636719 141.164062 123.753906 140.914062 124.398438 140.109375 " fill-opacity="1" fill-rule="nonzero"/><path fill="#111827" d="M 120.414062 146.367188 C 119.371094 146.367188 118.144531 145.878906 117.269531 144.226562 C 117.109375 143.925781 117.226562 143.546875 117.527344 143.390625 C 117.832031 143.226562 118.207031 143.34375 118.367188 143.648438 C 119.507812 145.800781 121.171875 145.003906 121.359375 144.90625 C 121.660156 144.746094 122.035156 144.863281 122.199219 145.164062 C 122.355469 145.46875 122.242188 145.84375 121.9375 146.003906 C 121.566406 146.199219 121.019531 146.367188 120.414062 146.367188 " fill-opacity="1" fill-rule="nonzero"/><path fill="#111827" d="M 113.253906 132.90625 C 113.253906 132.90625 110.972656 125.019531 102.652344 126.503906 C 97.460938 127.429688 92.925781 130.921875 90.429688 136.617188 C 85.609375 147.640625 89.976562 158.128906 82.117188 167.699219 C 80.34375 169.859375 81.789062 173.148438 84.585938 173.242188 C 89.863281 173.425781 96.988281 172.148438 101.9375 165.351562 C 105.992188 159.78125 103.445312 134.171875 112.363281 134.554688 L 113.253906 132.90625 " fill-opacity="1" fill-rule="nonzero"/><path fill="#135981" d="M 286.226562 317.917969 C 277.757812 322.820312 266.914062 319.925781 262.011719 311.457031 C 257.109375 302.984375 260 292.144531 268.472656 287.238281 C 276.941406 282.335938 287.785156 285.226562 292.6875 293.699219 C 297.589844 302.171875 294.699219 313.011719 286.226562 317.917969 Z M 309.898438 287.714844 L 306.449219 281.757812 L 299.273438 284 C 298.226562 282.765625 297.09375 281.628906 295.882812 280.605469 L 298.105469 273.433594 L 292.140625 270 L 287.042969 275.53125 C 285.539062 274.992188 283.992188 274.578125 282.414062 274.292969 L 280.753906 266.960938 L 273.867188 266.96875 L 272.222656 274.292969 C 270.664062 274.578125 269.117188 274.996094 267.59375 275.550781 L 262.488281 270.03125 L 256.527344 273.476562 L 258.773438 280.65625 C 257.535156 281.703125 256.398438 282.832031 255.378906 284.046875 L 248.207031 281.820312 L 244.769531 287.785156 L 250.300781 292.882812 C 249.761719 294.390625 249.351562 295.9375 249.066406 297.511719 L 241.730469 299.175781 L 241.738281 306.058594 L 249.066406 307.703125 C 249.351562 309.261719 249.769531 310.808594 250.320312 312.332031 L 244.800781 317.4375 L 248.25 323.394531 L 255.425781 321.152344 C 256.472656 322.390625 257.605469 323.523438 258.816406 324.550781 L 256.59375 331.71875 L 262.558594 335.15625 L 267.65625 329.625 C 269.160156 330.164062 270.707031 330.578125 272.28125 330.859375 L 273.945312 338.195312 L 280.832031 338.1875 L 282.472656 330.859375 C 284.035156 330.578125 285.582031 330.15625 287.105469 329.605469 L 292.210938 335.125 L 298.167969 331.675781 L 295.925781 324.5 C 297.164062 323.453125 298.300781 322.320312 299.320312 321.109375 L 306.492188 323.332031 L 309.929688 317.367188 L 304.394531 312.273438 C 304.933594 310.765625 305.347656 309.21875 305.632812 307.644531 L 312.964844 305.980469 L 312.960938 299.097656 L 305.632812 297.453125 C 305.347656 295.894531 304.929688 294.34375 304.378906 292.824219 L 309.898438 287.714844 " fill-opacity="1" fill-rule="nonzero"/><path fill="#111827" d="M 282.953125 317.042969 L 282.957031 317.042969 Z M 274.050781 284.597656 C 271.078125 284.597656 268.152344 285.378906 265.507812 286.902344 C 257.351562 291.625 254.550781 302.109375 259.273438 310.269531 C 264 318.433594 274.480469 321.230469 282.644531 316.503906 C 290.804688 311.78125 293.601562 301.300781 288.875 293.136719 C 286.589844 289.183594 282.898438 286.359375 278.484375 285.179688 C 277.019531 284.789062 275.527344 284.597656 274.050781 284.597656 Z M 274.105469 320.042969 C 267.769531 320.042969 261.597656 316.761719 258.199219 310.890625 C 253.132812 302.140625 256.136719 290.894531 264.886719 285.828125 C 269.128906 283.375 274.070312 282.71875 278.804688 283.980469 C 283.539062 285.242188 287.5 288.273438 289.953125 292.515625 C 295.019531 301.269531 292.019531 312.511719 283.265625 317.582031 C 280.378906 319.25 277.222656 320.042969 274.105469 320.042969 Z M 264.382812 328.128906 C 264.453125 328.128906 264.523438 328.144531 264.59375 328.167969 C 266.058594 328.695312 267.582031 329.097656 269.121094 329.375 C 269.367188 329.421875 269.558594 329.605469 269.617188 329.851562 L 271.167969 336.699219 L 277.058594 336.695312 L 278.59375 329.851562 C 278.648438 329.609375 278.84375 329.421875 279.089844 329.375 C 280.605469 329.101562 282.128906 328.6875 283.617188 328.148438 C 283.851562 328.0625 284.117188 328.125 284.289062 328.308594 L 289.054688 333.464844 L 294.152344 330.515625 L 292.0625 323.8125 C 291.988281 323.570312 292.0625 323.3125 292.253906 323.152344 C 293.464844 322.128906 294.582031 321.011719 295.570312 319.835938 C 295.734375 319.644531 295.992188 319.570312 296.230469 319.644531 L 302.929688 321.71875 L 305.871094 316.617188 L 300.703125 311.855469 C 300.519531 311.6875 300.457031 311.425781 300.539062 311.191406 C 301.066406 309.722656 301.472656 308.199219 301.75 306.660156 C 301.792969 306.414062 301.980469 306.21875 302.222656 306.164062 L 309.074219 304.613281 L 309.066406 298.722656 L 302.222656 297.183594 C 301.980469 297.132812 301.792969 296.933594 301.75 296.6875 C 301.472656 295.175781 301.0625 293.652344 300.519531 292.160156 C 300.4375 291.925781 300.5 291.664062 300.683594 291.492188 L 305.839844 286.726562 L 302.886719 281.625 L 296.183594 283.71875 C 295.945312 283.796875 295.6875 283.71875 295.523438 283.527344 C 294.5 282.316406 293.386719 281.203125 292.207031 280.210938 C 292.019531 280.046875 291.941406 279.789062 292.015625 279.550781 L 294.09375 272.851562 L 288.988281 269.910156 L 284.230469 275.078125 C 284.058594 275.261719 283.796875 275.328125 283.5625 275.242188 C 282.09375 274.714844 280.566406 274.308594 279.035156 274.035156 C 278.789062 273.988281 278.59375 273.800781 278.539062 273.558594 L 276.984375 266.707031 L 271.09375 266.714844 L 269.558594 273.558594 C 269.503906 273.800781 269.308594 273.988281 269.0625 274.035156 C 267.546875 274.308594 266.023438 274.722656 264.535156 275.261719 C 264.300781 275.34375 264.039062 275.28125 263.867188 275.097656 L 259.097656 269.945312 L 254 272.894531 L 256.09375 279.597656 C 256.167969 279.835938 256.09375 280.097656 255.902344 280.257812 C 254.691406 281.277344 253.574219 282.394531 252.582031 283.570312 C 252.421875 283.765625 252.160156 283.839844 251.921875 283.765625 L 245.222656 281.6875 L 242.285156 286.792969 L 247.449219 291.554688 C 247.632812 291.71875 247.699219 291.984375 247.613281 292.21875 C 247.085938 293.6875 246.683594 295.210938 246.40625 296.746094 C 246.359375 296.992188 246.175781 297.1875 245.933594 297.242188 L 239.082031 298.796875 L 239.085938 304.6875 L 245.929688 306.222656 C 246.175781 306.277344 246.359375 306.472656 246.40625 306.71875 C 246.679688 308.234375 247.09375 309.757812 247.632812 311.246094 C 247.71875 311.480469 247.65625 311.746094 247.46875 311.914062 L 242.316406 316.683594 L 245.265625 321.78125 L 251.96875 319.6875 C 252.207031 319.613281 252.46875 319.6875 252.628906 319.878906 C 253.65625 321.089844 254.769531 322.210938 255.945312 323.199219 C 256.136719 323.359375 256.210938 323.621094 256.136719 323.859375 L 254.058594 330.558594 L 259.167969 333.496094 L 263.925781 328.332031 C 264.046875 328.203125 264.210938 328.128906 264.382812 328.128906 Z M 270.671875 337.941406 C 270.382812 337.941406 270.132812 337.742188 270.066406 337.460938 L 268.492188 330.523438 C 267.164062 330.261719 265.84375 329.914062 264.5625 329.472656 L 259.742188 334.703125 C 259.546875 334.917969 259.226562 334.96875 258.976562 334.820312 L 253.011719 331.386719 C 252.757812 331.242188 252.640625 330.941406 252.726562 330.664062 L 254.832031 323.878906 C 253.816406 323 252.851562 322.035156 251.949219 320.996094 L 245.164062 323.117188 C 244.886719 323.203125 244.585938 323.085938 244.441406 322.835938 L 240.992188 316.875 C 240.847656 316.625 240.894531 316.308594 241.109375 316.109375 L 246.328125 311.28125 C 245.875 309.984375 245.519531 308.664062 245.261719 307.34375 L 238.332031 305.789062 C 238.050781 305.726562 237.847656 305.476562 237.847656 305.1875 L 237.839844 298.300781 C 237.839844 298.011719 238.039062 297.757812 238.324219 297.695312 L 245.257812 296.121094 C 245.515625 294.789062 245.867188 293.472656 246.308594 292.191406 L 241.074219 287.371094 C 240.863281 287.175781 240.816406 286.855469 240.960938 286.601562 L 244.394531 280.640625 C 244.539062 280.386719 244.839844 280.269531 245.117188 280.355469 L 251.902344 282.457031 C 252.78125 281.445312 253.75 280.476562 254.785156 279.578125 L 252.664062 272.792969 C 252.578125 272.511719 252.695312 272.214844 252.945312 272.066406 L 258.90625 268.621094 C 259.15625 268.472656 259.472656 268.523438 259.671875 268.734375 L 264.5 273.957031 C 265.796875 273.503906 267.117188 273.148438 268.4375 272.886719 L 269.992188 265.957031 C 270.054688 265.675781 270.304688 265.472656 270.59375 265.472656 L 277.480469 265.46875 C 277.769531 265.46875 278.023438 265.667969 278.085938 265.949219 L 279.65625 272.886719 C 280.988281 273.144531 282.308594 273.496094 283.59375 273.9375 L 288.410156 268.703125 C 288.605469 268.488281 288.925781 268.441406 289.175781 268.585938 L 295.144531 272.023438 C 295.394531 272.167969 295.511719 272.46875 295.425781 272.746094 L 293.324219 279.527344 C 294.335938 280.40625 295.304688 281.375 296.207031 282.414062 L 302.988281 280.292969 C 303.269531 280.207031 303.566406 280.324219 303.710938 280.574219 L 307.160156 286.53125 C 307.308594 286.785156 307.257812 287.101562 307.046875 287.300781 L 301.828125 292.128906 C 302.277344 293.425781 302.636719 294.746094 302.894531 296.0625 L 309.820312 297.617188 C 310.105469 297.679688 310.308594 297.933594 310.308594 298.222656 L 310.316406 305.109375 C 310.316406 305.398438 310.117188 305.648438 309.832031 305.714844 L 302.894531 307.285156 C 302.636719 308.617188 302.285156 309.9375 301.847656 311.21875 L 307.074219 316.039062 C 307.289062 316.234375 307.339844 316.554688 307.195312 316.804688 L 303.757812 322.769531 C 303.613281 323.023438 303.316406 323.140625 303.035156 323.054688 L 296.253906 320.949219 C 295.375 321.964844 294.40625 322.929688 293.371094 323.832031 L 295.488281 330.617188 C 295.574219 330.894531 295.457031 331.195312 295.207031 331.339844 L 289.25 334.789062 C 288.996094 334.9375 288.679688 334.886719 288.480469 334.671875 L 283.652344 329.453125 C 282.355469 329.90625 281.035156 330.261719 279.71875 330.519531 L 278.164062 337.449219 C 278.101562 337.734375 277.847656 337.933594 277.558594 337.933594 L 270.675781 337.941406 C 270.671875 337.941406 270.671875 337.941406 270.671875 337.941406 " fill-opacity="1" fill-rule="nonzero"/><path fill="#135981" d="M 211.605469 335.859375 C 205.546875 339.367188 197.792969 337.296875 194.285156 331.238281 C 190.777344 325.179688 192.847656 317.425781 198.90625 313.917969 C 204.964844 310.410156 212.722656 312.480469 216.226562 318.539062 C 219.734375 324.601562 217.664062 332.355469 211.605469 335.859375 Z M 228.535156 314.257812 L 226.070312 310 L 220.9375 311.601562 C 220.191406 310.71875 219.378906 309.90625 218.511719 309.175781 L 220.101562 304.042969 L 215.835938 301.585938 L 212.191406 305.542969 C 211.113281 305.15625 210.007812 304.863281 208.878906 304.660156 L 207.691406 299.414062 L 202.769531 299.417969 L 201.589844 304.660156 C 200.476562 304.863281 199.367188 305.164062 198.277344 305.558594 L 194.625 301.609375 L 190.367188 304.078125 L 191.96875 309.210938 C 191.085938 309.957031 190.273438 310.769531 189.542969 311.632812 L 184.410156 310.042969 L 181.953125 314.3125 L 185.910156 317.957031 C 185.523438 319.03125 185.230469 320.140625 185.027344 321.265625 L 179.78125 322.453125 L 179.785156 327.378906 L 185.027344 328.554688 C 185.230469 329.671875 185.53125 330.777344 185.925781 331.867188 L 181.976562 335.519531 L 184.441406 339.78125 L 189.578125 338.175781 C 190.324219 339.0625 191.132812 339.871094 192 340.601562 L 190.410156 345.734375 L 194.675781 348.191406 L 198.324219 344.234375 C 199.398438 344.621094 200.507812 344.917969 201.632812 345.117188 L 202.820312 350.363281 L 207.746094 350.359375 L 208.921875 345.117188 C 210.039062 344.917969 211.144531 344.617188 212.234375 344.222656 L 215.886719 348.167969 L 220.148438 345.703125 L 218.542969 340.570312 C 219.429688 339.820312 220.238281 339.011719 220.972656 338.144531 L 226.101562 339.734375 L 228.558594 335.46875 L 224.601562 331.824219 C 224.988281 330.746094 225.285156 329.640625 225.484375 328.511719 L 230.730469 327.324219 L 230.726562 322.402344 L 225.484375 321.222656 C 225.285156 320.105469 224.980469 319 224.585938 317.914062 L 228.535156 314.257812 " fill-opacity="1" fill-rule="nonzero"/><path fill="#111827" d="M 202.894531 312.210938 C 200.847656 312.210938 198.773438 312.734375 196.875 313.832031 C 194.089844 315.445312 192.097656 318.046875 191.269531 321.15625 C 190.4375 324.269531 190.871094 327.515625 192.484375 330.304688 C 194.09375 333.089844 196.699219 335.082031 199.808594 335.914062 C 202.917969 336.742188 206.167969 336.3125 208.953125 334.699219 C 211.738281 333.085938 213.734375 330.484375 214.5625 327.375 C 215.394531 324.261719 214.960938 321.011719 213.351562 318.226562 C 211.117188 314.371094 207.0625 312.210938 202.894531 312.210938 Z M 202.9375 337.566406 C 201.785156 337.566406 200.632812 337.417969 199.488281 337.113281 C 196.054688 336.199219 193.1875 334 191.40625 330.925781 C 189.628906 327.851562 189.152344 324.269531 190.070312 320.839844 C 190.984375 317.40625 193.179688 314.535156 196.253906 312.757812 C 202.601562 309.082031 210.75 311.257812 214.425781 317.605469 C 218.097656 323.949219 215.921875 332.101562 209.578125 335.773438 C 207.523438 336.960938 205.246094 337.566406 202.9375 337.566406 Z M 195.980469 342.992188 C 196.050781 342.992188 196.121094 343 196.191406 343.027344 C 197.234375 343.398438 198.3125 343.6875 199.402344 343.882812 C 199.648438 343.925781 199.839844 344.113281 199.898438 344.359375 L 200.976562 349.117188 L 204.910156 349.113281 L 205.976562 344.359375 C 206.03125 344.113281 206.226562 343.925781 206.472656 343.882812 C 207.542969 343.6875 208.625 343.394531 209.683594 343.011719 C 209.917969 342.925781 210.179688 342.992188 210.347656 343.175781 L 213.664062 346.757812 L 217.066406 344.789062 L 215.609375 340.128906 C 215.535156 339.890625 215.609375 339.632812 215.800781 339.472656 C 216.660156 338.746094 217.453125 337.953125 218.15625 337.121094 C 218.316406 336.929688 218.578125 336.851562 218.816406 336.929688 L 223.46875 338.371094 L 225.433594 334.964844 L 221.84375 331.65625 C 221.65625 331.488281 221.59375 331.222656 221.675781 330.988281 C 222.050781 329.949219 222.339844 328.867188 222.535156 327.777344 C 222.578125 327.535156 222.765625 327.339844 223.007812 327.28125 L 227.769531 326.203125 L 227.765625 322.273438 L 223.007812 321.203125 C 222.765625 321.148438 222.578125 320.957031 222.535156 320.710938 C 222.339844 319.636719 222.046875 318.558594 221.664062 317.5 C 221.578125 317.265625 221.644531 317 221.828125 316.832031 L 225.40625 313.519531 L 223.441406 310.117188 L 218.78125 311.570312 C 218.542969 311.644531 218.285156 311.570312 218.121094 311.378906 C 217.394531 310.519531 216.605469 309.726562 215.769531 309.027344 C 215.582031 308.863281 215.503906 308.605469 215.578125 308.367188 L 217.019531 303.710938 L 213.617188 301.75 L 210.308594 305.339844 C 210.140625 305.523438 209.875 305.585938 209.640625 305.503906 C 208.597656 305.128906 207.519531 304.84375 206.429688 304.648438 C 206.183594 304.601562 205.988281 304.417969 205.933594 304.171875 L 204.855469 299.410156 L 200.921875 299.414062 L 199.855469 304.171875 C 199.800781 304.414062 199.605469 304.601562 199.359375 304.648438 C 198.285156 304.839844 197.207031 305.132812 196.148438 305.519531 C 195.917969 305.601562 195.652344 305.539062 195.484375 305.355469 L 192.167969 301.769531 L 188.765625 303.742188 L 190.222656 308.398438 C 190.296875 308.636719 190.222656 308.898438 190.03125 309.058594 C 189.171875 309.785156 188.382812 310.574219 187.675781 311.410156 C 187.515625 311.601562 187.253906 311.675781 187.015625 311.601562 L 182.363281 310.15625 L 180.398438 313.566406 L 183.988281 316.875 C 184.175781 317.042969 184.238281 317.304688 184.15625 317.539062 C 183.78125 318.582031 183.496094 319.664062 183.296875 320.75 C 183.253906 320.996094 183.066406 321.191406 182.824219 321.246094 L 178.0625 322.328125 L 178.066406 326.257812 L 182.820312 327.324219 C 183.066406 327.378906 183.253906 327.574219 183.296875 327.820312 C 183.492188 328.894531 183.785156 329.972656 184.167969 331.03125 C 184.253906 331.265625 184.1875 331.527344 184.003906 331.699219 L 180.421875 335.011719 L 182.390625 338.414062 L 187.050781 336.960938 C 187.289062 336.886719 187.550781 336.960938 187.710938 337.152344 C 188.4375 338.011719 189.226562 338.800781 190.0625 339.503906 C 190.25 339.667969 190.328125 339.925781 190.253906 340.164062 L 188.8125 344.820312 L 192.214844 346.78125 L 195.523438 343.191406 C 195.644531 343.058594 195.8125 342.992188 195.980469 342.992188 Z M 200.480469 350.363281 C 200.191406 350.363281 199.9375 350.160156 199.875 349.878906 L 198.777344 345.027344 C 197.890625 344.851562 197.015625 344.617188 196.164062 344.332031 L 192.792969 347.988281 C 192.597656 348.203125 192.277344 348.25 192.027344 348.105469 L 187.757812 345.648438 C 187.507812 345.503906 187.390625 345.203125 187.476562 344.925781 L 188.945312 340.183594 C 188.273438 339.59375 187.632812 338.953125 187.03125 338.265625 L 182.289062 339.75 C 182.011719 339.835938 181.710938 339.71875 181.566406 339.46875 L 179.097656 335.207031 C 178.953125 334.953125 179 334.636719 179.214844 334.4375 L 182.863281 331.0625 C 182.566406 330.199219 182.328125 329.324219 182.152344 328.449219 L 177.308594 327.359375 C 177.027344 327.296875 176.824219 327.042969 176.824219 326.753906 L 176.820312 321.832031 C 176.820312 321.539062 177.019531 321.289062 177.300781 321.222656 L 182.152344 320.125 C 182.328125 319.242188 182.5625 318.367188 182.851562 317.511719 L 179.191406 314.144531 C 178.980469 313.945312 178.929688 313.625 179.074219 313.375 L 181.53125 309.109375 C 181.679688 308.855469 181.976562 308.738281 182.253906 308.824219 L 186.996094 310.296875 C 187.585938 309.625 188.226562 308.984375 188.914062 308.382812 L 187.433594 303.636719 C 187.347656 303.359375 187.460938 303.058594 187.714844 302.914062 L 191.976562 300.449219 C 192.226562 300.304688 192.542969 300.351562 192.742188 300.5625 L 196.117188 304.210938 C 196.980469 303.917969 197.855469 303.679688 198.734375 303.503906 L 199.820312 298.660156 C 199.886719 298.375 200.136719 298.175781 200.425781 298.171875 L 205.351562 298.167969 C 205.640625 298.167969 205.894531 298.367188 205.957031 298.652344 L 207.054688 303.5 C 207.941406 303.679688 208.816406 303.914062 209.667969 304.199219 L 213.039062 300.542969 C 213.234375 300.328125 213.554688 300.28125 213.804688 300.425781 L 218.074219 302.878906 C 218.324219 303.027344 218.441406 303.324219 218.355469 303.605469 L 216.882812 308.347656 C 217.554688 308.9375 218.195312 309.578125 218.800781 310.261719 L 223.542969 308.78125 C 223.820312 308.695312 224.121094 308.8125 224.265625 309.0625 L 226.730469 313.324219 C 226.878906 313.578125 226.828125 313.894531 226.617188 314.09375 L 222.96875 317.46875 C 223.265625 318.332031 223.5 319.207031 223.679688 320.082031 L 228.523438 321.171875 C 228.804688 321.234375 229.007812 321.484375 229.007812 321.777344 L 229.011719 326.699219 C 229.011719 326.992188 228.8125 327.242188 228.53125 327.304688 L 223.679688 328.402344 C 223.503906 329.289062 223.269531 330.164062 222.980469 331.019531 L 226.640625 334.386719 C 226.851562 334.585938 226.902344 334.902344 226.757812 335.152344 L 224.296875 339.421875 C 224.152344 339.675781 223.855469 339.792969 223.578125 339.703125 L 218.835938 338.234375 C 218.246094 338.902344 217.605469 339.546875 216.917969 340.148438 L 218.398438 344.890625 C 218.484375 345.171875 218.371094 345.472656 218.117188 345.617188 L 213.855469 348.082031 C 213.605469 348.226562 213.285156 348.179688 213.089844 347.96875 L 209.714844 344.316406 C 208.851562 344.613281 207.972656 344.847656 207.097656 345.027344 L 206.011719 349.871094 C 205.945312 350.15625 205.695312 350.355469 205.40625 350.355469 L 200.480469 350.363281 " fill-opacity="1" fill-rule="nonzero"/><path fill="#ffffff" d="M 123.101562 40.933594 C 123.101562 37.667969 120.457031 35.023438 117.195312 35.023438 C 113.933594 35.023438 111.289062 37.667969 111.289062 40.933594 C 111.289062 44.195312 113.933594 46.839844 117.195312 46.839844 C 120.457031 46.839844 123.101562 44.195312 123.101562 40.933594 " fill-opacity="1" fill-rule="nonzero"/><path fill="#38b6ff" d="M 120.117188 38.84375 L 119.285156 38.007812 L 117.195312 40.097656 L 115.105469 38.007812 L 114.273438 38.84375 L 116.359375 40.933594 L 114.273438 43.023438 L 115.105469 43.859375 L 117.195312 41.769531 L 119.285156 43.859375 L 120.117188 43.023438 L 118.03125 40.933594 L 120.117188 38.84375 " fill-opacity="1" fill-rule="nonzero"/><path fill="#ffffff" d="M 143.660156 23.90625 C 143.660156 18.378906 139.179688 13.898438 133.652344 13.898438 C 128.128906 13.898438 123.648438 18.378906 123.648438 23.90625 C 123.648438 29.429688 128.128906 33.910156 133.652344 33.910156 C 139.179688 33.910156 143.660156 29.429688 143.660156 23.90625 " fill-opacity="1" fill-rule="nonzero"/><path fill="#38b6ff" d="M 138.605469 20.367188 L 137.191406 18.953125 L 133.652344 22.488281 L 130.117188 18.953125 L 128.699219 20.367188 L 132.238281 23.90625 L 128.699219 27.441406 L 130.117188 28.859375 L 133.652344 25.320312 L 137.191406 28.859375 L 138.605469 27.441406 L 135.070312 23.90625 L 138.605469 20.367188 " fill-opacity="1" fill-rule="nonzero"/><path fill="#ffffff" d="M 158.097656 36.277344 C 158.097656 32.785156 155.265625 29.949219 151.769531 29.949219 C 148.273438 29.949219 145.441406 32.785156 145.441406 36.277344 C 145.441406 39.773438 148.273438 42.605469 151.769531 42.605469 C 155.265625 42.605469 158.097656 39.773438 158.097656 36.277344 " fill-opacity="1" fill-rule="nonzero"/><path fill="#38b6ff" d="M 154.902344 34.042969 L 154.007812 33.144531 L 151.769531 35.382812 L 149.53125 33.144531 L 148.636719 34.042969 L 150.875 36.277344 L 148.636719 38.515625 L 149.53125 39.410156 L 151.769531 37.175781 L 154.007812 39.410156 L 154.902344 38.515625 L 152.664062 36.277344 L 154.902344 34.042969 " fill-opacity="1" fill-rule="nonzero"/><path fill="#38b6ff" d="M 229.929688 46.644531 C 224.246094 46.644531 218.964844 44.078125 215.449219 39.605469 C 214.84375 38.839844 214.976562 37.734375 215.742188 37.132812 C 216.507812 36.53125 217.613281 36.664062 218.214844 37.429688 C 221.0625 41.042969 225.332031 43.121094 229.929688 43.121094 C 236.804688 43.121094 242.753906 38.464844 244.394531 31.800781 C 244.628906 30.855469 245.582031 30.277344 246.527344 30.511719 C 247.46875 30.746094 248.050781 31.699219 247.816406 32.644531 C 246.847656 36.570312 244.558594 40.128906 241.375 42.65625 C 238.089844 45.265625 234.132812 46.644531 229.929688 46.644531 " fill-opacity="1" fill-rule="nonzero"/><path fill="#38b6ff" d="M 251.757812 34.902344 L 246.585938 28.222656 L 239.90625 33.390625 Z M 251.757812 34.902344 " fill-opacity="1" fill-rule="nonzero"/><path fill="#38b6ff" d="M 213.753906 25.988281 C 213.617188 25.988281 213.476562 25.96875 213.332031 25.933594 C 212.390625 25.703125 211.8125 24.746094 212.042969 23.804688 C 213.011719 19.875 215.300781 16.320312 218.484375 13.789062 C 221.769531 11.179688 225.726562 9.804688 229.929688 9.804688 C 235.984375 9.804688 241.652344 12.78125 245.097656 17.765625 C 245.648438 18.566406 245.449219 19.664062 244.648438 20.21875 C 243.847656 20.769531 242.75 20.570312 242.199219 19.769531 C 239.410156 15.734375 234.824219 13.328125 229.929688 13.328125 C 223.054688 13.328125 217.109375 17.980469 215.464844 24.644531 C 215.265625 25.449219 214.546875 25.988281 213.753906 25.988281 " fill-opacity="1" fill-rule="nonzero"/><path fill="#38b6ff" d="M 208.101562 21.542969 L 213.269531 28.222656 L 219.953125 23.054688 Z M 208.101562 21.542969 " fill-opacity="1" fill-rule="nonzero"/><path fill="#ffffff" d="M 354.453125 203.238281 C 354.433594 203.238281 354.414062 203.238281 354.394531 203.238281 C 354.050781 203.203125 353.800781 202.902344 353.832031 202.558594 C 355.582031 184.320312 345.199219 163.734375 345.097656 163.53125 C 344.941406 163.222656 345.0625 162.851562 345.367188 162.695312 C 345.671875 162.539062 346.046875 162.660156 346.203125 162.964844 C 346.308594 163.171875 356.851562 184.074219 355.070312 202.675781 C 355.039062 203 354.769531 203.238281 354.453125 203.238281 " fill-opacity="1" fill-rule="nonzero"/><path fill="#ffffff" d="M 74.929688 40.03125 C 74.773438 40.03125 74.621094 39.976562 74.5 39.859375 C 74.253906 39.625 74.242188 39.230469 74.476562 38.984375 C 74.628906 38.824219 89.945312 22.796875 108.195312 17.300781 C 108.523438 17.203125 108.871094 17.386719 108.96875 17.714844 C 109.066406 18.046875 108.882812 18.390625 108.554688 18.492188 C 90.617188 23.894531 75.53125 39.679688 75.378906 39.835938 C 75.257812 39.964844 75.09375 40.03125 74.929688 40.03125 " fill-opacity="1" fill-rule="nonzero"/><path fill="#caddff" d="M 337.433594 280.039062 C 337.289062 280.039062 337.140625 279.988281 337.023438 279.882812 C 336.765625 279.65625 336.742188 279.261719 336.972656 279.003906 C 354.84375 258.9375 358.414062 234.929688 358.449219 234.691406 C 358.496094 234.351562 358.8125 234.117188 359.148438 234.164062 C 359.488281 234.210938 359.726562 234.527344 359.675781 234.867188 C 359.644531 235.109375 356.019531 259.488281 337.902344 279.832031 C 337.777344 279.96875 337.605469 280.039062 337.433594 280.039062 " fill-opacity="1" fill-rule="nonzero"/><path fill="#38b6ff" d="M 69.078125 234.117188 C 67.914062 247.40625 56.199219 258.183594 42.910156 258.183594 C 29.617188 258.183594 19.785156 247.40625 20.949219 234.117188 C 22.113281 220.828125 33.828125 210.050781 47.117188 210.050781 C 60.410156 210.050781 70.242188 220.828125 69.078125 234.117188 " fill-opacity="1" fill-rule="nonzero"/><path fill="#111827" d="M 47.117188 210.671875 C 34.164062 210.671875 22.703125 221.214844 21.566406 234.171875 C 21.019531 240.441406 22.945312 246.328125 26.996094 250.746094 C 31.023438 255.140625 36.671875 257.5625 42.910156 257.5625 C 55.863281 257.5625 67.324219 247.019531 68.460938 234.0625 C 69.007812 227.792969 67.082031 221.90625 63.03125 217.488281 C 59.003906 213.09375 53.355469 210.671875 47.117188 210.671875 Z M 42.910156 258.800781 C 36.320312 258.800781 30.347656 256.238281 26.082031 251.585938 C 21.792969 246.90625 19.75 240.683594 20.332031 234.0625 C 21.519531 220.480469 33.535156 209.429688 47.117188 209.429688 C 53.707031 209.429688 59.683594 211.992188 63.945312 216.648438 C 68.234375 221.328125 70.277344 227.550781 69.695312 234.171875 C 68.507812 247.753906 56.492188 258.800781 42.910156 258.800781 " fill-opacity="1" fill-rule="nonzero"/><path fill="#ffffff" d="M 29.652344 234.078125 L 37.574219 237.191406 L 37.277344 240.566406 L 26.105469 235.382812 L 26.339844 232.703125 L 38.417969 227.535156 L 38.125 230.910156 L 29.652344 234.078125 " fill-opacity="1" fill-rule="nonzero"/><path fill="#ffffff" d="M 41.566406 244.578125 L 38.914062 244.578125 L 48.796875 222.617188 L 51.449219 222.617188 L 41.566406 244.578125 " fill-opacity="1" fill-rule="nonzero"/><path fill="#ffffff" d="M 61.429688 234.007812 L 53.117188 230.855469 L 53.410156 227.535156 L 64.960938 232.703125 L 64.726562 235.382812 L 52.269531 240.550781 L 52.5625 237.230469 L 61.429688 234.007812 " fill-opacity="1" fill-rule="nonzero"/></svg>