<svg xmlns="http://www.w3.org/2000/svg" xmlns:xlink="http://www.w3.org/1999/xlink" width="500" zoomAndPan="magnify" viewBox="0 0 375 374.999991" height="500" preserveAspectRatio="xMidYMid meet" version="1.0"><defs><clipPath id="7da7ec1ccb"><path d="M 0 6.476562 L 375 6.476562 L 375 368.726562 L 0 368.726562 Z M 0 6.476562 " clip-rule="nonzero"/></clipPath><clipPath id="84066eb8f0"><path d="M 86.484375 255.1875 L 104.871094 255.1875 L 104.871094 258.9375 L 86.484375 258.9375 Z M 86.484375 255.1875 " clip-rule="nonzero"/></clipPath></defs><path fill="#135981" d="M 25.875 32.335938 L 38.804688 32.335938 L 38.804688 45.265625 L 25.875 45.265625 Z M 25.875 32.335938 " fill-opacity="1" fill-rule="nonzero"/><path fill="#135981" d="M 51.734375 32.335938 L 64.664062 32.335938 L 64.664062 45.265625 L 51.734375 45.265625 Z M 51.734375 32.335938 " fill-opacity="1" fill-rule="nonzero"/><path fill="#135981" d="M 77.59375 32.335938 L 90.523438 32.335938 L 90.523438 45.265625 L 77.59375 45.265625 Z M 77.59375 32.335938 " fill-opacity="1" fill-rule="nonzero"/><g clip-path="url(#7da7ec1ccb)"><path fill="#135981" d="M 349.125 6.476562 L 25.875 6.476562 C 25.027344 6.476562 24.183594 6.519531 23.339844 6.605469 C 22.5 6.6875 21.664062 6.8125 20.832031 6.980469 C 20.003906 7.144531 19.183594 7.351562 18.371094 7.597656 C 17.5625 7.84375 16.765625 8.128906 15.984375 8.453125 C 15.203125 8.777344 14.4375 9.140625 13.691406 9.539062 C 12.945312 9.9375 12.21875 10.375 11.515625 10.84375 C 10.8125 11.316406 10.132812 11.820312 9.476562 12.355469 C 8.824219 12.894531 8.195312 13.460938 7.597656 14.058594 C 7 14.660156 6.429688 15.285156 5.894531 15.941406 C 5.355469 16.59375 4.851562 17.273438 4.382812 17.976562 C 3.910156 18.679688 3.476562 19.40625 3.078125 20.152344 C 2.679688 20.898438 2.316406 21.664062 1.992188 22.445312 C 1.667969 23.226562 1.382812 24.023438 1.136719 24.832031 C 0.890625 25.644531 0.683594 26.464844 0.515625 27.292969 C 0.351562 28.125 0.226562 28.960938 0.144531 29.804688 C 0.0585938 30.644531 0.015625 31.492188 0.015625 32.335938 L 0.015625 290.9375 C 0.015625 291.78125 0.0585938 292.628906 0.144531 293.46875 C 0.226562 294.3125 0.351562 295.148438 0.515625 295.980469 C 0.683594 296.808594 0.890625 297.628906 1.136719 298.441406 C 1.382812 299.25 1.667969 300.046875 1.992188 300.828125 C 2.316406 301.609375 2.679688 302.375 3.078125 303.121094 C 3.476562 303.867188 3.910156 304.59375 4.382812 305.296875 C 4.851562 306 5.355469 306.679688 5.894531 307.335938 C 6.429688 307.988281 7 308.613281 7.597656 309.214844 C 8.195312 309.8125 8.824219 310.378906 9.476562 310.917969 C 10.132812 311.453125 10.8125 311.957031 11.515625 312.429688 C 12.21875 312.898438 12.945312 313.335938 13.691406 313.734375 C 14.4375 314.132812 15.203125 314.496094 15.984375 314.820312 C 16.765625 315.144531 17.5625 315.429688 18.371094 315.675781 C 19.183594 315.921875 20.003906 316.128906 20.832031 316.292969 C 21.664062 316.460938 22.5 316.585938 23.339844 316.667969 C 24.183594 316.753906 25.027344 316.796875 25.875 316.796875 L 139.867188 316.796875 L 136.339844 355.585938 L 116.386719 355.585938 L 116.386719 368.515625 L 258.613281 368.515625 L 258.613281 355.585938 L 238.660156 355.585938 L 235.132812 316.796875 L 349.125 316.796875 C 349.972656 316.796875 350.816406 316.753906 351.660156 316.667969 C 352.5 316.585938 353.335938 316.460938 354.167969 316.292969 C 354.996094 316.128906 355.816406 315.921875 356.628906 315.675781 C 357.4375 315.429688 358.234375 315.144531 359.015625 314.820312 C 359.796875 314.496094 360.5625 314.132812 361.308594 313.734375 C 362.054688 313.335938 362.78125 312.898438 363.484375 312.429688 C 364.1875 311.957031 364.867188 311.453125 365.523438 310.917969 C 366.175781 310.378906 366.804688 309.8125 367.402344 309.214844 C 368 308.613281 368.570312 307.988281 369.105469 307.335938 C 369.644531 306.679688 370.148438 306 370.617188 305.296875 C 371.089844 304.59375 371.523438 303.867188 371.921875 303.121094 C 372.320312 302.375 372.683594 301.609375 373.007812 300.828125 C 373.332031 300.046875 373.617188 299.25 373.863281 298.441406 C 374.109375 297.628906 374.316406 296.808594 374.484375 295.980469 C 374.648438 295.148438 374.773438 294.3125 374.855469 293.46875 C 374.941406 292.628906 374.984375 291.78125 374.984375 290.9375 L 374.984375 32.335938 C 374.984375 31.492188 374.941406 30.644531 374.855469 29.804688 C 374.773438 28.960938 374.648438 28.125 374.484375 27.292969 C 374.316406 26.464844 374.109375 25.644531 373.863281 24.832031 C 373.617188 24.023438 373.332031 23.226562 373.007812 22.445312 C 372.683594 21.664062 372.320312 20.898438 371.921875 20.152344 C 371.523438 19.40625 371.089844 18.679688 370.617188 17.976562 C 370.148438 17.273438 369.644531 16.59375 369.105469 15.941406 C 368.570312 15.285156 368 14.660156 367.402344 14.058594 C 366.804688 13.460938 366.175781 12.894531 365.523438 12.355469 C 364.867188 11.820312 364.1875 11.316406 363.484375 10.84375 C 362.78125 10.375 362.054688 9.9375 361.308594 9.539062 C 360.5625 9.140625 359.796875 8.777344 359.015625 8.453125 C 358.234375 8.128906 357.4375 7.84375 356.628906 7.597656 C 355.816406 7.351562 354.996094 7.144531 354.167969 6.980469 C 353.335938 6.8125 352.5 6.6875 351.660156 6.605469 C 350.816406 6.519531 349.972656 6.476562 349.125 6.476562 Z M 25.875 19.40625 L 349.125 19.40625 C 349.972656 19.410156 350.8125 19.492188 351.644531 19.660156 C 352.476562 19.824219 353.285156 20.070312 354.070312 20.394531 C 354.855469 20.722656 355.597656 21.121094 356.304688 21.589844 C 357.011719 22.0625 357.664062 22.597656 358.261719 23.199219 C 358.863281 23.800781 359.398438 24.453125 359.871094 25.15625 C 360.34375 25.863281 360.742188 26.609375 361.066406 27.390625 C 361.390625 28.175781 361.636719 28.984375 361.804688 29.816406 C 361.96875 30.648438 362.054688 31.488281 362.054688 32.335938 L 362.054688 58.195312 L 12.945312 58.195312 L 12.945312 32.335938 C 12.945312 31.488281 13.03125 30.648438 13.195312 29.816406 C 13.363281 28.984375 13.609375 28.175781 13.933594 27.390625 C 14.257812 26.609375 14.65625 25.863281 15.128906 25.15625 C 15.601562 24.453125 16.136719 23.800781 16.738281 23.199219 C 17.335938 22.597656 17.988281 22.0625 18.695312 21.589844 C 19.402344 21.121094 20.144531 20.722656 20.929688 20.394531 C 21.714844 20.070312 22.523438 19.824219 23.355469 19.660156 C 24.1875 19.492188 25.027344 19.410156 25.875 19.40625 Z M 362.054688 71.128906 L 362.054688 252.148438 L 12.945312 252.148438 L 12.945312 71.128906 Z M 225.675781 355.585938 L 149.324219 355.585938 L 152.851562 316.796875 L 222.148438 316.796875 Z M 349.125 303.867188 L 25.875 303.867188 C 25.027344 303.867188 24.1875 303.78125 23.355469 303.617188 C 22.523438 303.449219 21.714844 303.203125 20.929688 302.878906 C 20.144531 302.554688 19.402344 302.15625 18.695312 301.683594 C 17.988281 301.210938 17.335938 300.675781 16.738281 300.074219 C 16.136719 299.476562 15.601562 298.820312 15.128906 298.117188 C 14.65625 297.410156 14.257812 296.667969 13.933594 295.882812 C 13.609375 295.097656 13.363281 294.289062 13.195312 293.457031 C 13.03125 292.625 12.945312 291.785156 12.945312 290.9375 L 12.945312 265.078125 L 362.054688 265.078125 L 362.054688 290.9375 C 362.054688 291.785156 361.96875 292.625 361.804688 293.457031 C 361.636719 294.289062 361.390625 295.097656 361.066406 295.882812 C 360.742188 296.667969 360.34375 297.410156 359.871094 298.117188 C 359.398438 298.820312 358.863281 299.476562 358.261719 300.074219 C 357.664062 300.675781 357.011719 301.210938 356.304688 301.683594 C 355.597656 302.15625 354.855469 302.554688 354.070312 302.878906 C 353.285156 303.203125 352.476562 303.449219 351.644531 303.617188 C 350.8125 303.78125 349.972656 303.867188 349.125 303.867188 Z M 349.125 303.867188 " fill-opacity="1" fill-rule="nonzero"/></g><path fill="#135981" d="M 181.035156 278.007812 L 193.964844 278.007812 L 193.964844 290.9375 L 181.035156 290.9375 Z M 181.035156 278.007812 " fill-opacity="1" fill-rule="nonzero"/><path fill="#135981" d="M 32.339844 142.242188 L 45.269531 142.242188 L 45.269531 155.171875 L 32.339844 155.171875 Z M 32.339844 142.242188 " fill-opacity="1" fill-rule="nonzero"/><path fill="#135981" d="M 58.199219 142.242188 L 155.175781 142.242188 L 155.175781 155.171875 L 58.199219 155.171875 Z M 58.199219 142.242188 " fill-opacity="1" fill-rule="nonzero"/><path fill="#135981" d="M 32.339844 168.101562 L 45.269531 168.101562 L 45.269531 181.03125 L 32.339844 181.03125 Z M 32.339844 168.101562 " fill-opacity="1" fill-rule="nonzero"/><path fill="#135981" d="M 58.199219 168.101562 L 226.289062 168.101562 L 226.289062 181.03125 L 58.199219 181.03125 Z M 58.199219 168.101562 " fill-opacity="1" fill-rule="nonzero"/><path fill="#135981" d="M 32.339844 193.960938 L 45.269531 193.960938 L 45.269531 206.890625 L 32.339844 206.890625 Z M 32.339844 193.960938 " fill-opacity="1" fill-rule="nonzero"/><path fill="#135981" d="M 58.199219 193.960938 L 181.035156 193.960938 L 181.035156 206.890625 L 58.199219 206.890625 Z M 58.199219 193.960938 " fill-opacity="1" fill-rule="nonzero"/><path fill="#135981" d="M 32.339844 219.820312 L 45.269531 219.820312 L 45.269531 232.75 L 32.339844 232.75 Z M 32.339844 219.820312 " fill-opacity="1" fill-rule="nonzero"/><path fill="#135981" d="M 58.199219 219.820312 L 245.683594 219.820312 L 245.683594 232.75 L 58.199219 232.75 Z M 58.199219 219.820312 " fill-opacity="1" fill-rule="nonzero"/><path fill="#135981" d="M 34.234375 114.488281 L 47.164062 127.417969 L 56.308594 118.277344 L 47.949219 109.917969 L 56.308594 101.558594 L 47.164062 92.414062 L 34.234375 105.34375 C 33.933594 105.644531 33.664062 105.972656 33.429688 106.324219 C 33.195312 106.679688 32.996094 107.050781 32.832031 107.441406 C 32.667969 107.835938 32.546875 108.238281 32.464844 108.65625 C 32.382812 109.070312 32.339844 109.492188 32.339844 109.917969 C 32.339844 110.339844 32.382812 110.761719 32.464844 111.179688 C 32.546875 111.59375 32.667969 112 32.832031 112.390625 C 32.996094 112.785156 33.195312 113.15625 33.429688 113.507812 C 33.664062 113.863281 33.933594 114.1875 34.234375 114.488281 Z M 34.234375 114.488281 " fill-opacity="1" fill-rule="nonzero"/><path fill="#135981" d="M 98.882812 118.277344 L 108.027344 127.417969 L 120.957031 114.488281 C 121.257812 114.1875 121.523438 113.863281 121.761719 113.507812 C 121.996094 113.15625 122.195312 112.785156 122.359375 112.390625 C 122.519531 112 122.644531 111.59375 122.726562 111.179688 C 122.808594 110.761719 122.851562 110.339844 122.851562 109.917969 C 122.851562 109.492188 122.808594 109.070312 122.726562 108.65625 C 122.644531 108.238281 122.519531 107.835938 122.359375 107.441406 C 122.195312 107.050781 121.996094 106.679688 121.761719 106.324219 C 121.523438 105.972656 121.257812 105.644531 120.957031 105.34375 L 108.027344 92.414062 L 98.882812 101.558594 L 107.242188 109.917969 Z M 98.882812 118.277344 " fill-opacity="1" fill-rule="nonzero"/><path fill="#135981" d="M 64.996094 127.265625 L 77.929688 88.476562 L 90.195312 92.566406 L 77.261719 131.355469 Z M 64.996094 127.265625 " fill-opacity="1" fill-rule="nonzero"/><path fill="#135981" d="M 239.21875 168.101562 L 278.007812 168.101562 L 278.007812 181.03125 L 239.21875 181.03125 Z M 239.21875 168.101562 " fill-opacity="1" fill-rule="nonzero"/><path fill="#135981" d="M 258.613281 219.820312 L 271.542969 219.820312 L 271.542969 232.75 L 258.613281 232.75 Z M 258.613281 219.820312 " fill-opacity="1" fill-rule="nonzero"/><path fill="#135981" d="M 284.476562 219.820312 L 297.40625 219.820312 L 297.40625 232.75 L 284.476562 232.75 Z M 284.476562 219.820312 " fill-opacity="1" fill-rule="nonzero"/><path fill="#135981" d="M 168.105469 142.242188 L 181.035156 142.242188 L 181.035156 155.171875 L 168.105469 155.171875 Z M 168.105469 142.242188 " fill-opacity="1" fill-rule="nonzero"/><g clip-path="url(#84066eb8f0)"><path fill="#135981" d="M 86.484375 255.1875 L 104.867188 255.1875 L 104.867188 258.9375 L 86.484375 258.9375 Z M 86.484375 255.1875 " fill-opacity="1" fill-rule="nonzero"/></g></svg>