<svg xmlns="http://www.w3.org/2000/svg" xmlns:xlink="http://www.w3.org/1999/xlink" width="500" zoomAndPan="magnify" viewBox="0 0 375 374.999991" height="500" preserveAspectRatio="xMidYMid meet" version="1.0"><defs><clipPath id="0fd4af25f3"><path d="M 235.496094 268.691406 L 244.070312 268.691406 L 244.070312 272.441406 L 235.496094 272.441406 Z M 235.496094 268.691406 " clip-rule="nonzero"/></clipPath><clipPath id="6644aab413"><path d="M 73 310 L 302 310 L 302 354.492188 L 73 354.492188 Z M 73 310 " clip-rule="nonzero"/></clipPath></defs><g clip-path="url(#0fd4af25f3)"><path fill="#135981" d="M 235.496094 268.691406 L 244.0625 268.691406 L 244.0625 272.441406 L 235.496094 272.441406 Z M 235.496094 268.691406 " fill-opacity="1" fill-rule="nonzero"/></g><path fill="#135981" d="M 352.3125 274.714844 L 22.46875 274.714844 C 10.90625 274.714844 1.308594 265.117188 1.308594 253.554688 L 1.308594 47.183594 C 1.308594 35.621094 10.90625 26.023438 22.46875 26.023438 L 352.3125 26.023438 C 364.09375 26.023438 373.472656 35.621094 373.472656 47.183594 L 373.472656 253.554688 C 373.472656 265.117188 364.09375 274.714844 352.3125 274.714844 Z M 22.46875 34.75 C 15.707031 34.75 10.035156 40.421875 10.035156 47.183594 L 10.035156 253.554688 C 10.035156 260.316406 15.707031 265.988281 22.46875 265.988281 L 352.3125 265.988281 C 359.292969 265.988281 364.746094 260.316406 364.746094 253.554688 L 364.746094 47.183594 C 364.746094 40.421875 359.292969 34.75 352.3125 34.75 Z M 22.46875 34.75 " fill-opacity="1" fill-rule="evenodd"/><g clip-path="url(#6644aab413)"><path fill="#135981" d="M 290.140625 354.558594 L 84.859375 354.558594 C 78.316406 354.558594 73.082031 349.539062 73.082031 342.996094 L 73.082031 337.105469 C 73.082031 322.707031 84.859375 310.925781 99.257812 310.925781 L 275.523438 310.925781 C 290.140625 310.925781 301.703125 322.707031 301.703125 337.105469 L 301.703125 342.996094 C 301.703125 349.539062 296.464844 354.558594 290.140625 354.558594 Z M 99.257812 319.652344 C 89.660156 319.652344 81.804688 327.507812 81.804688 337.105469 C 81.804688 341.03125 80.933594 345.832031 84.859375 345.832031 L 290.140625 345.832031 C 293.847656 345.832031 292.976562 341.03125 292.976562 337.105469 C 292.976562 327.507812 285.121094 319.652344 275.523438 319.652344 Z M 99.257812 319.652344 " fill-opacity="1" fill-rule="evenodd"/></g><path fill="#135981" d="M 231.457031 319.652344 C 229.492188 319.652344 227.75 318.34375 227.3125 316.382812 L 216.40625 271.441406 C 215.097656 265.769531 223.605469 263.808594 224.914062 269.261719 L 235.820312 314.199219 C 236.476562 317.035156 234.292969 319.652344 231.457031 319.652344 Z M 143.324219 319.652344 C 140.488281 319.652344 138.523438 317.035156 139.179688 314.199219 L 150.085938 269.261719 C 151.394531 263.808594 159.902344 265.769531 158.59375 271.441406 L 147.6875 316.382812 C 147.25 318.34375 145.289062 319.652344 143.324219 319.652344 Z M 143.324219 319.652344 " fill-opacity="1" fill-rule="evenodd"/><path fill="#135981" d="M 369.109375 229.992188 L 5.671875 229.992188 C 0 229.992188 0 221.269531 5.671875 221.269531 L 369.109375 221.269531 C 375 221.269531 375 229.992188 369.109375 229.992188 Z M 369.109375 229.992188 " fill-opacity="1" fill-rule="evenodd"/><path fill="#135981" d="M 218.585938 113.71875 C 215.3125 113.71875 213.132812 109.792969 215.097656 106.957031 L 231.675781 82.089844 L 215.097656 57 C 211.824219 52.203125 219.242188 47.402344 222.296875 52.203125 L 240.402344 79.46875 C 241.492188 80.996094 241.492188 82.960938 240.402344 84.488281 L 222.296875 111.757812 C 221.421875 113.066406 220.113281 113.71875 218.585938 113.71875 Z M 218.585938 113.71875 " fill-opacity="1" fill-rule="evenodd"/><path fill="#135981" d="M 156.195312 113.71875 C 154.886719 113.71875 153.359375 113.066406 152.703125 111.757812 L 134.378906 84.488281 C 133.507812 82.960938 133.507812 80.996094 134.378906 79.46875 L 152.703125 52.203125 C 155.757812 47.402344 162.957031 52.203125 159.902344 57 L 143.324219 81.871094 L 159.902344 106.957031 C 161.867188 109.792969 159.6875 113.71875 156.195312 113.71875 Z M 156.195312 113.71875 " fill-opacity="1" fill-rule="evenodd"/><path fill="#135981" d="M 176.917969 113.71875 C 174.082031 113.71875 171.902344 110.664062 172.992188 107.828125 L 193.933594 53.074219 C 195.898438 47.621094 203.96875 50.894531 202.007812 56.128906 L 181.066406 110.882812 C 180.410156 112.628906 178.664062 113.71875 176.917969 113.71875 Z M 176.917969 113.71875 " fill-opacity="1" fill-rule="evenodd"/><path fill="#135981" d="M 335.734375 133.570312 L 39.050781 133.570312 C 33.378906 133.570312 33.378906 124.84375 39.050781 124.84375 L 335.734375 124.84375 C 341.621094 124.84375 341.621094 133.570312 335.734375 133.570312 Z M 335.734375 133.570312 " fill-opacity="1" fill-rule="evenodd"/><path fill="#135981" d="M 335.734375 157.566406 L 39.050781 157.566406 C 33.378906 157.566406 33.378906 148.84375 39.050781 148.84375 L 335.734375 148.84375 C 341.621094 148.84375 341.621094 157.566406 335.734375 157.566406 Z M 335.734375 157.566406 " fill-opacity="1" fill-rule="evenodd"/><path fill="#135981" d="M 335.734375 181.566406 L 39.050781 181.566406 C 33.378906 181.566406 33.378906 172.839844 39.050781 172.839844 L 335.734375 172.839844 C 341.621094 172.839844 341.621094 181.566406 335.734375 181.566406 Z M 335.734375 181.566406 " fill-opacity="1" fill-rule="evenodd"/><path fill="#135981" d="M 335.734375 205.78125 L 39.050781 205.78125 C 33.378906 205.78125 33.378906 197.054688 39.050781 197.054688 L 335.734375 197.054688 C 341.621094 197.054688 341.621094 205.78125 335.734375 205.78125 Z M 335.734375 205.78125 " fill-opacity="1" fill-rule="evenodd"/><path fill="#135981" d="M 46.683594 252.246094 L 30.542969 252.246094 C 24.867188 252.246094 24.867188 243.519531 30.542969 243.519531 L 46.683594 243.519531 C 52.574219 243.519531 52.574219 252.246094 46.683594 252.246094 Z M 46.683594 252.246094 " fill-opacity="1" fill-rule="evenodd"/><path fill="#135981" d="M 83.550781 252.246094 L 67.410156 252.246094 C 61.738281 252.246094 61.738281 243.519531 67.410156 243.519531 L 83.550781 243.519531 C 89.441406 243.519531 89.441406 252.246094 83.550781 252.246094 Z M 83.550781 252.246094 " fill-opacity="1" fill-rule="evenodd"/><path fill="#135981" d="M 120.636719 252.246094 L 104.492188 252.246094 C 98.605469 252.246094 98.605469 243.519531 104.492188 243.519531 L 120.636719 243.519531 C 126.308594 243.519531 126.308594 252.246094 120.636719 252.246094 Z M 120.636719 252.246094 " fill-opacity="1" fill-rule="evenodd"/><path fill="#135981" d="M 344.242188 252.246094 L 328.097656 252.246094 C 322.425781 252.246094 322.425781 243.519531 328.097656 243.519531 L 344.242188 243.519531 C 350.132812 243.519531 350.132812 252.246094 344.242188 252.246094 Z M 344.242188 252.246094 " fill-opacity="1" fill-rule="evenodd"/></svg>