<svg xmlns="http://www.w3.org/2000/svg" xmlns:xlink="http://www.w3.org/1999/xlink" width="500" zoomAndPan="magnify" viewBox="0 0 375 374.999991" height="500" preserveAspectRatio="xMidYMid meet" version="1.0"><defs><clipPath id="d40bfe7571"><path d="M 310.171875 87.902344 L 318.746094 87.902344 L 318.746094 91.652344 L 310.171875 91.652344 Z M 310.171875 87.902344 " clip-rule="nonzero"/></clipPath></defs><path fill="#135981" d="M 101.242188 348.238281 C 96.835938 348.238281 95.210938 342.363281 99.039062 340.109375 L 99.566406 339.792969 C 120.648438 327.363281 133.449219 319.808594 155.425781 329.878906 C 189.886719 341 213.960938 324.6875 241.8125 305.804688 L 242.339844 305.4375 C 280.101562 279.894531 287.972656 260.382812 289.648438 253.195312 C 291.851562 243.492188 280.261719 229.800781 268.828125 244.488281 C 257.707031 258.703125 238.457031 273.546875 226.445312 282.148438 C 228.019531 290.332031 221.566406 300.71875 204.152344 304.441406 C 170.113281 311.679688 145.144531 301.453125 144.097656 301.03125 C 141.894531 300.085938 140.84375 297.515625 141.789062 295.261719 C 142.734375 293.058594 145.25 292.011719 147.503906 292.953125 C 147.714844 293.058594 171.109375 302.554688 202.316406 295.890625 C 220.046875 292.0625 223.195312 280.15625 208.769531 277.953125 C 199.117188 276.433594 187.683594 273.390625 175.566406 270.136719 C 147.136719 262.53125 111.839844 253.039062 102.554688 267.671875 C 95.421875 278.898438 86.191406 284.5625 71.816406 292.585938 C 69.71875 293.742188 67.042969 293.007812 65.890625 290.910156 C 64.683594 288.808594 65.472656 286.136719 67.570312 284.929688 C 81.941406 276.957031 89.335938 272.183594 95.160156 263.003906 C 101.035156 253.71875 112.574219 249.996094 130.40625 251.570312 C 144.933594 252.828125 161.667969 257.339844 177.824219 261.691406 C 189.675781 264.890625 200.902344 267.882812 210.132812 269.296875 C 215.0625 270.085938 219.15625 271.921875 222.039062 274.542969 C 233.683594 266.152344 251.675781 252.199219 261.902344 239.140625 C 279.160156 217.003906 302.449219 236.410156 298.148438 255.136719 C 295.785156 265.363281 286.082031 286.34375 247.214844 312.675781 L 246.691406 313.042969 C 218.105469 332.398438 191.09375 350.703125 152.488281 338.113281 C 152.332031 338.0625 152.171875 338.011719 152.015625 337.90625 C 133.972656 329.617188 124.585938 335.175781 103.972656 347.347656 C 103.027344 347.871094 102.449219 348.238281 101.242188 348.238281 Z M 101.242188 348.238281 " fill-opacity="1" fill-rule="evenodd"/><path fill="#135981" d="M 66.152344 374.9375 C 61.433594 374.9375 57.027344 372.417969 54.613281 368.273438 L 24.296875 315.769531 C 20.625 309.371094 22.828125 301.242188 29.175781 297.570312 L 55.664062 282.253906 C 62.007812 278.582031 70.191406 280.785156 73.863281 287.132812 L 104.179688 339.636719 C 107.851562 346.035156 105.648438 354.164062 99.300781 357.835938 L 72.8125 373.152344 C 70.769531 374.308594 68.511719 374.9375 66.152344 374.9375 Z M 62.273438 289.230469 C 61.484375 289.230469 60.699219 289.441406 60.015625 289.808594 L 33.527344 305.121094 C 31.378906 306.382812 30.589844 309.214844 31.851562 311.363281 L 62.167969 363.867188 C 63.425781 366.070312 66.257812 366.804688 68.410156 365.546875 L 94.898438 350.285156 C 97.097656 349.023438 97.832031 346.191406 96.574219 343.988281 L 66.257812 291.484375 C 65.472656 290.070312 63.949219 289.230469 62.273438 289.230469 Z M 57.8125 286.03125 Z M 57.8125 286.03125 " fill-opacity="1" fill-rule="evenodd"/><path fill="#135981" d="M 76.90625 370.109375 C 75.382812 370.109375 73.914062 369.324219 73.128906 367.90625 L 58.863281 343.203125 C 57.65625 341.15625 58.390625 338.480469 60.488281 337.222656 C 62.585938 336.070312 65.261719 336.75 66.46875 338.847656 L 80.683594 363.554688 C 82.359375 366.4375 80.261719 370.109375 76.90625 370.109375 Z M 76.90625 370.109375 " fill-opacity="1" fill-rule="evenodd"/><path fill="#135981" d="M 90.125 362.453125 C 88.601562 362.453125 87.132812 361.664062 86.292969 360.300781 L 72.082031 335.597656 C 70.875 333.5 71.609375 330.824219 73.652344 329.617188 C 75.75 328.410156 78.425781 329.144531 79.632812 331.242188 L 93.898438 355.894531 C 95.578125 358.832031 93.429688 362.453125 90.125 362.453125 Z M 90.125 362.453125 " fill-opacity="1" fill-rule="evenodd"/><path fill="#135981" d="M 95.789062 147.609375 C 83.410156 147.609375 74.019531 134.027344 76.851562 121.699219 C 79.265625 111.105469 89.230469 90.226562 128.308594 63.792969 C 156.894531 44.492188 183.90625 26.183594 222.511719 38.773438 C 222.667969 38.824219 222.828125 38.878906 222.984375 38.984375 C 241.289062 47.324219 250.574219 41.605469 271.554688 29.226562 C 273.652344 28.019531 276.328125 28.703125 277.535156 30.800781 C 278.738281 32.847656 278.058594 35.574219 275.960938 36.78125 L 275.488281 37.09375 C 254.351562 49.527344 241.550781 57.078125 219.574219 47.007812 C 185.113281 35.886719 161.089844 52.199219 133.238281 71.03125 C 95.265625 96.679688 87.132812 116.035156 85.351562 123.691406 C 83.148438 133.394531 94.738281 147.035156 106.171875 132.398438 C 117.292969 118.183594 136.542969 103.339844 148.554688 94.738281 C 146.980469 86.503906 153.378906 76.171875 170.847656 72.445312 C 204.886719 65.207031 229.800781 75.4375 230.851562 75.855469 C 233.105469 76.800781 234.15625 79.371094 233.210938 81.574219 C 232.265625 83.828125 229.699219 84.878906 227.496094 83.933594 C 227.285156 83.828125 203.890625 74.335938 172.683594 80.996094 C 154.902344 84.773438 151.808594 96.730469 166.179688 98.933594 C 175.882812 100.402344 187.316406 103.5 199.433594 106.75 C 227.808594 114.355469 263.160156 123.851562 272.445312 109.164062 C 279.578125 97.9375 288.808594 92.273438 303.183594 84.300781 C 305.28125 83.09375 307.957031 83.882812 309.109375 85.980469 C 310.261719 88.078125 309.527344 90.753906 307.429688 91.90625 C 293.058594 99.933594 285.609375 104.703125 279.839844 113.882812 C 273.964844 123.117188 262.425781 126.890625 244.59375 125.320312 C 230.066406 124.007812 213.332031 119.550781 197.175781 115.195312 C 185.269531 111.996094 174.097656 109.007812 164.867188 107.589844 C 159.9375 106.804688 155.84375 104.96875 152.960938 102.34375 C 141.316406 110.683594 123.324219 124.636719 113.097656 137.75 C 108.007812 144.199219 101.925781 147.609375 95.789062 147.609375 Z M 95.789062 147.609375 " fill-opacity="1" fill-rule="evenodd"/><path fill="#135981" d="M 312.726562 96.417969 C 307.957031 96.417969 303.550781 93.898438 301.136719 89.757812 L 270.820312 37.253906 C 267.148438 30.90625 269.351562 22.722656 275.699219 19.050781 L 302.1875 3.734375 C 308.585938 0.0625 316.714844 2.265625 320.386719 8.613281 L 350.703125 61.117188 C 354.375 67.515625 352.222656 75.648438 345.824219 79.320312 L 319.335938 94.632812 C 317.292969 95.839844 315.035156 96.417969 312.726562 96.417969 Z M 308.847656 10.710938 C 308.058594 10.710938 307.273438 10.921875 306.539062 11.339844 L 280.101562 26.605469 C 277.902344 27.863281 277.113281 30.695312 278.425781 32.847656 L 308.742188 85.402344 C 309.949219 87.554688 312.78125 88.339844 314.984375 87.082031 L 341.472656 71.765625 C 343.621094 70.507812 344.410156 67.675781 343.148438 65.523438 L 312.832031 13.019531 C 311.992188 11.550781 310.421875 10.710938 308.847656 10.710938 Z M 308.847656 10.710938 " fill-opacity="1" fill-rule="evenodd"/><path fill="#135981" d="M 312.359375 40.242188 C 310.839844 40.242188 309.371094 39.457031 308.585938 38.039062 L 294.316406 13.335938 C 293.113281 11.289062 293.792969 8.613281 295.890625 7.40625 C 297.988281 6.148438 300.664062 6.882812 301.871094 8.980469 L 316.136719 33.683594 C 317.816406 36.621094 315.664062 40.242188 312.359375 40.242188 Z M 312.359375 40.242188 " fill-opacity="1" fill-rule="evenodd"/><path fill="#135981" d="M 299.144531 47.847656 C 297.621094 47.847656 296.152344 47.0625 295.367188 45.644531 L 281.101562 20.992188 C 279.894531 18.894531 280.628906 16.21875 282.726562 15.011719 C 284.824219 13.804688 287.5 14.488281 288.707031 16.585938 L 302.917969 41.289062 C 304.652344 44.226562 302.5 47.847656 299.144531 47.847656 Z M 299.144531 47.847656 " fill-opacity="1" fill-rule="evenodd"/><path fill="#135981" d="M 187.527344 254.875 C 186.320312 254.875 185.164062 254.402344 184.378906 253.5625 C 172.996094 241.8125 161.457031 233.105469 151.335938 225.34375 C 130.667969 209.660156 114.355469 197.230469 114.355469 171.632812 C 114.355469 149.761719 131.71875 131.925781 153.117188 131.925781 C 170.21875 131.925781 179.816406 140.265625 187.527344 153.484375 C 195.183594 140.265625 204.78125 131.925781 221.882812 131.925781 C 243.28125 131.925781 260.644531 149.761719 260.644531 171.632812 C 260.644531 197.230469 244.332031 209.660156 223.71875 225.34375 C 213.542969 233.105469 202.054688 241.8125 190.621094 253.5625 C 189.835938 254.402344 188.679688 254.875 187.527344 254.875 Z M 153.117188 140.6875 C 136.542969 140.6875 123.0625 154.585938 123.0625 171.632812 C 123.0625 192.929688 136.4375 203.050781 156.632812 218.421875 C 166.074219 225.605469 176.722656 233.683594 187.527344 244.277344 C 198.277344 233.683594 208.925781 225.605469 218.367188 218.421875 C 238.5625 203.050781 251.9375 192.929688 251.9375 171.632812 C 251.9375 154.585938 238.457031 140.6875 221.882812 140.6875 C 207.878906 140.6875 200.167969 146.71875 191.40625 164.710938 C 189.835938 168.015625 185.164062 168.015625 183.59375 164.710938 C 174.832031 146.71875 167.121094 140.6875 153.117188 140.6875 Z M 153.117188 140.6875 " fill-opacity="1" fill-rule="evenodd"/><path fill="#135981" d="M 135.023438 176.457031 C 132.609375 176.457031 130.667969 174.464844 130.667969 172.054688 C 130.667969 158.835938 142.207031 148.136719 156.371094 148.136719 C 158.78125 148.136719 160.722656 150.074219 160.722656 152.488281 C 160.722656 154.902344 158.78125 156.84375 156.371094 156.84375 C 147.035156 156.84375 139.429688 163.660156 139.429688 172.054688 C 139.429688 174.464844 137.433594 176.457031 135.023438 176.457031 Z M 135.023438 176.457031 " fill-opacity="1" fill-rule="evenodd"/><g clip-path="url(#d40bfe7571)"><path fill="#135981" d="M 310.171875 87.902344 L 318.738281 87.902344 L 318.738281 91.652344 L 310.171875 91.652344 Z M 310.171875 87.902344 " fill-opacity="1" fill-rule="nonzero"/></g></svg>