<svg xmlns="http://www.w3.org/2000/svg" xmlns:xlink="http://www.w3.org/1999/xlink" width="500" zoomAndPan="magnify" viewBox="0 0 375 374.999991" height="500" preserveAspectRatio="xMidYMid meet" version="1.0"><defs><clipPath id="ed9aed16d1"><path d="M 0 299 L 116 299 L 116 366.9375 L 0 366.9375 Z M 0 299 " clip-rule="nonzero"/></clipPath><clipPath id="5b69a52e1b"><path d="M 18 333 L 28 333 L 28 366.9375 L 18 366.9375 Z M 18 333 " clip-rule="nonzero"/></clipPath><clipPath id="7704db89f0"><path d="M 87 333 L 97 333 L 97 366.9375 L 87 366.9375 Z M 87 333 " clip-rule="nonzero"/></clipPath><clipPath id="f875afff96"><path d="M 260 299 L 375 299 L 375 366.9375 L 260 366.9375 Z M 260 299 " clip-rule="nonzero"/></clipPath><clipPath id="108f933a70"><path d="M 278 333 L 288 333 L 288 366.9375 L 278 366.9375 Z M 278 333 " clip-rule="nonzero"/></clipPath><clipPath id="2b6bdd8e87"><path d="M 347 333 L 357 333 L 357 366.9375 L 347 366.9375 Z M 347 333 " clip-rule="nonzero"/></clipPath><clipPath id="5cea845f7e"><path d="M 132 8.4375 L 231 8.4375 L 231 67 L 132 67 Z M 132 8.4375 " clip-rule="nonzero"/></clipPath><clipPath id="91feacab6f"><path d="M 242.371094 214.417969 L 250.945312 214.417969 L 250.945312 218.167969 L 242.371094 218.167969 Z M 242.371094 214.417969 " clip-rule="nonzero"/></clipPath></defs><path fill="#135981" d="M 57.589844 299.933594 C 39.785156 299.933594 25.277344 283.667969 25.277344 263.445312 C 25.277344 256.851562 23.738281 248.9375 29.675781 248.9375 C 35.609375 248.9375 34.070312 256.851562 34.070312 263.445312 C 34.070312 278.832031 44.621094 291.140625 57.589844 291.140625 C 70.78125 291.140625 81.332031 278.832031 81.332031 263.445312 C 81.332031 257.511719 79.792969 250.035156 85.726562 250.035156 C 91.441406 250.035156 90.125 257.511719 90.125 263.445312 C 90.125 283.667969 75.617188 299.933594 57.589844 299.933594 Z M 57.589844 299.933594 " fill-opacity="1" fill-rule="evenodd"/><path fill="#135981" d="M 84.847656 258.828125 C 77.152344 258.828125 69.898438 250.257812 65.945312 244.761719 C 47.699219 257.949219 38.6875 242.78125 33.851562 255.09375 C 32.09375 259.488281 25.277344 258.167969 25.277344 253.332031 C 25.277344 237.945312 27.695312 245.421875 19.5625 235.96875 C 13.410156 228.714844 36.707031 216.40625 51.214844 215.746094 C 60.007812 215.527344 67.261719 217.945312 72.539062 222.78125 C 79.570312 223.878906 90.125 229.375 90.125 245.421875 C 90.125 253.332031 91.441406 258.828125 84.847656 258.828125 Z M 66.824219 233.769531 C 72.097656 233.769531 72.097656 241.902344 81.332031 248.496094 C 81.332031 227.835938 71 233.769531 67.480469 230.035156 C 57.371094 219.484375 37.808594 225.855469 29.015625 233.332031 C 32.09375 236.410156 34.289062 237.507812 34.289062 242.125 C 43.742188 238.605469 50.558594 246.960938 63.964844 234.871094 C 64.625 234.210938 65.722656 233.769531 66.824219 233.769531 Z M 66.824219 233.769531 " fill-opacity="1" fill-rule="evenodd"/><path fill="#135981" d="M 42.863281 266.960938 C 38.246094 266.960938 36.929688 260.585938 41.105469 258.609375 C 46.160156 256.191406 57.152344 257.949219 54.292969 264.324219 C 52.09375 269.160156 47.480469 265.421875 44.621094 266.523438 C 44.183594 266.960938 43.523438 266.960938 42.863281 266.960938 Z M 42.863281 266.960938 " fill-opacity="1" fill-rule="evenodd"/><path fill="#135981" d="M 65.066406 266.960938 C 60.449219 266.960938 59.128906 260.585938 63.304688 258.609375 C 68.363281 256.191406 79.351562 257.949219 76.496094 264.324219 C 74.296875 269.160156 69.679688 265.421875 66.824219 266.523438 C 66.382812 266.960938 65.722656 266.960938 65.066406 266.960938 Z M 65.066406 266.960938 " fill-opacity="1" fill-rule="evenodd"/><path fill="#135981" d="M 57.589844 286.085938 C 49.898438 286.085938 42.421875 280.152344 46.820312 275.535156 C 51.4375 270.699219 56.050781 281.691406 62.425781 275.535156 C 66.601562 271.578125 72.757812 277.953125 68.582031 281.910156 C 65.503906 284.546875 61.546875 286.085938 57.589844 286.085938 Z M 57.589844 286.085938 " fill-opacity="1" fill-rule="evenodd"/><g clip-path="url(#ed9aed16d1)"><path fill="#135981" d="M 110.785156 366.539062 L 4.394531 366.539062 C 1.976562 366.539062 0 364.558594 0 362.140625 L 0 326.972656 C 2.417969 311.363281 25.058594 299.933594 39.347656 299.933594 C 42.203125 299.933594 47.699219 299.273438 47.699219 304.332031 C 47.699219 309.605469 42.203125 308.726562 39.347656 308.726562 C 27.917969 308.726562 10.550781 318.398438 8.792969 328.070312 L 8.792969 357.746094 L 106.390625 357.746094 L 106.390625 328.070312 C 104.628906 318.398438 87.265625 308.726562 75.835938 308.726562 C 72.976562 308.726562 67.703125 309.605469 67.703125 304.332031 C 67.703125 292.460938 111.882812 305.210938 115.183594 327.191406 L 115.183594 362.140625 C 115.183594 364.558594 113.203125 366.539062 110.785156 366.539062 Z M 110.785156 366.539062 " fill-opacity="1" fill-rule="evenodd"/></g><path fill="#135981" d="M 72.097656 308.726562 C 65.945312 308.726562 67.703125 299.714844 67.703125 290.921875 C 67.703125 285.207031 76.496094 285.207031 76.496094 290.921875 C 76.496094 299.714844 78.253906 308.726562 72.097656 308.726562 Z M 43.304688 308.726562 C 37.148438 308.726562 38.90625 299.714844 38.90625 290.921875 C 38.90625 285.207031 47.699219 285.207031 47.699219 290.921875 C 47.699219 299.496094 49.457031 308.726562 43.304688 308.726562 Z M 43.304688 308.726562 " fill-opacity="1" fill-rule="evenodd"/><g clip-path="url(#5b69a52e1b)"><path fill="#135981" d="M 23.300781 366.539062 C 20.882812 366.539062 18.902344 364.558594 18.902344 362.140625 L 18.902344 337.960938 C 18.902344 332.246094 27.695312 332.246094 27.695312 337.960938 L 27.695312 362.140625 C 27.695312 364.558594 25.71875 366.539062 23.300781 366.539062 Z M 23.300781 366.539062 " fill-opacity="1" fill-rule="evenodd"/></g><g clip-path="url(#7704db89f0)"><path fill="#135981" d="M 91.882812 366.539062 C 89.464844 366.539062 87.484375 364.558594 87.484375 362.140625 L 87.484375 337.960938 C 87.484375 332.246094 96.277344 332.246094 96.277344 337.960938 L 96.277344 362.140625 C 96.277344 364.558594 94.300781 366.539062 91.882812 366.539062 Z M 91.882812 366.539062 " fill-opacity="1" fill-rule="evenodd"/></g><path fill="#135981" d="M 57.589844 326.3125 C 38.027344 326.3125 21.320312 305.210938 30.554688 301.253906 C 32.753906 300.375 35.390625 301.253906 36.269531 303.671875 C 44.183594 322.136719 71 322.136719 78.914062 303.671875 C 81.109375 298.175781 89.242188 301.691406 87.046875 306.96875 C 81.988281 318.839844 70.339844 326.3125 57.589844 326.3125 Z M 57.589844 326.3125 " fill-opacity="1" fill-rule="evenodd"/><path fill="#135981" d="M 317.628906 299.933594 C 299.824219 299.933594 285.316406 283.667969 285.316406 263.445312 C 285.316406 256.851562 283.777344 248.9375 289.710938 248.9375 C 295.429688 248.9375 294.109375 256.851562 294.109375 263.445312 C 294.109375 278.832031 304.660156 291.140625 317.628906 291.140625 C 330.597656 291.140625 341.148438 278.832031 341.148438 263.445312 C 341.148438 257.511719 339.828125 250.035156 345.546875 250.035156 C 351.261719 250.035156 349.941406 257.511719 349.941406 263.445312 C 349.941406 283.667969 335.433594 299.933594 317.628906 299.933594 Z M 317.628906 299.933594 " fill-opacity="1" fill-rule="evenodd"/><path fill="#135981" d="M 344.664062 258.828125 C 336.972656 258.828125 329.71875 250.257812 325.761719 244.761719 C 307.519531 257.949219 298.726562 242.78125 293.667969 255.09375 C 291.910156 259.488281 285.316406 258.167969 285.316406 253.332031 C 285.316406 237.945312 287.515625 245.421875 279.601562 235.96875 C 273.226562 228.714844 296.527344 216.40625 311.253906 215.746094 C 319.828125 215.527344 327.082031 217.945312 332.578125 222.78125 C 339.390625 223.878906 349.941406 229.375 349.941406 245.421875 C 349.941406 253.332031 351.480469 258.828125 344.664062 258.828125 Z M 326.859375 233.769531 C 332.136719 233.769531 331.917969 241.902344 341.148438 248.496094 C 341.148438 227.835938 331.039062 233.769531 327.300781 230.035156 C 317.1875 219.484375 297.625 225.855469 288.832031 233.332031 C 292.128906 236.410156 294.109375 237.507812 294.328125 242.125 C 303.5625 238.605469 310.375 246.960938 323.785156 234.871094 C 324.664062 234.210938 325.761719 233.769531 326.859375 233.769531 Z M 326.859375 233.769531 " fill-opacity="1" fill-rule="evenodd"/><path fill="#135981" d="M 302.902344 266.960938 C 298.066406 266.960938 296.746094 260.585938 301.144531 258.609375 C 306.199219 256.191406 317.1875 257.949219 314.113281 264.324219 C 312.132812 269.160156 307.519531 265.421875 304.660156 266.523438 C 304 266.960938 303.339844 266.960938 302.902344 266.960938 Z M 302.902344 266.960938 " fill-opacity="1" fill-rule="evenodd"/><path fill="#135981" d="M 325.101562 266.960938 C 320.265625 266.960938 318.949219 260.585938 323.34375 258.609375 C 328.398438 256.191406 339.390625 257.949219 336.3125 264.324219 C 334.335938 269.160156 329.71875 265.421875 326.859375 266.523438 C 326.203125 266.960938 325.542969 266.960938 325.101562 266.960938 Z M 325.101562 266.960938 " fill-opacity="1" fill-rule="evenodd"/><path fill="#135981" d="M 317.628906 286.085938 C 309.933594 286.085938 302.242188 280.152344 306.636719 275.535156 C 311.472656 270.699219 316.089844 281.691406 322.246094 275.535156 C 326.421875 271.578125 332.578125 277.953125 328.398438 281.910156 C 325.542969 284.546875 321.585938 286.085938 317.628906 286.085938 Z M 317.628906 286.085938 " fill-opacity="1" fill-rule="evenodd"/><g clip-path="url(#f875afff96)"><path fill="#135981" d="M 370.605469 366.539062 L 264.433594 366.539062 C 262.015625 366.539062 260.039062 364.558594 260.039062 362.140625 L 260.039062 326.972656 C 263.335938 304.988281 307.738281 292.460938 307.738281 304.332031 C 307.738281 309.605469 302.023438 308.726562 299.382812 308.726562 C 287.734375 308.726562 270.589844 318.398438 268.832031 328.070312 L 268.832031 357.746094 L 366.207031 357.746094 L 366.207031 328.070312 C 364.667969 318.398438 347.304688 308.726562 335.875 308.726562 C 333.015625 308.726562 327.519531 309.605469 327.519531 304.332031 C 327.519531 292.460938 371.921875 305.210938 375 327.191406 L 375 362.140625 C 375 364.558594 373.023438 366.539062 370.605469 366.539062 Z M 370.605469 366.539062 " fill-opacity="1" fill-rule="evenodd"/></g><path fill="#135981" d="M 331.917969 308.726562 C 325.761719 308.726562 327.519531 299.496094 327.519531 290.921875 C 327.519531 285.207031 336.3125 285.207031 336.3125 290.921875 C 336.3125 299.714844 338.070312 308.726562 331.917969 308.726562 Z M 303.339844 308.726562 C 297.1875 308.726562 298.945312 299.496094 298.945312 290.921875 C 298.945312 285.207031 307.738281 285.207031 307.738281 290.921875 C 307.738281 299.496094 309.496094 308.726562 303.339844 308.726562 Z M 303.339844 308.726562 " fill-opacity="1" fill-rule="evenodd"/><g clip-path="url(#108f933a70)"><path fill="#135981" d="M 283.117188 366.539062 C 280.699219 366.539062 278.722656 364.558594 278.722656 362.140625 L 278.722656 337.960938 C 278.722656 332.246094 287.515625 332.246094 287.515625 337.960938 L 287.515625 362.140625 C 287.515625 364.558594 285.535156 366.539062 283.117188 366.539062 Z M 283.117188 366.539062 " fill-opacity="1" fill-rule="evenodd"/></g><g clip-path="url(#2b6bdd8e87)"><path fill="#135981" d="M 351.917969 366.539062 C 349.5 366.539062 347.523438 364.558594 347.523438 362.140625 L 347.523438 337.960938 C 347.523438 332.246094 356.316406 332.246094 356.316406 337.960938 L 356.316406 362.140625 C 356.316406 364.558594 354.335938 366.539062 351.917969 366.539062 Z M 351.917969 366.539062 " fill-opacity="1" fill-rule="evenodd"/></g><path fill="#135981" d="M 317.628906 326.3125 C 298.066406 326.3125 281.359375 305.210938 290.371094 301.253906 C 292.570312 300.375 295.207031 301.253906 296.308594 303.671875 C 304.21875 322.136719 330.816406 322.136719 338.730469 303.671875 C 341.148438 298.175781 349.0625 301.691406 346.863281 306.96875 C 341.808594 318.839844 330.378906 326.3125 317.628906 326.3125 Z M 317.628906 326.3125 " fill-opacity="1" fill-rule="evenodd"/><path fill="#135981" d="M 187.5 269.820312 C 185.082031 269.820312 183.105469 267.839844 183.105469 265.421875 L 183.105469 232.671875 C 183.105469 226.957031 191.894531 226.957031 191.894531 232.671875 L 191.894531 265.421875 C 191.894531 267.839844 189.917969 269.820312 187.5 269.820312 Z M 187.5 269.820312 " fill-opacity="1" fill-rule="evenodd"/><path fill="#135981" d="M 128.371094 331.585938 C 123.972656 331.585938 122.214844 325.652344 126.171875 323.453125 L 161.34375 303.011719 C 166.398438 300.152344 170.792969 307.847656 165.738281 310.703125 C 161.121094 313.34375 131.007812 331.585938 128.371094 331.585938 Z M 128.371094 331.585938 " fill-opacity="1" fill-rule="evenodd"/><path fill="#135981" d="M 246.628906 331.585938 C 243.992188 331.585938 214.097656 313.34375 209.261719 310.703125 C 204.425781 307.847656 208.601562 300.152344 213.65625 303.011719 L 248.828125 323.453125 C 252.785156 325.652344 251.246094 331.585938 246.628906 331.585938 Z M 246.628906 331.585938 " fill-opacity="1" fill-rule="evenodd"/><path fill="#135981" d="M 187.5 324.992188 C 169.914062 324.992188 155.628906 310.703125 155.628906 293.121094 C 155.628906 275.316406 169.914062 261.027344 187.5 261.027344 C 205.304688 261.027344 219.59375 275.316406 219.59375 293.121094 C 219.59375 310.703125 205.304688 324.992188 187.5 324.992188 Z M 187.5 269.820312 C 174.75 269.820312 164.417969 280.152344 164.417969 293.121094 C 164.417969 305.867188 174.75 316.199219 187.5 316.199219 C 200.46875 316.199219 210.800781 305.867188 210.800781 293.121094 C 210.800781 280.152344 200.46875 269.820312 187.5 269.820312 Z M 187.5 269.820312 " fill-opacity="1" fill-rule="evenodd"/><path fill="#135981" d="M 182.882812 305.429688 C 180.027344 305.429688 176.289062 300.59375 172.992188 297.296875 C 169.035156 293.339844 175.191406 286.964844 179.367188 291.140625 L 182.882812 294.878906 L 195.851562 281.910156 C 200.03125 277.953125 206.183594 283.886719 202.007812 288.0625 L 186.179688 304.109375 C 185.300781 304.988281 184.203125 305.429688 182.882812 305.429688 Z M 182.882812 305.429688 " fill-opacity="1" fill-rule="evenodd"/><path fill="#135981" d="M 186.402344 124.964844 C 162 124.964844 142.21875 102.542969 142.21875 74.847656 C 142.21875 65.613281 140.460938 56.160156 146.613281 56.160156 C 152.769531 56.160156 151.011719 65.613281 151.011719 74.847656 C 151.011719 97.488281 166.835938 116.171875 186.402344 116.171875 C 205.964844 116.171875 221.789062 97.707031 221.789062 74.847656 C 221.789062 66.492188 220.253906 57.480469 226.1875 57.480469 C 232.339844 57.480469 230.582031 66.492188 230.582031 74.847656 C 230.582031 102.542969 210.800781 124.964844 186.402344 124.964844 Z M 186.402344 124.964844 " fill-opacity="1" fill-rule="evenodd"/><path fill="#135981" d="M 206.84375 137.492188 C 204.425781 137.492188 202.445312 135.515625 202.445312 133.097656 L 202.445312 113.972656 C 202.445312 108.257812 211.238281 108.257812 211.238281 113.972656 L 211.238281 133.097656 C 211.238281 135.515625 209.261719 137.492188 206.84375 137.492188 Z M 165.957031 137.492188 C 163.539062 137.492188 161.5625 135.515625 161.5625 133.097656 L 161.5625 113.972656 C 161.5625 108.257812 170.355469 108.257812 170.355469 113.972656 L 170.355469 133.097656 C 170.355469 135.515625 168.375 137.492188 165.957031 137.492188 Z M 165.957031 137.492188 " fill-opacity="1" fill-rule="evenodd"/><path fill="#135981" d="M 263.335938 220.140625 L 111.882812 220.140625 C 109.246094 220.140625 107.488281 218.164062 107.488281 215.746094 L 107.707031 166.726562 C 107.707031 144.527344 142.660156 129.140625 161.78125 129.140625 C 165.519531 129.140625 171.453125 128.261719 171.453125 133.535156 C 171.453125 138.8125 165.519531 137.933594 161.78125 137.933594 C 144.636719 137.933594 116.5 151.78125 116.5 166.726562 L 116.28125 211.351562 L 258.9375 211.351562 L 258.71875 166.949219 C 256.300781 152.21875 230.804688 137.933594 213.4375 137.933594 C 209.699219 137.933594 203.546875 138.8125 203.546875 133.535156 C 203.546875 128.261719 209.699219 129.140625 213.4375 129.140625 C 233.222656 129.140625 265.753906 146.285156 267.511719 166.726562 L 267.730469 215.527344 C 267.730469 217.945312 265.753906 220.140625 263.335938 220.140625 Z M 263.335938 220.140625 " fill-opacity="1" fill-rule="evenodd"/><path fill="#135981" d="M 137.601562 219.703125 C 135.183594 219.703125 133.207031 217.722656 133.207031 215.304688 L 133.207031 180.796875 C 133.207031 175.082031 142 175.082031 142 180.796875 L 142 215.304688 C 142 217.722656 140.019531 219.703125 137.601562 219.703125 Z M 137.601562 219.703125 " fill-opacity="1" fill-rule="evenodd"/><path fill="#135981" d="M 235.417969 219.703125 C 233 219.703125 231.023438 217.722656 231.023438 215.304688 L 231.023438 180.796875 C 231.023438 175.082031 239.816406 175.082031 239.816406 180.796875 L 239.816406 215.304688 C 239.816406 217.722656 237.835938 219.703125 235.417969 219.703125 Z M 235.417969 219.703125 " fill-opacity="1" fill-rule="evenodd"/><path fill="#135981" d="M 205.746094 180.136719 C 204.425781 180.136719 203.105469 179.476562 202.226562 178.597656 L 183.324219 154.417969 C 181.785156 152.660156 182.003906 150.023438 183.761719 148.484375 L 203.765625 129.800781 C 208.164062 126.0625 214.097656 132.4375 209.921875 136.394531 L 192.777344 152.21875 L 204.863281 167.386719 L 220.472656 133.097656 C 221.570312 130.679688 223.328125 131.339844 225.308594 131.777344 C 227.726562 132.4375 229.921875 133.753906 228.605469 136.832031 L 209.699219 177.5 C 209.042969 179.257812 207.503906 180.136719 205.746094 180.136719 Z M 205.746094 180.136719 " fill-opacity="1" fill-rule="evenodd"/><g clip-path="url(#5cea845f7e)"><path fill="#135981" d="M 225.089844 66.273438 C 214.097656 66.273438 203.546875 53.085938 198.492188 45.390625 C 172.332031 66.273438 158.703125 42.535156 150.792969 62.097656 C 148.8125 66.492188 142.21875 65.394531 142.21875 60.558594 C 142.21875 37.476562 145.734375 48.6875 133.644531 34.621094 C 132.328125 33.082031 132.328125 30.664062 133.644531 28.90625 C 142.660156 17.914062 161.121094 9.34375 177.386719 8.902344 C 189.257812 8.460938 199.371094 11.761719 206.84375 18.792969 C 216.074219 19.894531 230.582031 27.148438 230.582031 49.128906 C 230.582031 60.777344 232.5625 66.273438 225.089844 66.273438 Z M 199.589844 34.402344 C 201.128906 34.402344 202.445312 35.28125 203.328125 36.597656 C 207.722656 44.074219 215.636719 53.964844 221.789062 56.820312 L 221.789062 49.128906 C 221.789062 25.828125 204.644531 29.125 201.789062 26.046875 C 186.621094 10 155.847656 19.453125 142.878906 31.761719 C 149.253906 38.796875 151.671875 38.136719 151.449219 47.371094 C 163.761719 40.117188 176.730469 54.402344 196.511719 35.5 C 197.390625 34.839844 198.492188 34.402344 199.589844 34.402344 Z M 199.589844 34.402344 " fill-opacity="1" fill-rule="evenodd"/></g><path fill="#135981" d="M 175.851562 77.921875 C 174.96875 77.921875 170.136719 76.386719 167.277344 77.484375 C 162 79.683594 158.484375 71.988281 163.539062 69.570312 C 169.253906 66.933594 183.105469 68.03125 179.804688 75.285156 C 179.148438 77.042969 177.609375 77.921875 175.851562 77.921875 Z M 175.851562 77.921875 " fill-opacity="1" fill-rule="evenodd"/><path fill="#135981" d="M 207.28125 77.921875 C 206.625 77.921875 201.789062 76.386719 198.929688 77.484375 C 193.65625 79.683594 190.136719 71.988281 195.195312 69.570312 C 200.6875 66.933594 214.757812 68.03125 211.460938 75.285156 C 210.582031 77.042969 209.042969 77.921875 207.28125 77.921875 Z M 207.28125 77.921875 " fill-opacity="1" fill-rule="evenodd"/><path fill="#135981" d="M 186.402344 105.179688 C 177.386719 105.179688 167.277344 98.585938 172.113281 93.53125 C 173.871094 91.773438 176.730469 91.550781 178.488281 93.308594 C 182.445312 97.265625 190.359375 97.265625 194.535156 93.308594 C 198.710938 89.355469 204.644531 95.726562 200.46875 99.683594 C 196.730469 103.421875 191.675781 105.179688 186.402344 105.179688 Z M 186.402344 105.179688 " fill-opacity="1" fill-rule="evenodd"/><path fill="#135981" d="M 167.71875 180.136719 C 165.957031 180.136719 164.417969 179.257812 163.539062 177.71875 L 144.855469 136.832031 C 143.539062 133.976562 145.296875 132.65625 147.492188 131.777344 C 149.472656 131.117188 151.671875 130.679688 152.769531 133.097656 L 168.597656 167.386719 L 180.6875 152.21875 L 163.101562 136.394531 C 158.703125 132.4375 164.640625 126.0625 169.035156 129.800781 L 189.699219 148.484375 C 191.457031 150.023438 191.675781 152.660156 190.136719 154.417969 L 171.015625 178.597656 C 170.136719 179.476562 169.035156 180.136719 167.71875 180.136719 Z M 167.71875 180.136719 " fill-opacity="1" fill-rule="evenodd"/><path fill="#135981" d="M 189.476562 185.410156 L 183.324219 185.410156 C 169.914062 185.410156 162 168.484375 170.355469 166.949219 C 177.609375 165.410156 173.871094 176.621094 183.324219 176.621094 C 188.378906 176.621094 196.074219 177.71875 197.390625 170.023438 C 198.269531 164.308594 206.84375 165.628906 205.964844 171.34375 C 204.863281 179.257812 197.613281 185.410156 189.476562 185.410156 Z M 189.476562 185.410156 " fill-opacity="1" fill-rule="evenodd"/><path fill="#135981" d="M 173.210938 219.703125 C 170.574219 219.703125 168.597656 217.285156 168.816406 214.648438 L 174.3125 179.476562 C 175.191406 173.761719 183.984375 175.082031 183.105469 180.796875 L 177.609375 215.964844 C 177.167969 218.164062 175.410156 219.703125 173.210938 219.703125 Z M 199.589844 219.703125 C 197.390625 219.703125 195.632812 218.164062 195.195312 215.964844 L 189.917969 180.796875 C 189.039062 175.082031 197.613281 173.761719 198.492188 179.476562 L 203.984375 214.648438 C 204.425781 217.285156 202.226562 219.703125 199.589844 219.703125 Z M 199.589844 219.703125 " fill-opacity="1" fill-rule="evenodd"/><g clip-path="url(#91feacab6f)"><path fill="#135981" d="M 242.371094 214.417969 L 250.941406 214.417969 L 250.941406 218.167969 L 242.371094 218.167969 Z M 242.371094 214.417969 " fill-opacity="1" fill-rule="nonzero"/></g></svg>