<svg xmlns="http://www.w3.org/2000/svg" xmlns:xlink="http://www.w3.org/1999/xlink" width="500" zoomAndPan="magnify" viewBox="0 0 375 374.999991" height="500" preserveAspectRatio="xMidYMid meet" version="1.0"><defs><clipPath id="aeea2f61de"><path d="M 0 292 L 375 292 L 375 336.9375 L 0 336.9375 Z M 0 292 " clip-rule="nonzero"/></clipPath><clipPath id="025293b833"><path d="M 126.164062 164.765625 L 134.738281 164.765625 L 134.738281 168.515625 L 126.164062 168.515625 Z M 126.164062 164.765625 " clip-rule="nonzero"/></clipPath></defs><g clip-path="url(#aeea2f61de)"><path fill="#135981" d="M 353.0625 336.449219 L 21.9375 336.449219 C 9.863281 336.449219 0 326.589844 0 314.460938 C 0 302.382812 9.863281 292.523438 21.9375 292.523438 L 353.0625 292.523438 C 365.136719 292.523438 375 302.382812 375 314.460938 C 375 326.589844 365.136719 336.449219 353.0625 336.449219 Z M 21.9375 301.328125 C 14.714844 301.328125 8.808594 307.234375 8.808594 314.460938 C 8.808594 321.738281 14.714844 327.644531 21.9375 327.644531 L 353.0625 327.644531 C 360.285156 327.644531 366.191406 321.738281 366.191406 314.460938 C 366.191406 307.234375 360.285156 301.328125 353.0625 301.328125 Z M 21.9375 301.328125 " fill-opacity="1" fill-rule="evenodd"/></g><path fill="#135981" d="M 90.703125 301.328125 L 70.085938 301.328125 C 67.660156 301.328125 65.65625 299.324219 65.65625 296.953125 L 65.65625 214.316406 C 65.65625 211.890625 67.660156 209.886719 70.085938 209.886719 L 90.703125 209.886719 C 93.128906 209.886719 95.082031 211.890625 95.082031 214.316406 L 95.082031 296.953125 C 95.082031 299.324219 93.128906 301.328125 90.703125 301.328125 Z M 74.460938 292.523438 L 86.328125 292.523438 L 86.328125 218.691406 L 74.460938 218.691406 Z M 74.460938 292.523438 " fill-opacity="1" fill-rule="evenodd"/><path fill="#135981" d="M 150.03125 266.367188 L 90.703125 266.367188 C 88.277344 266.367188 86.328125 264.414062 86.328125 261.988281 L 86.328125 218.691406 L 74.460938 218.691406 L 74.460938 261.988281 C 74.460938 264.414062 72.511719 266.367188 70.085938 266.367188 L 20.777344 266.367188 C 11.867188 266.367188 4.640625 259.140625 4.640625 250.28125 L 4.640625 178.296875 C 4.640625 169.4375 11.917969 162.214844 20.777344 162.214844 L 150.03125 162.214844 C 158.945312 162.214844 166.167969 169.4375 166.167969 178.296875 L 166.167969 250.28125 C 166.167969 259.140625 158.890625 266.367188 150.03125 266.367188 Z M 95.082031 257.613281 L 150.03125 257.613281 C 154.09375 257.613281 157.363281 254.289062 157.363281 250.28125 L 157.363281 178.296875 C 157.363281 174.289062 154.09375 171.019531 150.03125 171.019531 L 20.777344 171.019531 C 16.71875 171.019531 13.449219 174.289062 13.449219 178.296875 L 13.449219 250.28125 C 13.449219 254.289062 16.71875 257.613281 20.777344 257.613281 L 65.65625 257.613281 L 65.65625 214.316406 C 65.65625 211.890625 67.660156 209.886719 70.085938 209.886719 L 90.703125 209.886719 C 93.128906 209.886719 95.082031 211.890625 95.082031 214.316406 Z M 95.082031 257.613281 " fill-opacity="1" fill-rule="evenodd"/><path fill="#135981" d="M 293.472656 114.910156 C 290.886719 114.910156 288.832031 112.695312 289.042969 110.109375 C 289.9375 100.40625 290.097656 82.636719 280.972656 72.40625 C 276.597656 67.5 270.636719 65.023438 262.832031 64.863281 C 261.199219 64.863281 259.667969 63.863281 258.984375 62.386719 C 255.027344 54.054688 247.644531 49.519531 236.9375 48.9375 C 214 47.671875 183.253906 64.285156 170.230469 80.367188 C 177.296875 85.378906 180.40625 96.925781 183.570312 106.101562 C 184.308594 108.421875 183.097656 110.902344 180.828125 111.691406 C 178.507812 112.484375 176.03125 111.269531 175.238281 108.949219 C 172.496094 100.933594 168.753906 87.382812 162.953125 86.644531 C 159.789062 86.222656 158.101562 82.6875 159.734375 80 C 171.546875 60.644531 208.882812 38.550781 237.414062 40.132812 C 250.386719 40.871094 260.089844 46.40625 265.679688 56.214844 C 274.699219 56.953125 282.027344 60.433594 287.511719 66.550781 C 298.851562 79.207031 298.851562 99.773438 297.796875 110.902344 C 297.585938 113.222656 295.6875 114.910156 293.472656 114.910156 Z M 293.472656 114.910156 " fill-opacity="1" fill-rule="evenodd"/><path fill="#135981" d="M 206.667969 208.882812 C 204.242188 208.882812 202.292969 206.933594 202.292969 204.507812 L 202.292969 181.460938 C 202.292969 179.035156 204.242188 177.085938 206.667969 177.085938 C 209.09375 177.085938 211.046875 179.035156 211.046875 181.460938 L 211.046875 204.507812 C 211.046875 206.933594 209.09375 208.882812 206.667969 208.882812 Z M 206.667969 208.882812 " fill-opacity="1" fill-rule="evenodd"/><path fill="#135981" d="M 266.15625 208.882812 C 263.730469 208.882812 261.777344 206.933594 261.777344 204.507812 L 261.777344 181.460938 C 261.777344 179.035156 263.730469 177.085938 266.15625 177.085938 C 268.582031 177.085938 270.53125 179.035156 270.53125 181.460938 L 270.53125 204.507812 C 270.53125 206.933594 268.582031 208.882812 266.15625 208.882812 Z M 266.15625 208.882812 " fill-opacity="1" fill-rule="evenodd"/><path fill="#135981" d="M 236.410156 194.277344 C 202.554688 194.277344 174.976562 166.75 174.976562 132.839844 L 174.976562 107.527344 C 174.976562 106.207031 175.554688 104.996094 176.558594 104.152344 L 192.21875 91.125 C 193.800781 89.808594 196.070312 89.753906 197.703125 91.019531 C 197.808594 91.074219 207.617188 98.457031 222.121094 102.042969 C 241.15625 106.789062 258.984375 103.042969 275.121094 90.96875 C 276.914062 89.648438 279.390625 89.859375 280.921875 91.441406 L 296.582031 107.472656 C 297.375 108.265625 297.847656 109.371094 297.847656 110.53125 L 297.847656 132.839844 C 297.847656 166.75 270.269531 194.277344 236.410156 194.277344 Z M 183.78125 109.582031 L 183.78125 132.839844 C 183.78125 161.898438 207.40625 185.46875 236.410156 185.46875 C 265.417969 185.46875 289.042969 161.898438 289.042969 132.839844 L 289.042969 112.324219 L 277.28125 100.25 C 255.34375 115.171875 233.984375 114.171875 219.640625 110.53125 C 208.25 107.632812 199.601562 102.726562 195.277344 99.984375 Z M 195.066406 94.5 Z M 195.066406 94.5 " fill-opacity="1" fill-rule="evenodd"/><path fill="#135981" d="M 236.410156 171.8125 C 229.820312 171.8125 223.597656 169.28125 218.957031 164.585938 C 217.269531 162.898438 217.269531 160.105469 218.957031 158.363281 C 220.695312 156.675781 223.4375 156.675781 225.179688 158.363281 C 231.402344 164.585938 241.472656 164.585938 247.644531 158.363281 C 249.382812 156.675781 252.179688 156.675781 253.867188 158.363281 C 255.609375 160.105469 255.609375 162.898438 253.867188 164.585938 C 249.226562 169.28125 243.003906 171.8125 236.410156 171.8125 Z M 236.410156 171.8125 " fill-opacity="1" fill-rule="evenodd"/><path fill="#135981" d="M 218.585938 131.523438 C 218.113281 131.523438 217.585938 131.417969 217.109375 131.257812 C 212.257812 129.464844 207.882812 129.464844 203.769531 131.152344 C 201.554688 132.101562 198.96875 131.046875 198.019531 128.78125 C 197.070312 126.566406 198.179688 123.980469 200.394531 123.03125 C 206.5625 120.5 213.207031 120.445312 220.117188 122.976562 C 224.703125 124.664062 223.492188 131.523438 218.585938 131.523438 Z M 218.585938 131.523438 " fill-opacity="1" fill-rule="evenodd"/><path fill="#135981" d="M 270.742188 131.523438 C 270.214844 131.523438 269.742188 131.417969 269.214844 131.257812 C 264.414062 129.464844 260.039062 129.464844 255.925781 131.152344 C 253.65625 132.101562 251.070312 131.046875 250.175781 128.78125 C 249.226562 126.566406 250.28125 123.980469 252.550781 123.03125 C 258.71875 120.5 265.3125 120.445312 272.21875 122.976562 C 276.859375 124.664062 275.59375 131.523438 270.742188 131.523438 Z M 270.742188 131.523438 " fill-opacity="1" fill-rule="evenodd"/><path fill="#135981" d="M 236.410156 240.894531 C 235.199219 240.894531 234.039062 240.367188 233.195312 239.46875 L 203.453125 207.511719 C 201.816406 205.71875 201.921875 202.976562 203.664062 201.289062 C 205.457031 199.65625 208.25 199.761719 209.886719 201.5 L 236.410156 230.03125 L 262.9375 201.5 C 264.625 199.761719 267.367188 199.65625 269.160156 201.289062 C 270.953125 202.976562 271.058594 205.71875 269.371094 207.511719 L 239.628906 239.46875 C 238.785156 240.367188 237.625 240.894531 236.410156 240.894531 Z M 236.410156 240.894531 " fill-opacity="1" fill-rule="evenodd"/><path fill="#135981" d="M 330.703125 301.328125 C 328.277344 301.328125 326.273438 299.324219 326.273438 296.953125 L 326.273438 255.132812 C 326.273438 229.660156 305.546875 208.882812 280.023438 208.882812 L 266.15625 208.882812 C 263.730469 208.882812 261.777344 206.933594 261.777344 204.507812 C 261.777344 202.082031 263.730469 200.128906 266.15625 200.128906 L 280.023438 200.128906 C 310.398438 200.128906 335.078125 224.808594 335.078125 255.132812 L 335.078125 296.953125 C 335.078125 299.324219 333.128906 301.328125 330.703125 301.328125 Z M 143.28125 301.328125 C 140.855469 301.328125 138.90625 299.324219 138.90625 296.953125 L 138.90625 261.988281 C 138.90625 259.5625 140.855469 257.613281 143.28125 257.613281 C 145.707031 257.613281 147.660156 259.5625 147.660156 261.988281 L 147.660156 296.953125 C 147.660156 299.324219 145.707031 301.328125 143.28125 301.328125 Z M 161.738281 220.484375 C 157.679688 220.484375 155.78125 215.316406 158.945312 212.734375 C 168.804688 204.613281 181.199219 200.128906 193.90625 200.128906 L 206.667969 200.128906 C 209.09375 200.128906 211.046875 202.082031 211.046875 204.507812 C 211.046875 206.933594 209.09375 208.882812 206.667969 208.882812 L 193.90625 208.882812 C 183.253906 208.882812 172.8125 212.679688 164.535156 219.484375 C 163.742188 220.167969 162.742188 220.484375 161.738281 220.484375 Z M 161.738281 220.484375 " fill-opacity="1" fill-rule="evenodd"/><path fill="#135981" d="M 214.578125 301.328125 C 213.523438 301.328125 212.417969 300.90625 211.574219 300.117188 L 181.355469 270.953125 C 179.40625 269.109375 179.5625 265.996094 181.671875 264.363281 L 188.949219 258.613281 L 179.351562 253.394531 C 178.035156 252.65625 177.191406 251.335938 177.085938 249.859375 L 173.867188 207.355469 C 173.710938 204.929688 175.503906 202.820312 177.929688 202.609375 C 180.355469 202.449219 182.464844 204.242188 182.621094 206.667969 L 185.679688 246.800781 L 198.96875 254.132812 C 201.765625 255.609375 202.082031 259.457031 199.601562 261.410156 L 191.058594 268.160156 L 217.636719 293.789062 C 220.484375 296.53125 218.535156 301.328125 214.578125 301.328125 Z M 214.578125 301.328125 " fill-opacity="1" fill-rule="evenodd"/><path fill="#135981" d="M 232.773438 301.328125 C 230.875 301.328125 229.082031 300.0625 228.554688 298.113281 L 202.449219 205.71875 C 201.765625 203.347656 203.136719 200.921875 205.457031 200.289062 C 207.828125 199.601562 210.253906 200.972656 210.886719 203.292969 L 236.992188 295.738281 C 237.78125 298.535156 235.671875 301.328125 232.773438 301.328125 Z M 232.773438 301.328125 " fill-opacity="1" fill-rule="evenodd"/><path fill="#135981" d="M 258.246094 301.328125 C 254.34375 301.328125 252.339844 296.53125 255.1875 293.789062 L 281.765625 268.160156 L 273.222656 261.410156 C 270.742188 259.457031 271.058594 255.609375 273.855469 254.132812 L 287.144531 246.800781 L 290.253906 206.300781 C 290.414062 203.925781 292.523438 202.082031 294.949219 202.292969 C 297.375 202.449219 299.21875 204.558594 299.007812 206.984375 L 295.738281 249.859375 C 295.632812 251.335938 294.789062 252.65625 293.472656 253.394531 L 283.875 258.613281 L 291.152344 264.363281 C 293.261719 265.996094 293.417969 269.109375 291.46875 270.953125 L 261.304688 300.117188 C 260.40625 300.90625 259.300781 301.328125 258.246094 301.328125 Z M 258.246094 301.328125 " fill-opacity="1" fill-rule="evenodd"/><path fill="#135981" d="M 240.050781 301.328125 C 237.148438 301.328125 235.039062 298.535156 235.832031 295.738281 L 261.9375 203.292969 C 262.621094 200.972656 265.046875 199.601562 267.367188 200.289062 C 269.6875 200.921875 271.058594 203.347656 270.375 205.71875 L 244.269531 298.113281 C 243.742188 300.0625 241.949219 301.328125 240.050781 301.328125 Z M 240.050781 301.328125 " fill-opacity="1" fill-rule="evenodd"/><g clip-path="url(#025293b833)"><path fill="#135981" d="M 126.164062 164.765625 L 134.734375 164.765625 L 134.734375 168.515625 L 126.164062 168.515625 Z M 126.164062 164.765625 " fill-opacity="1" fill-rule="nonzero"/></g></svg>