<svg xmlns="http://www.w3.org/2000/svg" xmlns:xlink="http://www.w3.org/1999/xlink" width="500" zoomAndPan="magnify" viewBox="0 0 375 374.999991" height="500" preserveAspectRatio="xMidYMid meet" version="1.0"><defs><clipPath id="710241958b"><path d="M 1 19 L 374 19 L 374 356.53125 L 1 356.53125 Z M 1 19 " clip-rule="nonzero"/></clipPath><clipPath id="08df4c3515"><path d="M 244.113281 229.765625 L 252.691406 229.765625 L 252.691406 233.515625 L 244.113281 233.515625 Z M 244.113281 229.765625 " clip-rule="nonzero"/></clipPath></defs><path fill="#135981" d="M 114.527344 321.335938 L 61.300781 321.335938 C 54.972656 321.335938 49.957031 316.316406 49.957031 309.992188 L 49.957031 263.742188 C 49.957031 257.417969 54.972656 252.398438 61.300781 252.398438 L 114.527344 252.398438 C 120.855469 252.398438 125.871094 257.417969 125.871094 263.742188 L 125.871094 309.992188 C 125.871094 316.316406 120.636719 321.335938 114.527344 321.335938 Z M 61.300781 261.125 C 59.773438 261.125 58.683594 262.214844 58.683594 263.742188 L 58.683594 309.992188 C 58.683594 311.300781 59.773438 312.609375 61.300781 312.609375 L 114.527344 312.609375 C 115.835938 312.609375 117.148438 311.300781 117.148438 309.992188 L 117.148438 263.742188 C 117.148438 262.214844 115.835938 261.125 114.527344 261.125 Z M 61.300781 261.125 " fill-opacity="1" fill-rule="evenodd"/><path fill="#135981" d="M 119.546875 319.152344 C 118.671875 319.152344 117.582031 318.71875 116.710938 318.0625 L 53.445312 262 C 49.082031 258.289062 54.972656 251.746094 59.335938 255.453125 L 122.382812 311.519531 C 125.4375 314.136719 123.472656 319.152344 119.546875 319.152344 Z M 119.546875 319.152344 " fill-opacity="1" fill-rule="evenodd"/><path fill="#135981" d="M 56.28125 319.152344 C 52.355469 319.152344 50.394531 314.136719 53.445312 311.519531 L 116.710938 255.453125 C 121.074219 251.746094 126.746094 258.289062 122.382812 262 L 59.335938 318.0625 C 58.464844 318.71875 57.375 319.152344 56.28125 319.152344 Z M 56.28125 319.152344 " fill-opacity="1" fill-rule="evenodd"/><path fill="#135981" d="M 214.003906 321.335938 L 160.777344 321.335938 C 154.667969 321.335938 149.652344 316.316406 149.652344 309.992188 L 149.652344 263.742188 C 149.652344 257.417969 154.667969 252.398438 160.777344 252.398438 L 214.003906 252.398438 C 220.332031 252.398438 225.347656 257.417969 225.347656 263.742188 L 225.347656 309.992188 C 225.347656 316.316406 220.332031 321.335938 214.003906 321.335938 Z M 160.777344 261.125 C 159.46875 261.125 158.378906 262.214844 158.378906 263.742188 L 158.378906 309.992188 C 158.378906 311.300781 159.46875 312.609375 160.777344 312.609375 L 214.003906 312.609375 C 215.53125 312.609375 216.621094 311.300781 216.621094 309.992188 L 216.621094 263.742188 C 216.621094 262.214844 215.53125 261.125 214.003906 261.125 Z M 160.777344 261.125 " fill-opacity="1" fill-rule="evenodd"/><path fill="#135981" d="M 219.242188 319.152344 C 218.148438 319.152344 217.058594 318.71875 216.1875 318.0625 L 153.140625 262 C 148.777344 258.289062 154.449219 251.746094 158.8125 255.453125 L 222.078125 311.519531 C 225.132812 314.136719 223.167969 319.152344 219.242188 319.152344 Z M 219.242188 319.152344 " fill-opacity="1" fill-rule="evenodd"/><path fill="#135981" d="M 155.976562 319.152344 C 152.050781 319.152344 149.867188 314.136719 153.140625 311.519531 L 216.1875 255.453125 C 220.550781 251.746094 226.441406 258.289062 222.078125 262 L 158.8125 318.0625 C 157.941406 318.71875 157.066406 319.152344 155.976562 319.152344 Z M 155.976562 319.152344 " fill-opacity="1" fill-rule="evenodd"/><path fill="#135981" d="M 313.699219 321.335938 L 260.472656 321.335938 C 254.144531 321.335938 249.128906 316.316406 249.128906 309.992188 L 249.128906 263.742188 C 249.128906 257.417969 254.144531 252.398438 260.472656 252.398438 L 313.699219 252.398438 C 319.808594 252.398438 324.824219 257.417969 324.824219 263.742188 L 324.824219 309.992188 C 324.824219 316.316406 319.808594 321.335938 313.699219 321.335938 Z M 260.472656 261.125 C 258.945312 261.125 257.851562 262.214844 257.851562 263.742188 L 257.851562 309.992188 C 257.851562 311.300781 258.945312 312.609375 260.472656 312.609375 L 313.699219 312.609375 C 315.007812 312.609375 316.097656 311.300781 316.097656 309.992188 L 316.097656 263.742188 C 316.097656 262.214844 315.007812 261.125 313.699219 261.125 Z M 260.472656 261.125 " fill-opacity="1" fill-rule="evenodd"/><path fill="#135981" d="M 318.71875 319.152344 C 317.625 319.152344 316.753906 318.71875 315.882812 318.0625 L 252.617188 262 C 248.253906 258.289062 254.144531 251.746094 258.289062 255.453125 L 321.554688 311.519531 C 324.605469 314.136719 322.644531 319.152344 318.71875 319.152344 Z M 318.71875 319.152344 " fill-opacity="1" fill-rule="evenodd"/><path fill="#135981" d="M 255.453125 319.152344 C 251.527344 319.152344 249.5625 314.136719 252.617188 311.519531 L 315.882812 255.453125 C 320.246094 251.746094 325.917969 258.289062 321.554688 262 L 258.289062 318.0625 C 257.636719 318.71875 256.542969 319.152344 255.453125 319.152344 Z M 255.453125 319.152344 " fill-opacity="1" fill-rule="evenodd"/><path fill="#135981" d="M 314.574219 236.476562 L 60.210938 236.476562 C 54.539062 236.476562 49.957031 231.894531 49.957031 226.222656 L 49.957031 142.671875 C 49.957031 137 54.539062 132.417969 60.210938 132.417969 L 314.574219 132.417969 C 320.246094 132.417969 324.824219 137 324.824219 142.671875 L 324.824219 226.222656 C 324.824219 231.894531 320.246094 236.476562 314.574219 236.476562 Z M 60.210938 141.144531 C 59.335938 141.144531 58.683594 141.796875 58.683594 142.671875 L 58.683594 226.222656 C 58.683594 227.09375 59.335938 227.75 60.210938 227.75 L 314.574219 227.75 C 315.445312 227.75 316.097656 227.09375 316.097656 226.222656 L 316.097656 142.671875 C 316.097656 141.796875 315.445312 141.144531 314.574219 141.144531 Z M 60.210938 141.144531 " fill-opacity="1" fill-rule="evenodd"/><path fill="#135981" d="M 79.1875 236.476562 C 75.042969 236.476562 73.296875 231.238281 76.351562 228.621094 L 158.378906 161.429688 C 160.121094 160.121094 162.523438 160.121094 164.050781 161.648438 L 216.40625 212.695312 C 220.550781 216.621094 214.441406 222.949219 210.296875 218.804688 L 160.777344 170.8125 L 81.804688 235.382812 C 81.152344 236.257812 80.0625 236.476562 79.1875 236.476562 Z M 79.1875 236.476562 " fill-opacity="1" fill-rule="evenodd"/><path fill="#135981" d="M 294.503906 236.476562 C 293.410156 236.476562 292.320312 236.039062 291.449219 235.164062 L 238.21875 183.683594 L 207.898438 210.949219 C 203.753906 214.878906 197.863281 208.332031 202.007812 204.40625 L 235.382812 174.300781 C 237.128906 172.773438 239.746094 172.992188 241.273438 174.519531 L 297.558594 229.058594 C 300.175781 231.675781 298.429688 236.476562 294.503906 236.476562 Z M 294.503906 236.476562 " fill-opacity="1" fill-rule="evenodd"/><path fill="#135981" d="M 369.109375 105.804688 L 5.671875 105.804688 C 0 105.804688 0 97.078125 5.671875 97.078125 L 369.109375 97.078125 C 375 97.078125 375 105.804688 369.109375 105.804688 Z M 369.109375 105.804688 " fill-opacity="1" fill-rule="evenodd"/><g clip-path="url(#710241958b)"><path fill="#135981" d="M 345.769531 356.675781 L 29.230469 356.675781 C 13.960938 356.675781 1.308594 344.023438 1.308594 328.753906 L 1.308594 47.558594 C 1.308594 32.066406 13.960938 19.632812 29.230469 19.632812 L 345.769531 19.632812 C 361.039062 19.632812 373.472656 32.066406 373.472656 47.558594 L 373.472656 328.753906 C 373.472656 344.023438 361.039062 356.675781 345.769531 356.675781 Z M 29.230469 28.359375 C 18.761719 28.359375 10.035156 36.867188 10.035156 47.558594 L 10.035156 328.753906 C 10.035156 339.222656 18.761719 347.949219 29.230469 347.949219 L 345.769531 347.949219 C 356.238281 347.949219 364.746094 339.222656 364.746094 328.753906 L 364.746094 47.558594 C 364.746094 36.867188 356.238281 28.359375 345.769531 28.359375 Z M 29.230469 28.359375 " fill-opacity="1" fill-rule="evenodd"/></g><path fill="#135981" d="M 58.464844 63.480469 L 34.46875 63.480469 C 28.578125 63.480469 28.578125 54.753906 34.46875 54.753906 L 58.464844 54.753906 C 64.136719 54.753906 64.136719 63.480469 58.464844 63.480469 Z M 58.464844 63.480469 " fill-opacity="1" fill-rule="evenodd"/><path fill="#135981" d="M 108.640625 63.480469 L 84.640625 63.480469 C 78.753906 63.480469 78.753906 54.753906 84.640625 54.753906 L 108.640625 54.753906 C 114.527344 54.753906 114.3125 63.480469 108.640625 63.480469 Z M 108.640625 63.480469 " fill-opacity="1" fill-rule="evenodd"/><path fill="#135981" d="M 158.8125 63.480469 L 134.816406 63.480469 C 128.925781 63.480469 128.925781 54.753906 134.816406 54.753906 L 158.8125 54.753906 C 164.484375 54.753906 164.703125 63.480469 158.8125 63.480469 Z M 158.8125 63.480469 " fill-opacity="1" fill-rule="evenodd"/><path fill="#135981" d="M 344.675781 87.261719 L 212.042969 87.261719 C 205.933594 87.261719 201.132812 82.242188 201.132812 76.351562 L 201.132812 49.082031 C 201.132812 43.195312 205.933594 38.394531 212.042969 38.394531 L 344.675781 38.394531 C 350.785156 38.394531 355.585938 43.195312 355.585938 49.082031 L 355.585938 76.351562 C 355.585938 82.242188 350.785156 87.261719 344.675781 87.261719 Z M 212.042969 46.902344 C 210.734375 46.902344 209.859375 47.992188 209.859375 49.082031 L 209.859375 76.351562 C 209.859375 77.441406 210.734375 78.316406 212.042969 78.316406 L 344.675781 78.316406 C 345.984375 78.316406 346.859375 77.441406 346.859375 76.351562 L 346.859375 49.082031 C 346.859375 47.992188 345.769531 46.902344 344.675781 46.902344 Z M 212.042969 46.902344 " fill-opacity="1" fill-rule="evenodd"/><path fill="#135981" d="M 329.40625 66.972656 L 227.09375 66.972656 C 221.421875 66.972656 221.421875 58.246094 227.09375 58.246094 L 329.40625 58.246094 C 335.078125 58.246094 335.078125 66.972656 329.40625 66.972656 Z M 329.40625 66.972656 " fill-opacity="1" fill-rule="evenodd"/><path fill="#135981" d="M 187.390625 105.804688 C 184.992188 105.804688 183.027344 103.839844 183.027344 101.441406 L 183.027344 23.996094 C 183.027344 18.324219 191.753906 18.324219 191.753906 23.996094 L 191.753906 101.441406 C 191.753906 103.839844 189.789062 105.804688 187.390625 105.804688 Z M 187.390625 105.804688 " fill-opacity="1" fill-rule="evenodd"/><g clip-path="url(#08df4c3515)"><path fill="#135981" d="M 244.113281 229.765625 L 252.683594 229.765625 L 252.683594 233.515625 L 244.113281 233.515625 Z M 244.113281 229.765625 " fill-opacity="1" fill-rule="nonzero"/></g></svg>