<svg xmlns="http://www.w3.org/2000/svg" xmlns:xlink="http://www.w3.org/1999/xlink" width="500" zoomAndPan="magnify" viewBox="0 0 375 225" height="300" preserveAspectRatio="xMidYMid meet" version="1.0"><defs><g/><clipPath id="319d27fbbb"><path d="M 6.375 86 L 102 86 L 102 214.296875 L 6.375 214.296875 Z M 6.375 86 " clip-rule="nonzero"/></clipPath><clipPath id="cd2c298703"><path d="M 9 18.316406 L 104.226562 18.316406 L 104.226562 146 L 9 146 Z M 9 18.316406 " clip-rule="nonzero"/></clipPath><clipPath id="a26e24f616"><path d="M 0 67 L 105 67 L 105 215 L 0 215 Z M 0 67 " clip-rule="nonzero"/></clipPath><clipPath id="0fb9a1c503"><path d="M 6.113281 67.472656 L 104.117188 165.480469 L 55.3125 214.285156 L -42.695312 116.28125 Z M 6.113281 67.472656 " clip-rule="nonzero"/></clipPath><clipPath id="bf85352f52"><path d="M 55.339844 18.246094 L 153.347656 116.25 L 55.339844 214.257812 L -42.664062 116.25 Z M 55.339844 18.246094 " clip-rule="nonzero"/></clipPath><clipPath id="96682da3a6"><path d="M 55.339844 18.246094 L 153.347656 116.25 L 55.339844 214.257812 L -42.664062 116.25 Z M 55.339844 18.246094 " clip-rule="nonzero"/></clipPath><clipPath id="b4ac1988b2"><path d="M 5 86 L 102 86 L 102 215 L 5 215 Z M 5 86 " clip-rule="nonzero"/></clipPath><clipPath id="3421d01ecd"><path d="M 6.113281 67.472656 L 104.117188 165.480469 L 55.3125 214.285156 L -42.695312 116.28125 Z M 6.113281 67.472656 " clip-rule="nonzero"/></clipPath><clipPath id="0dedc50798"><path d="M 55.339844 18.246094 L 153.347656 116.25 L 55.339844 214.257812 L -42.664062 116.25 Z M 55.339844 18.246094 " clip-rule="nonzero"/></clipPath><clipPath id="cebe782536"><path d="M 55.339844 18.246094 L 153.347656 116.25 L 55.339844 214.257812 L -42.664062 116.25 Z M 55.339844 18.246094 " clip-rule="nonzero"/></clipPath><clipPath id="86ac448dfc"><path d="M 19.535156 85.933594 L 101.597656 168 L 55.339844 214.257812 L -26.722656 132.191406 Z M 19.535156 85.933594 " clip-rule="nonzero"/></clipPath><clipPath id="f9abe7ed1b"><path d="M 5.5625 16.6875 L 105.078125 16.6875 L 105.078125 215.71875 L 5.558594 215.71875 Z M 5.5625 16.6875 " clip-rule="nonzero"/></clipPath><clipPath id="4277116f49"><path d="M 55.339844 -33.503906 L 204.832031 115.988281 L 55.078125 265.742188 L -94.414062 116.25 Z M 55.339844 -33.503906 " clip-rule="nonzero"/></clipPath><clipPath id="44e7d3608b"><path d="M 5.5625 16.6875 L 105.078125 16.6875 L 105.078125 215.71875 L 5.558594 215.71875 Z M 5.5625 16.6875 " clip-rule="nonzero"/></clipPath><clipPath id="345504efc3"><path d="M 9 67 L 105 67 L 105 147 L 9 147 Z M 9 67 " clip-rule="nonzero"/></clipPath><clipPath id="11aacdb502"><path d="M 6.113281 67.472656 L 104.117188 165.480469 L 55.3125 214.285156 L -42.695312 116.28125 Z M 6.113281 67.472656 " clip-rule="nonzero"/></clipPath><clipPath id="565e68d79d"><path d="M 55.339844 18.246094 L 153.347656 116.25 L 55.339844 214.257812 L -42.664062 116.25 Z M 55.339844 18.246094 " clip-rule="nonzero"/></clipPath><clipPath id="55ebe79d0d"><path d="M 55.339844 18.246094 L 153.347656 116.25 L 55.339844 214.257812 L -42.664062 116.25 Z M 55.339844 18.246094 " clip-rule="nonzero"/></clipPath><clipPath id="be40ca05bb"><path d="M 55.339844 18.246094 L 137.402344 100.308594 L 91.144531 146.566406 L 9.082031 64.503906 Z M 55.339844 18.246094 " clip-rule="nonzero"/></clipPath><clipPath id="9905c1f275"><path d="M 5.5625 16.6875 L 105.078125 16.6875 L 105.078125 215.71875 L 5.558594 215.71875 Z M 5.5625 16.6875 " clip-rule="nonzero"/></clipPath><clipPath id="54bbbba909"><path d="M 55.339844 -33.503906 L 204.832031 115.988281 L 55.078125 265.742188 L -94.414062 116.25 Z M 55.339844 -33.503906 " clip-rule="nonzero"/></clipPath><clipPath id="1ac5b429a1"><path d="M 5.5625 16.6875 L 105.078125 16.6875 L 105.078125 215.71875 L 5.558594 215.71875 Z M 5.5625 16.6875 " clip-rule="nonzero"/></clipPath><clipPath id="54b9da740b"><path d="M 9 67 L 105 67 L 105 147 L 9 147 Z M 9 67 " clip-rule="nonzero"/></clipPath><clipPath id="29ee2df6ea"><path d="M 6.113281 67.472656 L 104.117188 165.480469 L 55.3125 214.285156 L -42.695312 116.28125 Z M 6.113281 67.472656 " clip-rule="nonzero"/></clipPath><clipPath id="7a975b75e9"><path d="M 55.339844 18.246094 L 153.347656 116.25 L 55.339844 214.257812 L -42.664062 116.25 Z M 55.339844 18.246094 " clip-rule="nonzero"/></clipPath><clipPath id="0177b3b804"><path d="M 55.339844 18.246094 L 153.347656 116.25 L 55.339844 214.257812 L -42.664062 116.25 Z M 55.339844 18.246094 " clip-rule="nonzero"/></clipPath><clipPath id="522e332fd9"><path d="M 55.339844 18.246094 L 137.402344 100.308594 L 91.144531 146.566406 L 9.082031 64.503906 Z M 55.339844 18.246094 " clip-rule="nonzero"/></clipPath><clipPath id="c813e321e4"><path d="M 105.121094 215.808594 L 5.605469 215.808594 L 5.601562 16.777344 L 105.121094 16.777344 Z M 105.121094 215.808594 " clip-rule="nonzero"/></clipPath><clipPath id="8de6f82c32"><path d="M 55.339844 -31.933594 L 203.527344 116.25 L 55.339844 264.4375 L -92.84375 116.25 Z M 55.339844 -31.933594 " clip-rule="nonzero"/></clipPath><clipPath id="a81c0c2637"><path d="M 105.121094 214.421875 L 5.601562 214.421875 L 5.605469 18.164062 L 105.121094 18.164062 Z M 105.121094 214.421875 " clip-rule="nonzero"/></clipPath><clipPath id="53fc667407"><path d="M 55.601562 -33.242188 L 205.09375 116.25 L 55.339844 266.003906 L -94.152344 116.511719 Z M 55.601562 -33.242188 " clip-rule="nonzero"/></clipPath><clipPath id="e73e5b0682"><path d="M 105.121094 215.808594 L 5.601562 215.808594 L 5.605469 16.777344 L 105.121094 16.777344 Z M 105.121094 215.808594 " clip-rule="nonzero"/></clipPath><clipPath id="afa866359d"><path d="M 5 86 L 102 86 L 102 215 L 5 215 Z M 5 86 " clip-rule="nonzero"/></clipPath><clipPath id="5513b12aed"><path d="M 6.113281 67.472656 L 104.117188 165.480469 L 55.3125 214.285156 L -42.695312 116.28125 Z M 6.113281 67.472656 " clip-rule="nonzero"/></clipPath><clipPath id="91fda88ca3"><path d="M 55.339844 18.246094 L 153.347656 116.25 L 55.339844 214.257812 L -42.664062 116.25 Z M 55.339844 18.246094 " clip-rule="nonzero"/></clipPath><clipPath id="f148af75a1"><path d="M 55.339844 18.246094 L 153.347656 116.25 L 55.339844 214.257812 L -42.664062 116.25 Z M 55.339844 18.246094 " clip-rule="nonzero"/></clipPath><clipPath id="91d568be56"><path d="M 19.535156 85.933594 L 101.597656 168 L 55.339844 214.257812 L -26.722656 132.191406 Z M 19.535156 85.933594 " clip-rule="nonzero"/></clipPath><clipPath id="86874943e7"><path d="M 105.121094 215.808594 L 5.605469 215.808594 L 5.601562 16.777344 L 105.121094 16.777344 Z M 105.121094 215.808594 " clip-rule="nonzero"/></clipPath><clipPath id="5ea354b81f"><path d="M 55.339844 -31.933594 L 203.527344 116.25 L 55.339844 264.4375 L -92.84375 116.25 Z M 55.339844 -31.933594 " clip-rule="nonzero"/></clipPath><clipPath id="080e224235"><path d="M 105.121094 214.421875 L 5.601562 214.421875 L 5.605469 18.164062 L 105.121094 18.164062 Z M 105.121094 214.421875 " clip-rule="nonzero"/></clipPath><clipPath id="2ab4437119"><path d="M 55.601562 -33.242188 L 205.09375 116.25 L 55.339844 266.003906 L -94.152344 116.511719 Z M 55.601562 -33.242188 " clip-rule="nonzero"/></clipPath><clipPath id="51cacb2b8d"><path d="M 105.121094 215.808594 L 5.601562 215.808594 L 5.605469 16.777344 L 105.121094 16.777344 Z M 105.121094 215.808594 " clip-rule="nonzero"/></clipPath></defs><rect x="-37.5" width="450" fill="#ffffff" y="-22.5" height="270" fill-opacity="1"/><rect x="-37.5" width="450" fill="#ffffff" y="-22.5" height="270" fill-opacity="1"/><g clip-path="url(#319d27fbbb)"><path fill="#135981" d="M 45.84375 147.078125 L 39.363281 140.597656 C 40.269531 137.523438 40.996094 134.40625 41.550781 131.265625 L 70.601562 160.316406 L 78.386719 168.097656 L 89.90625 179.621094 L 101.429688 168.097656 L 70.351562 137.019531 L 60.277344 126.949219 L 51 117.671875 L 42.582031 109.25 L 20 86.671875 C 24.386719 96.011719 26.578125 106.148438 26.574219 116.285156 C 26.570312 119.863281 26.296875 123.441406 25.746094 126.984375 C 24.800781 133.074219 23.050781 139.0625 20.488281 144.769531 L 32.652344 156.929688 L 38.640625 162.921875 L 61.101562 185.382812 L 55.339844 191.144531 L 28.3125 164.113281 L 16.515625 152.320312 C 13.71875 156.917969 10.339844 161.253906 6.375 165.21875 L 55.339844 214.1875 L 84.144531 185.382812 L 72.625 173.859375 Z M 45.84375 147.078125 " fill-opacity="1" fill-rule="evenodd"/></g><g clip-path="url(#cd2c298703)"><path fill="#135981" d="M 82.371094 68.390625 L 94.164062 80.183594 C 96.964844 75.582031 100.34375 71.246094 104.308594 67.28125 L 55.339844 18.316406 L 38.058594 35.597656 L 26.535156 47.117188 L 71.320312 91.902344 C 70.414062 94.976562 69.6875 98.09375 69.132812 101.234375 L 62.242188 94.347656 L 32.296875 64.402344 L 20.777344 52.878906 L 9.253906 64.402344 L 68.101562 123.25 L 90.683594 145.828125 C 86.296875 136.488281 84.105469 126.351562 84.109375 116.214844 C 84.113281 112.636719 84.386719 109.058594 84.9375 105.519531 C 85.878906 99.425781 87.632812 93.4375 90.195312 87.734375 L 55.339844 52.878906 L 49.582031 47.117188 L 55.339844 41.359375 Z M 82.371094 68.390625 " fill-opacity="1" fill-rule="evenodd"/></g><g clip-path="url(#a26e24f616)"><g clip-path="url(#0fb9a1c503)"><g clip-path="url(#bf85352f52)"><g clip-path="url(#96682da3a6)"><path fill="#ffffff" d="M 55.339844 -1.355469 L 172.949219 116.25 L 55.339844 233.859375 L -62.265625 116.25 Z M 55.339844 -1.355469 " fill-opacity="1" fill-rule="nonzero"/><path fill="#ffffff" d="M 55.339844 -1.355469 L 172.949219 116.25 L 55.339844 233.859375 L -62.265625 116.25 Z M 55.339844 -1.355469 " fill-opacity="1" fill-rule="nonzero"/></g></g></g></g><g clip-path="url(#b4ac1988b2)"><g clip-path="url(#3421d01ecd)"><g clip-path="url(#0dedc50798)"><g clip-path="url(#cebe782536)"><g clip-path="url(#86ac448dfc)"><g clip-path="url(#f9abe7ed1b)"><g clip-path="url(#4277116f49)"><g clip-path="url(#44e7d3608b)"><path fill="#38b6ff" d="M 45.683594 147.589844 L 39.097656 141 C 40.019531 137.875 40.757812 134.707031 41.324219 131.511719 L 48.324219 138.519531 L 70.855469 161.046875 L 90.480469 180.671875 L 102.191406 168.957031 L 19.414062 86.179688 C 23.875 95.675781 26.101562 105.980469 26.09375 116.285156 C 26.09375 119.921875 25.8125 123.558594 25.253906 127.160156 C 24.296875 133.351562 22.515625 139.441406 19.910156 145.238281 L 61.195312 186.527344 L 55.339844 192.382812 L 15.871094 152.914062 C 13.027344 157.589844 9.589844 162 5.558594 166.027344 L 55.339844 215.808594 L 84.621094 186.527344 Z M 45.683594 147.589844 " fill-opacity="1" fill-rule="evenodd"/></g></g></g></g></g></g></g></g><g clip-path="url(#345504efc3)"><g clip-path="url(#11aacdb502)"><g clip-path="url(#565e68d79d)"><g clip-path="url(#55ebe79d0d)"><g clip-path="url(#be40ca05bb)"><g clip-path="url(#9905c1f275)"><g clip-path="url(#54bbbba909)"><g clip-path="url(#1ac5b429a1)"><path fill="#38b6ff" d="M 82.820312 67.59375 L 94.808594 79.582031 C 97.652344 74.90625 101.089844 70.5 105.121094 66.46875 L 55.339844 16.6875 L 26.058594 45.972656 L 71.582031 91.496094 C 70.664062 94.625 69.921875 97.792969 69.359375 100.984375 L 62.355469 93.980469 L 39.824219 71.453125 L 31.914062 63.539062 L 20.199219 51.828125 L 8.488281 63.539062 L 40.085938 95.132812 L 50.320312 105.375 L 59.753906 114.804688 L 91.269531 146.320312 C 86.808594 136.824219 84.582031 126.519531 84.585938 116.214844 C 84.589844 112.574219 84.867188 108.9375 85.425781 105.339844 C 86.386719 99.144531 88.167969 93.058594 90.769531 87.257812 L 55.339844 51.828125 L 49.484375 45.96875 L 55.339844 40.113281 Z M 82.820312 67.59375 " fill-opacity="1" fill-rule="evenodd"/></g></g></g></g></g></g></g></g><g clip-path="url(#54b9da740b)"><g clip-path="url(#29ee2df6ea)"><g clip-path="url(#7a975b75e9)"><g clip-path="url(#0177b3b804)"><g clip-path="url(#522e332fd9)"><g clip-path="url(#c813e321e4)"><g clip-path="url(#8de6f82c32)"><g clip-path="url(#a81c0c2637)"><g clip-path="url(#53fc667407)"><g clip-path="url(#e73e5b0682)"><path fill="#000000" d="M 65.015625 84.96875 L 71.597656 91.550781 C 70.679688 94.675781 69.9375 97.84375 69.375 101.035156 L 62.375 94.035156 L 39.851562 71.515625 L 20.238281 51.902344 L 8.53125 63.609375 L 40.109375 95.1875 L 50.347656 105.421875 L 91.273438 146.347656 C 86.816406 136.859375 84.589844 126.558594 84.59375 116.257812 C 84.597656 112.621094 84.875 108.988281 85.433594 105.386719 C 86.394531 99.195312 88.171875 93.113281 90.777344 87.316406 L 49.507812 46.046875 L 55.359375 40.195312 L 82.828125 67.660156 L 94.8125 79.644531 C 97.65625 74.972656 101.089844 70.566406 105.121094 66.535156 L 55.359375 16.777344 L 26.089844 46.046875 L 37.800781 57.753906 L 43.652344 63.609375 Z M 65.015625 84.96875 " fill-opacity="1" fill-rule="evenodd"/></g></g></g></g></g></g></g></g></g></g><g clip-path="url(#afa866359d)"><g clip-path="url(#5513b12aed)"><g clip-path="url(#91fda88ca3)"><g clip-path="url(#f148af75a1)"><g clip-path="url(#91d568be56)"><g clip-path="url(#86874943e7)"><g clip-path="url(#5ea354b81f)"><g clip-path="url(#080e224235)"><g clip-path="url(#2ab4437119)"><g clip-path="url(#51cacb2b8d)"><path fill="#000000" d="M 27.894531 164.925781 L 15.910156 152.941406 C 13.066406 157.617188 9.632812 162.019531 5.601562 166.050781 L 55.363281 215.808594 L 84.632812 186.539062 L 39.125 141.03125 C 40.042969 137.910156 40.785156 134.742188 41.347656 131.550781 L 48.351562 138.550781 L 90.484375 180.683594 L 102.191406 168.976562 L 50.949219 117.734375 L 19.449219 86.238281 C 23.90625 95.730469 26.132812 106.027344 26.128906 116.332031 C 26.125 119.964844 25.847656 123.597656 25.289062 127.199219 C 24.332031 133.390625 22.550781 139.472656 19.945312 145.269531 L 32.304688 157.628906 L 38.394531 163.714844 L 55.363281 180.683594 L 61.214844 186.539062 L 55.363281 192.390625 Z M 27.894531 164.925781 " fill-opacity="1" fill-rule="evenodd"/></g></g></g></g></g></g></g></g></g></g><g fill="#135981" fill-opacity="1"><g transform="translate(99.476758, 135.854755)"><g><path d="M 14.203125 0.625 C 10.210938 0.625 7.242188 -0.429688 5.296875 -2.546875 C 3.347656 -4.671875 2.304688 -8.039062 2.171875 -12.65625 L 10.078125 -13.84375 C 10.109375 -11.1875 10.425781 -9.28125 11.03125 -8.125 C 11.632812 -6.976562 12.535156 -6.40625 13.734375 -6.40625 C 15.285156 -6.40625 16.0625 -7.421875 16.0625 -9.453125 C 16.0625 -11.066406 15.691406 -12.457031 14.953125 -13.625 C 14.210938 -14.800781 13.050781 -16.0625 11.46875 -17.40625 L 7.859375 -20.5625 C 6.066406 -22.070312 4.675781 -23.679688 3.6875 -25.390625 C 2.707031 -27.097656 2.21875 -29.117188 2.21875 -31.453125 C 2.21875 -34.972656 3.257812 -37.675781 5.34375 -39.5625 C 7.425781 -41.457031 10.296875 -42.40625 13.953125 -42.40625 C 17.910156 -42.40625 20.601562 -41.25 22.03125 -38.9375 C 23.457031 -36.632812 24.222656 -33.832031 24.328125 -30.53125 L 16.375 -29.546875 C 16.300781 -31.710938 16.101562 -33.269531 15.78125 -34.21875 C 15.457031 -35.164062 14.742188 -35.640625 13.640625 -35.640625 C 12.847656 -35.640625 12.234375 -35.300781 11.796875 -34.625 C 11.367188 -33.957031 11.15625 -33.210938 11.15625 -32.390625 C 11.15625 -30.972656 11.472656 -29.78125 12.109375 -28.8125 C 12.742188 -27.851562 13.769531 -26.753906 15.1875 -25.515625 L 18.640625 -22.46875 C 20.710938 -20.71875 22.316406 -18.859375 23.453125 -16.890625 C 24.585938 -14.929688 25.15625 -12.609375 25.15625 -9.921875 C 25.15625 -7.953125 24.695312 -6.164062 23.78125 -4.5625 C 22.875 -2.96875 21.59375 -1.703125 19.9375 -0.765625 C 18.28125 0.160156 16.367188 0.625 14.203125 0.625 Z M 14.203125 0.625 "/></g></g></g><g fill="#135981" fill-opacity="1"><g transform="translate(126.028004, 135.854755)"><g><path d="M 3.15625 -41.84375 L 12.390625 -41.84375 L 12.390625 0 L 3.15625 0 Z M 3.15625 -41.84375 "/></g></g></g><g fill="#135981" fill-opacity="1"><g transform="translate(141.576492, 135.854755)"><g><path d="M 3.671875 -41.84375 L 13.578125 -41.84375 L 18.1875 -17.515625 L 23.140625 -41.84375 L 32.703125 -41.84375 L 33.421875 0 L 26.859375 0 L 26.09375 -27.84375 L 21.234375 0 L 15.390625 0 L 10.234375 -28.046875 L 9.609375 0 L 2.9375 0 Z M 3.671875 -41.84375 "/></g></g></g><g fill="#135981" fill-opacity="1"><g transform="translate(177.942397, 135.854755)"><g><path d="M 15.078125 0.625 C 10.566406 0.625 7.347656 -0.535156 5.421875 -2.859375 C 3.492188 -5.191406 2.53125 -8.628906 2.53125 -13.171875 L 2.53125 -28.71875 C 2.53125 -33.269531 3.492188 -36.6875 5.421875 -38.96875 C 7.347656 -41.257812 10.566406 -42.40625 15.078125 -42.40625 C 19.628906 -42.40625 22.875 -41.25 24.8125 -38.9375 C 26.757812 -36.632812 27.734375 -33.226562 27.734375 -28.71875 L 27.734375 -13.171875 C 27.734375 -8.628906 26.757812 -5.191406 24.8125 -2.859375 C 22.875 -0.535156 19.628906 0.625 15.078125 0.625 Z M 15.078125 -5.9375 C 16.390625 -5.9375 17.25 -6.375 17.65625 -7.25 C 18.070312 -8.132812 18.28125 -9.332031 18.28125 -10.84375 L 18.28125 -31 C 18.28125 -32.539062 18.070312 -33.742188 17.65625 -34.609375 C 17.25 -35.472656 16.390625 -35.90625 15.078125 -35.90625 C 13.835938 -35.90625 13.007812 -35.460938 12.59375 -34.578125 C 12.1875 -33.703125 11.984375 -32.507812 11.984375 -31 L 11.984375 -10.84375 C 11.984375 -9.332031 12.171875 -8.132812 12.546875 -7.25 C 12.929688 -6.375 13.773438 -5.9375 15.078125 -5.9375 Z M 15.078125 -5.9375 "/></g></g></g><g fill="#135981" fill-opacity="1"><g transform="translate(208.212883, 135.854755)"><g><path d="M 3.09375 -41.84375 L 9.609375 -41.84375 L 18.1875 -21.703125 L 18.1875 -41.84375 L 25.828125 -41.84375 L 25.828125 0 L 19.578125 0 L 11 -21.703125 L 11 0 L 3.09375 0 Z M 3.09375 -41.84375 "/></g></g></g><g fill="#135981" fill-opacity="1"><g transform="translate(237.191957, 135.854755)"><g/></g></g><g fill="#000000" fill-opacity="1"><g transform="translate(250.423018, 135.854755)"><g><path d="M 14.203125 0.625 C 10.210938 0.625 7.242188 -0.429688 5.296875 -2.546875 C 3.347656 -4.671875 2.304688 -8.039062 2.171875 -12.65625 L 10.078125 -13.84375 C 10.109375 -11.1875 10.425781 -9.28125 11.03125 -8.125 C 11.632812 -6.976562 12.535156 -6.40625 13.734375 -6.40625 C 15.285156 -6.40625 16.0625 -7.421875 16.0625 -9.453125 C 16.0625 -11.066406 15.691406 -12.457031 14.953125 -13.625 C 14.210938 -14.800781 13.050781 -16.0625 11.46875 -17.40625 L 7.859375 -20.5625 C 6.066406 -22.070312 4.675781 -23.679688 3.6875 -25.390625 C 2.707031 -27.097656 2.21875 -29.117188 2.21875 -31.453125 C 2.21875 -34.972656 3.257812 -37.675781 5.34375 -39.5625 C 7.425781 -41.457031 10.296875 -42.40625 13.953125 -42.40625 C 17.910156 -42.40625 20.601562 -41.25 22.03125 -38.9375 C 23.457031 -36.632812 24.222656 -33.832031 24.328125 -30.53125 L 16.375 -29.546875 C 16.300781 -31.710938 16.101562 -33.269531 15.78125 -34.21875 C 15.457031 -35.164062 14.742188 -35.640625 13.640625 -35.640625 C 12.847656 -35.640625 12.234375 -35.300781 11.796875 -34.625 C 11.367188 -33.957031 11.15625 -33.210938 11.15625 -32.390625 C 11.15625 -30.972656 11.472656 -29.78125 12.109375 -28.8125 C 12.742188 -27.851562 13.769531 -26.753906 15.1875 -25.515625 L 18.640625 -22.46875 C 20.710938 -20.71875 22.316406 -18.859375 23.453125 -16.890625 C 24.585938 -14.929688 25.15625 -12.609375 25.15625 -9.921875 C 25.15625 -7.953125 24.695312 -6.164062 23.78125 -4.5625 C 22.875 -2.96875 21.59375 -1.703125 19.9375 -0.765625 C 18.28125 0.160156 16.367188 0.625 14.203125 0.625 Z M 14.203125 0.625 "/></g></g></g><g fill="#000000" fill-opacity="1"><g transform="translate(276.974263, 135.854755)"><g><path d="M 3.15625 -41.84375 L 12.390625 -41.84375 L 12.390625 0 L 3.15625 0 Z M 3.15625 -41.84375 "/></g></g></g><g fill="#000000" fill-opacity="1"><g transform="translate(292.522751, 135.854755)"><g><path d="M 6.875 -34.96875 L 0.5625 -34.96875 L 0.5625 -41.84375 L 22.421875 -41.84375 L 22.421875 -34.96875 L 16.171875 -34.96875 L 16.171875 0 L 6.875 0 Z M 6.875 -34.96875 "/></g></g></g><g fill="#000000" fill-opacity="1"><g transform="translate(315.50972, 135.854755)"><g><path d="M 3.09375 -41.84375 L 21.90625 -41.84375 L 21.90625 -35.546875 L 12.34375 -35.546875 L 12.34375 -25.15625 L 19.625 -25.15625 L 19.625 -18.75 L 12.34375 -18.75 L 12.34375 -6.25 L 22 -6.25 L 22 0 L 3.09375 0 Z M 3.09375 -41.84375 "/></g></g></g><g fill="#000000" fill-opacity="1"><g transform="translate(338.600003, 135.854755)"><g><path d="M 14.203125 0.625 C 10.210938 0.625 7.242188 -0.429688 5.296875 -2.546875 C 3.347656 -4.671875 2.304688 -8.039062 2.171875 -12.65625 L 10.078125 -13.84375 C 10.109375 -11.1875 10.425781 -9.28125 11.03125 -8.125 C 11.632812 -6.976562 12.535156 -6.40625 13.734375 -6.40625 C 15.285156 -6.40625 16.0625 -7.421875 16.0625 -9.453125 C 16.0625 -11.066406 15.691406 -12.457031 14.953125 -13.625 C 14.210938 -14.800781 13.050781 -16.0625 11.46875 -17.40625 L 7.859375 -20.5625 C 6.066406 -22.070312 4.675781 -23.679688 3.6875 -25.390625 C 2.707031 -27.097656 2.21875 -29.117188 2.21875 -31.453125 C 2.21875 -34.972656 3.257812 -37.675781 5.34375 -39.5625 C 7.425781 -41.457031 10.296875 -42.40625 13.953125 -42.40625 C 17.910156 -42.40625 20.601562 -41.25 22.03125 -38.9375 C 23.457031 -36.632812 24.222656 -33.832031 24.328125 -30.53125 L 16.375 -29.546875 C 16.300781 -31.710938 16.101562 -33.269531 15.78125 -34.21875 C 15.457031 -35.164062 14.742188 -35.640625 13.640625 -35.640625 C 12.847656 -35.640625 12.234375 -35.300781 11.796875 -34.625 C 11.367188 -33.957031 11.15625 -33.210938 11.15625 -32.390625 C 11.15625 -30.972656 11.472656 -29.78125 12.109375 -28.8125 C 12.742188 -27.851562 13.769531 -26.753906 15.1875 -25.515625 L 18.640625 -22.46875 C 20.710938 -20.71875 22.316406 -18.859375 23.453125 -16.890625 C 24.585938 -14.929688 25.15625 -12.609375 25.15625 -9.921875 C 25.15625 -7.953125 24.695312 -6.164062 23.78125 -4.5625 C 22.875 -2.96875 21.59375 -1.703125 19.9375 -0.765625 C 18.28125 0.160156 16.367188 0.625 14.203125 0.625 Z M 14.203125 0.625 "/></g></g></g></svg>