<svg xmlns="http://www.w3.org/2000/svg" xmlns:xlink="http://www.w3.org/1999/xlink" width="500" zoomAndPan="magnify" viewBox="0 0 375 374.999991" height="500" preserveAspectRatio="xMidYMid meet" version="1.0"><defs><clipPath id="a8e19289de"><path d="M 18.515625 138 L 254 138 L 254 374 L 18.515625 374 Z M 18.515625 138 " clip-rule="nonzero"/></clipPath><clipPath id="f988d4e59b"><path d="M 228 109 L 356.765625 109 L 356.765625 238 L 228 238 Z M 228 109 " clip-rule="nonzero"/></clipPath><clipPath id="bd475af733"><path d="M 236.191406 270.085938 L 244.765625 270.085938 L 244.765625 273.835938 L 236.191406 273.835938 Z M 236.191406 270.085938 " clip-rule="nonzero"/></clipPath></defs><g clip-path="url(#a8e19289de)"><path fill="#135981" d="M 250.285156 238.101562 L 227.167969 230.605469 C 225.296875 223.109375 222.171875 216.238281 218.421875 209.363281 L 229.667969 187.5 C 230.917969 185.625 230.292969 183.75 229.042969 181.878906 L 209.675781 163.136719 C 208.429688 161.886719 205.929688 161.261719 204.054688 162.511719 L 182.191406 173.757812 C 175.316406 170.007812 168.445312 166.882812 161.574219 165.011719 L 154.078125 141.269531 C 153.453125 139.398438 151.578125 138.148438 149.703125 138.148438 L 122.21875 138.148438 C 120.34375 138.148438 118.46875 139.398438 117.84375 141.269531 L 110.347656 165.011719 C 102.851562 166.882812 95.980469 170.007812 89.734375 173.757812 L 67.867188 162.511719 C 65.992188 161.261719 64.121094 161.886719 62.246094 163.136719 L 42.878906 182.503906 C 41.628906 183.75 41.003906 186.25 42.253906 188.125 L 53.5 209.988281 C 49.75 216.863281 46.628906 223.734375 44.753906 231.230469 L 21.640625 238.101562 C 19.765625 238.726562 18.515625 240.601562 18.515625 242.472656 L 18.515625 269.960938 C 18.515625 271.835938 19.765625 273.710938 21.640625 274.335938 L 44.753906 281.832031 C 46.628906 289.328125 49.75 296.199219 53.5 303.070312 L 42.253906 324.3125 C 41.003906 326.1875 41.628906 328.058594 42.878906 329.933594 L 62.246094 349.300781 C 63.496094 350.550781 65.992188 351.175781 67.867188 349.925781 L 89.109375 338.679688 C 95.980469 342.429688 102.851562 345.550781 110.347656 347.425781 L 117.84375 370.539062 C 118.46875 372.414062 120.34375 373.664062 122.21875 373.664062 L 149.703125 373.664062 C 151.578125 373.664062 153.453125 372.414062 154.078125 370.539062 L 161.574219 347.425781 C 169.070312 345.550781 175.941406 342.429688 182.816406 338.679688 L 204.054688 349.925781 C 205.929688 351.175781 207.804688 350.550781 209.675781 349.300781 L 229.042969 329.933594 C 230.292969 328.683594 230.917969 326.1875 229.667969 324.3125 L 218.421875 303.070312 C 222.171875 296.199219 225.296875 289.328125 227.167969 281.832031 L 250.285156 274.335938 C 252.15625 273.710938 253.40625 271.835938 253.40625 269.960938 L 253.40625 242.472656 C 253.40625 240.601562 252.15625 238.726562 250.285156 238.101562 Z M 244.035156 266.214844 L 221.546875 273.085938 C 220.296875 273.710938 219.046875 274.960938 218.421875 276.207031 C 216.550781 284.332031 212.800781 292.453125 209.050781 299.949219 C 208.429688 301.199219 208.429688 303.070312 209.050781 304.320312 L 219.671875 324.9375 L 205.304688 339.304688 L 184.6875 328.683594 C 183.4375 328.058594 181.566406 328.058594 180.316406 328.683594 C 172.820312 333.058594 165.324219 336.179688 156.578125 338.679688 C 154.703125 339.304688 153.453125 340.554688 153.453125 341.804688 L 146.582031 364.292969 L 125.964844 364.292969 L 118.46875 342.429688 C 117.84375 341.179688 116.59375 339.929688 115.347656 339.304688 C 107.226562 337.429688 99.101562 333.683594 91.605469 329.308594 C 90.359375 328.683594 88.484375 328.683594 87.234375 329.308594 L 66.617188 339.929688 L 52.25 325.5625 L 62.871094 304.945312 C 63.496094 303.695312 63.496094 301.820312 62.871094 300.574219 C 58.496094 293.074219 55.375 285.578125 53.5 276.832031 C 52.875 274.960938 51.625 273.710938 50.375 273.710938 L 27.886719 266.839844 L 27.886719 246.222656 L 50.375 239.351562 C 51.625 238.726562 52.875 237.476562 53.5 236.226562 C 55.375 228.105469 59.121094 219.984375 62.871094 213.113281 C 63.496094 211.863281 63.496094 209.988281 62.871094 208.738281 L 51.625 187.5 L 65.992188 173.132812 L 87.234375 184.375 C 88.484375 185 90.359375 185 91.605469 184.375 C 98.480469 180.003906 106.601562 176.878906 114.722656 175.003906 C 116.59375 174.382812 117.84375 173.132812 117.84375 171.882812 L 124.714844 149.394531 L 145.332031 149.394531 L 152.203125 171.882812 C 152.828125 173.132812 154.078125 174.382812 155.328125 175.003906 C 163.449219 176.878906 171.570312 180.003906 178.441406 184.375 C 179.691406 185 181.566406 185 182.816406 184.375 L 204.054688 173.132812 L 218.421875 187.5 L 207.179688 208.738281 C 206.554688 209.988281 206.554688 211.863281 207.179688 213.113281 C 211.550781 220.609375 214.675781 228.105469 216.550781 236.226562 C 217.171875 238.101562 218.421875 239.351562 219.671875 239.351562 L 242.164062 246.222656 L 242.164062 266.214844 Z M 244.035156 266.214844 " fill-opacity="1" fill-rule="nonzero"/></g><path fill="#135981" d="M 135.960938 191.871094 C 100.351562 191.871094 71.617188 220.609375 71.617188 256.21875 C 71.617188 291.828125 100.351562 320.5625 135.960938 320.5625 C 171.570312 320.5625 200.304688 291.828125 200.304688 256.21875 C 200.304688 221.234375 171.570312 191.871094 135.960938 191.871094 Z M 135.960938 311.191406 C 105.351562 311.191406 80.988281 286.828125 80.988281 256.21875 C 80.988281 225.605469 105.351562 201.242188 135.960938 201.242188 C 166.570312 201.242188 190.9375 225.605469 190.9375 256.21875 C 190.9375 286.828125 165.949219 311.191406 135.960938 311.191406 Z M 135.960938 311.191406 " fill-opacity="1" fill-rule="nonzero"/><path fill="#135981" d="M 115.347656 76.300781 L 128.464844 83.796875 C 128.464844 88.171875 129.089844 93.167969 130.339844 97.542969 L 120.34375 108.785156 C 119.09375 110.035156 119.09375 112.535156 119.71875 114.410156 L 129.089844 129.402344 C 130.339844 131.277344 132.214844 131.902344 134.085938 131.277344 L 148.457031 127.527344 C 151.578125 130.652344 155.328125 133.148438 159.699219 135.648438 L 160.949219 150.640625 C 160.949219 152.515625 162.824219 154.390625 164.699219 155.015625 L 182.191406 159.386719 L 183.4375 159.386719 C 185.3125 159.386719 186.5625 158.761719 187.1875 156.890625 L 194.683594 143.769531 C 199.058594 143.769531 204.054688 143.144531 208.429688 141.894531 L 219.671875 151.890625 C 220.921875 153.140625 223.421875 153.140625 225.296875 152.515625 L 240.289062 143.144531 C 242.164062 141.894531 242.785156 140.023438 242.164062 138.148438 L 238.414062 123.78125 C 241.539062 120.65625 244.035156 116.90625 246.535156 112.535156 L 261.527344 111.285156 C 263.402344 111.285156 265.277344 109.410156 265.902344 107.535156 L 270.273438 90.046875 C 270.898438 88.171875 269.648438 85.671875 268.398438 85.046875 L 255.28125 76.925781 C 255.28125 72.554688 254.65625 68.179688 253.40625 63.808594 L 263.402344 52.5625 C 264.652344 51.3125 264.652344 48.8125 264.027344 46.941406 L 254.65625 31.945312 C 253.40625 30.074219 251.53125 29.449219 249.660156 30.074219 L 234.664062 33.820312 C 231.542969 30.699219 227.792969 28.199219 224.046875 25.699219 L 222.796875 10.707031 C 222.796875 8.832031 220.921875 6.957031 219.046875 6.332031 L 201.554688 1.960938 C 199.683594 1.335938 197.183594 2.585938 196.558594 3.835938 L 188.4375 16.953125 C 184.0625 16.953125 179.691406 17.578125 175.316406 18.828125 L 164.074219 8.832031 C 162.824219 7.582031 160.324219 7.582031 158.449219 8.207031 L 143.457031 18.203125 C 141.582031 19.453125 140.960938 21.328125 141.582031 23.199219 L 144.707031 38.195312 C 141.582031 41.316406 139.085938 45.066406 136.585938 48.8125 L 121.59375 50.0625 C 119.71875 50.0625 117.84375 51.9375 117.21875 53.8125 L 112.847656 71.304688 C 112.847656 73.179688 113.472656 75.050781 115.347656 76.300781 Z M 125.964844 59.433594 L 140.335938 58.808594 C 142.207031 58.808594 143.457031 57.558594 144.082031 56.3125 C 146.582031 51.3125 149.703125 46.941406 153.453125 43.191406 C 154.703125 41.941406 155.328125 40.066406 154.703125 38.820312 L 151.578125 25.074219 L 160.949219 19.453125 L 171.570312 28.824219 C 172.820312 30.074219 174.695312 30.074219 175.941406 30.074219 C 180.941406 28.199219 186.5625 27.574219 191.5625 27.574219 C 193.433594 27.574219 194.683594 26.949219 195.308594 25.074219 L 202.804688 12.582031 L 213.425781 15.078125 L 214.675781 29.449219 C 214.675781 31.320312 215.925781 32.570312 217.171875 33.195312 C 222.171875 35.695312 225.917969 38.820312 230.292969 42.566406 C 230.917969 43.816406 232.792969 44.441406 234.664062 43.816406 L 248.410156 40.066406 L 254.03125 49.4375 L 244.660156 60.058594 C 243.410156 61.933594 243.410156 63.183594 243.410156 65.054688 C 245.285156 70.054688 245.910156 75.675781 245.910156 80.675781 C 245.910156 82.546875 246.535156 83.796875 248.410156 84.421875 L 260.902344 91.917969 L 258.40625 102.539062 L 244.035156 103.164062 C 242.164062 103.164062 240.914062 104.414062 240.289062 105.664062 C 237.789062 110.660156 234.664062 115.035156 230.917969 118.78125 C 229.667969 120.03125 229.042969 121.90625 229.667969 123.15625 L 232.792969 136.898438 L 223.421875 142.519531 L 212.800781 133.148438 C 211.550781 131.902344 209.675781 131.902344 208.429688 131.902344 C 203.429688 133.773438 197.808594 134.398438 192.183594 134.398438 C 190.3125 134.398438 189.0625 135.023438 188.4375 136.898438 L 180.941406 150.015625 L 170.320312 147.519531 L 169.695312 133.148438 C 169.695312 131.277344 168.445312 130.027344 167.195312 129.402344 C 162.199219 126.902344 157.828125 123.78125 154.078125 120.03125 C 152.828125 118.78125 150.953125 118.15625 149.703125 118.78125 L 135.960938 121.90625 L 130.339844 112.535156 L 139.710938 101.914062 C 140.960938 100.664062 140.960938 98.789062 140.960938 97.542969 C 139.085938 92.542969 138.460938 86.921875 138.460938 81.300781 C 138.460938 79.425781 137.835938 78.175781 135.960938 77.550781 L 124.09375 70.054688 Z M 125.964844 59.433594 " fill-opacity="1" fill-rule="nonzero"/><path fill="#135981" d="M 181.566406 123.78125 C 184.6875 124.402344 188.4375 125.027344 192.183594 125.027344 C 212.175781 125.027344 229.667969 111.285156 234.664062 91.917969 C 237.164062 80.675781 235.914062 68.804688 229.667969 58.808594 C 223.421875 48.8125 214.050781 41.941406 202.804688 38.820312 C 199.683594 38.195312 195.933594 37.570312 192.183594 37.570312 C 172.195312 37.570312 154.703125 51.3125 149.703125 70.679688 C 147.207031 81.921875 148.457031 93.792969 154.703125 103.789062 C 160.949219 113.785156 170.320312 120.65625 181.566406 123.78125 Z M 158.449219 73.179688 C 162.199219 57.558594 175.941406 46.941406 191.5625 46.941406 C 194.058594 46.941406 197.183594 47.566406 199.683594 48.1875 C 208.429688 50.0625 215.925781 55.6875 220.921875 63.808594 C 225.917969 71.929688 227.167969 80.675781 224.671875 90.046875 C 220.921875 105.664062 207.179688 116.28125 191.5625 116.28125 C 189.0625 116.28125 185.9375 115.660156 183.4375 115.035156 C 174.695312 112.535156 167.195312 106.914062 162.199219 98.789062 C 157.828125 91.292969 155.953125 81.921875 158.449219 73.179688 Z M 158.449219 73.179688 " fill-opacity="1" fill-rule="nonzero"/><g clip-path="url(#f988d4e59b)"><path fill="#135981" d="M 353.359375 170.632812 L 342.742188 165.636719 C 342.117188 162.511719 341.492188 159.386719 340.242188 156.265625 L 347.113281 146.894531 C 348.363281 145.019531 348.363281 143.144531 347.113281 141.269531 L 338.367188 130.027344 C 337.117188 128.152344 335.246094 127.527344 332.746094 128.152344 L 322.125 131.902344 C 319.625 130.027344 316.503906 128.152344 313.378906 126.902344 L 312.128906 115.035156 C 311.503906 113.160156 310.253906 111.285156 308.382812 111.285156 L 294.011719 109.410156 C 292.140625 109.410156 290.265625 110.035156 289.015625 111.910156 L 284.019531 122.53125 C 280.894531 123.15625 277.769531 123.78125 274.648438 125.027344 L 265.277344 118.15625 C 263.402344 116.90625 261.527344 116.90625 259.652344 118.15625 L 248.410156 126.902344 C 246.535156 128.152344 245.910156 130.027344 246.535156 132.527344 L 250.285156 143.144531 C 248.410156 145.644531 246.535156 148.769531 245.285156 151.890625 L 234.039062 153.765625 C 232.167969 154.390625 230.292969 155.640625 230.292969 157.515625 L 228.417969 171.882812 C 228.417969 173.757812 229.042969 175.628906 230.917969 176.878906 L 241.539062 181.878906 C 242.164062 185 242.785156 188.75 244.035156 191.871094 L 237.164062 200.617188 C 235.914062 202.492188 235.914062 204.367188 237.164062 206.242188 L 245.910156 217.484375 C 247.160156 219.359375 249.035156 219.984375 250.90625 219.359375 L 261.527344 215.613281 C 264.027344 217.484375 267.152344 219.359375 270.273438 220.609375 L 272.148438 231.855469 C 272.773438 233.730469 274.023438 235.601562 275.898438 235.601562 L 290.265625 237.476562 L 290.890625 237.476562 C 292.765625 237.476562 294.636719 236.226562 295.261719 234.976562 L 300.261719 224.359375 C 303.382812 223.734375 307.132812 223.109375 310.253906 221.859375 L 319.625 228.730469 C 321.5 229.980469 323.375 229.980469 325.25 228.730469 L 336.492188 219.984375 C 338.367188 218.734375 338.992188 216.863281 338.367188 214.363281 L 334.621094 203.742188 C 336.492188 201.242188 338.367188 198.121094 339.617188 194.996094 L 350.863281 193.121094 C 352.734375 192.496094 354.609375 191.25 354.609375 189.375 L 356.484375 175.003906 C 356.484375 173.132812 355.234375 171.257812 353.359375 170.632812 Z M 345.238281 184.375 L 334.621094 186.25 C 332.746094 186.25 331.496094 187.5 330.871094 189.375 C 329.621094 193.121094 327.121094 196.871094 324.625 199.996094 C 323.375 201.242188 323.375 203.117188 324 204.367188 L 327.746094 214.363281 L 322.125 218.734375 L 313.378906 212.488281 C 312.128906 211.238281 310.253906 211.238281 309.007812 211.863281 C 305.257812 213.738281 300.886719 214.363281 296.511719 214.988281 C 294.636719 214.988281 293.386719 216.238281 292.765625 217.484375 L 288.390625 226.855469 L 280.894531 226.855469 L 279.019531 216.238281 C 279.019531 214.363281 277.769531 213.113281 275.898438 212.488281 C 272.148438 210.613281 268.398438 208.738281 265.277344 206.242188 C 264.027344 204.992188 262.152344 204.992188 260.902344 205.617188 L 250.90625 209.363281 L 246.535156 203.742188 L 252.78125 194.996094 C 254.03125 193.746094 254.03125 191.871094 253.40625 190.625 C 251.53125 186.875 250.90625 182.503906 250.285156 178.128906 C 250.285156 176.253906 249.035156 175.003906 247.785156 174.382812 L 237.789062 169.382812 L 239.039062 161.886719 L 249.660156 160.011719 C 251.53125 160.011719 252.78125 158.761719 253.40625 156.890625 C 255.28125 153.140625 257.15625 149.394531 259.652344 146.269531 C 260.902344 145.019531 260.902344 143.144531 260.277344 141.894531 L 256.53125 131.902344 L 262.152344 127.527344 L 270.898438 133.773438 C 272.148438 135.023438 274.023438 135.023438 275.273438 134.398438 C 279.019531 132.527344 283.394531 131.902344 287.140625 131.277344 C 289.015625 131.277344 290.265625 130.027344 290.890625 128.777344 L 295.261719 119.40625 L 302.757812 120.65625 L 304.632812 131.277344 C 304.632812 133.148438 305.882812 134.398438 307.757812 135.023438 C 311.503906 136.273438 315.253906 138.773438 318.378906 141.269531 C 319.625 142.519531 321.5 142.519531 322.75 141.894531 L 332.746094 138.148438 L 337.117188 143.769531 L 330.871094 152.515625 C 329.621094 153.765625 329.621094 155.640625 330.246094 156.890625 C 332.121094 160.636719 332.746094 165.011719 333.371094 168.757812 C 333.371094 170.632812 334.621094 171.882812 335.867188 172.507812 L 345.863281 176.878906 Z M 345.238281 184.375 " fill-opacity="1" fill-rule="nonzero"/></g><path fill="#135981" d="M 292.140625 137.523438 C 284.019531 137.523438 277.144531 140.023438 270.898438 145.019531 C 263.402344 150.640625 258.40625 159.386719 257.15625 168.757812 C 255.90625 178.128906 258.40625 187.5 264.027344 194.996094 C 270.898438 204.367188 281.519531 209.363281 292.765625 209.363281 C 300.886719 209.363281 307.757812 206.867188 314.003906 201.867188 C 329.621094 190 332.746094 167.507812 320.875 151.890625 C 314.003906 143.144531 303.382812 137.523438 292.140625 137.523438 Z M 307.757812 194.371094 C 303.382812 198.121094 297.761719 199.996094 292.140625 199.996094 C 284.019531 199.996094 275.898438 196.246094 270.898438 189.375 C 266.527344 183.75 264.652344 176.878906 265.902344 170.007812 C 267.152344 163.136719 270.273438 156.890625 275.898438 152.515625 C 280.269531 148.769531 285.890625 146.894531 291.515625 146.894531 C 299.636719 146.894531 307.757812 150.640625 312.753906 157.515625 C 322.125 169.382812 319.625 185.625 307.757812 194.371094 Z M 307.757812 194.371094 " fill-opacity="1" fill-rule="nonzero"/><g clip-path="url(#bd475af733)"><path fill="#135981" d="M 236.191406 270.085938 L 244.761719 270.085938 L 244.761719 273.835938 L 236.191406 273.835938 Z M 236.191406 270.085938 " fill-opacity="1" fill-rule="nonzero"/></g></svg>