<svg xmlns="http://www.w3.org/2000/svg" xmlns:xlink="http://www.w3.org/1999/xlink" width="500" zoomAndPan="magnify" viewBox="0 0 375 374.999991" height="500" preserveAspectRatio="xMidYMid meet" version="1.0"><defs><clipPath id="cb5e57d964"><path d="M 5.859375 259 L 122 259 L 122 375 L 5.859375 375 Z M 5.859375 259 " clip-rule="nonzero"/></clipPath><clipPath id="b030ad5d12"><path d="M 301 189 L 368.859375 189 L 368.859375 236 L 301 236 Z M 301 189 " clip-rule="nonzero"/></clipPath><clipPath id="c8b8913aec"><path d="M 187.5 138.367188 L 196.074219 138.367188 L 196.074219 142.117188 L 187.5 142.117188 Z M 187.5 138.367188 " clip-rule="nonzero"/></clipPath></defs><path fill="#135981" d="M 335.238281 109.84375 L 232.207031 109.84375 C 229.789062 109.84375 230.226562 108.085938 230.226562 105.667969 C 230.226562 103.25 229.789062 101.054688 232.207031 101.054688 L 335.238281 101.054688 C 341.609375 101.054688 346.878906 95.78125 346.878906 89.410156 L 346.878906 26.582031 C 346.878906 19.992188 341.609375 14.71875 335.238281 14.71875 L 232.207031 14.71875 C 229.789062 14.71875 230.226562 12.960938 230.226562 10.542969 C 230.226562 8.128906 229.789062 5.929688 232.207031 5.929688 L 335.238281 5.929688 C 346.441406 5.929688 355.667969 15.15625 355.667969 26.582031 L 355.667969 89.410156 C 355.667969 100.613281 346.441406 109.84375 335.238281 109.84375 Z M 335.238281 109.84375 " fill-opacity="1" fill-rule="evenodd"/><path fill="#135981" d="M 268.015625 239.457031 L 165.203125 239.457031 C 162.785156 239.457031 163.882812 237.476562 163.882812 235.0625 C 163.882812 232.644531 162.785156 230.667969 165.203125 230.667969 L 268.015625 230.667969 C 274.605469 230.667969 279.875 225.394531 279.875 218.804688 L 279.875 155.976562 C 279.875 149.605469 274.605469 144.332031 268.015625 144.332031 L 165.203125 144.332031 C 162.785156 144.332031 163.226562 142.574219 163.226562 140.15625 C 163.226562 137.742188 162.785156 135.542969 165.203125 135.542969 L 268.015625 135.542969 C 279.4375 135.542969 288.664062 144.773438 288.664062 155.976562 L 288.664062 218.804688 C 288.664062 230.226562 279.4375 239.457031 268.015625 239.457031 Z M 268.015625 239.457031 " fill-opacity="1" fill-rule="evenodd"/><path fill="#135981" d="M 191.34375 368.847656 L 88.53125 368.847656 C 86.117188 368.847656 84.140625 366.871094 84.140625 364.457031 C 84.140625 362.039062 86.117188 360.0625 88.53125 360.0625 L 191.34375 360.0625 C 197.933594 360.0625 203.207031 354.789062 203.207031 348.417969 L 203.207031 285.589844 C 203.207031 279.21875 197.933594 273.945312 191.34375 273.945312 L 88.53125 273.945312 C 86.117188 273.945312 84.140625 271.75 84.140625 269.550781 C 84.140625 267.136719 86.117188 265.15625 88.53125 265.15625 L 191.34375 265.15625 C 202.769531 265.15625 211.996094 274.164062 211.996094 285.589844 L 211.996094 348.417969 C 211.996094 359.621094 202.769531 368.847656 191.34375 368.847656 Z M 191.34375 368.847656 " fill-opacity="1" fill-rule="evenodd"/><path fill="#135981" d="M 207.601562 115.773438 C 175.746094 115.773438 149.605469 89.851562 149.605469 57.996094 C 149.605469 25.921875 175.746094 0 207.601562 0 C 239.675781 0 265.597656 25.921875 265.597656 57.996094 C 265.597656 89.851562 239.675781 115.773438 207.601562 115.773438 Z M 207.601562 8.789062 C 180.578125 8.789062 158.390625 30.753906 158.390625 57.996094 C 158.390625 85.015625 180.578125 107.207031 207.601562 107.207031 C 234.621094 107.207031 256.808594 85.015625 256.808594 57.996094 C 256.808594 30.753906 234.621094 8.789062 207.601562 8.789062 Z M 207.601562 8.789062 " fill-opacity="1" fill-rule="evenodd"/><path fill="#135981" d="M 140.597656 245.386719 C 108.523438 245.386719 82.601562 219.464844 82.601562 187.390625 C 82.601562 155.535156 108.523438 129.613281 140.597656 129.613281 C 172.453125 129.613281 198.375 155.535156 198.375 187.390625 C 198.375 219.464844 172.453125 245.386719 140.597656 245.386719 Z M 140.597656 138.402344 C 113.355469 138.402344 91.386719 160.367188 91.386719 187.390625 C 91.386719 214.632812 113.355469 236.597656 140.597656 236.597656 C 167.617188 236.597656 189.585938 214.632812 189.585938 187.390625 C 189.585938 160.367188 167.617188 138.402344 140.597656 138.402344 Z M 140.597656 138.402344 " fill-opacity="1" fill-rule="evenodd"/><g clip-path="url(#cb5e57d964)"><path fill="#135981" d="M 63.929688 375 C 31.855469 375 5.929688 348.859375 5.929688 317.003906 C 5.929688 284.929688 31.855469 259.007812 63.929688 259.007812 C 95.78125 259.007812 121.703125 285.148438 121.703125 317.003906 C 121.703125 348.859375 95.78125 375 63.929688 375 Z M 63.929688 267.792969 C 36.6875 267.792969 14.71875 289.980469 14.71875 317.003906 C 14.71875 344.023438 36.6875 366.210938 63.929688 366.210938 C 90.949219 366.210938 112.917969 344.023438 112.917969 317.003906 C 112.917969 289.980469 90.949219 267.792969 63.929688 267.792969 Z M 63.929688 267.792969 " fill-opacity="1" fill-rule="evenodd"/></g><path fill="#135981" d="M 213.3125 79.964844 C 210.894531 79.964844 208.917969 77.988281 208.917969 75.570312 L 208.917969 44.816406 L 202.109375 44.816406 C 199.691406 44.816406 197.714844 42.839844 197.714844 40.421875 C 197.714844 38.003906 199.691406 36.027344 202.109375 36.027344 L 213.3125 36.027344 C 215.730469 36.027344 217.707031 38.003906 217.707031 40.421875 L 217.707031 75.570312 C 217.707031 77.988281 215.730469 79.964844 213.3125 79.964844 Z M 213.3125 79.964844 " fill-opacity="1" fill-rule="evenodd"/><path fill="#135981" d="M 154.878906 219.246094 L 122.144531 219.246094 C 120.386719 219.246094 118.847656 218.144531 118.191406 216.386719 C 117.53125 214.851562 117.75 212.875 119.070312 211.554688 C 125 205.84375 130.929688 199.910156 137.082031 193.980469 C 141.695312 189.367188 146.527344 184.535156 151.363281 179.921875 C 154.21875 176.84375 155.316406 173.988281 154 170.914062 C 152.460938 167.398438 147.847656 164.542969 143.453125 164.542969 C 138.402344 164.542969 134.445312 167.839844 132.25 173.769531 C 131.152344 175.964844 128.734375 177.066406 126.539062 176.1875 C 124.121094 175.308594 123.023438 172.671875 123.902344 170.472656 C 127.636719 161.246094 134.667969 155.753906 143.234375 155.753906 C 151.582031 155.753906 159.269531 160.589844 162.125 167.617188 C 164.761719 173.988281 163.003906 180.578125 157.511719 186.070312 C 152.679688 190.90625 148.066406 195.519531 143.234375 200.351562 C 139.71875 203.648438 136.203125 206.941406 132.910156 210.457031 L 154.878906 210.457031 C 157.511719 210.457031 159.269531 212.433594 159.269531 214.851562 C 159.269531 217.265625 157.292969 219.246094 154.878906 219.246094 Z M 154.878906 219.246094 " fill-opacity="1" fill-rule="evenodd"/><path fill="#135981" d="M 63.929688 349.957031 C 53.601562 349.957031 45.253906 341.609375 45.253906 331.28125 C 45.253906 328.867188 47.230469 326.890625 49.648438 326.890625 C 52.066406 326.890625 54.042969 328.867188 54.042969 331.28125 C 54.042969 336.773438 58.4375 341.167969 63.929688 341.167969 C 69.421875 341.167969 73.8125 336.773438 73.8125 331.28125 C 73.8125 325.789062 69.421875 321.398438 63.929688 321.398438 C 61.511719 321.398438 59.535156 319.421875 59.535156 317.003906 C 59.535156 314.585938 61.511719 312.609375 63.929688 312.609375 C 69.421875 312.609375 73.8125 308.214844 73.8125 302.722656 C 73.8125 297.230469 69.421875 292.839844 63.929688 292.839844 C 58.4375 292.839844 54.042969 297.230469 54.042969 302.722656 C 54.042969 305.140625 52.066406 307.117188 49.648438 307.117188 C 47.230469 307.117188 45.253906 305.140625 45.253906 302.722656 C 45.253906 292.398438 53.601562 284.050781 63.929688 284.050781 C 74.253906 284.050781 82.601562 292.398438 82.601562 302.722656 C 82.601562 308.4375 79.964844 313.488281 75.789062 317.003906 C 79.964844 320.296875 82.601562 325.570312 82.601562 331.28125 C 82.601562 341.609375 74.253906 349.957031 63.929688 349.957031 Z M 63.929688 349.957031 " fill-opacity="1" fill-rule="evenodd"/><path fill="#135981" d="M 259.007812 179.042969 L 218.804688 179.042969 C 216.386719 179.042969 214.410156 177.066406 214.410156 174.648438 C 214.410156 172.230469 216.386719 170.253906 218.804688 170.253906 L 259.007812 170.253906 C 261.421875 170.253906 263.402344 172.230469 263.402344 174.648438 C 263.402344 177.066406 261.421875 179.042969 259.007812 179.042969 Z M 259.007812 179.042969 " fill-opacity="1" fill-rule="evenodd"/><path fill="#135981" d="M 259.007812 204.746094 L 218.804688 204.746094 C 216.386719 204.746094 214.410156 202.769531 214.410156 200.351562 C 214.410156 197.933594 216.386719 195.957031 218.804688 195.957031 L 259.007812 195.957031 C 261.421875 195.957031 263.402344 197.933594 263.402344 200.351562 C 263.402344 202.769531 261.421875 204.746094 259.007812 204.746094 Z M 259.007812 204.746094 " fill-opacity="1" fill-rule="evenodd"/><path fill="#135981" d="M 182.558594 308.4375 L 142.355469 308.4375 C 139.9375 308.4375 137.960938 306.457031 137.960938 304.042969 C 137.960938 301.625 139.9375 299.648438 142.355469 299.648438 L 182.558594 299.648438 C 184.972656 299.648438 186.949219 301.625 186.949219 304.042969 C 186.949219 306.457031 184.972656 308.4375 182.558594 308.4375 Z M 182.558594 308.4375 " fill-opacity="1" fill-rule="evenodd"/><path fill="#135981" d="M 182.558594 334.359375 L 142.355469 334.359375 C 139.9375 334.359375 137.960938 332.160156 137.960938 329.964844 C 137.960938 327.546875 139.9375 325.570312 142.355469 325.570312 L 182.558594 325.570312 C 184.972656 325.570312 186.949219 327.546875 186.949219 329.964844 C 186.949219 332.160156 184.972656 334.359375 182.558594 334.359375 Z M 182.558594 334.359375 " fill-opacity="1" fill-rule="evenodd"/><path fill="#135981" d="M 326.449219 49.429688 L 286.246094 49.429688 C 283.832031 49.429688 281.855469 47.453125 281.855469 45.035156 C 281.855469 42.617188 283.832031 40.640625 286.246094 40.640625 L 326.449219 40.640625 C 328.867188 40.640625 330.84375 42.617188 330.84375 45.035156 C 330.84375 47.453125 328.867188 49.429688 326.449219 49.429688 Z M 326.449219 49.429688 " fill-opacity="1" fill-rule="evenodd"/><path fill="#135981" d="M 326.449219 75.132812 L 286.246094 75.132812 C 283.832031 75.132812 281.855469 73.15625 281.855469 70.738281 C 281.855469 68.320312 283.832031 66.34375 286.246094 66.34375 L 326.449219 66.34375 C 328.867188 66.34375 330.84375 68.320312 330.84375 70.738281 C 330.84375 73.15625 328.867188 75.132812 326.449219 75.132812 Z M 326.449219 75.132812 " fill-opacity="1" fill-rule="evenodd"/><g clip-path="url(#b030ad5d12)"><path fill="#135981" d="M 306.019531 235.28125 C 305.140625 235.28125 304.261719 234.84375 303.382812 234.402344 C 301.625 232.863281 301.1875 230.007812 302.722656 228.03125 L 331.722656 190.683594 C 333.261719 188.488281 336.996094 188.488281 338.53125 190.683594 L 367.53125 228.03125 C 369.070312 230.007812 368.847656 232.863281 366.871094 234.402344 C 364.894531 235.71875 362.257812 235.5 360.71875 233.523438 L 335.238281 200.570312 L 309.535156 233.523438 C 308.65625 234.621094 307.335938 235.28125 306.019531 235.28125 Z M 306.019531 235.28125 " fill-opacity="1" fill-rule="evenodd"/></g><path fill="#135981" d="M 335.238281 330.402344 C 332.820312 330.402344 330.84375 328.425781 330.84375 326.011719 L 330.84375 194.640625 C 330.84375 192.222656 332.820312 190.246094 335.238281 190.246094 C 337.652344 190.246094 339.632812 192.222656 339.632812 194.640625 L 339.632812 326.011719 C 339.632812 328.425781 337.652344 330.402344 335.238281 330.402344 Z M 335.238281 330.402344 " fill-opacity="1" fill-rule="evenodd"/><g clip-path="url(#c8b8913aec)"><path fill="#135981" d="M 187.5 138.367188 L 196.070312 138.367188 L 196.070312 142.117188 L 187.5 142.117188 Z M 187.5 138.367188 " fill-opacity="1" fill-rule="nonzero"/></g></svg>