<svg xmlns="http://www.w3.org/2000/svg" xmlns:xlink="http://www.w3.org/1999/xlink" width="500" zoomAndPan="magnify" viewBox="0 0 375 374.999991" height="500" preserveAspectRatio="xMidYMid meet" version="1.0"><defs><clipPath id="fec1cbf7ea"><path d="M 310.171875 87.902344 L 318.746094 87.902344 L 318.746094 91.652344 L 310.171875 91.652344 Z M 310.171875 87.902344 " clip-rule="nonzero"/></clipPath></defs><g clip-path="url(#fec1cbf7ea)"><path fill="#135981" d="M 310.171875 87.902344 L 318.738281 87.902344 L 318.738281 91.652344 L 310.171875 91.652344 Z M 310.171875 87.902344 " fill-opacity="1" fill-rule="nonzero"/></g><path fill="#135981" d="M 187.5 374.972656 C 187.28125 374.972656 186.839844 374.972656 186.402344 374.972656 C 77.082031 345.554688 39.542969 262.355469 27.46875 197.597656 C 14.296875 127.789062 27.25 64.128906 27.25 63.46875 C 28.125 59.738281 31.199219 59.957031 33.394531 59.957031 C 123.617188 59.957031 183.988281 2.222656 184.425781 1.566406 C 186.183594 0.0273438 188.816406 0.0273438 190.574219 1.566406 C 192.769531 3.761719 251.820312 59.957031 343.582031 59.957031 C 345.554688 59.957031 347.53125 61.496094 347.75 63.46875 C 347.972656 64.128906 360.703125 127.789062 347.75 197.597656 C 335.457031 262.355469 298.140625 345.554688 188.597656 374.972656 C 188.378906 374.972656 187.9375 374.972656 187.5 374.972656 Z M 35.152344 68.738281 C 32.957031 82.789062 25.054688 137.230469 36.25 196.0625 C 53.152344 286.285156 104.082031 343.359375 187.5 366.191406 C 271.136719 343.359375 322.066406 286.285156 338.96875 196.0625 C 350.167969 137.230469 342.261719 82.789062 339.847656 68.738281 C 257.746094 68.078125 201.109375 22.859375 187.5 10.785156 C 174.109375 22.859375 117.472656 68.078125 35.152344 68.738281 Z M 35.152344 68.738281 " fill-opacity="1" fill-rule="evenodd"/><path fill="#135981" d="M 187.5 340.945312 C 187.0625 340.945312 186.621094 340.945312 186.402344 340.726562 C 114.839844 318.992188 70.933594 268.066406 56.226562 189.035156 C 50.519531 158.742188 48.980469 120.324219 52.492188 88.277344 C 52.714844 86.300781 54.46875 84.542969 56.445312 84.542969 C 102.324219 80.152344 147.109375 62.589844 185.085938 35.371094 C 186.621094 34.273438 188.597656 34.273438 190.132812 35.371094 C 228.113281 62.589844 272.894531 80.152344 318.773438 84.542969 C 320.75 84.542969 322.507812 86.300781 322.726562 88.277344 C 326.019531 120.324219 324.703125 158.742188 318.992188 189.035156 C 304.066406 268.066406 260.382812 318.992188 188.816406 340.726562 C 188.378906 340.945312 187.9375 340.945312 187.5 340.945312 Z M 60.835938 92.886719 C 57.980469 123.179688 59.519531 159.179688 64.785156 187.28125 C 78.835938 262.355469 120.324219 311.089844 187.5 331.945312 C 254.894531 311.089844 296.164062 262.355469 310.433594 187.28125 C 315.699219 159.179688 317.238281 123.179688 314.382812 92.886719 C 269.164062 87.835938 225.476562 70.714844 187.5 44.371094 C 149.742188 70.714844 106.058594 87.835938 60.835938 92.886719 Z M 60.835938 92.886719 " fill-opacity="1" fill-rule="evenodd"/><path fill="#135981" d="M 187.5 340.945312 C 185.085938 340.945312 183.109375 338.96875 183.109375 336.554688 L 183.109375 251.601562 C 183.109375 245.894531 191.890625 245.894531 191.890625 251.601562 L 191.890625 336.554688 C 191.890625 338.96875 189.914062 340.945312 187.5 340.945312 Z M 187.5 128.230469 C 185.085938 128.230469 183.109375 126.253906 183.109375 123.839844 L 183.109375 38.882812 C 183.109375 33.175781 191.890625 33.175781 191.890625 38.882812 L 191.890625 123.839844 C 191.890625 126.253906 189.914062 128.230469 187.5 128.230469 Z M 187.5 128.230469 " fill-opacity="1" fill-rule="evenodd"/><path fill="#135981" d="M 187.5 255.992188 C 149.960938 255.992188 119.230469 225.476562 119.230469 187.71875 C 119.230469 150.179688 149.960938 119.449219 187.5 119.449219 C 225.257812 119.449219 255.769531 150.179688 255.769531 187.71875 C 255.769531 225.476562 225.257812 255.992188 187.5 255.992188 Z M 187.5 128.230469 C 154.792969 128.230469 128.007812 155.011719 128.007812 187.71875 C 128.007812 220.648438 154.792969 247.210938 187.5 247.210938 C 220.429688 247.210938 246.992188 220.648438 246.992188 187.71875 C 246.992188 155.011719 220.429688 128.230469 187.5 128.230469 Z M 187.5 128.230469 " fill-opacity="1" fill-rule="evenodd"/><path fill="#135981" d="M 175.867188 221.746094 C 172.792969 221.746094 169.71875 220.648438 167.523438 218.453125 L 146.230469 196.9375 C 135.035156 185.742188 152.15625 169.5 162.914062 180.253906 L 175.867188 193.207031 L 212.085938 156.988281 C 223.0625 146.230469 239.964844 162.472656 228.988281 173.671875 L 184.207031 218.453125 C 182.011719 220.648438 179.15625 221.746094 175.867188 221.746094 Z M 154.570312 185.523438 C 151.9375 185.523438 150.621094 188.816406 152.375 190.792969 L 173.890625 212.085938 C 174.988281 213.183594 176.964844 213.183594 178.058594 212.085938 L 222.625 167.523438 C 225.695312 164.667969 221.085938 160.5 218.453125 163.132812 L 178.9375 202.648438 C 177.402344 204.402344 174.546875 204.402344 172.792969 202.648438 C 170.15625 200.011719 157.207031 185.523438 154.570312 185.523438 Z M 154.570312 185.523438 " fill-opacity="1" fill-rule="evenodd"/></svg>