<svg xmlns="http://www.w3.org/2000/svg" xmlns:xlink="http://www.w3.org/1999/xlink" width="500" zoomAndPan="magnify" viewBox="0 0 375 374.999991" height="500" preserveAspectRatio="xMidYMid meet" version="1.0"><defs><clipPath id="f6a17dfd90"><path d="M 49.417969 253.371094 L 67.804688 253.371094 L 67.804688 257.121094 L 49.417969 257.121094 Z M 49.417969 253.371094 " clip-rule="nonzero"/></clipPath></defs><path fill="#caddff" d="M 90.53125 103.316406 C 126.980469 66.472656 116.546875 43.378906 141.484375 26.320312 C 179.859375 0.0703125 251.480469 22.652344 293.734375 58.757812 C 345.488281 102.980469 372.191406 183.722656 341.773438 256.765625 C 309.378906 334.558594 224.152344 374.9375 148.101562 362.769531 C 80.1875 351.902344 13.425781 298.140625 6.738281 233.660156 C 6.011719 226.675781 2.8125 188.894531 25.261719 156.324219 C 43.816406 129.402344 61.636719 132.523438 90.53125 103.316406 " fill-opacity="1" fill-rule="nonzero"/><path fill="#38b6ff" d="M 270.148438 317.820312 L 325.996094 329.03125 C 329.089844 329.875 329.046875 333.84375 327.960938 334.652344 L 293.714844 358.878906 C 286.867188 364.15625 273.171875 362.542969 269.671875 361.730469 L 218.753906 346.039062 L 267.886719 318.25 C 268.554688 317.820312 269.367188 317.664062 270.148438 317.820312 " fill-opacity="1" fill-rule="nonzero"/><path fill="#38b6ff" d="M 311.09375 76.886719 C 299.96875 78.289062 289.808594 70.40625 288.40625 59.273438 C 287 48.136719 294.882812 37.972656 306.007812 36.566406 C 317.136719 35.160156 327.292969 43.042969 328.699219 54.179688 C 330.101562 65.3125 322.21875 75.476562 311.09375 76.886719 Z M 349.53125 55.519531 L 348.542969 47.691406 L 339.96875 46.863281 C 339.414062 45.089844 338.726562 43.386719 337.902344 41.769531 L 343.441406 35.179688 L 338.675781 28.894531 L 330.832031 32.46875 C 329.484375 31.226562 328.03125 30.101562 326.496094 29.101562 L 328.007812 20.609375 L 320.734375 17.550781 L 315.738281 24.5625 C 313.964844 24.164062 312.140625 23.917969 310.292969 23.824219 L 307.359375 15.71875 L 299.53125 16.707031 L 298.703125 25.289062 C 296.933594 25.84375 295.226562 26.535156 293.609375 27.359375 L 287.027344 21.8125 L 280.746094 26.585938 L 284.3125 34.433594 C 283.074219 35.785156 281.949219 37.234375 280.953125 38.773438 L 272.46875 37.261719 L 269.410156 44.542969 L 276.410156 49.542969 C 276.015625 51.3125 275.769531 53.136719 275.675781 54.992188 L 267.574219 57.925781 L 268.5625 65.757812 L 277.136719 66.585938 C 277.691406 68.359375 278.378906 70.0625 279.203125 71.683594 L 273.660156 78.269531 L 278.429688 84.554688 L 286.269531 80.984375 C 287.621094 82.222656 289.070312 83.351562 290.609375 84.347656 L 289.097656 92.835938 L 296.367188 95.894531 L 301.367188 88.886719 C 303.140625 89.285156 304.960938 89.53125 306.8125 89.625 L 309.746094 97.730469 L 317.574219 96.742188 L 318.398438 88.160156 C 320.171875 87.605469 321.875 86.917969 323.492188 86.089844 L 330.074219 91.636719 L 336.359375 86.863281 L 332.789062 79.015625 C 334.027344 77.664062 335.152344 76.210938 336.152344 74.675781 L 344.636719 76.183594 L 347.695312 68.910156 L 340.691406 63.910156 C 341.089844 62.132812 341.335938 60.3125 341.425781 58.457031 L 349.53125 55.519531 " fill-opacity="1" fill-rule="nonzero"/><path fill="#38b6ff" d="M 55.019531 56.859375 C 54.378906 56.859375 53.734375 56.902344 53.085938 56.984375 C 44.789062 58.03125 38.886719 65.644531 39.933594 73.949219 C 40.441406 77.972656 42.484375 81.558594 45.683594 84.042969 C 48.886719 86.527344 52.863281 87.617188 56.882812 87.109375 C 65.183594 86.058594 71.085938 78.449219 70.039062 70.140625 C 69.53125 66.121094 67.488281 62.535156 64.285156 60.050781 C 61.601562 57.960938 58.367188 56.859375 55.019531 56.859375 Z M 56.964844 87.734375 L 56.96875 87.734375 Z M 54.949219 88.496094 C 51.324219 88.496094 47.820312 87.300781 44.910156 85.042969 C 41.441406 82.347656 39.226562 78.464844 38.679688 74.109375 C 37.542969 65.109375 43.9375 56.863281 52.929688 55.730469 C 57.285156 55.179688 61.59375 56.355469 65.0625 59.050781 C 68.53125 61.742188 70.746094 65.625 71.292969 69.984375 C 72.425781 78.984375 66.035156 87.226562 57.042969 88.363281 C 56.34375 88.453125 55.644531 88.496094 54.949219 88.496094 Z M 49.394531 96.445312 C 49.441406 96.445312 49.484375 96.453125 49.53125 96.460938 C 50.867188 96.761719 52.257812 96.949219 53.664062 97.023438 C 53.917969 97.035156 54.140625 97.199219 54.226562 97.4375 L 56.335938 103.269531 L 61.425781 102.628906 L 62.023438 96.453125 C 62.046875 96.199219 62.21875 95.984375 62.460938 95.910156 C 63.808594 95.488281 65.109375 94.960938 66.328125 94.339844 C 66.554688 94.222656 66.828125 94.253906 67.023438 94.417969 L 71.757812 98.410156 L 75.84375 95.304688 L 73.273438 89.660156 C 73.167969 89.425781 73.210938 89.15625 73.382812 88.96875 C 74.320312 87.945312 75.179688 86.835938 75.9375 85.671875 C 76.074219 85.460938 76.332031 85.351562 76.578125 85.394531 L 82.683594 86.484375 L 84.671875 81.75 L 79.632812 78.152344 C 79.425781 78.003906 79.328125 77.746094 79.382812 77.5 C 79.683594 76.164062 79.871094 74.769531 79.941406 73.363281 C 79.957031 73.109375 80.121094 72.886719 80.359375 72.800781 L 86.1875 70.6875 L 85.546875 65.597656 L 79.375 65 C 79.125 64.976562 78.910156 64.804688 78.832031 64.558594 C 78.414062 63.210938 77.886719 61.910156 77.265625 60.691406 C 77.148438 60.464844 77.179688 60.191406 77.34375 59.996094 L 81.332031 55.257812 L 78.234375 51.167969 L 72.589844 53.742188 C 72.359375 53.847656 72.085938 53.804688 71.898438 53.632812 C 70.878906 52.691406 69.769531 51.832031 68.605469 51.074219 C 68.394531 50.9375 68.285156 50.683594 68.328125 50.433594 L 69.417969 44.324219 L 64.691406 42.335938 L 61.09375 47.378906 C 60.945312 47.585938 60.6875 47.6875 60.441406 47.628906 C 59.105469 47.332031 57.714844 47.144531 56.304688 47.070312 C 56.050781 47.058594 55.832031 46.894531 55.746094 46.652344 L 53.632812 40.820312 L 48.546875 41.464844 L 47.949219 47.640625 C 47.925781 47.890625 47.753906 48.105469 47.507812 48.183594 C 46.164062 48.601562 44.863281 49.132812 43.644531 49.753906 C 43.417969 49.871094 43.144531 49.835938 42.949219 49.675781 L 38.214844 45.683594 L 34.128906 48.785156 L 36.699219 54.433594 C 36.804688 54.664062 36.761719 54.9375 36.589844 55.125 C 35.648438 56.148438 34.789062 57.257812 34.035156 58.417969 C 33.894531 58.632812 33.640625 58.742188 33.390625 58.695312 L 27.289062 57.609375 L 25.300781 62.34375 L 30.339844 65.941406 C 30.546875 66.089844 30.644531 66.34375 30.585938 66.59375 C 30.289062 67.929688 30.101562 69.320312 30.027344 70.730469 C 30.015625 70.984375 29.851562 71.203125 29.613281 71.292969 L 23.78125 73.40625 L 24.425781 78.496094 L 30.59375 79.09375 C 30.847656 79.117188 31.0625 79.289062 31.136719 79.53125 C 31.558594 80.878906 32.085938 82.183594 32.707031 83.398438 C 32.820312 83.625 32.789062 83.898438 32.628906 84.09375 L 28.636719 88.835938 L 31.738281 92.921875 L 37.382812 90.351562 C 37.613281 90.246094 37.886719 90.289062 38.074219 90.460938 C 39.09375 91.398438 40.203125 92.261719 41.363281 93.015625 C 41.578125 93.15625 41.6875 93.410156 41.640625 93.65625 L 40.554688 99.765625 L 45.28125 101.757812 L 48.878906 96.710938 C 49 96.542969 49.191406 96.445312 49.394531 96.445312 Z M 55.914062 104.59375 C 55.652344 104.59375 55.410156 104.429688 55.320312 104.175781 L 53.179688 98.257812 C 51.988281 98.179688 50.808594 98.019531 49.667969 97.785156 L 46.015625 102.902344 C 45.847656 103.140625 45.527344 103.230469 45.257812 103.117188 L 39.597656 100.738281 C 39.324219 100.621094 39.167969 100.335938 39.222656 100.042969 L 40.324219 93.84375 C 39.347656 93.1875 38.410156 92.457031 37.527344 91.675781 L 31.804688 94.285156 C 31.53125 94.40625 31.214844 94.324219 31.035156 94.089844 L 27.324219 89.195312 C 27.148438 88.960938 27.15625 88.632812 27.34375 88.40625 L 31.390625 83.597656 C 30.878906 82.550781 30.433594 81.445312 30.058594 80.3125 L 23.800781 79.707031 C 23.503906 79.679688 23.269531 79.449219 23.234375 79.15625 L 22.464844 73.0625 C 22.425781 72.765625 22.597656 72.488281 22.875 72.386719 L 28.789062 70.246094 C 28.871094 69.050781 29.03125 67.875 29.265625 66.726562 L 24.152344 63.078125 C 23.910156 62.90625 23.824219 62.589844 23.9375 62.316406 L 26.316406 56.65625 C 26.433594 56.378906 26.71875 56.222656 27.011719 56.277344 L 33.203125 57.378906 C 33.863281 56.402344 34.589844 55.464844 35.375 54.582031 L 32.769531 48.851562 C 32.644531 48.582031 32.726562 48.265625 32.960938 48.085938 L 37.851562 44.371094 C 38.085938 44.191406 38.414062 44.199219 38.640625 44.390625 L 43.445312 48.4375 C 44.496094 47.925781 45.597656 47.476562 46.730469 47.105469 L 47.335938 40.839844 C 47.363281 40.542969 47.59375 40.308594 47.886719 40.273438 L 53.976562 39.5 C 54.269531 39.464844 54.550781 39.636719 54.652344 39.914062 L 56.792969 45.832031 C 57.984375 45.914062 59.160156 46.074219 60.304688 46.304688 L 63.953125 41.191406 C 64.125 40.949219 64.441406 40.859375 64.714844 40.972656 L 70.375 43.355469 C 70.644531 43.472656 70.800781 43.757812 70.75 44.050781 L 69.648438 50.25 C 70.625 50.90625 71.5625 51.636719 72.441406 52.417969 L 78.167969 49.808594 C 78.4375 49.6875 78.757812 49.765625 78.933594 50 L 82.644531 54.894531 C 82.824219 55.128906 82.816406 55.460938 82.625 55.683594 L 78.578125 60.496094 C 79.089844 61.542969 79.539062 62.648438 79.914062 63.78125 L 86.171875 64.386719 C 86.464844 64.414062 86.703125 64.640625 86.738281 64.9375 L 87.507812 71.03125 C 87.542969 71.324219 87.371094 71.605469 87.09375 71.703125 L 81.179688 73.847656 C 81.101562 75.039062 80.941406 76.21875 80.707031 77.363281 L 85.820312 81.015625 C 86.058594 81.1875 86.148438 81.5 86.035156 81.773438 L 83.652344 87.4375 C 83.539062 87.710938 83.25 87.863281 82.960938 87.816406 L 76.765625 86.714844 C 76.105469 87.691406 75.378906 88.632812 74.597656 89.511719 L 77.203125 95.238281 C 77.328125 95.507812 77.246094 95.828125 77.011719 96.007812 L 72.121094 99.722656 C 71.882812 99.902344 71.554688 99.894531 71.332031 99.703125 L 66.523438 95.652344 C 65.476562 96.164062 64.375 96.613281 63.242188 96.988281 L 62.636719 103.253906 C 62.609375 103.546875 62.378906 103.78125 62.085938 103.820312 L 55.996094 104.589844 C 55.96875 104.59375 55.941406 104.59375 55.914062 104.59375 " fill-opacity="1" fill-rule="nonzero"/><path fill="#135981" d="M 341.28125 230.734375 L 138.449219 202.527344 C 133.355469 201.878906 129.539062 197.542969 129.539062 192.410156 L 126.757812 50.933594 C 126.757812 50.933594 131.382812 47.597656 134 46.320312 C 135.335938 45.671875 136.871094 45.386719 138.46875 45.59375 L 340.695312 71.378906 C 345.792969 72.03125 349.605469 76.363281 349.605469 81.5 L 349.605469 220.453125 C 349.605469 222.941406 348.46875 225.132812 346.710938 226.578125 C 345.09375 227.910156 341.28125 230.734375 341.28125 230.734375 " fill-opacity="1" fill-rule="nonzero"/><path fill="#38b6ff" d="M 335.09375 232.613281 L 132.863281 206.824219 C 127.769531 206.175781 123.953125 201.839844 123.953125 196.707031 L 123.953125 57.75 C 123.953125 52.972656 128.144531 49.285156 132.882812 49.886719 L 335.109375 75.679688 C 340.203125 76.328125 344.019531 80.660156 344.019531 85.796875 L 344.019531 224.75 C 344.019531 229.527344 339.824219 233.21875 335.09375 232.613281 " fill-opacity="1" fill-rule="nonzero"/><path fill="#111827" d="M 123.953125 89.117188 C 123.605469 89.117188 123.320312 88.835938 123.320312 88.484375 L 123.320312 57.75 C 123.320312 55.292969 124.378906 52.953125 126.222656 51.328125 C 128.066406 49.703125 130.523438 48.949219 132.960938 49.257812 L 326.449219 73.933594 C 326.796875 73.980469 327.039062 74.296875 326.996094 74.640625 C 326.953125 74.988281 326.632812 75.230469 326.289062 75.1875 L 132.800781 50.515625 C 130.722656 50.25 128.632812 50.894531 127.058594 52.277344 C 125.488281 53.660156 124.585938 55.65625 124.585938 57.75 L 124.585938 88.484375 C 124.585938 88.835938 124.304688 89.117188 123.953125 89.117188 " fill-opacity="1" fill-rule="nonzero"/><path fill="#caddff" d="M 330.792969 226.886719 L 137.695312 202.257812 C 133.992188 201.789062 131.21875 198.636719 131.21875 194.902344 L 131.21875 60.863281 C 131.21875 57.675781 134.015625 55.210938 137.179688 55.613281 L 330.277344 80.238281 C 333.984375 80.710938 336.757812 83.863281 336.757812 87.597656 L 336.757812 221.632812 C 336.757812 224.824219 333.957031 227.289062 330.792969 226.886719 " fill-opacity="1" fill-rule="nonzero"/><path fill="#38b6ff" d="M 344.070312 240.078125 L 343.742188 239.304688 C 343.25 238.160156 342.191406 237.359375 340.957031 237.199219 L 135.597656 210.707031 C 129.304688 209.902344 122.175781 211.117188 116.664062 214.265625 L 24.730469 266.820312 L 24.730469 289.640625 L 217.109375 314.449219 C 223.40625 315.253906 229.789062 313.988281 235.300781 310.84375 L 342.511719 249.542969 C 343.570312 248.941406 344.023438 247.898438 343.96875 246.890625 C 343.894531 245.601562 344.070312 240.078125 344.070312 240.078125 " fill-opacity="1" fill-rule="nonzero"/><path fill="#ffffff" d="M 217.109375 307.082031 L 9.871094 280.308594 C 7.121094 279.957031 6.398438 276.308594 8.804688 274.933594 L 115.441406 214.03125 C 120.949219 210.882812 127.335938 209.617188 133.628906 210.421875 L 340.871094 237.195312 C 343.621094 237.546875 344.34375 241.195312 341.9375 242.570312 L 235.300781 303.472656 C 229.792969 306.621094 223.40625 307.886719 217.109375 307.082031 " fill-opacity="1" fill-rule="nonzero"/><path fill="#caddff" d="M 257.6875 273.273438 L 77.984375 249.890625 C 75.5 249.570312 74.84375 246.277344 77.019531 245.035156 L 119.273438 221.144531 C 124.25 218.304688 130.019531 217.160156 135.703125 217.886719 L 315.40625 241.273438 C 317.890625 241.589844 318.546875 244.886719 316.371094 246.128906 L 274.113281 270.015625 C 269.140625 272.859375 263.371094 274.003906 257.6875 273.273438 " fill-opacity="1" fill-rule="nonzero"/><path fill="#111827" d="M 220.773438 307.945312 C 219.523438 307.945312 218.273438 307.867188 217.03125 307.707031 L 173.980469 302.148438 C 173.636719 302.105469 173.390625 301.789062 173.433594 301.4375 C 173.480469 301.09375 173.796875 300.84375 174.140625 300.894531 L 217.191406 306.453125 C 223.308594 307.238281 229.628906 305.988281 234.984375 302.925781 L 303.90625 263.546875 C 304.210938 263.375 304.59375 263.480469 304.769531 263.78125 C 304.941406 264.085938 304.839844 264.472656 304.535156 264.648438 L 235.613281 304.023438 C 231.109375 306.597656 225.949219 307.945312 220.773438 307.945312 " fill-opacity="1" fill-rule="nonzero"/><path fill="#111827" d="M 238.441406 224.8125 C 238.414062 224.8125 238.386719 224.8125 238.359375 224.808594 L 187.007812 218.066406 C 186.660156 218.019531 186.417969 217.703125 186.460938 217.355469 C 186.507812 217.011719 186.828125 216.765625 187.171875 216.8125 L 238.523438 223.550781 C 238.871094 223.597656 239.117188 223.914062 239.070312 224.261719 C 239.027344 224.582031 238.753906 224.8125 238.441406 224.8125 " fill-opacity="1" fill-rule="nonzero"/><path fill="#111827" d="M 109.429688 218.09375 C 109.210938 218.09375 108.996094 217.980469 108.878906 217.777344 C 108.707031 217.472656 108.8125 217.089844 109.117188 216.914062 L 115.128906 213.480469 C 120.722656 210.285156 127.320312 208.976562 133.710938 209.796875 L 160.953125 213.371094 C 161.300781 213.414062 161.542969 213.734375 161.5 214.078125 C 161.457031 214.425781 161.140625 214.667969 160.789062 214.625 L 133.546875 211.050781 C 127.429688 210.265625 121.113281 211.519531 115.753906 214.578125 L 109.742188 218.011719 C 109.644531 218.070312 109.535156 218.09375 109.429688 218.09375 " fill-opacity="1" fill-rule="nonzero"/><path fill="#111827" d="M 271.199219 333.277344 C 273.609375 334.296875 276.054688 335.371094 277.960938 337.15625 C 279.914062 338.984375 281.226562 341.730469 280.628906 344.339844 C 279.523438 349.203125 274.21875 351.835938 270.421875 354.304688 C 265.589844 357.445312 260.5625 360.339844 255.171875 362.414062 C 248.757812 364.890625 240.390625 365.429688 235.738281 359.261719 C 232.636719 355.160156 240.082031 342.488281 246.488281 337.222656 C 249.304688 334.90625 252.746094 333.335938 256.265625 332.308594 C 261.226562 330.855469 266.296875 331.199219 271.027344 333.203125 C 271.085938 333.226562 271.140625 333.25 271.199219 333.277344 " fill-opacity="1" fill-rule="nonzero"/><path fill="#ffffff" d="M 235.710938 346.5625 C 237.652344 346.269531 239.25 345.363281 240.8125 343.480469 C 242.839844 341.03125 244.089844 338.25 245.839844 335.640625 C 248.8125 331.199219 252.550781 329.820312 257.847656 330.078125 C 262.085938 330.285156 266.304688 331.007812 270.371094 332.234375 C 272.324219 332.820312 274.324219 333.578125 275.699219 335.085938 C 276.074219 335.492188 276.40625 336.082031 276.152344 336.574219 C 276.023438 336.820312 275.773438 336.976562 275.539062 337.128906 C 272.078125 339.339844 269.589844 342.734375 268.476562 346.648438 C 267.542969 349.917969 265.355469 352.695312 262.8125 354.921875 C 257.789062 359.332031 250.5625 362.347656 243.796875 361.621094 C 241.105469 361.335938 238.527344 360.457031 235.851562 360.074219 C 233.230469 359.699219 230.566406 359.800781 227.925781 359.875 C 222.195312 360.03125 216.464844 360.335938 210.734375 360.484375 C 199.785156 360.773438 188.835938 361.03125 177.882812 361.28125 C 172.222656 361.410156 166.558594 361.535156 160.890625 361.660156 C 145.503906 361.660156 131.382812 353.117188 124.234375 339.488281 L 110.054688 312.4375 L 126.300781 267.039062 C 126.300781 267.039062 151.648438 325.925781 151.777344 326.222656 C 153.082031 329.253906 158 331.574219 160.726562 332.921875 C 165.28125 335.164062 170.152344 336.757812 175.035156 338.113281 C 186.191406 341.210938 197.703125 343.058594 209.183594 344.476562 C 217.226562 345.472656 225.332031 346.300781 233.433594 346.664062 C 234.25 346.699219 235.003906 346.671875 235.710938 346.5625 " fill-opacity="1" fill-rule="nonzero"/><path fill="#111827" d="M 235.710938 346.5625 L 235.714844 346.5625 Z M 231.394531 359.171875 C 232.90625 359.171875 234.433594 359.234375 235.941406 359.449219 C 237.191406 359.628906 238.425781 359.914062 239.617188 360.191406 C 241.007812 360.507812 242.441406 360.839844 243.863281 360.992188 C 249.949219 361.648438 257.050781 359.136719 262.398438 354.449219 C 265.226562 351.96875 267.066406 349.285156 267.863281 346.476562 C 269.03125 342.382812 271.632812 338.875 275.199219 336.59375 C 275.367188 336.484375 275.542969 336.371094 275.589844 336.28125 C 275.664062 336.140625 275.511719 335.820312 275.234375 335.511719 C 273.957031 334.113281 272.054688 333.402344 270.183594 332.839844 C 266.175781 331.632812 262.015625 330.914062 257.816406 330.710938 C 252.375 330.445312 249.054688 331.972656 246.367188 335.992188 C 245.710938 336.96875 245.113281 337.992188 244.539062 338.984375 C 243.582031 340.625 242.589844 342.324219 241.300781 343.882812 C 239.679688 345.835938 237.984375 346.855469 235.808594 347.1875 C 235.082031 347.300781 234.296875 347.335938 233.40625 347.292969 C 226.371094 346.980469 218.648438 346.285156 209.105469 345.105469 C 195.082031 343.371094 184.523438 341.402344 174.863281 338.726562 C 168.855469 337.054688 164.40625 335.441406 160.449219 333.488281 L 160.125 333.328125 C 157.289062 331.933594 152.542969 329.601562 151.199219 326.476562 C 151.082031 326.203125 130.28125 277.886719 126.355469 268.765625 L 110.742188 312.390625 L 124.796875 339.195312 C 131.855469 352.660156 145.6875 361.027344 160.894531 361.027344 C 166.542969 360.902344 172.203125 360.777344 177.871094 360.648438 C 187.582031 360.425781 199.078125 360.160156 210.71875 359.855469 C 213.652344 359.777344 216.640625 359.65625 219.527344 359.542969 C 222.273438 359.433594 225.113281 359.316406 227.90625 359.242188 L 228.304688 359.230469 C 229.324219 359.203125 230.355469 359.171875 231.394531 359.171875 Z M 245.796875 362.359375 C 245.097656 362.359375 244.40625 362.324219 243.726562 362.25 C 242.230469 362.089844 240.757812 361.75 239.332031 361.421875 C 238.167969 361.152344 236.957031 360.875 235.761719 360.703125 C 233.328125 360.355469 230.796875 360.425781 228.34375 360.496094 L 227.941406 360.507812 C 225.15625 360.582031 222.320312 360.695312 219.578125 360.804688 C 216.6875 360.921875 213.695312 361.042969 210.753906 361.121094 C 199.109375 361.421875 187.613281 361.691406 177.898438 361.914062 C 172.234375 362.042969 166.570312 362.171875 160.90625 362.292969 C 145.214844 362.292969 130.953125 353.664062 123.675781 339.78125 L 109.492188 312.730469 C 109.410156 312.574219 109.398438 312.390625 109.457031 312.226562 L 125.707031 266.824219 C 125.792969 266.578125 126.023438 266.414062 126.28125 266.40625 C 126.535156 266.390625 126.78125 266.550781 126.882812 266.789062 C 126.882812 266.789062 152.230469 325.675781 152.359375 325.976562 C 153.519531 328.671875 158.003906 330.875 160.6875 332.195312 L 161.007812 332.355469 C 164.894531 334.269531 169.269531 335.859375 175.203125 337.503906 C 184.796875 340.167969 195.300781 342.125 209.261719 343.851562 C 218.769531 345.027344 226.457031 345.71875 233.464844 346.03125 C 234.269531 346.066406 234.972656 346.035156 235.617188 345.9375 C 237.464844 345.65625 238.917969 344.773438 240.324219 343.074219 C 241.550781 341.597656 242.46875 340.019531 243.445312 338.34375 C 244.03125 337.339844 244.636719 336.296875 245.3125 335.289062 C 248.246094 330.90625 252.003906 329.15625 257.878906 329.445312 C 262.179688 329.65625 266.445312 330.390625 270.550781 331.628906 C 272.59375 332.242188 274.683594 333.035156 276.167969 334.660156 C 276.851562 335.410156 277.050781 336.214844 276.714844 336.863281 C 276.511719 337.257812 276.167969 337.476562 275.894531 337.652344 C 272.574219 339.773438 270.160156 343.027344 269.082031 346.824219 C 268.214844 349.871094 266.246094 352.753906 263.230469 355.398438 C 258.21875 359.796875 251.710938 362.359375 245.796875 362.359375 " fill-opacity="1" fill-rule="nonzero"/><path fill="#135981" d="M 86.644531 235.230469 C 111.375 236.757812 122.371094 246.816406 126.421875 251.269531 C 138.152344 264.171875 133.90625 276.582031 147.148438 297.457031 C 148.214844 299.140625 150.410156 302.476562 150.304688 306.925781 C 150.0625 316.957031 138.332031 323.945312 136.21875 325.203125 C 133.40625 326.878906 128.011719 329.550781 120.238281 330.128906 L 120.832031 330.128906 C 118.917969 330.03125 116.121094 329.398438 115.3125 327.660156 L 112.175781 321.933594 L 111.878906 323.996094 C 109.519531 339.226562 121.828125 360.085938 121.828125 360.085938 L 86.511719 355.320312 C 68.367188 353.5 51.101562 346.351562 37.25 334.492188 C 29.730469 328.050781 23.914062 322.023438 21.40625 314.707031 C 17.148438 302.28125 17.535156 298.742188 16.339844 283.667969 C 15.527344 273.402344 18.539062 263.152344 24.976562 255.117188 C 34.4375 243.304688 52.648438 230.917969 86.644531 235.230469 " fill-opacity="1" fill-rule="nonzero"/><path fill="#caddff" d="M 114.203125 327.941406 C 113.964844 327.941406 113.738281 327.808594 113.628906 327.582031 L 105.265625 310.019531 C 105.117188 309.703125 105.25 309.328125 105.566406 309.175781 C 105.882812 309.027344 106.257812 309.160156 106.410156 309.476562 L 114.773438 327.039062 C 114.921875 327.355469 114.789062 327.730469 114.472656 327.882812 C 114.386719 327.921875 114.292969 327.941406 114.203125 327.941406 " fill-opacity="1" fill-rule="nonzero"/><path fill="#ffffff" d="M 93.785156 193.808594 C 94.359375 194.542969 98.15625 197.355469 98.15625 197.355469 L 99.691406 200.214844 C 99.691406 200.214844 95.828125 204.746094 95.828125 204.5 C 95.828125 204.257812 93.785156 193.808594 93.785156 193.808594 " fill-opacity="1" fill-rule="nonzero"/><path fill="#111827" d="M 97.136719 203.90625 C 96.972656 203.90625 96.8125 203.84375 96.6875 203.714844 C 96.441406 203.46875 96.445312 203.070312 96.691406 202.824219 L 98.609375 200.921875 C 99.132812 200.402344 99.210938 199.59375 98.792969 198.988281 L 94.996094 194.847656 C 94.761719 194.59375 94.777344 194.191406 95.035156 193.953125 C 95.292969 193.71875 95.691406 193.734375 95.929688 193.992188 L 99.804688 198.222656 C 100.605469 199.339844 100.476562 200.851562 99.5 201.820312 L 97.582031 203.722656 C 97.457031 203.84375 97.296875 203.90625 97.136719 203.90625 " fill-opacity="1" fill-rule="nonzero"/><path fill="#111827" d="M 91.324219 175.425781 L 93.519531 173.964844 C 94.136719 172.726562 94.894531 170.894531 95.285156 168.582031 C 96.402344 161.96875 94.246094 153.011719 88.929688 150.011719 C 81.882812 146.03125 75.828125 156.238281 56.722656 157.847656 C 48.296875 158.554688 46.257812 156.863281 41.488281 159.152344 C 31.3125 164.03125 28.695312 177.742188 28.210938 180.261719 C 24 202.304688 41.003906 222.109375 49.105469 224.441406 C 52.355469 225.378906 56.695312 226.175781 56.695312 226.175781 C 61.195312 227.003906 64.722656 227.40625 65.183594 227.335938 C 84.027344 224.457031 90.6875 183.886719 90.6875 183.886719 L 91.324219 175.425781 " fill-opacity="1" fill-rule="nonzero"/><path fill="#ffffff" d="M 87.664062 176.519531 C 88.003906 174.699219 90.429688 174.296875 91.351562 175.910156 C 93.578125 179.820312 94.640625 182.542969 94.996094 184.203125 C 95.476562 186.4375 93.402344 188.671875 94.519531 191.066406 C 95.179688 192.484375 96.0625 194.011719 96.710938 195.917969 C 97.15625 197.234375 97.484375 198.726562 97.550781 200.484375 C 97.574219 201.125 97.691406 202.117188 97.824219 203.328125 C 98.558594 210.105469 99.695312 223.898438 86.984375 223.378906 C 86.394531 223.359375 85.902344 223.820312 85.910156 224.410156 C 85.945312 227.347656 86.105469 235.425781 86.757812 239.800781 C 87.113281 242.183594 85.625 244.449219 83.308594 245.105469 C 77.304688 246.800781 66.128906 249.1875 57.769531 246.464844 C 55.59375 245.761719 54.453125 243.375 55.230469 241.226562 C 56.21875 238.480469 57.597656 230.769531 56.695312 226.175781 C 56.695312 226.175781 61.699219 225.683594 67.277344 223.128906 C 75.847656 219.195312 80.066406 209.621094 77.695312 200.492188 C 77.1875 198.53125 76.085938 195.738281 77.234375 192.785156 C 80.195312 185.15625 84.625 192.824219 84.625 192.824219 L 87.664062 176.519531 " fill-opacity="1" fill-rule="nonzero"/><path fill="#111827" d="M 57.429688 226.722656 C 58.128906 231.523438 56.796875 238.738281 55.824219 241.441406 C 55.503906 242.328125 55.554688 243.28125 55.972656 244.128906 C 56.378906 244.964844 57.085938 245.578125 57.964844 245.863281 C 66.183594 248.539062 77.261719 246.15625 83.136719 244.496094 C 85.148438 243.925781 86.4375 241.949219 86.132812 239.894531 C 85.480469 235.53125 85.316406 227.617188 85.277344 224.417969 C 85.273438 223.960938 85.449219 223.535156 85.773438 223.21875 C 86.101562 222.902344 86.546875 222.730469 87.011719 222.75 C 90.300781 222.886719 92.84375 222.011719 94.578125 220.160156 C 98.554688 215.90625 97.601562 207.140625 97.195312 203.398438 L 97.128906 202.792969 C 97.023438 201.824219 96.9375 201.0625 96.917969 200.507812 C 96.863281 198.996094 96.597656 197.5625 96.109375 196.121094 C 95.660156 194.792969 95.097656 193.667969 94.554688 192.578125 C 94.339844 192.152344 94.132812 191.738281 93.945312 191.335938 C 93.21875 189.78125 93.648438 188.300781 94.027344 186.996094 C 94.296875 186.058594 94.554688 185.167969 94.378906 184.335938 C 94.144531 183.238281 93.367188 180.726562 90.800781 176.222656 C 90.453125 175.613281 89.84375 175.476562 89.390625 175.550781 C 88.941406 175.625 88.414062 175.953125 88.285156 176.636719 L 84.933594 194.617188 L 84.074219 193.140625 C 83.554688 192.238281 81.863281 189.90625 80.339844 190.042969 C 79.179688 190.132812 78.332031 191.707031 77.824219 193.011719 C 76.90625 195.375 77.554688 197.652344 78.074219 199.484375 C 78.160156 199.78125 78.238281 200.066406 78.308594 200.335938 C 80.785156 209.875 76.257812 219.703125 67.539062 223.699219 C 63.0625 225.757812 58.992188 226.496094 57.429688 226.722656 Z M 66.589844 248.328125 C 63.472656 248.328125 60.371094 247.976562 57.574219 247.066406 C 56.367188 246.675781 55.394531 245.832031 54.835938 244.6875 C 54.269531 243.527344 54.195312 242.226562 54.632812 241.011719 C 55.585938 238.371094 56.957031 230.78125 56.074219 226.300781 L 55.9375 225.617188 L 56.632812 225.550781 C 56.679688 225.542969 61.609375 225.03125 67.011719 222.550781 C 75.171875 218.808594 79.40625 209.597656 77.085938 200.652344 C 77.015625 200.390625 76.9375 200.117188 76.855469 199.832031 C 76.316406 197.921875 75.574219 195.308594 76.644531 192.554688 C 77.574219 190.160156 78.785156 188.890625 80.246094 188.78125 C 81.910156 188.652344 83.386719 190.078125 84.28125 191.210938 L 87.042969 176.40625 C 87.246094 175.3125 88.085938 174.488281 89.179688 174.304688 C 90.28125 174.117188 91.347656 174.625 91.898438 175.597656 C 94.417969 180.011719 95.308594 182.644531 95.613281 184.074219 C 95.859375 185.214844 95.546875 186.296875 95.242188 187.347656 C 94.894531 188.546875 94.566406 189.675781 95.089844 190.800781 C 95.273438 191.195312 95.476562 191.597656 95.6875 192.015625 C 96.222656 193.089844 96.832031 194.304688 97.308594 195.714844 C 97.835938 197.273438 98.121094 198.828125 98.183594 200.460938 C 98.199219 200.96875 98.289062 201.75 98.386719 202.652344 L 98.453125 203.261719 C 98.914062 207.507812 99.875 216.347656 95.5 221.023438 C 93.507812 223.15625 90.632812 224.160156 86.957031 224.011719 C 86.84375 224.003906 86.738281 224.050781 86.65625 224.128906 C 86.613281 224.167969 86.539062 224.261719 86.542969 224.402344 C 86.582031 227.574219 86.742188 235.421875 87.382812 239.707031 C 87.78125 242.390625 86.105469 244.972656 83.480469 245.714844 C 79.4375 246.855469 72.980469 248.328125 66.589844 248.328125 " fill-opacity="1" fill-rule="nonzero"/><path fill="#111827" d="M 82.542969 205.996094 C 82.21875 205.996094 81.875 205.957031 81.515625 205.871094 C 79.8125 205.445312 78.355469 204 77.183594 201.574219 C 77.03125 201.257812 77.160156 200.878906 77.476562 200.726562 C 77.789062 200.578125 78.167969 200.707031 78.320312 201.023438 C 79.316406 203.089844 80.488281 204.300781 81.804688 204.636719 C 83.199219 204.992188 84.292969 204.222656 84.339844 204.191406 C 84.621094 203.988281 85.015625 204.050781 85.21875 204.332031 C 85.425781 204.613281 85.367188 205.003906 85.085938 205.210938 C 85.03125 205.25 84 205.996094 82.542969 205.996094 " fill-opacity="1" fill-rule="nonzero"/><path fill="#ffffff" d="M 14.191406 280.140625 C 25.433594 286.933594 48.292969 296.617188 85.082031 294.371094 C 87.789062 294.207031 90.289062 295.808594 91.246094 298.347656 L 93.539062 307.535156 C 97.574219 323.683594 105.164062 338.730469 115.753906 351.578125 L 121.25 358.246094 C 122.09375 359.269531 121.300781 360.8125 119.972656 360.714844 L 95.714844 358.929688 C 54.078125 353.421875 21.730469 332.539062 11.355469 294.496094 L 8.585938 284.351562 C 7.6875 281.058594 11.269531 278.375 14.191406 280.140625 " fill-opacity="1" fill-rule="nonzero"/><path fill="#111827" d="M 120.398438 361.371094 C 120.347656 361.371094 120.292969 361.371094 120.242188 361.367188 L 114.511719 360.945312 C 114.164062 360.921875 113.902344 360.617188 113.925781 360.269531 C 113.953125 359.921875 114.253906 359.660156 114.605469 359.683594 L 120.335938 360.105469 C 120.785156 360.136719 120.996094 359.808594 121.050781 359.707031 C 121.101562 359.605469 121.253906 359.242188 120.960938 358.890625 L 115.265625 351.976562 C 104.683594 339.144531 96.960938 323.824219 92.925781 307.6875 L 90.640625 298.535156 C 89.773438 296.273438 87.558594 294.863281 85.121094 295.003906 C 81.460938 295.226562 77.933594 295.332031 74.542969 295.332031 C 43.136719 295.332031 23.324219 286.398438 13.867188 280.683594 C 12.515625 279.863281 11.152344 280.238281 10.328125 280.859375 C 9.511719 281.476562 8.785156 282.671875 9.199219 284.183594 L 11.964844 294.332031 C 15.320312 306.628906 21.109375 317.484375 29.171875 326.597656 C 29.40625 326.859375 29.378906 327.257812 29.117188 327.488281 C 28.855469 327.722656 28.457031 327.699219 28.226562 327.4375 C 20.03125 318.175781 14.148438 307.152344 10.742188 294.664062 L 7.976562 284.515625 C 7.492188 282.742188 8.101562 280.957031 9.566406 279.847656 C 11.039062 278.738281 12.9375 278.640625 14.519531 279.597656 C 24.871094 285.855469 47.804688 296.015625 85.046875 293.742188 C 88.050781 293.550781 90.78125 295.320312 91.835938 298.125 C 91.847656 298.148438 91.851562 298.171875 91.859375 298.195312 L 94.152344 307.378906 C 98.140625 323.339844 105.777344 338.484375 116.242188 351.175781 L 121.9375 358.085938 C 122.460938 358.714844 122.546875 359.558594 122.171875 360.289062 C 121.820312 360.96875 121.152344 361.371094 120.398438 361.371094 " fill-opacity="1" fill-rule="nonzero"/><path fill="#ffffff" d="M 298.246094 207.125 L 162 190.230469 C 158.703125 189.820312 156.027344 186.894531 156.027344 183.695312 L 156.027344 20.351562 C 156.027344 17.152344 158.703125 14.894531 162 15.304688 L 298.246094 32.195312 C 301.546875 32.609375 304.222656 35.53125 304.222656 38.726562 L 304.222656 202.074219 C 304.222656 205.269531 301.546875 207.53125 298.246094 207.125 " fill-opacity="1" fill-rule="nonzero"/><path fill="#111827" d="M 226.105469 198.8125 C 226.082031 198.8125 226.054688 198.808594 226.027344 198.804688 L 161.921875 190.855469 C 158.320312 190.410156 155.394531 187.199219 155.394531 183.699219 L 155.394531 161.011719 C 155.394531 160.664062 155.675781 160.382812 156.023438 160.382812 C 156.375 160.382812 156.660156 160.664062 156.660156 161.011719 L 156.660156 183.699219 C 156.660156 186.582031 159.089844 189.230469 162.078125 189.601562 L 226.183594 197.550781 C 226.53125 197.59375 226.777344 197.910156 226.734375 198.257812 C 226.695312 198.578125 226.421875 198.8125 226.105469 198.8125 " fill-opacity="1" fill-rule="nonzero"/><path fill="#111827" d="M 304.21875 98.363281 C 303.867188 98.363281 303.585938 98.078125 303.585938 97.730469 L 303.585938 38.730469 C 303.585938 35.84375 301.15625 33.195312 298.167969 32.828125 L 161.921875 15.929688 C 160.464844 15.753906 159.109375 16.136719 158.113281 17.019531 C 157.175781 17.851562 156.660156 19.03125 156.660156 20.351562 L 156.660156 65.761719 C 156.660156 66.113281 156.375 66.394531 156.023438 66.394531 C 155.675781 66.394531 155.394531 66.113281 155.394531 65.761719 L 155.394531 20.351562 C 155.394531 18.664062 156.0625 17.144531 157.273438 16.074219 C 158.550781 14.945312 160.253906 14.449219 162.078125 14.675781 L 298.320312 31.570312 C 301.921875 32.019531 304.851562 35.226562 304.851562 38.730469 L 304.851562 97.730469 C 304.851562 98.078125 304.570312 98.363281 304.21875 98.363281 " fill-opacity="1" fill-rule="nonzero"/><path fill="#135981" d="M 286.074219 129.757812 L 173.453125 115.796875 L 173.453125 69.640625 L 286.074219 83.609375 L 286.074219 129.757812 " fill-opacity="1" fill-rule="nonzero"/><path fill="#caddff" d="M 208.929688 129.101562 L 173.453125 124.699219 L 173.453125 171.9375 L 208.929688 176.335938 L 208.929688 129.101562 " fill-opacity="1" fill-rule="nonzero"/><path fill="#caddff" d="M 216.761719 130.070312 L 216.761719 177.308594 L 286.074219 185.902344 L 286.074219 138.667969 L 216.761719 130.070312 " fill-opacity="1" fill-rule="nonzero"/><path fill="#caddff" d="M 286.074219 75.421875 L 173.453125 61.453125 L 173.453125 34.980469 L 286.074219 48.945312 L 286.074219 75.421875 " fill-opacity="1" fill-rule="nonzero"/><path fill="#38b6ff" d="M 349.660156 241.835938 L 246.308594 228.613281 C 243.804688 228.292969 241.777344 226.007812 241.777344 223.503906 L 241.777344 153.726562 C 241.777344 151.222656 243.804688 149.453125 246.308594 149.773438 L 349.660156 162.996094 C 352.164062 163.316406 354.191406 165.605469 354.191406 168.105469 L 354.191406 237.886719 C 354.191406 240.386719 352.164062 242.15625 349.660156 241.835938 " fill-opacity="1" fill-rule="nonzero"/><path fill="#111827" d="M 350.25 242.507812 C 350.027344 242.507812 349.804688 242.492188 349.578125 242.464844 L 246.226562 229.242188 C 243.425781 228.882812 241.144531 226.308594 241.144531 223.503906 L 241.144531 153.726562 C 241.144531 152.335938 241.6875 151.09375 242.671875 150.226562 C 243.667969 149.351562 244.988281 148.96875 246.386719 149.148438 L 310.585938 157.359375 C 310.929688 157.402344 311.175781 157.722656 311.128906 158.066406 C 311.085938 158.414062 310.765625 158.652344 310.421875 158.613281 L 246.226562 150.402344 C 245.195312 150.265625 244.226562 150.546875 243.507812 151.179688 C 242.796875 151.800781 242.410156 152.707031 242.410156 153.726562 L 242.410156 223.503906 C 242.410156 225.695312 244.195312 227.707031 246.386719 227.988281 L 349.742188 241.210938 C 350.773438 241.34375 351.742188 241.066406 352.460938 240.433594 C 353.167969 239.808594 353.558594 238.902344 353.558594 237.886719 L 353.558594 198.113281 C 353.558594 197.765625 353.84375 197.480469 354.191406 197.480469 C 354.542969 197.480469 354.824219 197.765625 354.824219 198.113281 L 354.824219 237.886719 C 354.824219 239.273438 354.28125 240.515625 353.296875 241.382812 C 352.460938 242.121094 351.394531 242.507812 350.25 242.507812 " fill-opacity="1" fill-rule="nonzero"/><path fill="#135981" d="M 341.441406 177.53125 L 254.03125 166.6875 L 254.03125 212.84375 L 341.441406 223.679688 L 341.441406 177.53125 " fill-opacity="1" fill-rule="nonzero"/><path fill="#111827" d="M 296.335938 175.097656 C 295.984375 175.097656 295.699219 174.816406 295.699219 174.464844 L 295.699219 172.496094 L 293.746094 172.25 C 293.398438 172.210938 293.152344 171.894531 293.195312 171.546875 C 293.238281 171.203125 293.554688 170.953125 293.902344 170.996094 L 296.410156 171.308594 C 296.730469 171.347656 296.96875 171.617188 296.96875 171.933594 L 296.96875 174.464844 C 296.96875 174.816406 296.683594 175.097656 296.335938 175.097656 " fill-opacity="1" fill-rule="nonzero"/><path fill="#111827" d="M 267.195312 168.953125 C 267.167969 168.953125 267.144531 168.953125 267.117188 168.949219 L 261.792969 168.289062 C 261.445312 168.246094 261.199219 167.929688 261.242188 167.582031 C 261.285156 167.234375 261.601562 166.988281 261.945312 167.03125 L 267.273438 167.695312 C 267.621094 167.734375 267.867188 168.050781 267.824219 168.398438 C 267.78125 168.71875 267.511719 168.953125 267.195312 168.953125 Z M 277.851562 170.273438 C 277.820312 170.273438 277.796875 170.273438 277.769531 170.269531 L 272.445312 169.609375 C 272.097656 169.566406 271.851562 169.25 271.894531 168.902344 C 271.9375 168.554688 272.253906 168.3125 272.601562 168.355469 L 277.925781 169.011719 C 278.273438 169.058594 278.519531 169.375 278.476562 169.71875 C 278.433594 170.039062 278.164062 170.273438 277.851562 170.273438 Z M 288.5 171.59375 C 288.476562 171.59375 288.449219 171.59375 288.421875 171.589844 L 283.097656 170.929688 C 282.75 170.886719 282.503906 170.570312 282.546875 170.222656 C 282.589844 169.878906 282.90625 169.628906 283.25 169.675781 L 288.578125 170.335938 C 288.925781 170.378906 289.171875 170.691406 289.125 171.039062 C 289.085938 171.359375 288.816406 171.59375 288.5 171.59375 " fill-opacity="1" fill-rule="nonzero"/><path fill="#111827" d="M 254.03125 169.851562 C 253.683594 169.851562 253.402344 169.566406 253.402344 169.21875 L 253.402344 166.6875 C 253.402344 166.507812 253.476562 166.335938 253.613281 166.214844 C 253.75 166.09375 253.933594 166.035156 254.109375 166.058594 L 256.621094 166.371094 C 256.96875 166.414062 257.214844 166.730469 257.171875 167.078125 C 257.128906 167.421875 256.8125 167.667969 256.464844 167.628906 L 254.667969 167.40625 L 254.667969 169.21875 C 254.667969 169.566406 254.382812 169.851562 254.03125 169.851562 " fill-opacity="1" fill-rule="nonzero"/><path fill="#111827" d="M 254.03125 178.464844 C 253.683594 178.464844 253.402344 178.183594 253.402344 177.832031 L 253.402344 173.527344 C 253.402344 173.175781 253.683594 172.894531 254.03125 172.894531 C 254.382812 172.894531 254.664062 173.175781 254.664062 173.527344 L 254.664062 177.832031 C 254.664062 178.183594 254.382812 178.464844 254.03125 178.464844 " fill-opacity="1" fill-rule="nonzero"/><path fill="#111827" d="M 256.542969 185.613281 C 256.519531 185.613281 256.492188 185.613281 256.464844 185.609375 L 253.957031 185.300781 C 253.636719 185.257812 253.402344 184.988281 253.402344 184.671875 L 253.402344 182.140625 C 253.402344 181.789062 253.683594 181.507812 254.03125 181.507812 C 254.382812 181.507812 254.667969 181.789062 254.667969 182.140625 L 254.667969 184.109375 L 256.621094 184.355469 C 256.96875 184.394531 257.214844 184.710938 257.171875 185.058594 C 257.132812 185.378906 256.859375 185.613281 256.542969 185.613281 " fill-opacity="1" fill-rule="nonzero"/><path fill="#111827" d="M 267.195312 186.933594 C 267.167969 186.933594 267.144531 186.933594 267.117188 186.929688 L 261.792969 186.269531 C 261.445312 186.226562 261.199219 185.910156 261.242188 185.5625 C 261.285156 185.214844 261.601562 184.96875 261.945312 185.015625 L 267.273438 185.675781 C 267.621094 185.71875 267.867188 186.03125 267.824219 186.378906 C 267.78125 186.699219 267.511719 186.933594 267.195312 186.933594 Z M 277.851562 188.253906 C 277.820312 188.253906 277.796875 188.253906 277.769531 188.25 L 272.445312 187.589844 C 272.097656 187.546875 271.851562 187.230469 271.894531 186.882812 C 271.9375 186.535156 272.253906 186.289062 272.601562 186.335938 L 277.925781 186.992188 C 278.273438 187.039062 278.519531 187.355469 278.476562 187.703125 C 278.433594 188.019531 278.164062 188.253906 277.851562 188.253906 Z M 288.5 189.578125 C 288.476562 189.578125 288.449219 189.574219 288.421875 189.570312 L 283.097656 188.910156 C 282.75 188.867188 282.503906 188.554688 282.546875 188.207031 C 282.589844 187.859375 282.90625 187.609375 283.25 187.65625 L 288.578125 188.316406 C 288.925781 188.359375 289.171875 188.675781 289.125 189.023438 C 289.085938 189.34375 288.816406 189.578125 288.5 189.578125 " fill-opacity="1" fill-rule="nonzero"/><path fill="#111827" d="M 296.335938 190.550781 C 296.308594 190.550781 296.28125 190.546875 296.257812 190.546875 L 293.746094 190.230469 C 293.398438 190.191406 293.152344 189.875 293.195312 189.53125 C 293.238281 189.179688 293.554688 188.933594 293.902344 188.976562 L 295.699219 189.199219 L 295.699219 187.386719 C 295.699219 187.039062 295.984375 186.753906 296.335938 186.753906 C 296.683594 186.753906 296.96875 187.039062 296.96875 187.386719 L 296.96875 189.917969 C 296.96875 190.097656 296.886719 190.273438 296.75 190.390625 C 296.636719 190.492188 296.488281 190.550781 296.335938 190.550781 " fill-opacity="1" fill-rule="nonzero"/><path fill="#111827" d="M 296.335938 183.710938 C 295.984375 183.710938 295.699219 183.429688 295.699219 183.078125 L 295.699219 178.773438 C 295.699219 178.425781 295.984375 178.140625 296.335938 178.140625 C 296.683594 178.140625 296.96875 178.425781 296.96875 178.773438 L 296.96875 183.078125 C 296.96875 183.429688 296.683594 183.710938 296.335938 183.710938 " fill-opacity="1" fill-rule="nonzero"/><path fill="#111827" d="M 341.441406 208.824219 C 341.09375 208.824219 340.808594 208.539062 340.808594 208.191406 L 340.808594 206.21875 L 338.851562 205.96875 C 338.507812 205.925781 338.261719 205.605469 338.300781 205.261719 C 338.347656 204.914062 338.664062 204.671875 339.011719 204.714844 L 341.519531 205.03125 C 341.835938 205.074219 342.074219 205.34375 342.074219 205.660156 L 342.074219 208.191406 C 342.074219 208.539062 341.789062 208.824219 341.441406 208.824219 " fill-opacity="1" fill-rule="nonzero"/><path fill="#111827" d="M 284.296875 199.003906 C 284.269531 199.003906 284.242188 199 284.214844 198.996094 L 279.246094 198.363281 C 278.898438 198.320312 278.65625 198.003906 278.699219 197.65625 C 278.746094 197.308594 279.0625 197.066406 279.40625 197.109375 L 284.375 197.742188 C 284.722656 197.785156 284.964844 198.101562 284.921875 198.449219 C 284.878906 198.769531 284.609375 199.003906 284.296875 199.003906 Z M 294.226562 200.269531 C 294.199219 200.269531 294.175781 200.269531 294.148438 200.265625 L 289.179688 199.632812 C 288.835938 199.585938 288.589844 199.269531 288.632812 198.921875 C 288.675781 198.574219 288.992188 198.335938 289.34375 198.375 L 294.308594 199.011719 C 294.652344 199.054688 294.898438 199.371094 294.855469 199.71875 C 294.816406 200.035156 294.542969 200.269531 294.226562 200.269531 Z M 304.160156 201.535156 C 304.136719 201.535156 304.109375 201.535156 304.078125 201.53125 L 299.113281 200.898438 C 298.769531 200.851562 298.523438 200.535156 298.566406 200.191406 C 298.613281 199.84375 298.921875 199.601562 299.277344 199.644531 L 304.242188 200.277344 C 304.585938 200.320312 304.832031 200.636719 304.789062 200.984375 C 304.75 201.304688 304.476562 201.535156 304.160156 201.535156 Z M 314.097656 202.804688 C 314.070312 202.804688 314.042969 202.800781 314.015625 202.800781 L 309.050781 202.167969 C 308.703125 202.121094 308.457031 201.804688 308.5 201.457031 C 308.546875 201.113281 308.863281 200.867188 309.207031 200.910156 L 314.175781 201.542969 C 314.523438 201.589844 314.765625 201.90625 314.722656 202.253906 C 314.679688 202.574219 314.410156 202.804688 314.097656 202.804688 Z M 324.027344 204.074219 C 324 204.074219 323.976562 204.070312 323.949219 204.066406 L 318.980469 203.433594 C 318.632812 203.390625 318.390625 203.074219 318.433594 202.726562 C 318.476562 202.378906 318.796875 202.136719 319.140625 202.179688 L 324.109375 202.8125 C 324.457031 202.859375 324.703125 203.175781 324.65625 203.519531 C 324.613281 203.839844 324.34375 204.074219 324.027344 204.074219 Z M 333.964844 205.339844 C 333.9375 205.339844 333.910156 205.339844 333.882812 205.335938 L 328.914062 204.703125 C 328.570312 204.65625 328.324219 204.339844 328.367188 203.996094 C 328.414062 203.648438 328.726562 203.402344 329.078125 203.445312 L 334.042969 204.082031 C 334.390625 204.125 334.632812 204.441406 334.589844 204.789062 C 334.546875 205.109375 334.277344 205.339844 333.964844 205.339844 " fill-opacity="1" fill-rule="nonzero"/><path fill="#111827" d="M 271.851562 199.945312 C 271.5 199.945312 271.214844 199.660156 271.214844 199.3125 L 271.214844 196.78125 C 271.214844 196.601562 271.296875 196.425781 271.433594 196.304688 C 271.566406 196.1875 271.75 196.128906 271.929688 196.15625 L 274.441406 196.472656 C 274.789062 196.519531 275.03125 196.835938 274.988281 197.179688 C 274.941406 197.527344 274.625 197.769531 274.28125 197.730469 L 272.484375 197.5 L 272.484375 199.3125 C 272.484375 199.660156 272.199219 199.945312 271.851562 199.945312 " fill-opacity="1" fill-rule="nonzero"/><path fill="#111827" d="M 274.363281 208.125 C 274.335938 208.125 274.308594 208.125 274.28125 208.121094 L 271.769531 207.800781 C 271.457031 207.757812 271.214844 207.492188 271.214844 207.171875 L 271.214844 204.640625 C 271.214844 204.296875 271.5 204.011719 271.851562 204.011719 C 272.199219 204.011719 272.484375 204.296875 272.484375 204.640625 L 272.484375 206.613281 L 274.441406 206.867188 C 274.789062 206.910156 275.03125 207.226562 274.988281 207.570312 C 274.949219 207.894531 274.675781 208.125 274.363281 208.125 " fill-opacity="1" fill-rule="nonzero"/><path fill="#111827" d="M 284.296875 209.394531 C 284.269531 209.394531 284.242188 209.390625 284.214844 209.390625 L 279.246094 208.753906 C 278.898438 208.710938 278.65625 208.394531 278.699219 208.046875 C 278.746094 207.699219 279.0625 207.453125 279.40625 207.5 L 284.375 208.132812 C 284.722656 208.175781 284.964844 208.492188 284.921875 208.839844 C 284.878906 209.160156 284.609375 209.394531 284.296875 209.394531 Z M 294.230469 210.660156 C 294.203125 210.660156 294.175781 210.660156 294.148438 210.65625 L 289.183594 210.023438 C 288.835938 209.976562 288.589844 209.660156 288.632812 209.316406 C 288.675781 208.96875 288.992188 208.722656 289.34375 208.769531 L 294.308594 209.398438 C 294.652344 209.445312 294.898438 209.761719 294.855469 210.109375 C 294.816406 210.429688 294.542969 210.660156 294.230469 210.660156 Z M 304.160156 211.929688 C 304.136719 211.929688 304.109375 211.925781 304.078125 211.921875 L 299.113281 211.289062 C 298.769531 211.246094 298.523438 210.929688 298.566406 210.582031 C 298.613281 210.234375 298.929688 209.992188 299.277344 210.035156 L 304.242188 210.667969 C 304.585938 210.714844 304.832031 211.03125 304.789062 211.375 C 304.75 211.695312 304.476562 211.929688 304.160156 211.929688 Z M 314.097656 213.195312 C 314.070312 213.195312 314.042969 213.195312 314.015625 213.191406 L 309.050781 212.558594 C 308.703125 212.511719 308.457031 212.199219 308.5 211.851562 C 308.546875 211.503906 308.855469 211.257812 309.207031 211.300781 L 314.175781 211.9375 C 314.523438 211.980469 314.765625 212.296875 314.722656 212.644531 C 314.679688 212.964844 314.410156 213.195312 314.097656 213.195312 Z M 324.03125 214.464844 C 324.003906 214.464844 323.976562 214.464844 323.949219 214.460938 L 318.980469 213.824219 C 318.632812 213.78125 318.390625 213.464844 318.433594 213.117188 C 318.476562 212.769531 318.789062 212.527344 319.144531 212.570312 L 324.109375 213.203125 C 324.457031 213.25 324.703125 213.566406 324.65625 213.914062 C 324.613281 214.230469 324.34375 214.464844 324.03125 214.464844 Z M 333.964844 215.734375 C 333.9375 215.734375 333.910156 215.730469 333.882812 215.726562 L 328.914062 215.09375 C 328.570312 215.050781 328.324219 214.730469 328.367188 214.386719 C 328.414062 214.039062 328.726562 213.792969 329.078125 213.839844 L 334.042969 214.472656 C 334.390625 214.515625 334.632812 214.832031 334.589844 215.179688 C 334.546875 215.5 334.277344 215.734375 333.964844 215.734375 " fill-opacity="1" fill-rule="nonzero"/><path fill="#111827" d="M 341.441406 216.683594 C 341.414062 216.683594 341.390625 216.683594 341.363281 216.679688 L 338.851562 216.359375 C 338.507812 216.316406 338.261719 216 338.300781 215.652344 C 338.347656 215.304688 338.664062 215.0625 339.011719 215.105469 L 340.808594 215.332031 L 340.808594 213.523438 C 340.808594 213.171875 341.09375 212.890625 341.441406 212.890625 C 341.789062 212.890625 342.074219 213.171875 342.074219 213.523438 L 342.074219 216.050781 C 342.074219 216.234375 341.996094 216.40625 341.859375 216.527344 C 341.746094 216.628906 341.59375 216.683594 341.441406 216.683594 " fill-opacity="1" fill-rule="nonzero"/><path fill="#38b6ff" d="M 256.414062 175.605469 C 256.253906 175.605469 256.089844 175.542969 255.96875 175.417969 C 255.71875 175.171875 255.71875 174.769531 255.96875 174.523438 L 261.082031 169.410156 C 261.328125 169.160156 261.726562 169.160156 261.976562 169.410156 C 262.222656 169.65625 262.222656 170.058594 261.976562 170.300781 L 256.859375 175.417969 C 256.738281 175.542969 256.574219 175.605469 256.414062 175.605469 " fill-opacity="1" fill-rule="nonzero"/><path fill="#38b6ff" d="M 258.277344 183.804688 C 258.113281 183.804688 257.953125 183.746094 257.832031 183.621094 C 257.585938 183.375 257.585938 182.976562 257.832031 182.726562 L 269.96875 170.589844 C 270.21875 170.339844 270.617188 170.339844 270.863281 170.589844 C 271.113281 170.835938 271.113281 171.234375 270.863281 171.484375 L 258.726562 183.621094 C 258.597656 183.746094 258.4375 183.804688 258.277344 183.804688 " fill-opacity="1" fill-rule="nonzero"/><path fill="#38b6ff" d="M 267.226562 184.925781 C 267.066406 184.925781 266.90625 184.863281 266.78125 184.738281 C 266.535156 184.492188 266.535156 184.09375 266.78125 183.84375 L 278.957031 171.671875 C 279.203125 171.421875 279.601562 171.421875 279.851562 171.671875 C 280.097656 171.917969 280.097656 172.316406 279.851562 172.566406 L 267.675781 184.738281 C 267.554688 184.863281 267.390625 184.925781 267.226562 184.925781 " fill-opacity="1" fill-rule="nonzero"/><path fill="#38b6ff" d="M 276.15625 186.066406 C 275.992188 186.066406 275.832031 186.003906 275.707031 185.878906 C 275.460938 185.636719 275.460938 185.234375 275.707031 184.988281 L 287.9375 172.757812 C 288.183594 172.511719 288.585938 172.511719 288.832031 172.757812 C 289.078125 173.007812 289.078125 173.40625 288.832031 173.652344 L 276.601562 185.878906 C 276.476562 186.003906 276.316406 186.066406 276.15625 186.066406 " fill-opacity="1" fill-rule="nonzero"/><path fill="#38b6ff" d="M 285.148438 187.140625 C 284.988281 187.140625 284.824219 187.078125 284.699219 186.953125 C 284.453125 186.707031 284.453125 186.308594 284.699219 186.0625 L 293.070312 177.695312 C 293.316406 177.445312 293.71875 177.445312 293.960938 177.695312 C 294.210938 177.941406 294.210938 178.339844 293.960938 178.585938 L 285.597656 186.953125 C 285.472656 187.078125 285.308594 187.140625 285.148438 187.140625 " fill-opacity="1" fill-rule="nonzero"/><path fill="#38b6ff" d="M 274.574219 205.796875 C 274.414062 205.796875 274.25 205.734375 274.128906 205.609375 C 273.878906 205.363281 273.878906 204.964844 274.128906 204.71875 L 279.355469 199.488281 C 279.601562 199.242188 280 199.242188 280.25 199.488281 C 280.496094 199.734375 280.496094 200.136719 280.25 200.382812 L 275.019531 205.609375 C 274.898438 205.734375 274.738281 205.796875 274.574219 205.796875 " fill-opacity="1" fill-rule="nonzero"/><path fill="#38b6ff" d="M 283.527344 206.914062 C 283.363281 206.914062 283.203125 206.851562 283.078125 206.726562 C 282.832031 206.480469 282.832031 206.082031 283.078125 205.832031 L 288.34375 200.570312 C 288.589844 200.320312 288.988281 200.320312 289.238281 200.570312 C 289.484375 200.820312 289.484375 201.214844 289.238281 201.464844 L 283.972656 206.726562 C 283.851562 206.851562 283.6875 206.914062 283.527344 206.914062 " fill-opacity="1" fill-rule="nonzero"/><path fill="#38b6ff" d="M 292.449219 208.058594 C 292.289062 208.058594 292.125 207.992188 292 207.875 C 291.757812 207.625 291.757812 207.226562 292 206.976562 L 297.320312 201.660156 C 297.570312 201.414062 297.964844 201.414062 298.214844 201.660156 C 298.460938 201.910156 298.460938 202.304688 298.214844 202.554688 L 292.898438 207.875 C 292.773438 207.992188 292.609375 208.058594 292.449219 208.058594 " fill-opacity="1" fill-rule="nonzero"/><path fill="#38b6ff" d="M 300.667969 209.289062 C 300.503906 209.289062 300.34375 209.226562 300.21875 209.101562 C 299.976562 208.855469 299.976562 208.457031 300.21875 208.207031 L 305.449219 202.980469 C 305.695312 202.734375 306.097656 202.734375 306.34375 202.980469 C 306.589844 203.226562 306.589844 203.628906 306.34375 203.875 L 301.117188 209.101562 C 300.988281 209.226562 300.828125 209.289062 300.667969 209.289062 " fill-opacity="1" fill-rule="nonzero"/><path fill="#38b6ff" d="M 309.617188 210.40625 C 309.460938 210.40625 309.296875 210.34375 309.171875 210.21875 C 308.925781 209.972656 308.925781 209.574219 309.171875 209.324219 L 314.433594 204.0625 C 314.683594 203.816406 315.082031 203.816406 315.332031 204.0625 C 315.574219 204.308594 315.574219 204.710938 315.332031 204.957031 L 310.066406 210.21875 C 309.941406 210.34375 309.78125 210.40625 309.617188 210.40625 " fill-opacity="1" fill-rule="nonzero"/><path fill="#38b6ff" d="M 318.542969 211.550781 C 318.382812 211.550781 318.21875 211.488281 318.09375 211.363281 C 317.847656 211.117188 317.847656 210.714844 318.09375 210.46875 L 323.414062 205.152344 C 323.660156 204.90625 324.0625 204.90625 324.304688 205.152344 C 324.554688 205.398438 324.554688 205.800781 324.304688 206.046875 L 318.988281 211.363281 C 318.867188 211.488281 318.707031 211.550781 318.542969 211.550781 " fill-opacity="1" fill-rule="nonzero"/><path fill="#38b6ff" d="M 327.199219 212.878906 C 327.039062 212.878906 326.875 212.816406 326.753906 212.691406 C 326.503906 212.445312 326.503906 212.046875 326.753906 211.796875 L 332.015625 206.535156 C 332.261719 206.289062 332.664062 206.289062 332.910156 206.535156 C 333.15625 206.78125 333.15625 207.183594 332.910156 207.429688 L 327.648438 212.691406 C 327.523438 212.816406 327.363281 212.878906 327.199219 212.878906 " fill-opacity="1" fill-rule="nonzero"/><path fill="#38b6ff" d="M 336.121094 214.023438 C 335.960938 214.023438 335.800781 213.960938 335.675781 213.835938 C 335.429688 213.589844 335.429688 213.1875 335.675781 212.941406 L 339.453125 209.167969 C 339.699219 208.917969 340.097656 208.917969 340.347656 209.167969 C 340.59375 209.414062 340.59375 209.816406 340.347656 210.0625 L 336.570312 213.835938 C 336.445312 213.960938 336.285156 214.023438 336.121094 214.023438 " fill-opacity="1" fill-rule="nonzero"/><path fill="#135981" d="M 160.542969 143.820312 L 57.1875 130.597656 C 54.6875 130.28125 52.65625 127.992188 52.65625 125.488281 L 52.65625 74.671875 C 52.65625 72.167969 54.6875 70.398438 57.1875 70.71875 L 160.542969 83.941406 C 163.042969 84.261719 165.074219 86.550781 165.074219 89.050781 L 165.074219 139.871094 C 165.074219 142.371094 163.042969 144.140625 160.542969 143.820312 " fill-opacity="1" fill-rule="nonzero"/><path fill="#111827" d="M 161.128906 144.492188 C 160.910156 144.492188 160.683594 144.480469 160.460938 144.449219 L 111.859375 138.332031 C 111.511719 138.289062 111.265625 137.972656 111.308594 137.628906 C 111.351562 137.28125 111.667969 137.039062 112.015625 137.078125 L 160.621094 143.195312 C 161.65625 143.328125 162.621094 143.050781 163.339844 142.417969 C 164.050781 141.792969 164.4375 140.890625 164.4375 139.871094 L 164.4375 89.050781 C 164.4375 86.859375 162.65625 84.851562 160.460938 84.570312 L 57.109375 71.347656 C 56.074219 71.214844 55.109375 71.492188 54.390625 72.125 C 53.679688 72.746094 53.289062 73.652344 53.289062 74.671875 L 53.289062 108.792969 C 53.289062 109.144531 53.007812 109.425781 52.65625 109.425781 C 52.308594 109.425781 52.023438 109.144531 52.023438 108.792969 L 52.023438 74.671875 C 52.023438 73.285156 52.566406 72.039062 53.554688 71.171875 C 54.550781 70.296875 55.871094 69.914062 57.269531 70.09375 L 160.621094 83.316406 C 163.425781 83.671875 165.707031 86.246094 165.707031 89.050781 L 165.707031 139.871094 C 165.707031 141.257812 165.164062 142.5 164.175781 143.367188 C 163.339844 144.105469 162.277344 144.492188 161.128906 144.492188 " fill-opacity="1" fill-rule="nonzero"/><path fill="#38b6ff" d="M 152.570312 95.238281 L 65.160156 84.398438 L 65.160156 117.398438 L 152.570312 128.234375 L 152.570312 95.238281 " fill-opacity="1" fill-rule="nonzero"/><path fill="#111827" d="M 325.242188 220.082031 C 325.140625 220.082031 325.042969 220.058594 324.953125 220.011719 C 324.640625 219.847656 324.519531 219.46875 324.679688 219.15625 C 325.0625 218.414062 325.441406 217.65625 325.796875 216.910156 C 325.949219 216.59375 326.328125 216.460938 326.644531 216.613281 C 326.957031 216.761719 327.089844 217.140625 326.9375 217.457031 C 326.578125 218.214844 326.195312 218.984375 325.800781 219.738281 C 325.6875 219.957031 325.46875 220.082031 325.242188 220.082031 " fill-opacity="1" fill-rule="nonzero"/><path fill="#111827" d="M 103.882812 162.285156 C 103.578125 162.285156 103.308594 162.0625 103.257812 161.753906 C 102.996094 160.160156 102.757812 158.492188 102.546875 156.800781 C 102.503906 156.453125 102.75 156.136719 103.097656 156.09375 C 103.445312 156.050781 103.761719 156.296875 103.804688 156.644531 C 104.011719 158.320312 104.25 159.972656 104.507812 161.550781 C 104.5625 161.894531 104.328125 162.21875 103.984375 162.277344 C 103.949219 162.285156 103.917969 162.285156 103.882812 162.285156 Z M 105.949219 172.027344 C 105.671875 172.027344 105.414062 171.839844 105.339844 171.558594 C 104.921875 170.003906 104.53125 168.359375 104.175781 166.679688 C 104.105469 166.335938 104.320312 166 104.664062 165.929688 C 105.003906 165.855469 105.339844 166.078125 105.414062 166.417969 C 105.761719 168.078125 106.148438 169.695312 106.5625 171.230469 C 106.652344 171.566406 106.453125 171.914062 106.113281 172.003906 C 106.058594 172.019531 106.003906 172.027344 105.949219 172.027344 Z M 109.207031 181.429688 C 108.964844 181.429688 108.734375 181.289062 108.628906 181.054688 C 107.980469 179.582031 107.363281 178.007812 106.800781 176.363281 C 106.6875 176.03125 106.863281 175.671875 107.195312 175.558594 C 107.523438 175.445312 107.882812 175.621094 107.996094 175.953125 C 108.550781 177.5625 109.152344 179.105469 109.785156 180.539062 C 109.925781 180.859375 109.78125 181.234375 109.460938 181.375 C 109.378906 181.414062 109.292969 181.429688 109.207031 181.429688 Z M 114.222656 190.003906 C 114.035156 190.003906 113.847656 189.921875 113.722656 189.761719 C 112.726562 188.484375 111.777344 187.070312 110.902344 185.558594 C 110.726562 185.253906 110.832031 184.867188 111.132812 184.691406 C 111.4375 184.519531 111.824219 184.621094 111.996094 184.921875 C 112.84375 186.386719 113.761719 187.757812 114.71875 188.980469 C 114.933594 189.257812 114.886719 189.65625 114.609375 189.871094 C 114.496094 189.960938 114.359375 190.003906 114.222656 190.003906 Z M 121.601562 196.601562 C 121.492188 196.601562 121.378906 196.578125 121.28125 196.519531 C 119.839844 195.667969 118.457031 194.652344 117.175781 193.492188 C 116.914062 193.257812 116.894531 192.855469 117.128906 192.601562 C 117.363281 192.339844 117.761719 192.320312 118.023438 192.554688 C 119.242188 193.65625 120.554688 194.621094 121.921875 195.425781 C 122.222656 195.605469 122.324219 195.992188 122.144531 196.292969 C 122.027344 196.492188 121.816406 196.601562 121.601562 196.601562 Z M 145.84375 198.199219 C 145.535156 198.199219 145.265625 197.972656 145.21875 197.660156 C 145.164062 197.316406 145.402344 196.992188 145.75 196.941406 C 147.6875 196.648438 149.277344 196.472656 150.757812 196.386719 C 151.109375 196.367188 151.402344 196.632812 151.425781 196.980469 C 151.445312 197.332031 151.179688 197.628906 150.832031 197.648438 C 149.394531 197.730469 147.839844 197.90625 145.9375 198.191406 C 145.90625 198.195312 145.875 198.199219 145.84375 198.199219 Z M 160.640625 198.746094 C 160.578125 198.746094 160.515625 198.738281 160.453125 198.71875 C 158.90625 198.234375 157.351562 197.914062 155.703125 197.738281 C 155.355469 197.703125 155.105469 197.390625 155.140625 197.046875 C 155.175781 196.699219 155.492188 196.453125 155.835938 196.480469 C 157.570312 196.664062 159.203125 197 160.832031 197.511719 C 161.164062 197.617188 161.351562 197.972656 161.246094 198.304688 C 161.160156 198.574219 160.910156 198.746094 160.640625 198.746094 Z M 135.980469 199.621094 C 135.65625 199.621094 135.378906 199.371094 135.351562 199.039062 C 135.324219 198.691406 135.585938 198.386719 135.933594 198.359375 C 137.683594 198.222656 139.386719 197.96875 140.824219 197.742188 C 141.167969 197.683594 141.492188 197.921875 141.550781 198.265625 C 141.605469 198.613281 141.371094 198.9375 141.023438 198.992188 C 139.5625 199.222656 137.828125 199.480469 136.035156 199.621094 C 136.015625 199.621094 136 199.621094 135.980469 199.621094 Z M 131.007812 199.632812 C 130.988281 199.632812 130.96875 199.628906 130.949219 199.628906 C 129.191406 199.472656 127.550781 199.140625 125.9375 198.621094 C 125.605469 198.511719 125.421875 198.15625 125.53125 197.824219 C 125.636719 197.492188 125.996094 197.308594 126.328125 197.417969 C 127.851562 197.910156 129.398438 198.222656 131.0625 198.367188 C 131.410156 198.398438 131.667969 198.707031 131.636719 199.054688 C 131.605469 199.386719 131.332031 199.632812 131.007812 199.632812 Z M 169.308594 203.5 C 169.160156 203.5 169.011719 203.449219 168.890625 203.34375 C 167.710938 202.316406 166.410156 201.421875 164.921875 200.613281 C 164.613281 200.449219 164.5 200.066406 164.664062 199.757812 C 164.832031 199.449219 165.214844 199.335938 165.523438 199.503906 C 167.074219 200.34375 168.488281 201.3125 169.722656 202.390625 C 169.988281 202.621094 170.015625 203.019531 169.785156 203.285156 C 169.660156 203.425781 169.484375 203.5 169.308594 203.5 Z M 175.070312 211.511719 C 174.828125 211.511719 174.601562 211.375 174.492188 211.140625 C 173.757812 209.535156 172.972656 208.15625 172.105469 206.921875 C 171.90625 206.632812 171.972656 206.238281 172.257812 206.039062 C 172.542969 205.835938 172.9375 205.90625 173.136719 206.191406 C 174.054688 207.492188 174.871094 208.9375 175.644531 210.613281 C 175.789062 210.929688 175.648438 211.308594 175.332031 211.453125 C 175.246094 211.492188 175.15625 211.511719 175.070312 211.511719 Z M 178.449219 220.875 C 178.183594 220.875 177.933594 220.703125 177.847656 220.433594 L 177.597656 219.65625 C 177.15625 218.285156 176.738281 216.988281 176.296875 215.71875 C 176.179688 215.386719 176.351562 215.027344 176.683594 214.914062 C 177.011719 214.796875 177.375 214.972656 177.488281 215.300781 C 177.933594 216.585938 178.355469 217.886719 178.800781 219.265625 L 179.054688 220.046875 C 179.160156 220.378906 178.980469 220.734375 178.644531 220.839844 C 178.582031 220.863281 178.515625 220.875 178.449219 220.875 Z M 320.152344 228.644531 C 320.03125 228.644531 319.910156 228.609375 319.796875 228.535156 C 319.507812 228.339844 319.429688 227.949219 319.628906 227.660156 C 320.550781 226.285156 321.445312 224.878906 322.277344 223.480469 C 322.453125 223.179688 322.84375 223.082031 323.140625 223.257812 C 323.445312 223.4375 323.542969 223.828125 323.363281 224.128906 C 322.515625 225.546875 321.613281 226.972656 320.675781 228.367188 C 320.554688 228.546875 320.355469 228.644531 320.152344 228.644531 Z M 181.882812 230.21875 C 181.644531 230.21875 181.410156 230.078125 181.308594 229.839844 C 180.671875 228.398438 180.0625 226.871094 179.449219 225.175781 C 179.335938 224.84375 179.503906 224.484375 179.832031 224.363281 C 180.160156 224.246094 180.523438 224.414062 180.644531 224.746094 C 181.242188 226.414062 181.839844 227.914062 182.460938 229.332031 C 182.605469 229.652344 182.460938 230.023438 182.140625 230.164062 C 182.058594 230.199219 181.972656 230.21875 181.882812 230.21875 Z M 314.152344 236.597656 C 314.007812 236.597656 313.863281 236.550781 313.742188 236.449219 C 313.476562 236.222656 313.445312 235.824219 313.667969 235.558594 C 314.722656 234.304688 315.761719 233.003906 316.753906 231.6875 C 316.960938 231.410156 317.359375 231.355469 317.640625 231.5625 C 317.917969 231.773438 317.972656 232.171875 317.761719 232.449219 C 316.757812 233.78125 315.703125 235.101562 314.636719 236.371094 C 314.507812 236.519531 314.332031 236.597656 314.152344 236.597656 Z M 186.71875 238.90625 C 186.515625 238.90625 186.320312 238.8125 186.195312 238.636719 C 185.246094 237.261719 184.355469 235.824219 183.539062 234.355469 C 183.371094 234.046875 183.480469 233.664062 183.789062 233.492188 C 184.089844 233.324219 184.476562 233.433594 184.644531 233.742188 C 185.4375 235.175781 186.3125 236.578125 187.238281 237.914062 C 187.4375 238.199219 187.363281 238.597656 187.078125 238.796875 C 186.96875 238.871094 186.84375 238.90625 186.71875 238.90625 Z M 307.308594 243.832031 C 307.136719 243.832031 306.96875 243.765625 306.84375 243.632812 C 306.605469 243.375 306.621094 242.976562 306.875 242.738281 C 308.035156 241.65625 309.214844 240.484375 310.378906 239.25 C 310.617188 238.996094 311.019531 238.984375 311.269531 239.226562 C 311.523438 239.464844 311.535156 239.867188 311.296875 240.121094 C 310.113281 241.371094 308.917969 242.566406 307.738281 243.664062 C 307.617188 243.777344 307.460938 243.832031 307.308594 243.832031 Z M 193.148438 246.488281 C 192.988281 246.488281 192.828125 246.429688 192.707031 246.3125 C 191.988281 245.609375 191.28125 244.878906 190.605469 244.140625 C 190.144531 243.640625 189.695312 243.132812 189.269531 242.628906 C 189.042969 242.363281 189.078125 241.960938 189.34375 241.734375 C 189.609375 241.511719 190.007812 241.542969 190.234375 241.808594 C 190.652344 242.300781 191.089844 242.796875 191.539062 243.285156 C 192.199219 244.007812 192.886719 244.71875 193.589844 245.40625 C 193.839844 245.648438 193.84375 246.050781 193.597656 246.300781 C 193.476562 246.425781 193.3125 246.488281 193.148438 246.488281 Z M 299.5625 250.101562 C 299.363281 250.101562 299.167969 250.007812 299.046875 249.835938 C 298.84375 249.550781 298.910156 249.15625 299.195312 248.953125 C 300.5625 247.984375 301.890625 246.984375 303.140625 245.972656 C 303.414062 245.753906 303.8125 245.796875 304.03125 246.070312 C 304.25 246.339844 304.207031 246.738281 303.9375 246.957031 C 302.664062 247.984375 301.316406 249.003906 299.925781 249.984375 C 299.816406 250.0625 299.6875 250.101562 299.5625 250.101562 Z M 200.835938 252.808594 C 200.714844 252.808594 200.589844 252.769531 200.476562 252.695312 C 199.089844 251.738281 197.734375 250.71875 196.457031 249.667969 C 196.1875 249.445312 196.148438 249.046875 196.371094 248.777344 C 196.59375 248.507812 196.988281 248.46875 197.257812 248.691406 C 198.511719 249.71875 199.835938 250.714844 201.195312 251.65625 C 201.484375 251.851562 201.558594 252.246094 201.359375 252.535156 C 201.234375 252.710938 201.039062 252.808594 200.835938 252.808594 Z M 291.113281 255.382812 C 290.890625 255.382812 290.675781 255.261719 290.558594 255.054688 C 290.390625 254.746094 290.503906 254.363281 290.808594 254.191406 C 292.253906 253.402344 293.691406 252.558594 295.078125 251.695312 C 295.371094 251.507812 295.761719 251.597656 295.949219 251.894531 C 296.136719 252.191406 296.042969 252.582031 295.75 252.765625 C 294.339844 253.644531 292.886719 254.5 291.414062 255.304688 C 291.320312 255.355469 291.21875 255.382812 291.113281 255.382812 Z M 209.441406 257.820312 C 209.347656 257.820312 209.253906 257.800781 209.164062 257.757812 C 207.648438 257.015625 206.15625 256.21875 204.726562 255.390625 C 204.425781 255.214844 204.324219 254.828125 204.5 254.527344 C 204.671875 254.222656 205.0625 254.121094 205.363281 254.296875 C 206.765625 255.113281 208.230469 255.894531 209.71875 256.621094 C 210.035156 256.773438 210.164062 257.152344 210.011719 257.46875 C 209.898438 257.691406 209.675781 257.820312 209.441406 257.820312 Z M 282.121094 259.671875 C 281.875 259.671875 281.636719 259.527344 281.539062 259.28125 C 281.402344 258.957031 281.558594 258.589844 281.882812 258.457031 C 283.402344 257.832031 284.921875 257.15625 286.40625 256.453125 C 286.71875 256.296875 287.097656 256.433594 287.25 256.746094 C 287.398438 257.0625 287.265625 257.441406 286.949219 257.59375 C 285.449219 258.308594 283.90625 258.992188 282.363281 259.628906 C 282.285156 259.65625 282.203125 259.671875 282.121094 259.671875 Z M 218.667969 261.585938 C 218.597656 261.585938 218.535156 261.578125 218.464844 261.554688 C 216.867188 261.015625 215.28125 260.429688 213.753906 259.808594 C 213.429688 259.675781 213.273438 259.308594 213.40625 258.984375 C 213.539062 258.660156 213.90625 258.503906 214.230469 258.636719 C 215.734375 259.25 217.292969 259.828125 218.867188 260.355469 C 219.199219 260.464844 219.375 260.824219 219.265625 261.152344 C 219.175781 261.417969 218.929688 261.585938 218.667969 261.585938 Z M 272.703125 262.914062 C 272.425781 262.914062 272.171875 262.734375 272.09375 262.453125 C 272 262.117188 272.199219 261.765625 272.535156 261.671875 C 273.605469 261.375 274.675781 261.054688 275.71875 260.714844 C 276.238281 260.546875 276.75 260.378906 277.253906 260.203125 C 277.585938 260.089844 277.945312 260.261719 278.058594 260.59375 C 278.171875 260.925781 277.996094 261.285156 277.667969 261.398438 C 277.152344 261.574219 276.636719 261.75 276.109375 261.917969 C 275.050781 262.261719 273.960938 262.589844 272.875 262.894531 C 272.816406 262.90625 272.757812 262.914062 272.703125 262.914062 Z M 228.289062 264.183594 C 228.242188 264.183594 228.199219 264.183594 228.15625 264.171875 C 226.511719 263.828125 224.871094 263.433594 223.273438 263.003906 C 222.9375 262.914062 222.734375 262.566406 222.828125 262.226562 C 222.921875 261.890625 223.265625 261.691406 223.605469 261.78125 C 225.175781 262.207031 226.796875 262.59375 228.414062 262.933594 C 228.757812 263.003906 228.976562 263.34375 228.902344 263.683594 C 228.84375 263.980469 228.578125 264.183594 228.289062 264.183594 Z M 262.96875 265.019531 C 262.664062 265.019531 262.394531 264.796875 262.34375 264.484375 C 262.292969 264.140625 262.527344 263.816406 262.871094 263.761719 C 264.511719 263.503906 266.148438 263.199219 267.734375 262.855469 C 268.074219 262.78125 268.410156 263 268.488281 263.34375 C 268.558594 263.683594 268.339844 264.019531 268 264.089844 C 266.390625 264.441406 264.730469 264.75 263.070312 265.011719 C 263.035156 265.015625 263.003906 265.019531 262.96875 265.019531 Z M 238.132812 265.703125 C 238.113281 265.703125 238.09375 265.703125 238.070312 265.695312 C 236.40625 265.53125 234.734375 265.316406 233.09375 265.066406 C 232.746094 265.011719 232.511719 264.691406 232.566406 264.34375 C 232.617188 264 232.941406 263.761719 233.285156 263.816406 C 234.902344 264.066406 236.558594 264.273438 238.195312 264.4375 C 238.542969 264.476562 238.796875 264.785156 238.761719 265.132812 C 238.730469 265.457031 238.453125 265.703125 238.132812 265.703125 Z M 253.0625 266.054688 C 252.730469 266.054688 252.449219 265.792969 252.429688 265.453125 C 252.414062 265.105469 252.683594 264.808594 253.03125 264.789062 C 254.675781 264.703125 256.332031 264.574219 257.964844 264.402344 C 258.3125 264.371094 258.625 264.617188 258.660156 264.96875 C 258.695312 265.316406 258.441406 265.625 258.097656 265.664062 C 256.445312 265.835938 254.761719 265.964844 253.097656 266.054688 C 253.085938 266.054688 253.074219 266.054688 253.0625 266.054688 Z M 247.917969 266.1875 C 246.300781 266.1875 244.671875 266.148438 243.074219 266.070312 C 242.722656 266.054688 242.453125 265.757812 242.46875 265.40625 C 242.488281 265.058594 242.789062 264.796875 243.132812 264.804688 C 244.710938 264.882812 246.320312 264.925781 247.910156 264.925781 L 248.082031 264.921875 C 248.429688 264.921875 248.714844 265.207031 248.714844 265.554688 C 248.714844 265.902344 248.429688 266.1875 248.082031 266.1875 L 247.917969 266.1875 " fill-opacity="1" fill-rule="nonzero"/><path fill="#111827" d="M 102.632812 152.296875 C 102.308594 152.296875 102.035156 152.046875 102.003906 151.71875 C 101.929688 150.890625 101.859375 150.046875 101.792969 149.1875 C 101.765625 148.839844 102.027344 148.535156 102.375 148.511719 C 102.726562 148.488281 103.027344 148.742188 103.054688 149.09375 C 103.121094 149.945312 103.191406 150.785156 103.265625 151.605469 C 103.296875 151.953125 103.039062 152.261719 102.691406 152.292969 C 102.671875 152.296875 102.652344 152.296875 102.632812 152.296875 " fill-opacity="1" fill-rule="nonzero"/><path fill="#111827" d="M 264.785156 108.128906 C 264.445312 108.128906 264.167969 107.863281 264.152344 107.523438 C 264.140625 107.175781 264.410156 106.878906 264.757812 106.867188 C 265.597656 106.832031 266.449219 106.808594 267.300781 106.789062 C 267.65625 106.777344 267.9375 107.0625 267.945312 107.414062 C 267.953125 107.761719 267.675781 108.050781 267.324219 108.054688 C 266.484375 108.070312 265.636719 108.097656 264.8125 108.128906 C 264.800781 108.128906 264.792969 108.128906 264.785156 108.128906 " fill-opacity="1" fill-rule="nonzero"/><path fill="#111827" d="M 277.578125 108.410156 C 277.558594 108.410156 277.542969 108.410156 277.523438 108.40625 C 275.84375 108.261719 274.128906 108.160156 272.429688 108.101562 C 272.078125 108.089844 271.804688 107.796875 271.816406 107.449219 C 271.828125 107.097656 272.128906 106.816406 272.472656 106.835938 C 274.195312 106.894531 275.929688 107 277.628906 107.148438 C 277.980469 107.179688 278.238281 107.484375 278.207031 107.835938 C 278.179688 108.164062 277.902344 108.410156 277.578125 108.410156 Z M 287.742188 109.871094 C 287.703125 109.871094 287.660156 109.867188 287.617188 109.859375 C 285.972656 109.523438 284.285156 109.230469 282.589844 108.988281 C 282.246094 108.941406 282.003906 108.621094 282.054688 108.273438 C 282.105469 107.929688 282.421875 107.683594 282.769531 107.738281 C 284.488281 107.984375 286.203125 108.28125 287.871094 108.621094 C 288.210938 108.6875 288.433594 109.023438 288.363281 109.363281 C 288.304688 109.664062 288.039062 109.871094 287.742188 109.871094 Z M 297.65625 112.554688 C 297.589844 112.554688 297.519531 112.542969 297.453125 112.515625 C 295.875 111.976562 294.234375 111.472656 292.582031 111.03125 C 292.242188 110.9375 292.046875 110.59375 292.132812 110.253906 C 292.226562 109.917969 292.570312 109.714844 292.910156 109.804688 C 294.589844 110.261719 296.257812 110.769531 297.863281 111.320312 C 298.195312 111.4375 298.371094 111.792969 298.257812 112.125 C 298.167969 112.386719 297.921875 112.554688 297.65625 112.554688 Z M 307.097656 116.59375 C 306.996094 116.59375 306.898438 116.570312 306.804688 116.523438 C 305.328125 115.746094 303.777344 115.011719 302.207031 114.34375 C 301.886719 114.207031 301.738281 113.832031 301.875 113.515625 C 302.011719 113.191406 302.382812 113.039062 302.703125 113.179688 C 304.304688 113.863281 305.886719 114.613281 307.390625 115.402344 C 307.703125 115.5625 307.820312 115.945312 307.65625 116.253906 C 307.546875 116.472656 307.328125 116.59375 307.097656 116.59375 Z M 315.734375 122.128906 C 315.597656 122.128906 315.460938 122.085938 315.347656 121.996094 C 314.03125 120.972656 312.636719 119.988281 311.199219 119.070312 C 310.902344 118.882812 310.820312 118.492188 311.007812 118.199219 C 311.199219 117.902344 311.585938 117.816406 311.882812 118.003906 C 313.351562 118.941406 314.777344 119.949219 316.121094 120.996094 C 316.398438 121.210938 316.449219 121.605469 316.234375 121.882812 C 316.109375 122.042969 315.921875 122.128906 315.734375 122.128906 Z M 323.171875 129.183594 C 322.996094 129.183594 322.816406 129.109375 322.691406 128.964844 C 321.597656 127.695312 320.421875 126.460938 319.195312 125.296875 C 318.941406 125.058594 318.929688 124.65625 319.171875 124.402344 C 319.410156 124.148438 319.8125 124.140625 320.0625 124.378906 C 321.324219 125.570312 322.53125 126.835938 323.652344 128.140625 C 323.878906 128.40625 323.851562 128.804688 323.585938 129.03125 C 323.464844 129.136719 323.320312 129.183594 323.171875 129.183594 Z M 329.019531 137.605469 C 328.796875 137.605469 328.582031 137.488281 328.464844 137.277344 C 327.804688 136.082031 327.09375 134.910156 326.355469 133.796875 C 326.167969 133.519531 325.980469 133.242188 325.792969 132.96875 C 325.59375 132.683594 325.664062 132.289062 325.953125 132.089844 C 326.238281 131.890625 326.632812 131.960938 326.832031 132.25 C 327.027344 132.53125 327.21875 132.8125 327.410156 133.097656 C 328.167969 134.242188 328.898438 135.441406 329.574219 136.667969 C 329.742188 136.972656 329.632812 137.355469 329.324219 137.527344 C 329.230469 137.582031 329.121094 137.605469 329.019531 137.605469 Z M 333.117188 147.011719 C 332.847656 147.011719 332.605469 146.84375 332.515625 146.578125 C 331.972656 144.953125 331.363281 143.355469 330.703125 141.832031 C 330.5625 141.515625 330.710938 141.140625 331.03125 141.003906 C 331.351562 140.863281 331.722656 141.011719 331.863281 141.332031 C 332.535156 142.886719 333.160156 144.515625 333.714844 146.179688 C 333.828125 146.511719 333.648438 146.871094 333.316406 146.980469 C 333.25 147.003906 333.179688 147.011719 333.117188 147.011719 " fill-opacity="1" fill-rule="nonzero"/><path fill="#111827" d="M 335.109375 154.425781 C 334.816406 154.425781 334.554688 154.21875 334.492188 153.921875 C 334.320312 153.105469 334.132812 152.285156 333.933594 151.476562 C 333.847656 151.140625 334.054688 150.796875 334.394531 150.710938 C 334.734375 150.628906 335.078125 150.835938 335.160156 151.171875 C 335.363281 151.992188 335.554688 152.832031 335.730469 153.660156 C 335.800781 154.003906 335.582031 154.339844 335.238281 154.410156 C 335.195312 154.421875 335.152344 154.425781 335.109375 154.425781 " fill-opacity="1" fill-rule="nonzero"/><path fill="#111827" d="M 336.753906 290.230469 C 336.40625 290.230469 336.125 289.949219 336.125 289.601562 L 336.125 286.328125 C 336.125 285.980469 336.40625 285.695312 336.753906 285.695312 C 337.101562 285.695312 337.386719 285.980469 337.386719 286.328125 L 337.386719 289.601562 C 337.386719 289.949219 337.101562 290.230469 336.753906 290.230469 " fill-opacity="1" fill-rule="nonzero"/><path fill="#111827" d="M 336.753906 297.851562 C 336.40625 297.851562 336.125 297.570312 336.125 297.21875 L 336.125 293.949219 C 336.125 293.597656 336.40625 293.316406 336.753906 293.316406 C 337.101562 293.316406 337.386719 293.597656 337.386719 293.949219 L 337.386719 297.21875 C 337.386719 297.570312 337.101562 297.851562 336.753906 297.851562 " fill-opacity="1" fill-rule="nonzero"/><path fill="#111827" d="M 334.582031 292.40625 L 331.308594 292.40625 C 330.964844 292.40625 330.679688 292.121094 330.679688 291.773438 C 330.679688 291.421875 330.964844 291.140625 331.308594 291.140625 L 334.582031 291.140625 C 334.929688 291.140625 335.214844 291.421875 335.214844 291.773438 C 335.214844 292.121094 334.929688 292.40625 334.582031 292.40625 " fill-opacity="1" fill-rule="nonzero"/><path fill="#111827" d="M 342.203125 292.40625 L 338.929688 292.40625 C 338.582031 292.40625 338.296875 292.121094 338.296875 291.773438 C 338.296875 291.421875 338.582031 291.140625 338.929688 291.140625 L 342.203125 291.140625 C 342.550781 291.140625 342.832031 291.421875 342.832031 291.773438 C 342.832031 292.121094 342.550781 292.40625 342.203125 292.40625 " fill-opacity="1" fill-rule="nonzero"/><path fill="#111827" d="M 97.371094 36.636719 C 97.023438 36.636719 96.738281 36.351562 96.738281 36.003906 L 96.738281 32.734375 C 96.738281 32.382812 97.023438 32.097656 97.371094 32.097656 C 97.722656 32.097656 98.003906 32.382812 98.003906 32.734375 L 98.003906 36.003906 C 98.003906 36.351562 97.722656 36.636719 97.371094 36.636719 " fill-opacity="1" fill-rule="nonzero"/><path fill="#111827" d="M 97.371094 44.257812 C 97.023438 44.257812 96.738281 43.972656 96.738281 43.625 L 96.738281 40.355469 C 96.738281 40.003906 97.023438 39.722656 97.371094 39.722656 C 97.71875 39.722656 98.003906 40.003906 98.003906 40.355469 L 98.003906 43.625 C 98.003906 43.972656 97.71875 44.257812 97.371094 44.257812 " fill-opacity="1" fill-rule="nonzero"/><path fill="#111827" d="M 95.195312 38.808594 L 91.925781 38.808594 C 91.578125 38.808594 91.292969 38.527344 91.292969 38.175781 C 91.292969 37.828125 91.578125 37.546875 91.925781 37.546875 L 95.195312 37.546875 C 95.546875 37.546875 95.832031 37.828125 95.832031 38.175781 C 95.832031 38.527344 95.546875 38.808594 95.195312 38.808594 " fill-opacity="1" fill-rule="nonzero"/><path fill="#111827" d="M 102.816406 38.808594 L 99.546875 38.808594 C 99.195312 38.808594 98.914062 38.527344 98.914062 38.175781 C 98.914062 37.828125 99.195312 37.546875 99.546875 37.546875 L 102.816406 37.546875 C 103.167969 37.546875 103.449219 37.828125 103.449219 38.175781 C 103.449219 38.527344 103.167969 38.808594 102.816406 38.808594 " fill-opacity="1" fill-rule="nonzero"/><path fill="#111827" d="M 26.167969 131.527344 L 27.414062 136.988281 L 31.519531 133.175781 Z M 27.042969 138.828125 C 26.980469 138.828125 26.917969 138.820312 26.855469 138.800781 C 26.640625 138.734375 26.476562 138.558594 26.425781 138.335938 L 24.691406 130.738281 C 24.640625 130.519531 24.710938 130.289062 24.878906 130.136719 C 25.042969 129.980469 25.277344 129.929688 25.492188 129.996094 L 32.941406 132.289062 C 33.15625 132.359375 33.320312 132.535156 33.371094 132.753906 C 33.421875 132.976562 33.351562 133.207031 33.183594 133.359375 L 27.472656 138.660156 C 27.355469 138.769531 27.199219 138.828125 27.042969 138.828125 " fill-opacity="1" fill-rule="nonzero"/><g clip-path="url(#f6a17dfd90)"><path fill="#135981" d="M 49.417969 253.371094 L 67.800781 253.371094 L 67.800781 257.121094 L 49.417969 257.121094 Z M 49.417969 253.371094 " fill-opacity="1" fill-rule="nonzero"/></g></svg>