<svg xmlns="http://www.w3.org/2000/svg" xmlns:xlink="http://www.w3.org/1999/xlink" width="500" zoomAndPan="magnify" viewBox="0 0 375 374.999991" height="500" preserveAspectRatio="xMidYMid meet" version="1.0"><defs><clipPath id="319c4d9c92"><path d="M 220.394531 231.859375 L 228.96875 231.859375 L 228.96875 235.609375 L 220.394531 235.609375 Z M 220.394531 231.859375 " clip-rule="nonzero"/></clipPath></defs><g clip-path="url(#319c4d9c92)"><path fill="#135981" d="M 220.394531 231.859375 L 228.960938 231.859375 L 228.960938 235.609375 L 220.394531 235.609375 Z M 220.394531 231.859375 " fill-opacity="1" fill-rule="nonzero"/></g><path fill="#135981" d="M 195.082031 174.09375 L 173.980469 174.09375 C 170.027344 174.09375 166.507812 170.574219 166.507812 166.617188 L 166.507812 125.515625 C 166.507812 121.558594 170.027344 118.261719 173.980469 118.261719 L 195.082031 118.261719 C 199.039062 118.261719 202.335938 121.558594 202.335938 125.515625 L 202.335938 166.617188 C 202.335938 170.574219 199.039062 174.09375 195.082031 174.09375 Z M 175.300781 165.300781 L 193.542969 165.300781 L 193.542969 126.832031 L 175.300781 126.832031 Z M 195.082031 126.832031 Z M 195.082031 126.832031 " fill-opacity="1" fill-rule="evenodd"/><path fill="#135981" d="M 238.382812 174.09375 L 217.503906 174.09375 C 213.328125 174.09375 210.03125 170.574219 210.03125 166.617188 L 210.03125 102.214844 C 210.03125 98.257812 213.328125 94.742188 217.503906 94.742188 L 238.382812 94.742188 C 242.5625 94.742188 245.859375 98.257812 245.859375 102.214844 L 245.859375 166.617188 C 245.859375 170.574219 242.5625 174.09375 238.382812 174.09375 Z M 218.820312 165.300781 L 237.066406 165.300781 L 237.066406 103.535156 L 218.820312 103.535156 Z M 238.382812 103.535156 Z M 238.382812 103.535156 " fill-opacity="1" fill-rule="evenodd"/><path fill="#135981" d="M 281.90625 174.09375 L 261.023438 174.09375 C 256.847656 174.09375 253.550781 170.574219 253.550781 166.617188 L 253.550781 125.515625 C 253.550781 121.558594 256.847656 118.261719 261.023438 118.261719 L 281.90625 118.261719 C 286.082031 118.261719 289.378906 121.558594 289.378906 125.515625 L 289.378906 166.617188 C 289.378906 170.574219 286.082031 174.09375 281.90625 174.09375 Z M 262.34375 165.300781 L 280.585938 165.300781 L 280.585938 126.832031 L 262.34375 126.832031 Z M 281.90625 126.832031 Z M 281.90625 126.832031 " fill-opacity="1" fill-rule="evenodd"/><path fill="#135981" d="M 325.425781 174.09375 L 304.324219 174.09375 C 300.371094 174.09375 296.851562 170.574219 296.851562 166.617188 L 296.851562 102.214844 C 296.851562 98.257812 300.371094 94.742188 304.324219 94.742188 L 325.425781 94.742188 C 329.382812 94.742188 332.679688 98.257812 332.679688 102.214844 L 332.679688 166.617188 C 332.679688 170.574219 329.382812 174.09375 325.425781 174.09375 Z M 305.644531 165.300781 L 323.890625 165.300781 L 323.890625 103.535156 L 305.644531 103.535156 Z M 325.425781 103.535156 Z M 325.425781 103.535156 " fill-opacity="1" fill-rule="evenodd"/><path fill="#135981" d="M 195.523438 100.457031 C 191.347656 100.457031 189.367188 95.183594 192.664062 92.542969 L 219.042969 71.441406 C 223.4375 67.925781 228.933594 74.738281 224.535156 78.257812 L 198.160156 99.359375 C 197.5 100.019531 196.402344 100.457031 195.523438 100.457031 Z M 263.003906 98.480469 C 259.925781 98.480469 238.605469 81.335938 234.648438 78.257812 C 230.253906 74.738281 235.527344 67.707031 240.144531 71.222656 L 265.640625 90.566406 C 268.9375 93.203125 267.179688 98.480469 263.003906 98.480469 Z M 278.390625 98.257812 C 274.433594 98.257812 272.453125 92.984375 275.75 90.347656 L 309.820312 61.773438 C 314.21875 58.035156 319.933594 64.847656 315.535156 68.585938 L 281.246094 97.160156 C 280.585938 97.820312 279.488281 98.257812 278.390625 98.257812 Z M 278.390625 98.257812 " fill-opacity="1" fill-rule="evenodd"/><path fill="#135981" d="M 229.371094 83.09375 C 210.6875 83.09375 210.6875 54.296875 229.371094 54.296875 C 248.277344 54.296875 248.277344 83.09375 229.371094 83.09375 Z M 229.371094 63.308594 C 222.121094 63.308594 222.121094 74.300781 229.371094 74.300781 C 236.847656 74.300781 236.625 63.308594 229.371094 63.308594 Z M 229.371094 63.308594 " fill-opacity="1" fill-rule="evenodd"/><path fill="#135981" d="M 270.914062 114.523438 C 252.011719 114.523438 252.011719 85.949219 270.914062 85.949219 C 289.820312 85.949219 289.820312 114.523438 270.914062 114.523438 Z M 270.914062 94.742188 C 263.664062 94.742188 263.441406 105.734375 270.914062 105.734375 C 278.167969 105.734375 278.167969 94.742188 270.914062 94.742188 Z M 270.914062 94.742188 " fill-opacity="1" fill-rule="evenodd"/><path fill="#135981" d="M 320.152344 73.203125 C 301.46875 73.203125 301.46875 44.40625 320.152344 44.40625 C 339.054688 44.40625 339.054688 73.203125 320.152344 73.203125 Z M 320.152344 53.199219 C 312.898438 53.199219 312.898438 64.410156 320.152344 64.410156 C 327.625 64.410156 327.625 53.199219 320.152344 53.199219 Z M 320.152344 53.199219 " fill-opacity="1" fill-rule="evenodd"/><path fill="#135981" d="M 186.511719 114.523438 C 167.609375 114.523438 167.609375 85.949219 186.511719 85.949219 C 205.195312 85.949219 205.414062 114.523438 186.511719 114.523438 Z M 186.511719 94.742188 C 179.257812 94.742188 179.039062 105.734375 186.511719 105.734375 C 193.765625 105.734375 193.765625 94.742188 186.511719 94.742188 Z M 186.511719 94.742188 " fill-opacity="1" fill-rule="evenodd"/><path fill="#135981" d="M 297.292969 204.644531 L 175.742188 204.644531 C 170.027344 204.644531 170.027344 195.851562 175.742188 195.851562 L 297.074219 195.851562 C 303.007812 195.851562 303.007812 204.644531 297.292969 204.644531 Z M 297.292969 204.644531 " fill-opacity="1" fill-rule="evenodd"/><path fill="#135981" d="M 281.6875 231.679688 L 175.742188 231.679688 C 170.027344 231.679688 170.027344 222.886719 175.742188 222.886719 L 281.6875 222.886719 C 287.402344 222.886719 287.402344 231.679688 281.6875 231.679688 Z M 281.6875 231.679688 " fill-opacity="1" fill-rule="evenodd"/><path fill="#135981" d="M 90.015625 209.921875 C 62.542969 209.921875 40.339844 187.5 40.339844 160.023438 C 40.339844 132.550781 62.542969 110.347656 90.015625 110.347656 C 92.65625 110.347656 94.414062 112.105469 94.414062 114.746094 L 94.414062 155.628906 L 135.515625 155.628906 C 137.933594 155.628906 139.914062 157.605469 139.914062 160.023438 C 139.914062 187.5 117.492188 209.921875 90.015625 209.921875 Z M 85.621094 119.359375 C 65.179688 121.558594 49.132812 138.921875 49.132812 160.023438 C 49.132812 182.664062 67.597656 201.128906 90.015625 201.128906 C 111.335938 201.128906 128.703125 185.082031 130.898438 164.421875 L 90.015625 164.421875 C 87.597656 164.421875 85.621094 162.441406 85.621094 160.023438 Z M 85.621094 119.359375 " fill-opacity="1" fill-rule="evenodd"/><path fill="#135981" d="M 150.902344 149.035156 L 105.402344 149.035156 C 102.984375 149.035156 101.007812 147.054688 101.007812 144.636719 L 101.007812 99.359375 C 101.007812 96.71875 102.984375 94.960938 105.402344 94.960938 C 132.878906 94.960938 155.296875 117.164062 155.296875 144.636719 C 155.296875 147.054688 153.320312 149.035156 150.902344 149.035156 Z M 109.800781 140.242188 L 146.285156 140.242188 C 144.308594 121.117188 128.921875 105.953125 109.800781 103.972656 Z M 109.800781 140.242188 " fill-opacity="1" fill-rule="evenodd"/><path fill="#135981" d="M 347.1875 252.34375 C 344.769531 252.34375 342.792969 250.363281 342.792969 247.945312 L 342.792969 42.429688 C 342.792969 38.910156 340.152344 36.054688 336.636719 36.054688 L 38.144531 36.054688 C 34.84375 36.054688 31.988281 38.910156 31.988281 42.429688 L 31.988281 247.945312 C 31.988281 253.660156 23.195312 253.660156 23.195312 247.945312 L 23.195312 42.429688 C 23.195312 34.078125 30.011719 27.261719 38.144531 27.261719 L 336.636719 27.261719 C 344.988281 27.261719 351.585938 34.078125 351.585938 42.429688 L 351.585938 247.945312 C 351.585938 250.363281 349.824219 252.34375 347.1875 252.34375 Z M 347.1875 252.34375 " fill-opacity="1" fill-rule="evenodd"/><path fill="#135981" d="M 236.40625 36.054688 C 227.835938 36.054688 234.648438 16.929688 231.351562 8.800781 L 143.429688 8.800781 C 140.351562 17.589844 146.945312 36.054688 138.375 36.054688 C 135.957031 36.054688 133.976562 34.078125 133.976562 31.660156 C 133.976562 21.765625 131.558594 0.0078125 142.109375 0.0078125 L 232.890625 0.0078125 C 243.21875 0.0078125 240.800781 21.765625 240.800781 31.660156 C 240.800781 34.078125 239.042969 36.054688 236.40625 36.054688 Z M 236.40625 36.054688 " fill-opacity="1" fill-rule="evenodd"/><path fill="#135981" d="M 352.683594 273.882812 L 22.097656 273.882812 C 11.546875 273.882812 2.972656 265.089844 2.972656 254.539062 C 2.972656 250.144531 1.875 243.550781 7.371094 243.550781 L 367.410156 243.550781 C 373.125 243.550781 371.804688 250.144531 371.804688 254.539062 C 371.804688 265.089844 363.234375 273.882812 352.683594 273.882812 Z M 11.765625 252.34375 C 11.765625 259.375 14.625 265.089844 22.097656 265.089844 L 352.683594 265.089844 C 360.15625 265.089844 363.015625 259.375 363.015625 252.34375 Z M 11.765625 252.34375 " fill-opacity="1" fill-rule="evenodd"/><path fill="#135981" d="M 187.390625 325.539062 C 184.972656 325.539062 182.992188 323.558594 182.992188 321.140625 L 182.992188 269.488281 C 182.992188 263.550781 191.785156 263.550781 191.785156 269.488281 L 191.785156 321.140625 C 191.785156 323.558594 189.808594 325.539062 187.390625 325.539062 Z M 187.390625 325.539062 " fill-opacity="1" fill-rule="evenodd"/><path fill="#135981" d="M 187.390625 374.992188 C 171.34375 374.992188 158.375 362.023438 158.375 345.980469 C 158.375 329.714844 171.34375 316.746094 187.390625 316.746094 C 203.4375 316.746094 216.625 329.714844 216.625 345.980469 C 216.625 362.023438 203.4375 374.992188 187.390625 374.992188 Z M 187.390625 325.539062 C 176.179688 325.539062 167.167969 334.550781 167.167969 345.980469 C 167.167969 357.1875 176.179688 366.199219 187.390625 366.199219 C 198.601562 366.199219 207.832031 357.1875 207.832031 345.980469 C 207.832031 334.550781 198.601562 325.539062 187.390625 325.539062 Z M 187.390625 325.539062 " fill-opacity="1" fill-rule="evenodd"/></svg>