<svg xmlns="http://www.w3.org/2000/svg" xmlns:xlink="http://www.w3.org/1999/xlink" width="500" zoomAndPan="magnify" viewBox="0 0 375 374.999991" height="500" preserveAspectRatio="xMidYMid meet" version="1.0"><defs><clipPath id="d9a85f10b9"><path d="M 41.015625 0 L 329 0 L 329 375 L 41.015625 375 Z M 41.015625 0 " clip-rule="nonzero"/></clipPath><clipPath id="2f81642041"><path d="M 206.191406 281.949219 L 214.765625 281.949219 L 214.765625 285.699219 L 206.191406 285.699219 Z M 206.191406 281.949219 " clip-rule="nonzero"/></clipPath></defs><g clip-path="url(#d9a85f10b9)"><path fill="#135981" d="M 49.828125 215.988281 L 44.113281 224.417969 C 41.933594 227.632812 41.132812 231.523438 41.867188 235.363281 C 42.601562 239.203125 44.769531 242.519531 47.980469 244.703125 L 73.910156 262.3125 C 74.683594 262.839844 75.511719 263.253906 76.359375 263.617188 C 76.414062 276.4375 86.867188 286.910156 99.644531 286.910156 L 101.882812 286.910156 L 137.664062 318.722656 C 142.792969 323.289062 151.308594 328.082031 157.050781 329.636719 C 161.664062 330.890625 168.230469 335.996094 171.453125 340.886719 L 194.800781 373.414062 C 195.375 374.203125 196.265625 374.625 197.167969 374.625 C 197.757812 374.625 198.355469 374.445312 198.867188 374.074219 C 200.171875 373.128906 200.46875 371.300781 199.527344 369.992188 L 176.242188 337.5625 C 172.296875 331.570312 164.53125 325.609375 158.566406 323.992188 C 153.734375 322.683594 145.925781 318.265625 141.523438 314.347656 L 110.664062 286.910156 L 216.085938 286.910156 C 228.898438 286.910156 240.421875 276.382812 240.421875 263.519531 L 240.421875 121.628906 C 243.34375 115.507812 250.734375 109.75 258.523438 108.71875 C 263.085938 108.113281 266.003906 109.128906 267.957031 111.824219 C 271.671875 116.9375 270.292969 127.34375 266.949219 134.445312 C 265.652344 137.195312 263.363281 142.378906 263.03125 146.230469 C 262.035156 157.808594 260.441406 178.972656 261.214844 190.640625 C 261.292969 191.828125 261.414062 193.277344 261.554688 194.800781 C 261.800781 197.308594 262.0625 200.15625 262.070312 202.085938 C 262.140625 215.414062 261.785156 248.496094 257.128906 267.914062 C 255.554688 274.496094 256.25 284.34375 261.457031 290.355469 L 323.011719 364.800781 C 323.589844 365.496094 324.417969 365.855469 325.253906 365.855469 C 325.910156 365.855469 326.570312 365.632812 327.113281 365.179688 C 328.347656 364.148438 328.519531 362.304688 327.492188 361.0625 L 265.890625 286.570312 C 262.203125 282.3125 261.542969 274.484375 262.789062 269.28125 C 267.59375 249.246094 267.953125 215.59375 267.882812 202.058594 C 267.875 199.863281 267.601562 197.003906 267.339844 194.242188 C 267.199219 192.78125 267.0625 191.394531 266.988281 190.253906 C 266.214844 178.550781 267.976562 155.921875 268.761719 146.734375 C 268.949219 144.617188 270.183594 140.960938 272.078125 136.949219 C 276.195312 128.207031 277.632812 115.585938 272.402344 108.378906 C 270.144531 105.273438 266.210938 101.8125 257.765625 102.921875 C 250.613281 103.867188 243.34375 107.871094 240.421875 112.757812 L 240.421875 23.765625 C 240.421875 10.898438 228.898438 0.375 216.085938 0.375 L 99.644531 0.375 C 86.835938 0.375 76.6875 10.898438 76.6875 23.765625 L 76.6875 95.816406 C 73.761719 95.734375 75.246094 95.664062 74.59375 95.664062 C 70.035156 95.664062 65.710938 97.648438 62.875 101.109375 L 56.804688 108.46875 C 54.328125 111.488281 53.191406 115.273438 53.632812 119.121094 C 54.078125 122.972656 56.019531 126.398438 59.121094 128.769531 L 70.023438 137.113281 C 66.875 137.976562 64.046875 139.839844 62.078125 142.476562 L 56.265625 150.277344 C 53.933594 153.398438 52.972656 157.238281 53.5625 161.085938 C 54.148438 164.9375 56.214844 168.3125 59.367188 170.589844 L 62.21875 172.648438 C 59.558594 173.710938 57.230469 175.535156 55.578125 177.972656 L 49.945312 186.269531 C 47.761719 189.484375 46.957031 193.371094 47.6875 197.214844 C 48.417969 201.054688 50.582031 204.375 53.792969 206.5625 L 58.769531 209.957031 C 55.160156 210.75 51.945312 212.871094 49.828125 215.988281 Z M 194.519531 6.222656 L 191.855469 13.882812 C 189.339844 17.917969 183.109375 17.953125 183.148438 17.917969 L 132.40625 17.917969 C 127.875 17.917969 125.183594 16.035156 123.671875 14.332031 L 120.386719 6.222656 Z M 82.535156 23.765625 C 82.535156 14.089844 90.011719 6.222656 99.644531 6.222656 L 114.265625 6.222656 C 114.296875 6.484375 114.308594 6.746094 114.414062 7 L 118.457031 16.972656 L 118.902344 17.722656 C 122.078125 21.621094 126.875 23.765625 132.40625 23.765625 L 183.117188 23.765625 C 183.125 23.765625 183.144531 23.765625 183.167969 23.765625 C 184.03125 23.765625 193.027344 23.59375 197.03125 16.582031 L 200.679688 6.222656 L 216.085938 6.222656 C 225.71875 6.222656 234.574219 14.089844 234.574219 23.765625 L 234.574219 263.519531 C 234.574219 273.195312 225.71875 281.0625 216.085938 281.0625 L 99.644531 281.0625 C 90.445312 281.0625 82.902344 273.878906 82.242188 264.804688 C 87.027344 264.742188 91.46875 262.375 94.148438 258.421875 L 99.863281 249.996094 C 102.042969 246.777344 102.84375 242.886719 102.109375 239.046875 C 101.378906 235.207031 99.207031 231.890625 95.992188 229.707031 L 91.167969 226.429688 C 94.753906 225.628906 97.941406 223.515625 100.042969 220.417969 L 105.679688 212.121094 C 107.859375 208.90625 108.660156 205.019531 107.933594 201.175781 C 107.207031 197.335938 105.035156 194.015625 101.828125 191.828125 L 99.488281 190.234375 C 101.714844 189.222656 103.703125 187.726562 105.183594 185.742188 L 111 177.941406 C 113.332031 174.820312 114.289062 170.980469 113.703125 167.132812 C 113.117188 163.28125 111.054688 159.90625 107.898438 157.628906 L 97.332031 150 C 100.113281 149.148438 102.601562 147.527344 104.46875 145.242188 L 110.5 137.878906 C 112.976562 134.859375 114.097656 131.074219 113.648438 127.226562 C 113.203125 123.375 111.253906 119.953125 108.15625 117.582031 L 83.644531 98.695312 C 83.238281 98.382812 82.535156 98.132812 82.535156 97.867188 Z M 62.636719 124.121094 C 60.808594 122.71875 59.65625 120.707031 59.398438 118.449219 C 59.136719 116.191406 59.796875 113.96875 61.257812 112.183594 L 67.289062 104.824219 C 69.015625 102.71875 71.617188 101.511719 74.429688 101.511719 C 76.460938 101.511719 78.367188 102.144531 79.941406 103.347656 L 104.628906 122.234375 C 106.457031 123.632812 107.605469 125.644531 107.867188 127.898438 C 108.128906 130.15625 107.46875 132.382812 106.007812 134.164062 L 99.972656 141.527344 C 97.40625 144.667969 92.632812 145.605469 88.964844 143.960938 L 82.542969 139.324219 C 82.5 139.292969 82.449219 139.273438 82.40625 139.242188 Z M 59.316406 160.199219 C 58.96875 157.917969 59.539062 155.636719 60.921875 153.78125 L 66.734375 145.984375 C 68.40625 143.746094 71.105469 142.410156 73.953125 142.410156 C 75.78125 142.410156 77.515625 142.957031 78.992188 143.980469 L 104.5 162.378906 C 106.375 163.730469 107.601562 165.734375 107.949219 168.019531 C 108.296875 170.300781 107.726562 172.582031 106.339844 174.4375 L 100.523438 182.234375 C 98.765625 184.59375 95.765625 185.816406 92.84375 185.707031 L 62.765625 165.839844 C 60.890625 164.488281 59.664062 162.484375 59.316406 160.199219 Z M 57.058594 201.722656 C 55.140625 200.417969 53.84375 198.425781 53.40625 196.121094 C 52.96875 193.816406 53.445312 191.484375 54.753906 189.5625 L 60.386719 181.265625 C 62.015625 178.871094 64.730469 177.4375 67.65625 177.4375 C 69.410156 177.4375 71.097656 177.957031 72.542969 178.941406 L 98.558594 196.667969 C 100.480469 197.976562 101.777344 199.964844 102.214844 202.269531 C 102.652344 204.574219 102.171875 206.90625 100.867188 208.828125 L 95.234375 217.125 C 93.605469 219.519531 90.890625 220.953125 87.964844 220.953125 C 86.210938 220.953125 84.523438 220.433594 83.078125 219.449219 Z M 61.925781 215.441406 C 63.675781 215.441406 65.363281 215.960938 66.804688 216.941406 L 92.734375 234.550781 C 94.652344 235.855469 95.953125 237.84375 96.390625 240.144531 C 96.832031 242.449219 96.355469 244.777344 95.050781 246.703125 L 89.335938 255.132812 C 87.707031 257.535156 84.984375 258.96875 82.050781 258.96875 C 80.300781 258.96875 78.613281 258.449219 77.171875 257.472656 L 51.242188 239.859375 C 49.324219 238.554688 48.023438 236.566406 47.582031 234.265625 C 47.148438 231.960938 47.621094 229.632812 48.925781 227.707031 L 54.640625 219.28125 C 56.269531 216.878906 58.992188 215.441406 61.925781 215.441406 Z M 61.925781 215.441406 " fill-opacity="1" fill-rule="nonzero"/></g><path fill="#135981" d="M 131.664062 272.292969 L 184.0625 272.292969 C 185.671875 272.292969 186.976562 270.980469 186.976562 269.367188 C 186.976562 267.753906 185.671875 266.445312 184.0625 266.445312 L 131.664062 266.445312 C 130.058594 266.445312 128.753906 267.753906 128.753906 269.367188 C 128.753906 270.980469 130.058594 272.292969 131.664062 272.292969 Z M 131.664062 272.292969 " fill-opacity="1" fill-rule="nonzero"/><path fill="#135981" d="M 134.390625 178.21875 C 134.894531 178.5625 135.464844 178.726562 136.027344 178.726562 C 136.960938 178.726562 137.875 178.28125 138.4375 177.453125 L 182.101562 113.128906 C 183.007812 111.792969 182.664062 109.972656 181.339844 109.066406 C 180.007812 108.152344 178.199219 108.5 177.292969 109.832031 L 133.628906 174.15625 C 132.71875 175.492188 133.0625 177.3125 134.390625 178.21875 Z M 134.390625 178.21875 " fill-opacity="1" fill-rule="nonzero"/><path fill="#135981" d="M 178.730469 133.25 L 155.441406 168.335938 C 154.550781 169.679688 154.910156 171.496094 156.25 172.390625 C 156.746094 172.722656 157.308594 172.878906 157.863281 172.878906 C 158.800781 172.878906 159.726562 172.425781 160.289062 171.578125 L 183.574219 136.492188 C 184.464844 135.148438 184.105469 133.332031 182.765625 132.4375 C 181.425781 131.539062 179.621094 131.90625 178.730469 133.25 Z M 178.730469 133.25 " fill-opacity="1" fill-rule="nonzero"/><path fill="#135981" d="M 134.574219 155.335938 C 135.515625 155.335938 136.4375 154.882812 136.996094 154.035156 L 160.289062 118.949219 C 161.179688 117.605469 160.816406 115.789062 159.480469 114.894531 C 158.140625 113.996094 156.332031 114.359375 155.441406 115.707031 L 132.152344 150.792969 C 131.261719 152.136719 131.625 153.953125 132.960938 154.847656 C 133.457031 155.179688 134.019531 155.335938 134.574219 155.335938 Z M 134.574219 155.335938 " fill-opacity="1" fill-rule="nonzero"/><path fill="#135981" d="M 224.503906 322.601562 C 223.226562 323.585938 222.988281 325.421875 223.964844 326.703125 L 253.078125 364.714844 C 253.652344 365.460938 254.515625 365.855469 255.390625 365.855469 C 256.007812 365.855469 256.632812 365.65625 257.160156 365.246094 C 258.433594 364.265625 258.671875 362.429688 257.695312 361.148438 L 228.582031 323.136719 C 227.601562 321.859375 225.777344 321.617188 224.503906 322.601562 Z M 224.503906 322.601562 " fill-opacity="1" fill-rule="nonzero"/><path fill="#135981" d="M 333.988281 371.703125 C 333.988281 372.089844 333.914062 372.460938 333.765625 372.820312 C 333.617188 373.179688 333.40625 373.496094 333.132812 373.769531 C 332.859375 374.042969 332.546875 374.253906 332.191406 374.402344 C 331.832031 374.550781 331.460938 374.625 331.074219 374.625 C 330.6875 374.625 330.316406 374.550781 329.960938 374.402344 C 329.605469 374.253906 329.289062 374.042969 329.015625 373.769531 C 328.742188 373.496094 328.53125 373.179688 328.382812 372.820312 C 328.238281 372.460938 328.164062 372.089844 328.164062 371.703125 C 328.164062 371.3125 328.238281 370.941406 328.382812 370.582031 C 328.53125 370.226562 328.742188 369.910156 329.015625 369.632812 C 329.289062 369.359375 329.605469 369.148438 329.960938 369 C 330.316406 368.851562 330.6875 368.777344 331.074219 368.777344 C 331.460938 368.777344 331.832031 368.851562 332.191406 369 C 332.546875 369.148438 332.859375 369.359375 333.132812 369.632812 C 333.40625 369.910156 333.617188 370.226562 333.765625 370.582031 C 333.914062 370.941406 333.988281 371.3125 333.988281 371.703125 Z M 333.988281 371.703125 " fill-opacity="1" fill-rule="nonzero"/><path fill="#135981" d="M 278.828125 38.691406 L 255.539062 50.386719 C 254.101562 51.109375 253.519531 52.867188 254.238281 54.3125 C 254.75 55.335938 255.773438 55.925781 256.84375 55.925781 C 257.28125 55.925781 257.726562 55.828125 258.144531 55.617188 L 281.433594 43.921875 C 282.871094 43.203125 283.453125 41.445312 282.734375 40 C 282.011719 38.554688 280.265625 37.96875 278.828125 38.691406 Z M 278.828125 38.691406 " fill-opacity="1" fill-rule="nonzero"/><path fill="#135981" d="M 257.863281 73.65625 C 256.363281 73.097656 254.679688 73.855469 254.117188 75.367188 C 253.554688 76.878906 254.316406 78.5625 255.816406 79.132812 L 279.109375 87.902344 C 279.445312 88.03125 279.789062 88.089844 280.128906 88.089844 C 281.308594 88.089844 282.417969 87.367188 282.855469 86.191406 C 283.417969 84.679688 282.65625 82.996094 281.152344 82.425781 Z M 257.863281 73.65625 " fill-opacity="1" fill-rule="nonzero"/><path fill="#135981" d="M 285.953125 64.699219 C 285.953125 63.085938 284.652344 61.773438 283.042969 61.773438 L 259.75 61.773438 C 258.144531 61.773438 256.84375 63.085938 256.84375 64.699219 C 256.84375 66.3125 258.144531 67.621094 259.75 67.621094 L 283.042969 67.621094 C 284.652344 67.621094 285.953125 66.3125 285.953125 64.699219 Z M 285.953125 64.699219 " fill-opacity="1" fill-rule="nonzero"/><g clip-path="url(#2f81642041)"><path fill="#135981" d="M 206.191406 281.949219 L 214.761719 281.949219 L 214.761719 285.699219 L 206.191406 285.699219 Z M 206.191406 281.949219 " fill-opacity="1" fill-rule="nonzero"/></g></svg>