<svg xmlns="http://www.w3.org/2000/svg" xmlns:xlink="http://www.w3.org/1999/xlink" width="500" zoomAndPan="magnify" viewBox="0 0 375 374.999991" height="500" preserveAspectRatio="xMidYMid meet" version="1.0"><defs><clipPath id="7a81fa8ef9"><path d="M 205.667969 294.796875 L 224.054688 294.796875 L 224.054688 298.546875 L 205.667969 298.546875 Z M 205.667969 294.796875 " clip-rule="nonzero"/></clipPath><clipPath id="cb2512dddf"><path d="M 64.453125 0 L 276 0 L 276 375 L 64.453125 375 Z M 64.453125 0 " clip-rule="nonzero"/></clipPath><clipPath id="75f9aca143"><path d="M 251 93 L 310.453125 93 L 310.453125 153 L 251 153 Z M 251 93 " clip-rule="nonzero"/></clipPath></defs><g clip-path="url(#7a81fa8ef9)"><path fill="#135981" d="M 205.667969 294.796875 L 224.050781 294.796875 L 224.050781 298.546875 L 205.667969 298.546875 Z M 205.667969 294.796875 " fill-opacity="1" fill-rule="nonzero"/></g><path fill="#135981" d="M 146.484375 351.5625 L 193.359375 351.5625 C 196.59375 351.5625 199.21875 348.9375 199.21875 345.703125 C 199.21875 342.46875 196.59375 339.84375 193.359375 339.84375 L 146.484375 339.84375 C 143.25 339.84375 140.625 342.46875 140.625 345.703125 C 140.625 348.9375 143.25 351.5625 146.484375 351.5625 Z M 146.484375 351.5625 " fill-opacity="1" fill-rule="nonzero"/><path fill="#135981" d="M 152.34375 29.296875 C 152.34375 29.679688 152.304688 30.0625 152.230469 30.441406 C 152.15625 30.816406 152.046875 31.183594 151.898438 31.539062 C 151.75 31.894531 151.570312 32.230469 151.355469 32.550781 C 151.140625 32.871094 150.898438 33.167969 150.628906 33.441406 C 150.355469 33.710938 150.058594 33.953125 149.738281 34.167969 C 149.417969 34.382812 149.082031 34.5625 148.726562 34.710938 C 148.371094 34.859375 148.003906 34.96875 147.628906 35.042969 C 147.25 35.117188 146.867188 35.15625 146.484375 35.15625 C 146.101562 35.15625 145.71875 35.117188 145.339844 35.042969 C 144.964844 34.96875 144.597656 34.859375 144.242188 34.710938 C 143.886719 34.5625 143.550781 34.382812 143.230469 34.167969 C 142.910156 33.953125 142.613281 33.710938 142.339844 33.441406 C 142.070312 33.167969 141.828125 32.871094 141.613281 32.550781 C 141.398438 32.230469 141.21875 31.894531 141.070312 31.539062 C 140.921875 31.183594 140.8125 30.816406 140.738281 30.441406 C 140.664062 30.0625 140.625 29.679688 140.625 29.296875 C 140.625 28.914062 140.664062 28.53125 140.738281 28.152344 C 140.8125 27.777344 140.921875 27.410156 141.070312 27.054688 C 141.21875 26.699219 141.398438 26.363281 141.613281 26.042969 C 141.828125 25.722656 142.070312 25.425781 142.339844 25.152344 C 142.613281 24.882812 142.910156 24.640625 143.230469 24.425781 C 143.550781 24.210938 143.886719 24.03125 144.242188 23.882812 C 144.597656 23.734375 144.964844 23.625 145.339844 23.550781 C 145.71875 23.476562 146.101562 23.4375 146.484375 23.4375 C 146.867188 23.4375 147.25 23.476562 147.628906 23.550781 C 148.003906 23.625 148.371094 23.734375 148.726562 23.882812 C 149.082031 24.03125 149.417969 24.210938 149.738281 24.425781 C 150.058594 24.640625 150.355469 24.882812 150.628906 25.152344 C 150.898438 25.425781 151.140625 25.722656 151.355469 26.042969 C 151.570312 26.363281 151.75 26.699219 151.898438 27.054688 C 152.046875 27.410156 152.15625 27.777344 152.230469 28.152344 C 152.304688 28.53125 152.34375 28.914062 152.34375 29.296875 Z M 152.34375 29.296875 " fill-opacity="1" fill-rule="nonzero"/><path fill="#135981" d="M 175.78125 29.296875 C 175.78125 29.679688 175.742188 30.0625 175.667969 30.441406 C 175.59375 30.816406 175.484375 31.183594 175.335938 31.539062 C 175.1875 31.894531 175.007812 32.230469 174.792969 32.550781 C 174.578125 32.871094 174.335938 33.167969 174.066406 33.441406 C 173.792969 33.710938 173.496094 33.953125 173.175781 34.167969 C 172.855469 34.382812 172.519531 34.5625 172.164062 34.710938 C 171.808594 34.859375 171.441406 34.96875 171.066406 35.042969 C 170.6875 35.117188 170.304688 35.15625 169.921875 35.15625 C 169.539062 35.15625 169.15625 35.117188 168.777344 35.042969 C 168.402344 34.96875 168.035156 34.859375 167.679688 34.710938 C 167.324219 34.5625 166.988281 34.382812 166.667969 34.167969 C 166.347656 33.953125 166.050781 33.710938 165.777344 33.441406 C 165.507812 33.167969 165.265625 32.871094 165.050781 32.550781 C 164.835938 32.230469 164.65625 31.894531 164.507812 31.539062 C 164.359375 31.183594 164.25 30.816406 164.175781 30.441406 C 164.101562 30.0625 164.0625 29.679688 164.0625 29.296875 C 164.0625 28.914062 164.101562 28.53125 164.175781 28.152344 C 164.25 27.777344 164.359375 27.410156 164.507812 27.054688 C 164.65625 26.699219 164.835938 26.363281 165.050781 26.042969 C 165.265625 25.722656 165.507812 25.425781 165.777344 25.152344 C 166.050781 24.882812 166.347656 24.640625 166.667969 24.425781 C 166.988281 24.210938 167.324219 24.03125 167.679688 23.882812 C 168.035156 23.734375 168.402344 23.625 168.777344 23.550781 C 169.15625 23.476562 169.539062 23.4375 169.921875 23.4375 C 170.304688 23.4375 170.6875 23.476562 171.066406 23.550781 C 171.441406 23.625 171.808594 23.734375 172.164062 23.882812 C 172.519531 24.03125 172.855469 24.210938 173.175781 24.425781 C 173.496094 24.640625 173.792969 24.882812 174.066406 25.152344 C 174.335938 25.425781 174.578125 25.722656 174.792969 26.042969 C 175.007812 26.363281 175.1875 26.699219 175.335938 27.054688 C 175.484375 27.410156 175.59375 27.777344 175.667969 28.152344 C 175.742188 28.53125 175.78125 28.914062 175.78125 29.296875 Z M 175.78125 29.296875 " fill-opacity="1" fill-rule="nonzero"/><path fill="#135981" d="M 199.21875 29.296875 C 199.21875 29.679688 199.179688 30.0625 199.105469 30.441406 C 199.03125 30.816406 198.921875 31.183594 198.773438 31.539062 C 198.625 31.894531 198.445312 32.230469 198.230469 32.550781 C 198.015625 32.871094 197.773438 33.167969 197.503906 33.441406 C 197.230469 33.710938 196.933594 33.953125 196.613281 34.167969 C 196.292969 34.382812 195.957031 34.5625 195.601562 34.710938 C 195.246094 34.859375 194.878906 34.96875 194.503906 35.042969 C 194.125 35.117188 193.742188 35.15625 193.359375 35.15625 C 192.976562 35.15625 192.59375 35.117188 192.214844 35.042969 C 191.839844 34.96875 191.472656 34.859375 191.117188 34.710938 C 190.761719 34.5625 190.425781 34.382812 190.105469 34.167969 C 189.785156 33.953125 189.488281 33.710938 189.214844 33.441406 C 188.945312 33.167969 188.703125 32.871094 188.488281 32.550781 C 188.273438 32.230469 188.09375 31.894531 187.945312 31.539062 C 187.796875 31.183594 187.6875 30.816406 187.613281 30.441406 C 187.539062 30.0625 187.5 29.679688 187.5 29.296875 C 187.5 28.914062 187.539062 28.53125 187.613281 28.152344 C 187.6875 27.777344 187.796875 27.410156 187.945312 27.054688 C 188.09375 26.699219 188.273438 26.363281 188.488281 26.042969 C 188.703125 25.722656 188.945312 25.425781 189.214844 25.152344 C 189.488281 24.882812 189.785156 24.640625 190.105469 24.425781 C 190.425781 24.210938 190.761719 24.03125 191.117188 23.882812 C 191.472656 23.734375 191.839844 23.625 192.214844 23.550781 C 192.59375 23.476562 192.976562 23.4375 193.359375 23.4375 C 193.742188 23.4375 194.125 23.476562 194.503906 23.550781 C 194.878906 23.625 195.246094 23.734375 195.601562 23.882812 C 195.957031 24.03125 196.292969 24.210938 196.613281 24.425781 C 196.933594 24.640625 197.230469 24.882812 197.503906 25.152344 C 197.773438 25.425781 198.015625 25.722656 198.230469 26.042969 C 198.445312 26.363281 198.625 26.699219 198.773438 27.054688 C 198.921875 27.410156 199.03125 27.777344 199.105469 28.152344 C 199.179688 28.53125 199.21875 28.914062 199.21875 29.296875 Z M 199.21875 29.296875 " fill-opacity="1" fill-rule="nonzero"/><path fill="#135981" d="M 158.203125 281.25 C 158.203125 294.191406 168.695312 304.6875 181.640625 304.6875 L 275.390625 304.6875 C 288.335938 304.6875 298.828125 294.191406 298.828125 281.25 L 298.828125 187.5 C 298.828125 174.554688 288.335938 164.0625 275.390625 164.0625 L 181.640625 164.0625 C 168.695312 164.0625 158.203125 174.554688 158.203125 187.5 Z M 169.921875 187.5 C 169.921875 181.039062 175.175781 175.78125 181.640625 175.78125 L 275.390625 175.78125 C 281.855469 175.78125 287.109375 181.039062 287.109375 187.5 L 287.109375 281.25 C 287.109375 287.714844 281.855469 292.96875 275.390625 292.96875 L 181.640625 292.96875 C 175.175781 292.96875 169.921875 287.714844 169.921875 281.25 Z M 169.921875 187.5 " fill-opacity="1" fill-rule="nonzero"/><path fill="#135981" d="M 217.207031 152.34375 C 229.921875 152.34375 240.234375 142.035156 240.234375 129.316406 L 240.234375 93.339844 C 240.234375 80.621094 229.921875 70.3125 217.207031 70.3125 L 181.230469 70.3125 C 168.515625 70.3125 158.203125 80.621094 158.203125 93.339844 L 158.203125 129.316406 C 158.203125 142.035156 168.515625 152.34375 181.230469 152.34375 Z M 169.921875 129.316406 L 169.921875 93.339844 C 169.921875 87.105469 174.996094 82.03125 181.230469 82.03125 L 217.207031 82.03125 C 223.441406 82.03125 228.515625 87.105469 228.515625 93.339844 L 228.515625 129.316406 C 228.515625 135.550781 223.441406 140.625 217.207031 140.625 L 181.230469 140.625 C 174.996094 140.625 169.921875 135.550781 169.921875 129.316406 Z M 169.921875 129.316406 " fill-opacity="1" fill-rule="nonzero"/><g clip-path="url(#cb2512dddf)"><path fill="#135981" d="M 87.6875 375 L 252.15625 375 C 264.988281 375 275.390625 364.503906 275.390625 351.5625 L 275.390625 316.40625 L 76.171875 316.40625 L 76.171875 58.59375 L 263.671875 58.59375 L 263.671875 82.460938 C 265.210938 82.199219 275.390625 82.03125 275.390625 82.03125 L 275.390625 23.4375 C 275.390625 10.492188 264.988281 0 252.15625 0 L 87.6875 0 C 74.851562 0 64.453125 10.492188 64.453125 23.4375 L 64.453125 351.5625 C 64.453125 364.503906 74.851562 375 87.6875 375 Z M 76.171875 23.4375 C 76.171875 16.976562 81.339844 11.71875 87.6875 11.71875 L 252.15625 11.71875 C 258.503906 11.71875 263.671875 16.976562 263.671875 23.4375 L 263.671875 46.875 L 76.171875 46.875 Z M 76.171875 328.125 L 263.671875 328.125 L 263.671875 351.5625 C 263.671875 358.027344 258.503906 363.28125 252.15625 363.28125 L 87.6875 363.28125 C 81.339844 363.28125 76.171875 358.027344 76.171875 351.5625 Z M 76.171875 328.125 " fill-opacity="1" fill-rule="nonzero"/></g><g clip-path="url(#75f9aca143)"><path fill="#135981" d="M 251.953125 110.199219 L 251.953125 135.894531 C 251.953125 144.980469 259.316406 152.34375 268.398438 152.34375 L 294.101562 152.34375 C 303.183594 152.34375 310.546875 144.980469 310.546875 135.894531 L 310.546875 110.199219 C 310.546875 101.113281 303.183594 93.75 294.101562 93.75 L 268.398438 93.75 C 259.316406 93.75 251.953125 101.113281 251.953125 110.199219 Z M 298.828125 110.199219 L 298.828125 135.894531 C 298.828125 138.503906 296.707031 140.625 294.101562 140.625 L 268.398438 140.625 C 265.792969 140.625 263.671875 138.503906 263.671875 135.894531 L 263.671875 110.199219 C 263.671875 107.589844 265.792969 105.46875 268.398438 105.46875 L 294.101562 105.46875 C 296.707031 105.46875 298.828125 107.589844 298.828125 110.199219 Z M 298.828125 110.199219 " fill-opacity="1" fill-rule="nonzero"/></g><path fill="#135981" d="M 104.335938 164.0625 C 95.253906 164.0625 87.890625 171.425781 87.890625 180.511719 L 87.890625 206.207031 C 87.890625 215.292969 95.253906 222.65625 104.335938 222.65625 L 130.039062 222.65625 C 139.121094 222.65625 146.484375 215.292969 146.484375 206.207031 L 146.484375 180.511719 C 146.484375 171.425781 139.121094 164.0625 130.039062 164.0625 Z M 134.765625 180.511719 L 134.765625 206.207031 C 134.765625 208.816406 132.644531 210.9375 130.039062 210.9375 L 104.335938 210.9375 C 101.730469 210.9375 99.609375 208.816406 99.609375 206.207031 L 99.609375 180.511719 C 99.609375 177.902344 101.730469 175.78125 104.335938 175.78125 L 130.039062 175.78125 C 132.644531 175.78125 134.765625 177.902344 134.765625 180.511719 Z M 134.765625 180.511719 " fill-opacity="1" fill-rule="nonzero"/></svg>