<svg xmlns="http://www.w3.org/2000/svg" xmlns:xlink="http://www.w3.org/1999/xlink" width="500" zoomAndPan="magnify" viewBox="0 0 375 374.999991" height="500" preserveAspectRatio="xMidYMid meet" version="1.0"><defs><clipPath id="539ab33415"><path d="M 187.5 152.34375 L 196.074219 152.34375 L 196.074219 156.09375 L 187.5 156.09375 Z M 187.5 152.34375 " clip-rule="nonzero"/></clipPath></defs><g clip-path="url(#539ab33415)"><path fill="#135981" d="M 187.5 152.34375 L 196.070312 152.34375 L 196.070312 156.09375 L 187.5 156.09375 Z M 187.5 152.34375 " fill-opacity="1" fill-rule="nonzero"/></g><path fill="#38b6ff" d="M 374.75 180.394531 C 374.75 183.34375 374.679688 186.292969 374.535156 189.238281 C 374.390625 192.1875 374.175781 195.128906 373.886719 198.066406 C 373.597656 201.003906 373.234375 203.929688 372.804688 206.847656 C 372.371094 209.769531 371.867188 212.675781 371.292969 215.570312 C 370.714844 218.460938 370.070312 221.339844 369.355469 224.203125 C 368.636719 227.066406 367.851562 229.910156 366.996094 232.734375 C 366.136719 235.558594 365.214844 238.359375 364.21875 241.136719 C 363.226562 243.914062 362.164062 246.667969 361.035156 249.394531 C 359.90625 252.121094 358.710938 254.816406 357.449219 257.484375 C 356.1875 260.152344 354.863281 262.789062 353.472656 265.390625 C 352.082031 267.992188 350.628906 270.558594 349.109375 273.089844 C 347.59375 275.621094 346.015625 278.113281 344.375 280.566406 C 342.738281 283.019531 341.039062 285.433594 339.28125 287.804688 C 337.523438 290.175781 335.710938 292.5 333.835938 294.78125 C 331.964844 297.0625 330.039062 299.296875 328.058594 301.484375 C 326.078125 303.667969 324.042969 305.804688 321.957031 307.890625 C 319.871094 309.980469 317.734375 312.011719 315.546875 313.996094 C 313.359375 315.976562 311.128906 317.902344 308.847656 319.777344 C 306.566406 321.648438 304.242188 323.464844 301.871094 325.222656 C 299.5 326.980469 297.089844 328.679688 294.636719 330.316406 C 292.183594 331.957031 289.691406 333.535156 287.160156 335.054688 C 284.628906 336.570312 282.0625 338.023438 279.460938 339.414062 C 276.855469 340.808594 274.222656 342.132812 271.554688 343.394531 C 268.886719 344.65625 266.191406 345.851562 263.464844 346.980469 C 260.738281 348.113281 257.988281 349.171875 255.207031 350.167969 C 252.429688 351.160156 249.628906 352.085938 246.804688 352.945312 C 243.980469 353.800781 241.136719 354.589844 238.277344 355.304688 C 235.414062 356.023438 232.535156 356.667969 229.640625 357.246094 C 226.746094 357.820312 223.839844 358.324219 220.921875 358.757812 C 218.003906 359.191406 215.074219 359.550781 212.140625 359.839844 C 209.203125 360.132812 206.261719 360.347656 203.3125 360.492188 C 200.367188 360.636719 197.417969 360.710938 194.464844 360.710938 C 191.515625 360.710938 188.566406 360.636719 185.617188 360.492188 C 182.671875 360.347656 179.730469 360.132812 176.792969 359.84375 C 173.855469 359.554688 170.929688 359.191406 168.011719 358.761719 C 165.089844 358.328125 162.183594 357.824219 159.289062 357.246094 C 156.394531 356.671875 153.519531 356.027344 150.65625 355.308594 C 147.792969 354.59375 144.949219 353.804688 142.125 352.949219 C 139.300781 352.09375 136.5 351.167969 133.722656 350.171875 C 130.945312 349.179688 128.191406 348.117188 125.464844 346.988281 C 122.738281 345.859375 120.042969 344.664062 117.375 343.402344 C 114.707031 342.140625 112.074219 340.8125 109.472656 339.421875 C 106.867188 338.03125 104.300781 336.578125 101.769531 335.0625 C 99.238281 333.542969 96.746094 331.964844 94.292969 330.328125 C 91.839844 328.6875 89.429688 326.988281 87.058594 325.230469 C 84.6875 323.472656 82.363281 321.660156 80.082031 319.785156 C 77.800781 317.914062 75.566406 315.988281 73.378906 314.007812 C 71.195312 312.023438 69.058594 309.988281 66.972656 307.902344 C 64.882812 305.816406 62.851562 303.679688 60.867188 301.496094 C 58.886719 299.308594 56.960938 297.074219 55.089844 294.792969 C 53.214844 292.511719 51.402344 290.1875 49.644531 287.816406 C 47.886719 285.445312 46.1875 283.035156 44.546875 280.582031 C 42.910156 278.128906 41.332031 275.636719 39.8125 273.105469 C 38.296875 270.574219 36.84375 268.007812 35.453125 265.402344 C 34.0625 262.800781 32.734375 260.167969 31.472656 257.5 C 30.210938 254.832031 29.015625 252.132812 27.886719 249.40625 C 26.757812 246.683594 25.695312 243.929688 24.703125 241.152344 C 23.707031 238.371094 22.78125 235.570312 21.925781 232.75 C 21.070312 229.925781 20.285156 227.082031 19.566406 224.21875 C 18.851562 221.355469 18.203125 218.476562 17.628906 215.585938 C 17.050781 212.691406 16.546875 209.785156 16.117188 206.863281 C 15.683594 203.945312 15.320312 201.019531 15.03125 198.082031 C 14.742188 195.144531 14.527344 192.203125 14.382812 189.253906 C 14.238281 186.308594 14.164062 183.359375 14.164062 180.410156 C 14.164062 177.457031 14.238281 174.507812 14.382812 171.5625 C 14.527344 168.613281 14.746094 165.671875 15.035156 162.734375 C 15.324219 159.800781 15.683594 156.871094 16.117188 153.953125 C 16.550781 151.035156 17.054688 148.128906 17.632812 145.234375 C 18.207031 142.339844 18.855469 139.460938 19.570312 136.597656 C 20.289062 133.734375 21.074219 130.894531 21.933594 128.070312 C 22.789062 125.246094 23.714844 122.445312 24.707031 119.667969 C 25.703125 116.886719 26.765625 114.136719 27.894531 111.410156 C 29.023438 108.683594 30.21875 105.988281 31.480469 103.320312 C 32.742188 100.652344 34.070312 98.015625 35.460938 95.414062 C 36.851562 92.8125 38.304688 90.246094 39.824219 87.714844 C 41.339844 85.183594 42.917969 82.691406 44.558594 80.238281 C 46.199219 77.785156 47.898438 75.375 49.65625 73.003906 C 51.414062 70.632812 53.226562 68.308594 55.101562 66.027344 C 56.972656 63.746094 58.898438 61.511719 60.882812 59.328125 C 62.863281 57.140625 64.898438 55.003906 66.984375 52.917969 C 69.070312 50.832031 71.207031 48.796875 73.394531 46.816406 C 75.582031 44.835938 77.816406 42.910156 80.097656 41.035156 C 82.378906 39.164062 84.703125 37.351562 87.074219 35.59375 C 89.445312 33.835938 91.855469 32.136719 94.308594 30.5 C 96.761719 28.859375 99.253906 27.28125 101.785156 25.765625 C 104.316406 24.246094 106.882812 22.792969 109.488281 21.402344 C 112.089844 20.011719 114.722656 18.6875 117.390625 17.425781 C 120.058594 16.164062 122.757812 14.96875 125.484375 13.839844 C 128.210938 12.710938 130.960938 11.648438 133.742188 10.65625 C 136.519531 9.664062 139.320312 8.738281 142.144531 7.882812 C 144.96875 7.023438 147.8125 6.238281 150.671875 5.523438 C 153.535156 4.804688 156.414062 4.160156 159.308594 3.582031 C 162.203125 3.007812 165.109375 2.503906 168.027344 2.070312 C 170.945312 1.640625 173.875 1.277344 176.8125 0.988281 C 179.746094 0.699219 182.691406 0.484375 185.636719 0.339844 C 188.585938 0.195312 191.535156 0.125 194.484375 0.125 C 197.4375 0.113281 200.390625 0.175781 203.339844 0.308594 C 206.289062 0.445312 209.234375 0.652344 212.175781 0.933594 C 215.113281 1.214844 218.046875 1.566406 220.96875 1.992188 C 223.890625 2.414062 226.800781 2.910156 229.699219 3.480469 C 232.597656 4.046875 235.476562 4.6875 238.34375 5.398438 C 241.210938 6.109375 244.058594 6.890625 246.886719 7.738281 C 249.714844 8.589844 252.519531 9.511719 255.300781 10.5 C 258.085938 11.488281 260.839844 12.546875 263.570312 13.671875 C 266.300781 14.796875 269.003906 15.988281 271.675781 17.246094 C 274.347656 18.503906 276.984375 19.828125 279.589844 21.21875 C 282.199219 22.605469 284.769531 24.058594 287.304688 25.574219 C 289.835938 27.089844 292.332031 28.664062 294.789062 30.304688 C 297.246094 31.941406 299.664062 33.640625 302.035156 35.398438 C 304.410156 37.15625 306.738281 38.96875 309.019531 40.84375 C 311.304688 42.714844 313.539062 44.644531 315.730469 46.625 C 317.917969 48.609375 320.054688 50.644531 322.144531 52.730469 C 324.234375 54.820312 326.269531 56.957031 328.25 59.148438 C 330.234375 61.335938 332.160156 63.570312 334.035156 65.855469 C 335.90625 68.140625 337.722656 70.46875 339.476562 72.839844 C 341.234375 75.214844 342.933594 77.628906 344.574219 80.085938 C 346.210938 82.542969 347.789062 85.039062 349.304688 87.574219 C 350.820312 90.109375 352.269531 92.679688 353.660156 95.285156 C 355.046875 97.890625 356.371094 100.53125 357.628906 103.203125 C 358.886719 105.875 360.078125 108.574219 361.203125 111.304688 C 362.328125 114.035156 363.386719 116.792969 364.375 119.574219 C 365.367188 122.359375 366.285156 125.164062 367.136719 127.992188 C 367.988281 130.820312 368.769531 133.664062 369.476562 136.53125 C 370.1875 139.398438 370.828125 142.28125 371.394531 145.179688 C 371.964844 148.078125 372.460938 150.988281 372.886719 153.910156 C 373.308594 156.832031 373.664062 159.761719 373.941406 162.703125 C 374.222656 165.644531 374.429688 168.585938 374.566406 171.539062 C 374.699219 174.488281 374.761719 177.441406 374.75 180.394531 Z M 374.75 180.394531 " fill-opacity="1" fill-rule="nonzero"/><path fill="#f9fafb" d="M 333.546875 295.171875 C 331.417969 297.75 329.21875 300.265625 326.953125 302.722656 C 324.683594 305.179688 322.347656 307.570312 319.945312 309.898438 C 317.546875 312.226562 315.082031 314.484375 312.554688 316.671875 C 310.027344 318.863281 307.441406 320.980469 304.796875 323.027344 C 302.148438 325.074219 299.449219 327.042969 296.695312 328.9375 C 293.941406 330.835938 291.136719 332.652344 288.28125 334.390625 C 285.425781 336.132812 282.523438 337.789062 279.574219 339.367188 C 276.625 340.945312 273.636719 342.441406 270.605469 343.851562 C 267.574219 345.265625 264.503906 346.589844 261.402344 347.832031 C 258.296875 349.074219 255.160156 350.226562 251.988281 351.292969 C 248.820312 352.359375 245.625 353.339844 242.398438 354.226562 C 239.175781 355.117188 235.929688 355.914062 232.664062 356.621094 C 229.394531 357.332031 226.109375 357.949219 222.808594 358.472656 C 219.503906 359 216.191406 359.429688 212.863281 359.773438 C 209.535156 360.113281 206.203125 360.363281 202.863281 360.519531 C 199.523438 360.671875 196.179688 360.734375 192.835938 360.707031 C 189.492188 360.675781 186.152344 360.550781 182.816406 360.335938 C 179.480469 360.121094 176.152344 359.8125 172.832031 359.410156 C 169.511719 359.007812 166.207031 358.515625 162.914062 357.929688 C 159.621094 357.34375 156.347656 356.667969 153.09375 355.902344 C 149.839844 355.132812 146.609375 354.277344 143.402344 353.328125 C 140.195312 352.382812 137.015625 351.347656 133.867188 350.222656 C 130.714844 349.097656 127.601562 347.886719 124.519531 346.589844 C 121.4375 345.292969 118.394531 343.914062 115.386719 342.445312 C 112.382812 340.980469 109.421875 339.429688 106.5 337.800781 C 103.582031 336.167969 100.710938 334.457031 97.886719 332.664062 C 95.0625 330.875 92.292969 329.007812 89.574219 327.0625 C 86.851562 325.117188 84.1875 323.097656 81.582031 321.003906 C 78.972656 318.910156 76.425781 316.746094 73.9375 314.511719 C 71.453125 312.273438 69.027344 309.972656 66.671875 307.601562 C 64.3125 305.230469 62.019531 302.796875 59.796875 300.300781 C 57.574219 297.804688 55.421875 295.246094 53.339844 292.628906 C 72.542969 265.242188 102.316406 246.242188 164.917969 245.53125 C 237.167969 244.660156 290.3125 242.023438 312.265625 266.3125 C 320.253906 275.269531 327.347656 284.890625 333.546875 295.171875 Z M 333.546875 295.171875 " fill-opacity="1" fill-rule="nonzero"/><path fill="#135981" d="M 134.75 134.929688 C 100.085938 122.390625 105.742188 76.664062 110.660156 75.683594 C 115.578125 74.699219 126.140625 82.8125 126.636719 83.058594 C 127.132812 83.300781 124.179688 62.652344 130.820312 53.0625 C 137.457031 43.476562 162.777344 62.898438 182.199219 63.144531 C 201.621094 63.390625 248.578125 64.617188 262.34375 76.910156 C 276.109375 89.203125 268.964844 115.507812 268.964844 115.507812 C 268.964844 115.507812 284.714844 119.6875 281.515625 141.816406 C 278.3125 163.941406 253.488281 182.945312 244.636719 198.886719 C 235.785156 214.828125 183.21875 217.78125 175.0625 194.671875 " fill-opacity="1" fill-rule="nonzero"/><path fill="#ffb5a6" d="M 191.847656 272.175781 C 166.648438 272.175781 162.9375 251.140625 162.839844 247.585938 C 162.839844 247.179688 162.785156 246.464844 162.839844 245.5 C 162.785156 243.519531 162.785156 240.472656 162.785156 236.914062 C 162.890625 227.3125 162.988281 214.050781 162.839844 208.359375 L 210.953125 191.136719 L 219.691406 187.984375 L 229.398438 184.53125 C 229.398438 184.53125 229.347656 186.410156 229.246094 189.511719 C 229.195312 191.289062 229.144531 193.472656 229.089844 195.964844 C 229.097656 196.253906 229.082031 196.542969 229.039062 196.832031 C 228.992188 200.4375 228.941406 204.554688 228.839844 208.875 C 228.683594 222.441406 228.632812 237.683594 229.347656 243.167969 C 230.664062 253.835938 217.046875 272.175781 191.847656 272.175781 Z M 191.847656 272.175781 " fill-opacity="1" fill-rule="nonzero"/><path fill="#e86b70" d="M 229.441406 196.066406 C 229.328125 196.328125 229.191406 196.582031 229.035156 196.828125 C 211.964844 231.9375 186.304688 245.855469 162.832031 245.5 C 162.78125 243.519531 162.78125 240.472656 162.78125 236.914062 C 162.882812 227.3125 162.984375 214.050781 162.832031 208.359375 L 210.949219 191.136719 L 229.089844 195.964844 Z M 229.441406 196.066406 " fill-opacity="1" fill-rule="nonzero"/><path fill="#ffb5a6" d="M 133.796875 103.707031 C 161.824219 137.308594 231.042969 131.242188 231.042969 131.242188 C 231.042969 131.242188 232.351562 170.578125 239.238281 170.25 C 246.121094 169.921875 247.269531 148.125 264.148438 151.738281 C 281.03125 155.347656 270.542969 187.957031 257.429688 189.757812 C 244.320312 191.558594 241.039062 180.417969 241.039062 180.417969 C 241.039062 180.417969 216.863281 228.355469 178.511719 228.355469 C 140.160156 228.355469 130.34375 191.589844 130.574219 171.5625 C 130.800781 151.535156 133.796875 103.707031 133.796875 103.707031 Z M 133.796875 103.707031 " fill-opacity="1" fill-rule="nonzero"/></svg>