<svg xmlns="http://www.w3.org/2000/svg" xmlns:xlink="http://www.w3.org/1999/xlink" width="500" zoomAndPan="magnify" viewBox="0 0 375 374.999991" height="500" preserveAspectRatio="xMidYMid meet" version="1.0"><defs><clipPath id="9b4e0709b8"><path d="M 187.5 152.34375 L 196.074219 152.34375 L 196.074219 156.09375 L 187.5 156.09375 Z M 187.5 152.34375 " clip-rule="nonzero"/></clipPath></defs><g clip-path="url(#9b4e0709b8)"><path fill="#135981" d="M 187.5 152.34375 L 196.070312 152.34375 L 196.070312 156.09375 L 187.5 156.09375 Z M 187.5 152.34375 " fill-opacity="1" fill-rule="nonzero"/></g><path fill="#dfe5f4" d="M 374.796875 180.5625 C 374.796875 183.515625 374.726562 186.464844 374.582031 189.414062 C 374.4375 192.363281 374.21875 195.304688 373.929688 198.242188 C 373.640625 201.179688 373.28125 204.109375 372.847656 207.027344 C 372.414062 209.949219 371.910156 212.855469 371.335938 215.75 C 370.757812 218.644531 370.113281 221.523438 369.394531 224.386719 C 368.679688 227.25 367.890625 230.09375 367.035156 232.917969 C 366.179688 235.746094 365.253906 238.546875 364.257812 241.324219 C 363.265625 244.105469 362.203125 246.859375 361.074219 249.585938 C 359.941406 252.3125 358.746094 255.007812 357.484375 257.679688 C 356.222656 260.347656 354.898438 262.980469 353.507812 265.585938 C 352.113281 268.1875 350.660156 270.757812 349.144531 273.289062 C 347.625 275.820312 346.046875 278.3125 344.40625 280.765625 C 342.765625 283.222656 341.066406 285.632812 339.308594 288.003906 C 337.550781 290.375 335.738281 292.703125 333.863281 294.984375 C 331.992188 297.265625 330.0625 299.5 328.082031 301.6875 C 326.101562 303.875 324.066406 306.011719 321.976562 308.097656 C 319.890625 310.1875 317.753906 312.222656 315.566406 314.203125 C 313.378906 316.183594 311.144531 318.113281 308.863281 319.984375 C 306.582031 321.859375 304.257812 323.671875 301.886719 325.433594 C 299.515625 327.191406 297.101562 328.890625 294.648438 330.53125 C 292.195312 332.167969 289.699219 333.746094 287.167969 335.265625 C 284.636719 336.78125 282.070312 338.238281 279.46875 339.628906 C 276.863281 341.019531 274.226562 342.347656 271.558594 343.609375 C 268.890625 344.871094 266.195312 346.066406 263.46875 347.195312 C 260.738281 348.328125 257.988281 349.386719 255.207031 350.382812 C 252.429688 351.378906 249.625 352.304688 246.800781 353.160156 C 243.976562 354.015625 241.132812 354.804688 238.269531 355.519531 C 235.40625 356.238281 232.527344 356.882812 229.632812 357.460938 C 226.738281 358.035156 223.832031 358.539062 220.910156 358.972656 C 217.992188 359.40625 215.0625 359.769531 212.125 360.058594 C 209.1875 360.347656 206.246094 360.5625 203.296875 360.710938 C 200.347656 360.855469 197.398438 360.925781 194.449219 360.925781 C 191.496094 360.925781 188.546875 360.855469 185.597656 360.710938 C 182.648438 360.5625 179.707031 360.347656 176.769531 360.058594 C 173.832031 359.769531 170.902344 359.40625 167.984375 358.972656 C 165.0625 358.542969 162.15625 358.035156 159.261719 357.460938 C 156.367188 356.886719 153.488281 356.238281 150.625 355.523438 C 147.761719 354.804688 144.917969 354.015625 142.09375 353.160156 C 139.269531 352.304688 136.464844 351.378906 133.6875 350.382812 C 130.910156 349.390625 128.15625 348.328125 125.429688 347.199219 C 122.703125 346.066406 120.003906 344.871094 117.335938 343.609375 C 114.667969 342.347656 112.03125 341.023438 109.429688 339.628906 C 106.824219 338.238281 104.257812 336.785156 101.726562 335.265625 C 99.195312 333.75 96.703125 332.171875 94.246094 330.53125 C 91.792969 328.890625 89.382812 327.191406 87.011719 325.433594 C 84.640625 323.675781 82.3125 321.859375 80.03125 319.988281 C 77.75 318.113281 75.515625 316.1875 73.328125 314.207031 C 71.140625 312.222656 69.003906 310.1875 66.917969 308.101562 C 64.832031 306.015625 62.796875 303.875 60.8125 301.691406 C 58.832031 299.503906 56.902344 297.269531 55.03125 294.988281 C 53.160156 292.703125 51.34375 290.378906 49.585938 288.007812 C 47.828125 285.636719 46.128906 283.222656 44.488281 280.769531 C 42.847656 278.316406 41.269531 275.824219 39.753906 273.292969 C 38.234375 270.757812 36.78125 268.191406 35.390625 265.589844 C 34 262.984375 32.671875 260.351562 31.410156 257.679688 C 30.148438 255.011719 28.953125 252.316406 27.824219 249.589844 C 26.691406 246.863281 25.632812 244.109375 24.636719 241.328125 C 23.644531 238.550781 22.71875 235.75 21.859375 232.921875 C 21.003906 230.097656 20.214844 227.253906 19.5 224.390625 C 18.78125 221.527344 18.136719 218.648438 17.558594 215.753906 C 16.984375 212.859375 16.480469 209.953125 16.046875 207.03125 C 15.613281 204.113281 15.253906 201.183594 14.964844 198.246094 C 14.675781 195.308594 14.457031 192.367188 14.3125 189.417969 C 14.167969 186.46875 14.097656 183.519531 14.097656 180.566406 C 14.097656 177.617188 14.167969 174.667969 14.3125 171.71875 C 14.457031 168.769531 14.675781 165.828125 14.964844 162.890625 C 15.253906 159.953125 15.617188 157.023438 16.050781 154.105469 C 16.484375 151.183594 16.988281 148.277344 17.5625 145.382812 C 18.140625 142.488281 18.785156 139.609375 19.503906 136.746094 C 20.21875 133.882812 21.007812 131.039062 21.863281 128.214844 C 22.722656 125.390625 23.648438 122.585938 24.640625 119.808594 C 25.636719 117.027344 26.699219 114.277344 27.828125 111.550781 C 28.957031 108.824219 30.152344 106.125 31.414062 103.457031 C 32.679688 100.789062 34.003906 98.152344 35.394531 95.550781 C 36.789062 92.945312 38.242188 90.378906 39.761719 87.847656 C 41.277344 85.316406 42.855469 82.824219 44.496094 80.367188 C 46.136719 77.914062 47.835938 75.503906 49.59375 73.132812 C 51.351562 70.761719 53.167969 68.433594 55.039062 66.152344 C 56.914062 63.871094 58.839844 61.636719 60.824219 59.449219 C 62.804688 57.261719 64.839844 55.125 66.925781 53.039062 C 69.015625 50.953125 71.152344 48.917969 73.339844 46.9375 C 75.527344 44.953125 77.761719 43.027344 80.042969 41.152344 C 82.324219 39.28125 84.652344 37.464844 87.023438 35.707031 C 89.394531 33.949219 91.804688 32.25 94.257812 30.613281 C 96.714844 28.972656 99.207031 27.394531 101.738281 25.875 C 104.269531 24.359375 106.839844 22.90625 109.441406 21.511719 C 112.042969 20.121094 114.679688 18.796875 117.347656 17.535156 C 120.015625 16.273438 122.714844 15.078125 125.441406 13.945312 C 128.167969 12.816406 130.921875 11.757812 133.703125 10.761719 C 136.480469 9.765625 139.28125 8.84375 142.109375 7.984375 C 144.933594 7.128906 147.777344 6.34375 150.640625 5.625 C 153.503906 4.910156 156.382812 4.261719 159.277344 3.6875 C 162.171875 3.109375 165.078125 2.605469 168 2.171875 C 170.917969 1.742188 173.847656 1.378906 176.785156 1.089844 C 179.722656 0.800781 182.664062 0.585938 185.613281 0.441406 C 188.5625 0.296875 191.511719 0.222656 194.464844 0.222656 C 197.417969 0.214844 200.371094 0.277344 203.320312 0.414062 C 206.269531 0.550781 209.214844 0.757812 212.15625 1.039062 C 215.097656 1.320312 218.03125 1.675781 220.953125 2.101562 C 223.875 2.527344 226.785156 3.023438 229.683594 3.59375 C 232.582031 4.164062 235.464844 4.804688 238.332031 5.515625 C 241.199219 6.226562 244.046875 7.007812 246.875 7.859375 C 249.707031 8.710938 252.511719 9.632812 255.292969 10.621094 C 258.078125 11.613281 260.835938 12.671875 263.566406 13.796875 C 266.296875 14.921875 268.996094 16.117188 271.667969 17.375 C 274.339844 18.632812 276.980469 19.957031 279.585938 21.347656 C 282.195312 22.738281 284.765625 24.191406 287.300781 25.707031 C 289.835938 27.222656 292.332031 28.800781 294.789062 30.441406 C 297.246094 32.078125 299.664062 33.777344 302.035156 35.535156 C 304.410156 37.292969 306.738281 39.109375 309.023438 40.984375 C 311.308594 42.855469 313.542969 44.785156 315.734375 46.765625 C 317.921875 48.75 320.0625 50.785156 322.148438 52.875 C 324.238281 54.964844 326.273438 57.101562 328.257812 59.292969 C 330.242188 61.480469 332.167969 63.71875 334.042969 66.003906 C 335.914062 68.285156 337.730469 70.617188 339.488281 72.988281 C 341.246094 75.363281 342.945312 77.777344 344.585938 80.238281 C 346.222656 82.695312 347.800781 85.191406 349.316406 87.726562 C 350.835938 90.261719 352.285156 92.832031 353.675781 95.4375 C 355.066406 98.046875 356.390625 100.683594 357.648438 103.355469 C 358.90625 106.027344 360.101562 108.730469 361.226562 111.460938 C 362.351562 114.191406 363.410156 116.949219 364.402344 119.734375 C 365.390625 122.515625 366.3125 125.320312 367.164062 128.148438 C 368.015625 130.976562 368.796875 133.828125 369.507812 136.691406 C 370.21875 139.558594 370.859375 142.441406 371.429688 145.339844 C 372 148.238281 372.496094 151.152344 372.921875 154.074219 C 373.347656 156.996094 373.703125 159.929688 373.984375 162.871094 C 374.265625 165.808594 374.472656 168.757812 374.609375 171.707031 C 374.746094 174.65625 374.808594 177.609375 374.796875 180.5625 Z M 374.796875 180.5625 " fill-opacity="1" fill-rule="nonzero"/><path fill="#1c284e" d="M 132.074219 137.867188 C 114.042969 132.375 110.4375 118.625 116.273438 114 C 117.816406 112.667969 119.527344 111.609375 121.40625 110.816406 C 123.28125 110.023438 125.234375 109.539062 127.265625 109.363281 C 127.265625 109.363281 116.960938 101.808594 121.769531 93.394531 C 126.578125 84.980469 155.503906 88.757812 155.503906 88.757812 C 155.503906 88.757812 145.816406 85.847656 148.910156 79.660156 C 152.003906 73.46875 177.585938 80.34375 196.121094 81.03125 C 214.65625 81.714844 244.199219 94.082031 232.695312 124.988281 C 251.070312 133.058594 251.9375 154.867188 235.28125 173.414062 C 218.625 191.960938 221.183594 215.824219 201.617188 210.160156 " fill-opacity="1" fill-rule="nonzero"/><path fill="#1c284e" d="M 323.683594 306.367188 C 319.492188 310.671875 315.097656 314.757812 310.5 318.625 C 305.902344 322.492188 301.121094 326.121094 296.160156 329.511719 C 291.199219 332.898438 286.082031 336.035156 280.804688 338.910156 C 275.53125 341.789062 270.125 344.398438 264.589844 346.734375 C 259.054688 349.070312 253.417969 351.128906 247.675781 352.902344 C 241.9375 354.675781 236.121094 356.15625 230.230469 357.351562 C 224.34375 358.542969 218.410156 359.4375 212.429688 360.039062 C 206.453125 360.636719 200.457031 360.9375 194.449219 360.9375 C 186.003906 360.949219 177.605469 360.363281 169.246094 359.175781 C 165.6875 358.683594 162.164062 358.074219 158.664062 357.382812 C 153.535156 356.34375 148.460938 355.085938 143.441406 353.605469 C 138.417969 352.125 133.472656 350.429688 128.601562 348.515625 C 123.726562 346.605469 118.949219 344.484375 114.257812 342.15625 C 109.570312 339.828125 104.992188 337.300781 100.523438 334.574219 C 96.058594 331.847656 91.714844 328.933594 87.503906 325.828125 C 83.289062 322.722656 79.21875 319.441406 75.289062 315.980469 C 71.359375 312.523438 67.589844 308.898438 63.976562 305.109375 C 60.367188 301.324219 56.925781 297.386719 53.65625 293.296875 C 64.320312 277.519531 75.160156 262.980469 82.703125 256.332031 C 93.484375 246.847656 113.488281 243.410156 131.84375 240.460938 C 143 238.671875 153.523438 237.050781 161.007812 234.335938 C 161.355469 234.21875 161.703125 234.074219 162.019531 233.957031 C 164.886719 232.960938 167.410156 231.410156 169.59375 229.304688 L 208.007812 229.304688 C 209.574219 229.910156 211.1875 230.460938 212.863281 230.980469 L 212.894531 230.980469 C 220.148438 233.320312 228.210938 235.171875 236.625 237.050781 C 261.972656 242.773438 290.472656 248.929688 309.695312 270.753906 C 317.640625 279.800781 321.804688 292.605469 323.683594 306.367188 Z M 323.683594 306.367188 " fill-opacity="1" fill-rule="nonzero"/><path fill="#374880" d="M 249.398438 259.800781 L 217.113281 355.589844 L 179.332031 294.226562 C 179.652344 292.289062 191.355469 230.605469 191.355469 230.605469 L 199.277344 229.308594 L 208.003906 229.308594 C 209.570312 229.914062 211.183594 230.464844 212.863281 230.984375 L 212.890625 230.984375 C 220.144531 233.324219 228.207031 235.171875 236.621094 237.054688 Z M 249.398438 259.800781 " fill-opacity="1" fill-rule="nonzero"/><path fill="#374880" d="M 172.285156 229.304688 L 169.25 359.175781 L 123.730469 257.371094 L 131.855469 240.460938 C 143.011719 238.671875 153.53125 237.050781 161.019531 234.335938 C 161.367188 234.21875 161.714844 234.074219 162.03125 233.957031 C 164.894531 232.960938 167.421875 231.410156 169.605469 229.304688 Z M 172.285156 229.304688 " fill-opacity="1" fill-rule="nonzero"/><path fill="#ffffff" d="M 219.597656 359.175781 C 209.464844 360.597656 199.285156 361.160156 189.054688 360.859375 C 178.828125 360.558594 168.699219 359.402344 158.664062 357.382812 L 161.007812 234.335938 C 161.355469 234.21875 161.703125 234.074219 162.019531 233.960938 C 164.886719 232.964844 167.410156 231.414062 169.59375 229.308594 L 208.007812 229.308594 C 209.574219 229.914062 211.1875 230.464844 212.863281 230.984375 L 212.894531 230.984375 L 212.917969 231.1875 Z M 219.597656 359.175781 " fill-opacity="1" fill-rule="nonzero"/><path fill="#f9b4ac" d="M 183.953125 261.246094 C 169.9375 262.382812 163.265625 249.234375 162.152344 235.21875 L 162.023438 233.953125 L 158.121094 195.941406 L 208.875 191.914062 L 209.78125 200.679688 L 212.914062 231.191406 C 214.023438 245.199219 197.964844 260.132812 183.953125 261.246094 Z M 183.953125 261.246094 " fill-opacity="1" fill-rule="nonzero"/><path fill="#f58f8c" d="M 209.78125 200.675781 C 200.34375 216.394531 184.050781 232.996094 162.023438 233.953125 L 158.121094 195.941406 L 208.875 191.914062 Z M 209.78125 200.675781 " fill-opacity="1" fill-rule="nonzero"/><path fill="#f9b4ac" d="M 133.210938 119.050781 C 158.121094 134.523438 207.222656 138.613281 207.222656 138.613281 C 207.222656 138.613281 203.550781 168.695312 209.238281 169.9375 C 214.925781 171.179688 211.386719 149.507812 226.59375 149.507812 C 241.804688 149.507812 240.882812 188.984375 215.382812 181.765625 C 215.382812 181.765625 208.273438 218.332031 165.765625 216.019531 C 123.261719 213.707031 131.394531 152.414062 131.351562 148.566406 C 131.320312 145.242188 132.746094 125.777344 133.210938 119.050781 Z M 133.210938 119.050781 " fill-opacity="1" fill-rule="nonzero"/><path fill="#cddbf1" d="M 161.066406 224.621094 C 162.324219 236.871094 181.796875 256.265625 182.875 258.753906 C 183.953125 261.242188 178.585938 280.734375 172.265625 275.925781 C 165.949219 271.117188 155.652344 254.636719 155.484375 243.300781 C 155.410156 239.96875 155.847656 236.710938 156.800781 233.519531 C 157.753906 230.328125 159.175781 227.359375 161.066406 224.621094 Z M 161.066406 224.621094 " fill-opacity="1" fill-rule="nonzero"/><path fill="#cddbf1" d="M 212.167969 224.621094 C 210.496094 236.871094 184.628906 256.265625 183.199219 258.757812 C 181.769531 261.246094 188.894531 280.734375 197.292969 275.925781 C 205.691406 271.117188 219.367188 254.636719 219.597656 243.300781 C 219.601562 241.582031 219.441406 239.875 219.121094 238.183594 C 218.796875 236.492188 218.316406 234.847656 217.683594 233.246094 C 217.046875 231.648438 216.261719 230.121094 215.335938 228.671875 C 214.410156 227.222656 213.351562 225.871094 212.167969 224.621094 Z M 212.167969 224.621094 " fill-opacity="1" fill-rule="nonzero"/></svg>