<svg xmlns="http://www.w3.org/2000/svg" xmlns:xlink="http://www.w3.org/1999/xlink" width="500" zoomAndPan="magnify" viewBox="0 0 375 374.999991" height="500" preserveAspectRatio="xMidYMid meet" version="1.0"><defs><clipPath id="f32830bd50"><path d="M 187.5 152.34375 L 196.074219 152.34375 L 196.074219 156.09375 L 187.5 156.09375 Z M 187.5 152.34375 " clip-rule="nonzero"/></clipPath></defs><g clip-path="url(#f32830bd50)"><path fill="#135981" d="M 187.5 152.34375 L 196.070312 152.34375 L 196.070312 156.09375 L 187.5 156.09375 Z M 187.5 152.34375 " fill-opacity="1" fill-rule="nonzero"/></g><path fill="#ff9561" d="M 375.027344 187.515625 C 375.027344 190.582031 374.953125 193.648438 374.800781 196.714844 C 374.652344 199.78125 374.425781 202.839844 374.125 205.894531 C 373.824219 208.949219 373.449219 211.992188 373 215.027344 C 372.546875 218.0625 372.023438 221.085938 371.425781 224.097656 C 370.828125 227.105469 370.15625 230.101562 369.410156 233.078125 C 368.664062 236.054688 367.84375 239.011719 366.953125 241.945312 C 366.0625 244.882812 365.101562 247.796875 364.066406 250.6875 C 363.035156 253.574219 361.929688 256.4375 360.753906 259.273438 C 359.582031 262.109375 358.335938 264.914062 357.023438 267.6875 C 355.714844 270.460938 354.332031 273.203125 352.886719 275.90625 C 351.441406 278.613281 349.929688 281.285156 348.351562 283.914062 C 346.773438 286.546875 345.132812 289.140625 343.425781 291.691406 C 341.722656 294.242188 339.957031 296.75 338.128906 299.214844 C 336.300781 301.679688 334.410156 304.101562 332.464844 306.472656 C 330.519531 308.84375 328.515625 311.167969 326.453125 313.441406 C 324.390625 315.714844 322.277344 317.9375 320.105469 320.105469 C 317.9375 322.277344 315.714844 324.390625 313.441406 326.453125 C 311.167969 328.515625 308.84375 330.519531 306.472656 332.464844 C 304.101562 334.410156 301.679688 336.300781 299.214844 338.128906 C 296.75 339.957031 294.242188 341.722656 291.691406 343.425781 C 289.140625 345.132812 286.546875 346.773438 283.914062 348.351562 C 281.285156 349.929688 278.613281 351.441406 275.90625 352.886719 C 273.203125 354.332031 270.460938 355.714844 267.6875 357.023438 C 264.914062 358.335938 262.109375 359.582031 259.273438 360.753906 C 256.4375 361.929688 253.574219 363.035156 250.6875 364.066406 C 247.796875 365.101562 244.882812 366.0625 241.945312 366.953125 C 239.011719 367.84375 236.054688 368.664062 233.078125 369.410156 C 230.101562 370.15625 227.105469 370.828125 224.097656 371.425781 C 221.085938 372.023438 218.0625 372.546875 215.027344 373 C 211.992188 373.449219 208.949219 373.824219 205.894531 374.125 C 202.839844 374.425781 199.78125 374.652344 196.714844 374.800781 C 193.648438 374.953125 190.582031 375.027344 187.515625 375.027344 C 184.445312 375.027344 181.378906 374.953125 178.3125 374.800781 C 175.25 374.652344 172.1875 374.425781 169.132812 374.125 C 166.082031 373.824219 163.035156 373.449219 160 373 C 156.964844 372.546875 153.941406 372.023438 150.933594 371.425781 C 147.921875 370.828125 144.929688 370.15625 141.953125 369.410156 C 138.976562 368.664062 136.019531 367.84375 133.082031 366.953125 C 130.144531 366.0625 127.230469 365.101562 124.34375 364.066406 C 121.453125 363.035156 118.589844 361.929688 115.753906 360.753906 C 112.921875 359.582031 110.117188 358.335938 107.339844 357.023438 C 104.566406 355.714844 101.828125 354.332031 99.121094 352.886719 C 96.414062 351.441406 93.746094 349.929688 91.113281 348.351562 C 88.480469 346.773438 85.886719 345.132812 83.335938 343.425781 C 80.785156 341.722656 78.277344 339.957031 75.8125 338.128906 C 73.347656 336.300781 70.929688 334.410156 68.554688 332.464844 C 66.183594 330.519531 63.859375 328.515625 61.585938 326.453125 C 59.3125 324.390625 57.089844 322.277344 54.921875 320.105469 C 52.75 317.9375 50.636719 315.714844 48.574219 313.441406 C 46.515625 311.167969 44.511719 308.84375 42.5625 306.472656 C 40.617188 304.101562 38.730469 301.679688 36.902344 299.214844 C 35.074219 296.75 33.308594 294.242188 31.601562 291.691406 C 29.898438 289.140625 28.253906 286.546875 26.679688 283.914062 C 25.101562 281.285156 23.589844 278.613281 22.140625 275.90625 C 20.695312 273.203125 19.316406 270.460938 18.003906 267.6875 C 16.691406 264.914062 15.449219 262.109375 14.273438 259.273438 C 13.097656 256.4375 11.996094 253.574219 10.960938 250.6875 C 9.925781 247.796875 8.964844 244.882812 8.074219 241.945312 C 7.183594 239.011719 6.363281 236.054688 5.621094 233.078125 C 4.875 230.101562 4.203125 227.105469 3.601562 224.097656 C 3.003906 221.085938 2.480469 218.0625 2.03125 215.027344 C 1.578125 211.992188 1.203125 208.949219 0.902344 205.894531 C 0.601562 202.839844 0.375 199.78125 0.226562 196.714844 C 0.0742188 193.648438 0 190.582031 0 187.515625 C 0 184.445312 0.0742188 181.378906 0.226562 178.3125 C 0.375 175.25 0.601562 172.1875 0.902344 169.132812 C 1.203125 166.082031 1.578125 163.035156 2.03125 160 C 2.480469 156.964844 3.003906 153.941406 3.601562 150.933594 C 4.203125 147.921875 4.875 144.929688 5.621094 141.953125 C 6.363281 138.976562 7.183594 136.019531 8.074219 133.082031 C 8.964844 130.144531 9.925781 127.230469 10.960938 124.34375 C 11.996094 121.453125 13.097656 118.589844 14.273438 115.753906 C 15.449219 112.921875 16.691406 110.117188 18.003906 107.339844 C 19.316406 104.566406 20.695312 101.828125 22.140625 99.121094 C 23.589844 96.414062 25.101562 93.746094 26.679688 91.113281 C 28.253906 88.480469 29.898438 85.886719 31.601562 83.335938 C 33.308594 80.785156 35.074219 78.277344 36.902344 75.8125 C 38.730469 73.347656 40.617188 70.929688 42.5625 68.554688 C 44.511719 66.183594 46.515625 63.859375 48.574219 61.585938 C 50.636719 59.3125 52.75 57.089844 54.921875 54.921875 C 57.089844 52.75 59.3125 50.636719 61.585938 48.574219 C 63.859375 46.515625 66.183594 44.511719 68.554688 42.5625 C 70.929688 40.617188 73.347656 38.730469 75.8125 36.902344 C 78.277344 35.074219 80.785156 33.308594 83.335938 31.601562 C 85.886719 29.898438 88.480469 28.253906 91.113281 26.679688 C 93.746094 25.101562 96.414062 23.589844 99.121094 22.140625 C 101.828125 20.695312 104.566406 19.316406 107.339844 18.003906 C 110.117188 16.691406 112.921875 15.449219 115.753906 14.273438 C 118.589844 13.097656 121.453125 11.996094 124.34375 10.960938 C 127.230469 9.925781 130.144531 8.964844 133.082031 8.074219 C 136.019531 7.183594 138.976562 6.363281 141.953125 5.621094 C 144.929688 4.875 147.921875 4.203125 150.933594 3.601562 C 153.941406 3.003906 156.964844 2.480469 160 2.03125 C 163.035156 1.578125 166.082031 1.203125 169.132812 0.902344 C 172.1875 0.601562 175.25 0.375 178.3125 0.226562 C 181.378906 0.0742188 184.445312 0 187.515625 0 C 190.582031 0 193.648438 0.0742188 196.714844 0.226562 C 199.78125 0.375 202.839844 0.601562 205.894531 0.902344 C 208.949219 1.203125 211.992188 1.578125 215.027344 2.03125 C 218.0625 2.480469 221.085938 3.003906 224.097656 3.601562 C 227.105469 4.203125 230.101562 4.875 233.078125 5.621094 C 236.054688 6.363281 239.011719 7.183594 241.945312 8.074219 C 244.882812 8.964844 247.796875 9.925781 250.6875 10.960938 C 253.574219 11.996094 256.4375 13.097656 259.273438 14.273438 C 262.109375 15.449219 264.914062 16.691406 267.6875 18.003906 C 270.460938 19.316406 273.203125 20.695312 275.90625 22.140625 C 278.613281 23.589844 281.285156 25.101562 283.914062 26.679688 C 286.546875 28.253906 289.140625 29.898438 291.691406 31.601562 C 294.242188 33.308594 296.75 35.074219 299.214844 36.902344 C 301.679688 38.730469 304.101562 40.617188 306.472656 42.5625 C 308.84375 44.511719 311.167969 46.515625 313.441406 48.574219 C 315.714844 50.636719 317.9375 52.75 320.105469 54.921875 C 322.277344 57.089844 324.390625 59.3125 326.453125 61.585938 C 328.515625 63.859375 330.519531 66.183594 332.464844 68.554688 C 334.410156 70.929688 336.300781 73.347656 338.128906 75.8125 C 339.957031 78.277344 341.722656 80.785156 343.425781 83.335938 C 345.132812 85.886719 346.773438 88.480469 348.351562 91.113281 C 349.929688 93.746094 351.441406 96.414062 352.886719 99.121094 C 354.332031 101.828125 355.714844 104.566406 357.023438 107.339844 C 358.335938 110.117188 359.582031 112.921875 360.753906 115.753906 C 361.929688 118.589844 363.035156 121.453125 364.066406 124.34375 C 365.101562 127.230469 366.0625 130.144531 366.953125 133.082031 C 367.84375 136.019531 368.664062 138.976562 369.410156 141.953125 C 370.15625 144.929688 370.828125 147.921875 371.425781 150.933594 C 372.023438 153.941406 372.546875 156.964844 373 160 C 373.449219 163.035156 373.824219 166.082031 374.125 169.132812 C 374.425781 172.1875 374.652344 175.25 374.800781 178.3125 C 374.953125 181.378906 375.027344 184.445312 375.027344 187.515625 Z M 375.027344 187.515625 " fill-opacity="1" fill-rule="nonzero"/><path fill="#002c5c" d="M 235.484375 82.4375 C 225.972656 45.914062 117.464844 31.453125 103.023438 118.476562 C 88.582031 205.5 37.496094 278.078125 152.695312 295.691406 C 267.894531 313.308594 292.558594 270.679688 285.511719 214.664062 C 278.464844 158.648438 265.429688 79.148438 235.484375 82.4375 Z M 235.484375 82.4375 " fill-opacity="1" fill-rule="nonzero"/><path fill="#135981" d="M 322.136719 318.160156 C 319.957031 320.40625 317.722656 322.59375 315.433594 324.726562 C 313.144531 326.859375 310.804688 328.933594 308.414062 330.949219 C 306.019531 332.964844 303.578125 334.921875 301.089844 336.816406 C 298.597656 338.707031 296.0625 340.539062 293.480469 342.304688 C 290.898438 344.074219 288.273438 345.773438 285.605469 347.410156 C 282.941406 349.046875 280.234375 350.613281 277.488281 352.113281 C 274.742188 353.613281 271.960938 355.042969 269.144531 356.40625 C 266.328125 357.765625 263.480469 359.058594 260.597656 360.277344 C 257.714844 361.492188 254.804688 362.640625 251.867188 363.714844 C 248.929688 364.785156 245.964844 365.785156 242.976562 366.710938 C 239.988281 367.632812 236.976562 368.484375 233.945312 369.257812 C 230.914062 370.03125 227.867188 370.730469 224.800781 371.351562 C 221.734375 371.972656 218.652344 372.519531 215.558594 372.984375 C 212.464844 373.453125 209.363281 373.84375 206.25 374.15625 C 203.136719 374.46875 200.019531 374.703125 196.894531 374.859375 C 193.769531 375.015625 190.644531 375.09375 187.515625 375.09375 C 184.386719 375.09375 181.257812 375.015625 178.132812 374.859375 C 175.007812 374.703125 171.890625 374.46875 168.777344 374.15625 C 165.664062 373.84375 162.5625 373.453125 159.46875 372.984375 C 156.375 372.519531 153.296875 371.972656 150.230469 371.351562 C 147.164062 370.730469 144.113281 370.03125 141.082031 369.257812 C 138.050781 368.484375 135.042969 367.632812 132.054688 366.710938 C 129.0625 365.785156 126.101562 364.785156 123.160156 363.714844 C 120.222656 362.640625 117.3125 361.492188 114.429688 360.277344 C 111.550781 359.058594 108.699219 357.765625 105.882812 356.40625 C 103.066406 355.042969 100.285156 353.613281 97.539062 352.113281 C 94.792969 350.613281 92.089844 349.046875 89.421875 347.410156 C 86.753906 345.773438 84.128906 344.074219 81.546875 342.304688 C 78.964844 340.539062 76.429688 338.707031 73.941406 336.816406 C 71.449219 334.921875 69.007812 332.964844 66.617188 330.949219 C 64.222656 328.933594 61.882812 326.859375 59.59375 324.726562 C 57.304688 322.59375 55.070312 320.40625 52.890625 318.160156 C 54.28125 314.875 55.789062 311.644531 57.414062 308.46875 C 59.035156 305.292969 60.777344 302.179688 62.628906 299.132812 C 64.480469 296.085938 66.441406 293.109375 68.515625 290.203125 C 70.585938 287.300781 72.757812 284.476562 75.035156 281.730469 C 77.3125 278.984375 79.6875 276.328125 82.160156 273.753906 C 84.632812 271.183594 87.195312 268.707031 89.847656 266.324219 C 92.503906 263.9375 95.238281 261.65625 98.0625 259.472656 C 100.882812 257.289062 103.777344 255.210938 106.75 253.242188 C 109.722656 251.269531 112.765625 249.410156 115.875 247.660156 C 118.984375 245.914062 122.152344 244.28125 125.378906 242.765625 C 128.609375 241.246094 131.886719 239.851562 135.21875 238.574219 C 138.550781 237.296875 141.921875 236.144531 145.339844 235.117188 C 148.753906 234.085938 152.203125 233.183594 155.683594 232.40625 C 159.164062 231.628906 162.667969 230.980469 166.199219 230.460938 C 169.726562 229.941406 173.269531 229.550781 176.828125 229.289062 C 180.386719 229.027344 183.949219 228.898438 187.515625 228.898438 C 191.082031 228.898438 194.644531 229.027344 198.199219 229.289062 C 201.757812 229.550781 205.300781 229.941406 208.832031 230.460938 C 212.359375 230.980469 215.863281 231.628906 219.34375 232.40625 C 222.828125 233.183594 226.273438 234.085938 229.691406 235.117188 C 233.105469 236.144531 236.476562 237.296875 239.808594 238.574219 C 243.140625 239.851562 246.417969 241.246094 249.648438 242.765625 C 252.875 244.28125 256.046875 245.914062 259.15625 247.660156 C 262.261719 249.410156 265.304688 251.269531 268.277344 253.242188 C 271.25 255.210938 274.148438 257.289062 276.96875 259.472656 C 279.789062 261.65625 282.527344 263.9375 285.179688 266.324219 C 287.832031 268.707031 290.394531 271.183594 292.867188 273.753906 C 295.339844 276.328125 297.714844 278.984375 299.992188 281.730469 C 302.269531 284.476562 304.445312 287.300781 306.515625 290.203125 C 308.585938 293.109375 310.546875 296.085938 312.398438 299.132812 C 314.253906 302.179688 315.992188 305.292969 317.617188 308.46875 C 319.242188 311.644531 320.746094 314.875 322.136719 318.160156 Z M 322.136719 318.160156 " fill-opacity="1" fill-rule="nonzero"/><path fill="#ff9561" d="M 187.441406 187.515625 C 188.304688 187.515625 189.167969 187.558594 190.027344 187.640625 C 190.890625 187.726562 191.742188 187.851562 192.589844 188.023438 C 193.441406 188.191406 194.277344 188.398438 195.105469 188.652344 C 195.933594 188.902344 196.746094 189.191406 197.542969 189.523438 C 198.34375 189.855469 199.125 190.222656 199.886719 190.632812 C 200.648438 191.039062 201.390625 191.484375 202.109375 191.964844 C 202.828125 192.445312 203.523438 192.957031 204.191406 193.507812 C 204.859375 194.054688 205.5 194.636719 206.109375 195.246094 C 206.722656 195.859375 207.300781 196.5 207.851562 197.167969 C 208.398438 197.835938 208.914062 198.53125 209.394531 199.25 C 209.875 199.96875 210.320312 200.707031 210.726562 201.472656 C 211.132812 202.234375 211.503906 203.015625 211.835938 203.8125 C 212.164062 204.613281 212.457031 205.425781 212.707031 206.253906 C 212.957031 207.082031 213.167969 207.917969 213.335938 208.765625 C 213.503906 209.613281 213.632812 210.46875 213.714844 211.328125 C 213.800781 212.191406 213.84375 213.050781 213.84375 213.917969 L 213.84375 237.207031 C 213.84375 238.070312 213.800781 238.933594 213.71875 239.792969 C 213.632812 240.65625 213.503906 241.507812 213.335938 242.355469 C 213.167969 243.203125 212.957031 244.042969 212.707031 244.871094 C 212.457031 245.699219 212.164062 246.511719 211.835938 247.308594 C 211.503906 248.109375 211.132812 248.890625 210.726562 249.652344 C 210.320312 250.414062 209.875 251.15625 209.394531 251.875 C 208.914062 252.59375 208.398438 253.289062 207.851562 253.957031 C 207.300781 254.625 206.722656 255.265625 206.109375 255.875 C 205.5 256.488281 204.859375 257.066406 204.191406 257.617188 C 203.523438 258.164062 202.828125 258.679688 202.109375 259.160156 C 201.390625 259.640625 200.648438 260.082031 199.886719 260.492188 C 199.125 260.898438 198.34375 261.269531 197.542969 261.597656 C 196.746094 261.929688 195.933594 262.222656 195.105469 262.472656 C 194.277344 262.722656 193.441406 262.933594 192.589844 263.101562 C 191.742188 263.269531 190.890625 263.398438 190.027344 263.480469 C 189.167969 263.566406 188.304688 263.609375 187.441406 263.609375 C 186.574219 263.609375 185.714844 263.566406 184.851562 263.480469 C 183.992188 263.398438 183.136719 263.269531 182.289062 263.101562 C 181.441406 262.933594 180.605469 262.722656 179.777344 262.472656 C 178.949219 262.222656 178.136719 261.929688 177.335938 261.597656 C 176.539062 261.269531 175.757812 260.898438 174.996094 260.492188 C 174.230469 260.082031 173.492188 259.640625 172.773438 259.160156 C 172.054688 258.679688 171.359375 258.164062 170.691406 257.617188 C 170.023438 257.066406 169.382812 256.488281 168.769531 255.875 C 168.160156 255.265625 167.578125 254.625 167.03125 253.957031 C 166.480469 253.289062 165.96875 252.59375 165.488281 251.875 C 165.007812 251.15625 164.5625 250.414062 164.15625 249.652344 C 163.746094 248.890625 163.378906 248.109375 163.046875 247.308594 C 162.714844 246.511719 162.425781 245.699219 162.175781 244.871094 C 161.921875 244.042969 161.714844 243.203125 161.542969 242.355469 C 161.375 241.507812 161.25 240.65625 161.164062 239.792969 C 161.078125 238.933594 161.039062 238.070312 161.039062 237.207031 L 161.039062 213.917969 C 161.039062 213.050781 161.078125 212.191406 161.164062 211.328125 C 161.25 210.46875 161.375 209.613281 161.542969 208.765625 C 161.714844 207.917969 161.921875 207.082031 162.175781 206.253906 C 162.425781 205.425781 162.714844 204.613281 163.046875 203.8125 C 163.378906 203.015625 163.746094 202.234375 164.15625 201.472656 C 164.5625 200.707031 165.007812 199.96875 165.488281 199.25 C 165.96875 198.53125 166.480469 197.835938 167.03125 197.167969 C 167.578125 196.5 168.160156 195.859375 168.769531 195.246094 C 169.382812 194.636719 170.023438 194.054688 170.691406 193.507812 C 171.359375 192.957031 172.054688 192.445312 172.773438 191.964844 C 173.492188 191.484375 174.230469 191.039062 174.996094 190.632812 C 175.757812 190.222656 176.539062 189.855469 177.335938 189.523438 C 178.136719 189.191406 178.949219 188.902344 179.777344 188.652344 C 180.605469 188.398438 181.441406 188.191406 182.289062 188.023438 C 183.136719 187.851562 183.992188 187.726562 184.851562 187.640625 C 185.714844 187.558594 186.574219 187.515625 187.441406 187.515625 Z M 187.441406 187.515625 " fill-opacity="1" fill-rule="nonzero"/><path fill="#ff9561" d="M 139.316406 170.890625 C 139.316406 171.4375 139.289062 171.980469 139.234375 172.523438 C 139.183594 173.066406 139.101562 173.605469 138.996094 174.140625 C 138.890625 174.671875 138.757812 175.203125 138.597656 175.722656 C 138.441406 176.246094 138.257812 176.757812 138.046875 177.261719 C 137.839844 177.765625 137.605469 178.257812 137.351562 178.738281 C 137.09375 179.21875 136.8125 179.6875 136.507812 180.140625 C 136.207031 180.59375 135.882812 181.03125 135.535156 181.453125 C 135.191406 181.875 134.824219 182.277344 134.4375 182.664062 C 134.054688 183.050781 133.648438 183.414062 133.226562 183.761719 C 132.808594 184.105469 132.371094 184.433594 131.914062 184.734375 C 131.460938 185.039062 130.996094 185.316406 130.515625 185.574219 C 130.035156 185.832031 129.542969 186.066406 129.039062 186.273438 C 128.535156 186.480469 128.019531 186.664062 127.5 186.824219 C 126.976562 186.980469 126.449219 187.113281 125.914062 187.222656 C 125.378906 187.328125 124.839844 187.40625 124.296875 187.460938 C 123.753906 187.515625 123.210938 187.539062 122.664062 187.539062 C 122.121094 187.539062 121.574219 187.515625 121.035156 187.460938 C 120.492188 187.40625 119.953125 187.328125 119.417969 187.222656 C 118.882812 187.113281 118.355469 186.980469 117.832031 186.824219 C 117.308594 186.664062 116.796875 186.480469 116.292969 186.273438 C 115.789062 186.066406 115.296875 185.832031 114.816406 185.574219 C 114.335938 185.316406 113.867188 185.039062 113.414062 184.734375 C 112.960938 184.433594 112.523438 184.105469 112.101562 183.761719 C 111.679688 183.414062 111.277344 183.050781 110.890625 182.664062 C 110.507812 182.277344 110.140625 181.875 109.792969 181.453125 C 109.449219 181.03125 109.125 180.59375 108.820312 180.140625 C 108.519531 179.6875 108.238281 179.21875 107.980469 178.738281 C 107.722656 178.257812 107.492188 177.765625 107.28125 177.261719 C 107.074219 176.757812 106.890625 176.246094 106.730469 175.722656 C 106.574219 175.203125 106.441406 174.671875 106.335938 174.140625 C 106.230469 173.605469 106.148438 173.066406 106.09375 172.523438 C 106.042969 171.980469 106.015625 171.4375 106.015625 170.890625 C 106.015625 170.34375 106.042969 169.800781 106.09375 169.257812 C 106.148438 168.714844 106.230469 168.175781 106.335938 167.640625 C 106.441406 167.105469 106.574219 166.578125 106.730469 166.058594 C 106.890625 165.535156 107.074219 165.023438 107.28125 164.519531 C 107.492188 164.015625 107.722656 163.523438 107.980469 163.042969 C 108.238281 162.5625 108.519531 162.09375 108.820312 161.640625 C 109.125 161.1875 109.449219 160.75 109.792969 160.328125 C 110.140625 159.90625 110.507812 159.503906 110.890625 159.117188 C 111.277344 158.730469 111.679688 158.367188 112.101562 158.019531 C 112.523438 157.671875 112.960938 157.347656 113.414062 157.046875 C 113.867188 156.742188 114.335938 156.464844 114.816406 156.207031 C 115.296875 155.949219 115.789062 155.714844 116.292969 155.507812 C 116.796875 155.300781 117.308594 155.117188 117.832031 154.957031 C 118.355469 154.796875 118.882812 154.667969 119.417969 154.558594 C 119.953125 154.453125 120.492188 154.375 121.035156 154.320312 C 121.574219 154.265625 122.121094 154.238281 122.664062 154.238281 C 123.210938 154.238281 123.753906 154.265625 124.296875 154.320312 C 124.839844 154.375 125.378906 154.453125 125.914062 154.558594 C 126.449219 154.667969 126.976562 154.796875 127.5 154.957031 C 128.019531 155.117188 128.535156 155.300781 129.039062 155.507812 C 129.542969 155.714844 130.035156 155.949219 130.515625 156.207031 C 130.996094 156.464844 131.460938 156.742188 131.914062 157.046875 C 132.371094 157.347656 132.808594 157.671875 133.226562 158.019531 C 133.648438 158.367188 134.054688 158.730469 134.4375 159.117188 C 134.824219 159.503906 135.191406 159.90625 135.535156 160.328125 C 135.882812 160.75 136.207031 161.1875 136.507812 161.640625 C 136.8125 162.09375 137.09375 162.5625 137.351562 163.042969 C 137.605469 163.523438 137.839844 164.015625 138.046875 164.519531 C 138.257812 165.023438 138.441406 165.535156 138.597656 166.058594 C 138.757812 166.578125 138.890625 167.105469 138.996094 167.640625 C 139.101562 168.175781 139.183594 168.714844 139.234375 169.257812 C 139.289062 169.800781 139.316406 170.34375 139.316406 170.890625 Z M 139.316406 170.890625 " fill-opacity="1" fill-rule="nonzero"/><path fill="#ff9561" d="M 267.316406 170.890625 C 267.316406 171.4375 267.289062 171.980469 267.234375 172.523438 C 267.183594 173.066406 267.101562 173.605469 266.996094 174.140625 C 266.890625 174.671875 266.757812 175.203125 266.597656 175.722656 C 266.441406 176.246094 266.257812 176.757812 266.046875 177.261719 C 265.839844 177.765625 265.605469 178.257812 265.351562 178.738281 C 265.09375 179.21875 264.8125 179.6875 264.511719 180.140625 C 264.207031 180.59375 263.882812 181.03125 263.535156 181.453125 C 263.191406 181.875 262.824219 182.277344 262.4375 182.664062 C 262.054688 183.050781 261.648438 183.414062 261.230469 183.761719 C 260.808594 184.105469 260.371094 184.433594 259.917969 184.734375 C 259.460938 185.039062 258.996094 185.316406 258.515625 185.574219 C 258.035156 185.832031 257.542969 186.066406 257.039062 186.273438 C 256.535156 186.480469 256.019531 186.664062 255.5 186.824219 C 254.976562 186.980469 254.449219 187.113281 253.914062 187.222656 C 253.378906 187.328125 252.839844 187.40625 252.296875 187.460938 C 251.753906 187.515625 251.210938 187.539062 250.664062 187.539062 C 250.121094 187.539062 249.578125 187.515625 249.035156 187.460938 C 248.492188 187.40625 247.953125 187.328125 247.417969 187.222656 C 246.882812 187.113281 246.355469 186.980469 245.832031 186.824219 C 245.3125 186.664062 244.796875 186.480469 244.292969 186.273438 C 243.789062 186.066406 243.296875 185.832031 242.816406 185.574219 C 242.335938 185.316406 241.867188 185.039062 241.414062 184.734375 C 240.960938 184.433594 240.523438 184.105469 240.101562 183.761719 C 239.679688 183.414062 239.277344 183.050781 238.890625 182.664062 C 238.507812 182.277344 238.140625 181.875 237.796875 181.453125 C 237.449219 181.03125 237.125 180.59375 236.820312 180.140625 C 236.519531 179.6875 236.238281 179.21875 235.980469 178.738281 C 235.722656 178.257812 235.492188 177.765625 235.28125 177.261719 C 235.074219 176.757812 234.890625 176.246094 234.734375 175.722656 C 234.574219 175.203125 234.441406 174.671875 234.335938 174.140625 C 234.230469 173.605469 234.148438 173.066406 234.09375 172.523438 C 234.042969 171.980469 234.015625 171.4375 234.015625 170.890625 C 234.015625 170.34375 234.042969 169.800781 234.09375 169.257812 C 234.148438 168.714844 234.230469 168.175781 234.335938 167.640625 C 234.441406 167.105469 234.574219 166.578125 234.734375 166.058594 C 234.890625 165.535156 235.074219 165.023438 235.28125 164.519531 C 235.492188 164.015625 235.722656 163.523438 235.980469 163.042969 C 236.238281 162.5625 236.519531 162.09375 236.820312 161.640625 C 237.125 161.1875 237.449219 160.75 237.796875 160.328125 C 238.140625 159.90625 238.507812 159.503906 238.890625 159.117188 C 239.277344 158.730469 239.679688 158.367188 240.101562 158.019531 C 240.523438 157.671875 240.960938 157.347656 241.414062 157.046875 C 241.867188 156.742188 242.335938 156.464844 242.816406 156.207031 C 243.296875 155.949219 243.789062 155.714844 244.292969 155.507812 C 244.796875 155.300781 245.3125 155.117188 245.832031 154.957031 C 246.355469 154.796875 246.882812 154.667969 247.417969 154.558594 C 247.953125 154.453125 248.492188 154.375 249.035156 154.320312 C 249.578125 154.265625 250.121094 154.238281 250.664062 154.238281 C 251.210938 154.238281 251.753906 154.265625 252.296875 154.320312 C 252.839844 154.375 253.378906 154.453125 253.914062 154.558594 C 254.449219 154.667969 254.976562 154.796875 255.5 154.957031 C 256.019531 155.117188 256.535156 155.300781 257.039062 155.507812 C 257.542969 155.714844 258.035156 155.949219 258.515625 156.207031 C 258.996094 156.464844 259.460938 156.742188 259.917969 157.046875 C 260.371094 157.347656 260.808594 157.671875 261.230469 158.019531 C 261.648438 158.367188 262.054688 158.730469 262.4375 159.117188 C 262.824219 159.503906 263.191406 159.90625 263.535156 160.328125 C 263.882812 160.75 264.207031 161.1875 264.511719 161.640625 C 264.8125 162.09375 265.09375 162.5625 265.351562 163.042969 C 265.605469 163.523438 265.839844 164.015625 266.046875 164.519531 C 266.257812 165.023438 266.441406 165.535156 266.597656 166.058594 C 266.757812 166.578125 266.890625 167.105469 266.996094 167.640625 C 267.101562 168.175781 267.183594 168.714844 267.234375 169.257812 C 267.289062 169.800781 267.316406 170.34375 267.316406 170.890625 Z M 267.316406 170.890625 " fill-opacity="1" fill-rule="nonzero"/><path fill="#ffc9ac" d="M 187.511719 82.4375 C 188.574219 82.4375 189.636719 82.460938 190.695312 82.515625 C 191.753906 82.566406 192.8125 82.644531 193.871094 82.75 C 194.925781 82.851562 195.980469 82.984375 197.027344 83.136719 C 198.078125 83.292969 199.125 83.476562 200.164062 83.683594 C 201.207031 83.890625 202.242188 84.121094 203.269531 84.378906 C 204.300781 84.636719 205.320312 84.921875 206.335938 85.230469 C 207.351562 85.539062 208.359375 85.871094 209.359375 86.226562 C 210.359375 86.585938 211.347656 86.96875 212.328125 87.371094 C 213.308594 87.777344 214.28125 88.210938 215.238281 88.664062 C 216.199219 89.117188 217.144531 89.59375 218.082031 90.09375 C 219.019531 90.59375 219.941406 91.117188 220.851562 91.664062 C 221.761719 92.207031 222.660156 92.777344 223.539062 93.367188 C 224.421875 93.957031 225.289062 94.566406 226.144531 95.199219 C 226.996094 95.832031 227.832031 96.484375 228.652344 97.15625 C 229.472656 97.828125 230.277344 98.523438 231.0625 99.234375 C 231.847656 99.949219 232.617188 100.679688 233.367188 101.429688 C 234.117188 102.179688 234.851562 102.949219 235.5625 103.734375 C 236.273438 104.523438 236.96875 105.324219 237.640625 106.144531 C 238.316406 106.964844 238.96875 107.800781 239.597656 108.65625 C 240.230469 109.507812 240.84375 110.375 241.433594 111.257812 C 242.023438 112.140625 242.589844 113.035156 243.136719 113.945312 C 243.679688 114.855469 244.203125 115.78125 244.703125 116.714844 C 245.203125 117.652344 245.679688 118.601562 246.136719 119.558594 C 246.589844 120.519531 247.019531 121.488281 247.425781 122.46875 C 247.832031 123.449219 248.210938 124.4375 248.570312 125.4375 C 248.929688 126.4375 249.261719 127.445312 249.570312 128.460938 C 249.875 129.476562 250.160156 130.5 250.417969 131.527344 C 250.675781 132.558594 250.90625 133.59375 251.113281 134.632812 C 251.320312 135.675781 251.503906 136.71875 251.660156 137.769531 C 251.816406 138.820312 251.945312 139.871094 252.046875 140.929688 C 252.152344 141.984375 252.230469 143.042969 252.28125 144.105469 C 252.335938 145.164062 252.359375 146.222656 252.359375 147.285156 L 252.359375 164.046875 C 252.359375 165.109375 252.335938 166.171875 252.28125 167.230469 C 252.230469 168.289062 252.152344 169.347656 252.046875 170.40625 C 251.945312 171.460938 251.816406 172.515625 251.660156 173.5625 C 251.503906 174.613281 251.320312 175.660156 251.113281 176.699219 C 250.90625 177.742188 250.675781 178.777344 250.417969 179.804688 C 250.160156 180.835938 249.875 181.855469 249.570312 182.871094 C 249.261719 183.886719 248.929688 184.894531 248.570312 185.894531 C 248.210938 186.894531 247.832031 187.882812 247.425781 188.863281 C 247.019531 189.84375 246.589844 190.816406 246.136719 191.773438 C 245.679688 192.734375 245.203125 193.683594 244.703125 194.617188 C 244.203125 195.554688 243.679688 196.476562 243.136719 197.386719 C 242.589844 198.296875 242.023438 199.195312 241.433594 200.078125 C 240.84375 200.957031 240.230469 201.824219 239.597656 202.679688 C 238.96875 203.53125 238.316406 204.367188 237.640625 205.1875 C 236.96875 206.007812 236.273438 206.8125 235.5625 207.597656 C 234.851562 208.382812 234.117188 209.152344 233.367188 209.902344 C 232.617188 210.652344 231.847656 211.386719 231.0625 212.097656 C 230.277344 212.8125 229.472656 213.503906 228.652344 214.175781 C 227.832031 214.851562 226.996094 215.503906 226.144531 216.136719 C 225.289062 216.765625 224.421875 217.378906 223.539062 217.96875 C 222.660156 218.558594 221.761719 219.125 220.851562 219.671875 C 219.941406 220.214844 219.019531 220.738281 218.082031 221.238281 C 217.144531 221.738281 216.199219 222.21875 215.238281 222.671875 C 214.28125 223.125 213.308594 223.554688 212.328125 223.960938 C 211.347656 224.367188 210.359375 224.75 209.359375 225.105469 C 208.359375 225.464844 207.351562 225.796875 206.335938 226.105469 C 205.320312 226.414062 204.300781 226.695312 203.269531 226.953125 C 202.242188 227.210938 201.207031 227.445312 200.164062 227.652344 C 199.125 227.859375 198.078125 228.039062 197.027344 228.195312 C 195.980469 228.351562 194.925781 228.480469 193.871094 228.585938 C 192.8125 228.6875 191.753906 228.765625 190.695312 228.820312 C 189.636719 228.871094 188.574219 228.898438 187.511719 228.898438 C 186.453125 228.898438 185.390625 228.871094 184.332031 228.820312 C 183.269531 228.765625 182.214844 228.6875 181.15625 228.585938 C 180.101562 228.480469 179.046875 228.351562 178 228.195312 C 176.949219 228.039062 175.902344 227.859375 174.863281 227.652344 C 173.820312 227.445312 172.785156 227.210938 171.757812 226.953125 C 170.726562 226.695312 169.703125 226.414062 168.6875 226.105469 C 167.671875 225.796875 166.664062 225.464844 165.667969 225.105469 C 164.667969 224.75 163.675781 224.367188 162.695312 223.960938 C 161.714844 223.554688 160.746094 223.125 159.789062 222.671875 C 158.828125 222.21875 157.878906 221.738281 156.945312 221.238281 C 156.007812 220.738281 155.085938 220.214844 154.175781 219.671875 C 153.265625 219.125 152.367188 218.558594 151.484375 217.96875 C 150.601562 217.378906 149.734375 216.765625 148.882812 216.136719 C 148.03125 215.503906 147.195312 214.851562 146.375 214.175781 C 145.554688 213.503906 144.75 212.8125 143.964844 212.097656 C 143.179688 211.386719 142.410156 210.652344 141.660156 209.902344 C 140.910156 209.152344 140.175781 208.382812 139.464844 207.597656 C 138.75 206.8125 138.058594 206.007812 137.386719 205.1875 C 136.710938 204.367188 136.058594 203.53125 135.425781 202.679688 C 134.792969 201.824219 134.183594 200.957031 133.59375 200.078125 C 133.003906 199.195312 132.4375 198.296875 131.890625 197.386719 C 131.347656 196.476562 130.824219 195.554688 130.324219 194.617188 C 129.824219 193.683594 129.34375 192.734375 128.890625 191.773438 C 128.4375 190.816406 128.007812 189.84375 127.601562 188.863281 C 127.195312 187.882812 126.8125 186.894531 126.457031 185.894531 C 126.097656 184.894531 125.765625 183.886719 125.457031 182.871094 C 125.148438 181.855469 124.867188 180.835938 124.609375 179.804688 C 124.351562 178.777344 124.117188 177.742188 123.910156 176.699219 C 123.703125 175.660156 123.523438 174.613281 123.367188 173.5625 C 123.210938 172.515625 123.082031 171.460938 122.976562 170.40625 C 122.875 169.347656 122.796875 168.289062 122.742188 167.230469 C 122.691406 166.171875 122.664062 165.109375 122.664062 164.046875 L 122.664062 147.285156 C 122.664062 146.222656 122.691406 145.164062 122.742188 144.105469 C 122.796875 143.042969 122.875 141.984375 122.976562 140.929688 C 123.082031 139.871094 123.210938 138.820312 123.367188 137.769531 C 123.523438 136.71875 123.703125 135.675781 123.910156 134.632812 C 124.117188 133.59375 124.351562 132.558594 124.609375 131.527344 C 124.867188 130.5 125.148438 129.476562 125.457031 128.460938 C 125.765625 127.445312 126.097656 126.4375 126.457031 125.4375 C 126.8125 124.4375 127.195312 123.449219 127.601562 122.46875 C 128.007812 121.488281 128.4375 120.519531 128.890625 119.558594 C 129.34375 118.601562 129.824219 117.652344 130.324219 116.714844 C 130.824219 115.78125 131.347656 114.855469 131.890625 113.945312 C 132.4375 113.035156 133.003906 112.140625 133.59375 111.257812 C 134.183594 110.375 134.792969 109.507812 135.425781 108.65625 C 136.058594 107.800781 136.710938 106.964844 137.386719 106.144531 C 138.058594 105.324219 138.75 104.523438 139.464844 103.734375 C 140.175781 102.949219 140.910156 102.179688 141.660156 101.429688 C 142.410156 100.679688 143.179688 99.949219 143.964844 99.234375 C 144.75 98.523438 145.554688 97.828125 146.375 97.15625 C 147.195312 96.484375 148.03125 95.832031 148.882812 95.199219 C 149.734375 94.566406 150.601562 93.957031 151.484375 93.367188 C 152.367188 92.777344 153.265625 92.207031 154.175781 91.664062 C 155.085938 91.117188 156.007812 90.59375 156.945312 90.09375 C 157.878906 89.59375 158.828125 89.117188 159.789062 88.664062 C 160.746094 88.210938 161.714844 87.777344 162.695312 87.371094 C 163.675781 86.96875 164.667969 86.585938 165.667969 86.226562 C 166.664062 85.871094 167.671875 85.539062 168.6875 85.230469 C 169.703125 84.921875 170.726562 84.636719 171.757812 84.378906 C 172.785156 84.121094 173.820312 83.890625 174.863281 83.683594 C 175.902344 83.476562 176.949219 83.292969 178 83.136719 C 179.046875 82.984375 180.101562 82.851562 181.15625 82.75 C 182.214844 82.644531 183.269531 82.566406 184.332031 82.515625 C 185.390625 82.460938 186.453125 82.4375 187.511719 82.4375 Z M 187.511719 82.4375 " fill-opacity="1" fill-rule="nonzero"/><path fill="#002c5c" d="M 122.664062 154.238281 C 209.761719 155.125 234.015625 105.800781 234.015625 105.800781 C 234.015625 105.800781 238.132812 145.269531 252.359375 155.664062 C 259.804688 114.261719 237.949219 76.566406 181.230469 73.746094 C 124.515625 70.925781 109.195312 135.738281 122.664062 154.238281 Z M 122.664062 154.238281 " fill-opacity="1" fill-rule="nonzero"/></svg>