<svg xmlns="http://www.w3.org/2000/svg" xmlns:xlink="http://www.w3.org/1999/xlink" width="500" zoomAndPan="magnify" viewBox="0 0 375 374.999991" height="500" preserveAspectRatio="xMidYMid meet" version="1.0"><defs><clipPath id="2ed8de81d7"><path d="M 0 226 L 65 226 L 65 362.390625 L 0 362.390625 Z M 0 226 " clip-rule="nonzero"/></clipPath><clipPath id="2d400c5492"><path d="M 187.5 113.523438 L 196.074219 113.523438 L 196.074219 117.273438 L 187.5 117.273438 Z M 187.5 113.523438 " clip-rule="nonzero"/></clipPath></defs><path fill="#135981" d="M 229.175781 292.828125 C 225.929688 292.828125 222.25 292.394531 218.351562 291.53125 L 156 274.640625 C 150.371094 273.34375 152.75 264.898438 158.164062 266.414062 L 220.300781 283.085938 C 252.558594 291.097656 248.660156 255.804688 224.414062 250.175781 L 149.503906 229.609375 C 133.914062 225.0625 119.195312 220.949219 105.554688 229.609375 L 62.902344 256.023438 C 57.921875 259.054688 53.375 251.691406 58.355469 248.660156 L 101.007812 222.25 C 118.976562 210.992188 136.945312 217.050781 154.484375 222.03125 C 171.152344 226.796875 211.640625 238.269531 226.363281 241.734375 C 257.753906 249.09375 262.519531 292.828125 229.175781 292.828125 Z M 229.175781 292.828125 " fill-opacity="1" fill-rule="evenodd"/><path fill="#135981" d="M 94.078125 352.367188 C 89.316406 352.367188 70.046875 351.71875 57.707031 341.324219 C 53.375 337.644531 59.003906 330.933594 63.335938 334.613281 C 74.59375 344.140625 94.945312 343.707031 95.160156 343.707031 L 183.496094 343.707031 L 351.71875 246.496094 C 360.59375 241.515625 363.625 230.257812 358.429688 221.382812 C 353.449219 212.722656 342.191406 209.691406 333.316406 214.671875 L 246.929688 264.464844 C 242.167969 267.496094 237.835938 259.921875 242.601562 257.105469 L 328.984375 207.09375 C 349.769531 195.1875 374.882812 214.453125 368.605469 237.621094 C 366.871094 244.546875 362.324219 250.394531 356.046875 254.074219 L 186.957031 351.71875 C 183.925781 353.449219 105.988281 351.933594 95.160156 352.367188 C 95.160156 352.367188 94.730469 352.367188 94.078125 352.367188 Z M 94.078125 352.367188 " fill-opacity="1" fill-rule="evenodd"/><g clip-path="url(#2ed8de81d7)"><path fill="#135981" d="M 55.109375 362.109375 L 9.859375 362.109375 C 4.445312 362.109375 0.117188 357.5625 0.117188 352.367188 L 0.117188 236.105469 C 0.117188 230.691406 4.445312 226.363281 9.859375 226.363281 L 55.109375 226.363281 C 60.519531 226.363281 64.851562 230.691406 64.851562 236.105469 L 64.851562 352.367188 C 64.851562 357.5625 60.519531 362.109375 55.109375 362.109375 Z M 9.859375 235.023438 C 9.210938 235.023438 8.777344 235.457031 8.777344 236.105469 L 8.777344 352.367188 C 8.777344 352.800781 9.210938 353.449219 9.859375 353.449219 L 55.109375 353.449219 C 55.757812 353.449219 56.191406 352.800781 56.191406 352.367188 L 56.191406 236.105469 C 56.191406 235.457031 55.757812 235.023438 55.109375 235.023438 Z M 9.859375 235.023438 " fill-opacity="1" fill-rule="evenodd"/></g><path fill="#135981" d="M 32.59375 345.222656 C 13.324219 345.222656 13.324219 315.996094 32.59375 315.996094 C 51.644531 315.996094 51.644531 345.222656 32.59375 345.222656 Z M 32.59375 324.65625 C 24.796875 324.65625 24.796875 336.5625 32.59375 336.5625 C 40.171875 336.5625 40.171875 324.65625 32.59375 324.65625 Z M 32.59375 324.65625 " fill-opacity="1" fill-rule="evenodd"/><path fill="#135981" d="M 290.230469 118.976562 C 231.558594 118.976562 172.886719 118.976562 114.214844 118.976562 C 110.535156 118.976562 108.585938 114.863281 110.75 112.046875 L 144.089844 67.015625 C 144.957031 65.933594 146.257812 65.285156 147.554688 65.285156 L 259.921875 65.285156 C 261.4375 65.285156 262.734375 65.933594 263.601562 67.015625 L 293.476562 111.832031 C 296.074219 115.296875 293.261719 118.976562 290.230469 118.976562 Z M 122.65625 110.316406 L 282.003906 110.316406 L 257.753906 73.945312 L 149.71875 73.945312 Z M 122.65625 110.316406 " fill-opacity="1" fill-rule="evenodd"/><path fill="#135981" d="M 202.113281 207.09375 C 201.03125 207.09375 199.949219 206.660156 199.082031 205.792969 L 110.964844 117.679688 C 108.367188 115.078125 110.316406 110.316406 114.214844 110.316406 L 290.015625 110.316406 C 293.910156 110.316406 295.859375 115.078125 293.261719 117.679688 L 205.144531 205.792969 C 204.277344 206.660156 203.195312 207.09375 202.113281 207.09375 Z M 124.605469 118.976562 L 202.113281 196.703125 L 279.621094 118.976562 Z M 124.605469 118.976562 " fill-opacity="1" fill-rule="evenodd"/><path fill="#135981" d="M 237.621094 118.976562 C 214.023438 118.976562 190.421875 118.976562 166.609375 118.976562 C 163.792969 118.976562 161.628906 116.164062 162.492188 113.347656 L 175.917969 68.316406 C 176.566406 66.367188 178.296875 65.285156 180.246094 65.285156 L 225.496094 65.285156 C 227.445312 65.285156 229.175781 66.582031 229.609375 68.316406 L 241.949219 114.648438 C 241.949219 117.027344 240 118.976562 237.621094 118.976562 Z M 172.453125 110.316406 L 231.992188 110.316406 L 222.03125 73.945312 L 183.277344 73.945312 Z M 172.453125 110.316406 " fill-opacity="1" fill-rule="evenodd"/><path fill="#135981" d="M 202.113281 207.09375 C 200.382812 207.09375 198.867188 206.011719 198 204.496094 L 162.710938 116.378906 C 161.628906 113.347656 163.578125 110.316406 166.609375 110.316406 L 237.621094 110.316406 C 240.652344 110.316406 242.816406 113.347656 241.515625 116.378906 L 206.226562 204.496094 C 205.578125 206.011719 203.847656 207.09375 202.113281 207.09375 Z M 173.101562 118.976562 L 202.113281 191.289062 L 231.125 118.976562 Z M 173.101562 118.976562 " fill-opacity="1" fill-rule="evenodd"/><path fill="#135981" d="M 202.113281 44.5 C 199.730469 44.5 197.785156 42.550781 197.785156 40.171875 L 197.785156 18.519531 C 197.785156 12.890625 206.445312 12.890625 206.445312 18.519531 L 206.445312 40.171875 C 206.445312 42.550781 204.496094 44.5 202.113281 44.5 Z M 202.113281 44.5 " fill-opacity="1" fill-rule="evenodd"/><path fill="#135981" d="M 251.476562 56.40625 C 248.011719 56.40625 246.0625 52.726562 247.578125 49.914062 L 258.621094 31.078125 C 261.4375 26.097656 268.796875 30.425781 265.980469 35.40625 L 255.15625 54.242188 C 254.292969 55.542969 252.992188 56.40625 251.476562 56.40625 Z M 251.476562 56.40625 " fill-opacity="1" fill-rule="evenodd"/><path fill="#135981" d="M 152.75 56.40625 C 151.453125 56.40625 149.9375 55.542969 149.070312 54.242188 L 138.246094 35.40625 C 135.429688 30.425781 142.792969 26.097656 145.824219 31.078125 L 156.648438 49.914062 C 158.164062 52.726562 156.214844 56.40625 152.75 56.40625 Z M 152.75 56.40625 " fill-opacity="1" fill-rule="evenodd"/><g clip-path="url(#2d400c5492)"><path fill="#135981" d="M 187.5 113.523438 L 196.070312 113.523438 L 196.070312 117.273438 L 187.5 117.273438 Z M 187.5 113.523438 " fill-opacity="1" fill-rule="nonzero"/></g></svg>