<svg xmlns="http://www.w3.org/2000/svg" xmlns:xlink="http://www.w3.org/1999/xlink" width="500" zoomAndPan="magnify" viewBox="0 0 375 374.999991" height="500" preserveAspectRatio="xMidYMid meet" version="1.0"><defs><clipPath id="d7d14eee49"><path d="M 4 0 L 370.734375 0 L 370.734375 351 L 4 351 Z M 4 0 " clip-rule="nonzero"/></clipPath><clipPath id="ea6d521db3"><path d="M 202.761719 275.539062 L 221.148438 275.539062 L 221.148438 279.289062 L 202.761719 279.289062 Z M 202.761719 275.539062 " clip-rule="nonzero"/></clipPath></defs><path fill="#135981" d="M 285.328125 328.125 C 285.328125 328.527344 285.289062 328.925781 285.210938 329.316406 C 285.132812 329.710938 285.015625 330.09375 284.863281 330.464844 C 284.707031 330.835938 284.519531 331.1875 284.296875 331.523438 C 284.074219 331.855469 283.820312 332.164062 283.535156 332.449219 C 283.25 332.734375 282.941406 332.984375 282.609375 333.210938 C 282.273438 333.433594 281.921875 333.621094 281.550781 333.773438 C 281.179688 333.929688 280.796875 334.042969 280.40625 334.121094 C 280.011719 334.199219 279.613281 334.238281 279.210938 334.238281 C 278.808594 334.238281 278.414062 334.199219 278.019531 334.121094 C 277.625 334.042969 277.242188 333.929688 276.871094 333.773438 C 276.5 333.621094 276.148438 333.433594 275.816406 333.210938 C 275.480469 332.984375 275.171875 332.734375 274.886719 332.449219 C 274.605469 332.164062 274.351562 331.855469 274.128906 331.523438 C 273.90625 331.1875 273.714844 330.835938 273.5625 330.464844 C 273.410156 330.09375 273.292969 329.710938 273.214844 329.316406 C 273.136719 328.925781 273.097656 328.527344 273.097656 328.125 C 273.097656 327.722656 273.136719 327.324219 273.214844 326.933594 C 273.292969 326.539062 273.410156 326.15625 273.5625 325.785156 C 273.714844 325.414062 273.90625 325.0625 274.128906 324.726562 C 274.351562 324.394531 274.605469 324.085938 274.886719 323.800781 C 275.171875 323.515625 275.480469 323.261719 275.816406 323.039062 C 276.148438 322.816406 276.5 322.628906 276.871094 322.476562 C 277.242188 322.320312 277.625 322.207031 278.019531 322.128906 C 278.414062 322.050781 278.808594 322.011719 279.210938 322.011719 C 279.613281 322.011719 280.011719 322.050781 280.40625 322.128906 C 280.796875 322.207031 281.179688 322.320312 281.550781 322.476562 C 281.921875 322.628906 282.273438 322.816406 282.609375 323.039062 C 282.941406 323.261719 283.25 323.515625 283.535156 323.800781 C 283.820312 324.085938 284.074219 324.394531 284.296875 324.726562 C 284.519531 325.0625 284.707031 325.414062 284.863281 325.785156 C 285.015625 326.15625 285.132812 326.539062 285.210938 326.933594 C 285.289062 327.324219 285.328125 327.722656 285.328125 328.125 Z M 285.328125 328.125 " fill-opacity="1" fill-rule="nonzero"/><path fill="#135981" d="M 366.847656 360.734375 C 366.847656 361.136719 366.808594 361.53125 366.730469 361.925781 C 366.652344 362.320312 366.535156 362.703125 366.382812 363.074219 C 366.230469 363.445312 366.042969 363.796875 365.816406 364.132812 C 365.59375 364.464844 365.339844 364.773438 365.058594 365.058594 C 364.773438 365.339844 364.464844 365.59375 364.132812 365.816406 C 363.796875 366.042969 363.445312 366.230469 363.074219 366.382812 C 362.703125 366.535156 362.320312 366.652344 361.925781 366.730469 C 361.53125 366.808594 361.136719 366.847656 360.734375 366.847656 C 360.332031 366.847656 359.933594 366.808594 359.539062 366.730469 C 359.148438 366.652344 358.765625 366.535156 358.394531 366.382812 C 358.023438 366.230469 357.671875 366.042969 357.335938 365.816406 C 357.003906 365.59375 356.695312 365.339844 356.410156 365.058594 C 356.125 364.773438 355.871094 364.464844 355.648438 364.132812 C 355.425781 363.796875 355.238281 363.445312 355.085938 363.074219 C 354.929688 362.703125 354.816406 362.320312 354.734375 361.925781 C 354.65625 361.53125 354.617188 361.136719 354.617188 360.734375 C 354.617188 360.332031 354.65625 359.933594 354.734375 359.539062 C 354.816406 359.148438 354.929688 358.765625 355.085938 358.394531 C 355.238281 358.023438 355.425781 357.671875 355.648438 357.335938 C 355.871094 357.003906 356.125 356.695312 356.410156 356.410156 C 356.695312 356.125 357.003906 355.871094 357.335938 355.648438 C 357.671875 355.425781 358.023438 355.238281 358.394531 355.085938 C 358.765625 354.929688 359.148438 354.816406 359.539062 354.734375 C 359.933594 354.65625 360.332031 354.617188 360.734375 354.617188 C 361.136719 354.617188 361.53125 354.65625 361.925781 354.734375 C 362.320312 354.816406 362.703125 354.929688 363.074219 355.085938 C 363.445312 355.238281 363.796875 355.425781 364.132812 355.648438 C 364.464844 355.871094 364.773438 356.125 365.058594 356.410156 C 365.339844 356.695312 365.59375 357.003906 365.816406 357.335938 C 366.042969 357.671875 366.230469 358.023438 366.382812 358.394531 C 366.535156 358.765625 366.652344 359.148438 366.730469 359.539062 C 366.808594 359.933594 366.847656 360.332031 366.847656 360.734375 Z M 366.847656 360.734375 " fill-opacity="1" fill-rule="nonzero"/><path fill="#135981" d="M 122.28125 307.746094 C 122.28125 308.144531 122.242188 308.542969 122.164062 308.9375 C 122.085938 309.332031 121.972656 309.714844 121.816406 310.085938 C 121.664062 310.457031 121.476562 310.808594 121.253906 311.140625 C 121.027344 311.476562 120.777344 311.785156 120.492188 312.066406 C 120.207031 312.351562 119.898438 312.605469 119.566406 312.828125 C 119.230469 313.050781 118.878906 313.238281 118.507812 313.394531 C 118.136719 313.546875 117.753906 313.664062 117.359375 313.742188 C 116.96875 313.820312 116.570312 313.859375 116.167969 313.859375 C 115.765625 313.859375 115.371094 313.820312 114.976562 313.742188 C 114.582031 313.664062 114.199219 313.546875 113.828125 313.394531 C 113.457031 313.238281 113.105469 313.050781 112.773438 312.828125 C 112.4375 312.605469 112.128906 312.351562 111.84375 312.066406 C 111.5625 311.785156 111.308594 311.476562 111.085938 311.140625 C 110.863281 310.808594 110.671875 310.457031 110.519531 310.085938 C 110.367188 309.714844 110.25 309.332031 110.171875 308.9375 C 110.09375 308.542969 110.054688 308.144531 110.054688 307.746094 C 110.054688 307.34375 110.09375 306.945312 110.171875 306.550781 C 110.25 306.15625 110.367188 305.777344 110.519531 305.40625 C 110.671875 305.035156 110.863281 304.679688 111.085938 304.347656 C 111.308594 304.015625 111.5625 303.703125 111.84375 303.421875 C 112.128906 303.136719 112.4375 302.882812 112.773438 302.660156 C 113.105469 302.4375 113.457031 302.25 113.828125 302.097656 C 114.199219 301.941406 114.582031 301.828125 114.976562 301.746094 C 115.371094 301.667969 115.765625 301.628906 116.167969 301.628906 C 116.570312 301.628906 116.96875 301.667969 117.359375 301.746094 C 117.753906 301.828125 118.136719 301.941406 118.507812 302.097656 C 118.878906 302.25 119.230469 302.4375 119.566406 302.660156 C 119.898438 302.882812 120.207031 303.136719 120.492188 303.421875 C 120.777344 303.703125 121.027344 304.015625 121.253906 304.347656 C 121.476562 304.679688 121.664062 305.035156 121.816406 305.40625 C 121.972656 305.777344 122.085938 306.15625 122.164062 306.550781 C 122.242188 306.945312 122.28125 307.34375 122.28125 307.746094 Z M 122.28125 307.746094 " fill-opacity="1" fill-rule="nonzero"/><path fill="#135981" d="M 24.457031 319.972656 C 24.457031 320.375 24.417969 320.773438 24.339844 321.164062 C 24.261719 321.558594 24.144531 321.941406 23.992188 322.3125 C 23.835938 322.683594 23.648438 323.035156 23.425781 323.371094 C 23.203125 323.703125 22.949219 324.011719 22.664062 324.296875 C 22.382812 324.578125 22.074219 324.832031 21.738281 325.054688 C 21.40625 325.28125 21.054688 325.46875 20.683594 325.621094 C 20.3125 325.773438 19.929688 325.890625 19.535156 325.96875 C 19.140625 326.046875 18.742188 326.085938 18.34375 326.085938 C 17.941406 326.085938 17.542969 326.046875 17.148438 325.96875 C 16.753906 325.890625 16.375 325.773438 16.003906 325.621094 C 15.632812 325.46875 15.28125 325.28125 14.945312 325.054688 C 14.613281 324.832031 14.304688 324.578125 14.019531 324.296875 C 13.734375 324.011719 13.480469 323.703125 13.257812 323.371094 C 13.035156 323.035156 12.847656 322.683594 12.695312 322.3125 C 12.539062 321.941406 12.425781 321.558594 12.347656 321.164062 C 12.265625 320.773438 12.226562 320.375 12.226562 319.972656 C 12.226562 319.570312 12.265625 319.171875 12.347656 318.78125 C 12.425781 318.386719 12.539062 318.003906 12.695312 317.632812 C 12.847656 317.261719 13.035156 316.910156 13.257812 316.574219 C 13.480469 316.242188 13.734375 315.933594 14.019531 315.648438 C 14.304688 315.367188 14.613281 315.113281 14.945312 314.890625 C 15.28125 314.667969 15.632812 314.476562 16.003906 314.324219 C 16.375 314.171875 16.753906 314.054688 17.148438 313.976562 C 17.542969 313.898438 17.941406 313.859375 18.34375 313.859375 C 18.742188 313.859375 19.140625 313.898438 19.535156 313.976562 C 19.929688 314.054688 20.3125 314.171875 20.683594 314.324219 C 21.054688 314.476562 21.40625 314.664062 21.738281 314.890625 C 22.074219 315.113281 22.382812 315.367188 22.664062 315.648438 C 22.949219 315.933594 23.203125 316.242188 23.425781 316.574219 C 23.648438 316.910156 23.835938 317.261719 23.992188 317.632812 C 24.144531 318.003906 24.261719 318.386719 24.339844 318.78125 C 24.417969 319.171875 24.457031 319.570312 24.457031 319.972656 Z M 24.457031 319.972656 " fill-opacity="1" fill-rule="nonzero"/><path fill="#135981" d="M 195.652344 252.71875 C 195.652344 253.253906 195.601562 253.78125 195.496094 254.308594 C 195.390625 254.832031 195.238281 255.34375 195.03125 255.835938 C 194.828125 256.332031 194.574219 256.800781 194.277344 257.246094 C 193.980469 257.691406 193.644531 258.101562 193.265625 258.480469 C 192.886719 258.859375 192.472656 259.199219 192.027344 259.496094 C 191.582031 259.792969 191.113281 260.042969 190.621094 260.25 C 190.125 260.453125 189.617188 260.609375 189.089844 260.710938 C 188.566406 260.816406 188.035156 260.871094 187.5 260.871094 C 186.964844 260.871094 186.433594 260.816406 185.910156 260.710938 C 185.382812 260.609375 184.875 260.453125 184.378906 260.25 C 183.886719 260.042969 183.414062 259.792969 182.972656 259.496094 C 182.527344 259.199219 182.113281 258.859375 181.734375 258.480469 C 181.355469 258.101562 181.019531 257.691406 180.722656 257.246094 C 180.425781 256.800781 180.171875 256.332031 179.96875 255.835938 C 179.761719 255.34375 179.609375 254.832031 179.503906 254.308594 C 179.398438 253.78125 179.347656 253.253906 179.347656 252.71875 C 179.347656 252.183594 179.398438 251.652344 179.503906 251.125 C 179.609375 250.601562 179.761719 250.09375 179.96875 249.597656 C 180.171875 249.101562 180.425781 248.632812 180.722656 248.1875 C 181.019531 247.742188 181.355469 247.332031 181.734375 246.953125 C 182.113281 246.574219 182.527344 246.238281 182.972656 245.9375 C 183.414062 245.640625 183.886719 245.390625 184.378906 245.1875 C 184.875 244.980469 185.382812 244.828125 185.910156 244.722656 C 186.433594 244.617188 186.964844 244.566406 187.5 244.566406 C 188.035156 244.566406 188.566406 244.617188 189.089844 244.722656 C 189.617188 244.828125 190.125 244.980469 190.621094 245.1875 C 191.113281 245.390625 191.582031 245.640625 192.027344 245.9375 C 192.472656 246.238281 192.886719 246.574219 193.265625 246.953125 C 193.644531 247.332031 193.980469 247.742188 194.277344 248.1875 C 194.574219 248.632812 194.828125 249.101562 195.03125 249.597656 C 195.238281 250.09375 195.390625 250.601562 195.496094 251.125 C 195.601562 251.652344 195.652344 252.183594 195.652344 252.71875 Z M 195.652344 252.71875 " fill-opacity="1" fill-rule="nonzero"/><g clip-path="url(#d7d14eee49)"><path fill="#135981" d="M 345.921875 20.378906 L 301.628906 20.378906 L 301.628906 4.074219 C 301.628906 1.824219 299.804688 0 297.554688 0 L 235.011719 0 C 231.421875 0 229.582031 4.332031 232.085938 6.914062 L 245.160156 20.378906 L 29.078125 20.378906 C 15.292969 20.378906 4.074219 31.59375 4.074219 45.378906 L 4.074219 256.25 C 4.074219 270.035156 15.292969 281.25 29.078125 281.25 L 138.585938 281.25 L 138.585938 342.390625 L 126.359375 342.390625 C 124.105469 342.390625 122.28125 344.214844 122.28125 346.46875 C 122.28125 348.71875 124.105469 350.542969 126.359375 350.542969 L 142.664062 350.542969 C 155.234375 350.542969 238.726562 350.542969 248.640625 350.542969 C 250.894531 350.542969 252.71875 348.71875 252.71875 346.46875 C 252.71875 344.214844 250.894531 342.390625 248.640625 342.390625 L 236.414062 342.390625 L 236.414062 281.25 L 345.925781 281.25 C 359.707031 281.25 370.925781 270.035156 370.925781 256.25 L 370.925781 45.378906 C 370.925781 31.59375 359.707031 20.378906 345.921875 20.378906 Z M 345.921875 28.53125 C 355.214844 28.53125 362.773438 36.089844 362.773438 45.378906 L 362.773438 224.183594 L 346.46875 224.183594 L 346.46875 48.914062 C 346.46875 46.664062 344.644531 44.835938 342.390625 44.835938 L 301.628906 44.835938 L 301.628906 28.53125 Z M 36.683594 203.804688 L 126.359375 203.804688 C 128.609375 203.804688 130.433594 201.980469 130.433594 199.726562 C 130.433594 197.476562 128.609375 195.652344 126.359375 195.652344 L 36.683594 195.652344 L 36.683594 52.988281 L 221.128906 52.988281 L 168.046875 106.070312 L 139.414062 77.4375 C 137.824219 75.847656 135.242188 75.847656 133.652344 77.4375 L 74.566406 136.527344 C 72.972656 138.117188 72.976562 140.703125 74.566406 142.289062 L 98.199219 165.925781 C 98.996094 166.71875 100.039062 167.117188 101.082031 167.117188 C 102.125 167.117188 103.167969 166.71875 103.964844 165.925781 L 136.535156 133.355469 L 165.167969 161.984375 C 166.757812 163.578125 169.339844 163.578125 170.929688 161.984375 L 278.347656 54.570312 L 294.628906 71.34375 C 295.414062 72.148438 296.472656 72.582031 297.554688 72.582031 C 299.789062 72.582031 301.628906 70.769531 301.628906 68.503906 L 301.628906 52.988281 L 338.316406 52.988281 L 338.316406 224.183594 L 36.683594 224.183594 Z M 272.667969 48.71875 L 168.046875 153.339844 L 139.414062 124.710938 C 137.824219 123.117188 135.242188 123.117188 133.652344 124.710938 L 101.082031 157.28125 L 83.210938 139.410156 L 136.535156 86.085938 L 165.167969 114.71875 C 166.757812 116.308594 169.339844 116.308594 170.929688 114.71875 L 255.0625 30.585938 Z M 293.476562 8.152344 L 293.476562 58.453125 L 244.648438 8.152344 Z M 29.078125 28.53125 L 245.585938 28.53125 L 229.28125 44.835938 L 32.609375 44.835938 C 30.355469 44.835938 28.53125 46.664062 28.53125 48.914062 L 28.53125 224.183594 L 12.226562 224.183594 L 12.226562 45.378906 C 12.226562 36.089844 19.785156 28.53125 29.078125 28.53125 Z M 146.738281 281.25 L 167.121094 281.25 L 167.121094 342.390625 L 146.738281 342.390625 Z M 175.273438 342.390625 L 175.273438 281.25 L 199.726562 281.25 L 199.726562 342.390625 Z M 228.261719 342.390625 L 207.878906 342.390625 L 207.878906 281.25 L 228.261719 281.25 Z M 345.925781 273.097656 C 329.28125 273.097656 46.605469 273.097656 29.078125 273.097656 C 19.785156 273.097656 12.226562 265.539062 12.226562 256.25 L 12.226562 232.335938 C 16.609375 232.335938 358.527344 232.335938 362.773438 232.335938 L 362.773438 256.25 C 362.773438 265.539062 355.214844 273.097656 345.925781 273.097656 Z M 345.925781 273.097656 " fill-opacity="1" fill-rule="nonzero"/></g><path fill="#135981" d="M 330.164062 301.628906 C 316.675781 301.628906 305.707031 312.601562 305.707031 326.085938 C 305.707031 339.570312 316.675781 350.542969 330.164062 350.542969 C 343.648438 350.542969 354.621094 339.570312 354.621094 326.085938 C 354.621094 312.601562 343.648438 301.628906 330.164062 301.628906 Z M 330.164062 342.390625 C 321.171875 342.390625 313.859375 335.078125 313.859375 326.085938 C 313.859375 317.097656 321.171875 309.78125 330.164062 309.78125 C 339.152344 309.78125 346.46875 317.097656 346.46875 326.085938 C 346.46875 335.078125 339.152344 342.390625 330.164062 342.390625 Z M 330.164062 342.390625 " fill-opacity="1" fill-rule="nonzero"/><path fill="#135981" d="M 61.140625 317.933594 C 45.410156 317.933594 32.609375 330.734375 32.609375 346.46875 C 32.609375 362.199219 45.410156 375 61.140625 375 C 76.875 375 89.675781 362.199219 89.675781 346.46875 C 89.675781 330.734375 76.875 317.933594 61.140625 317.933594 Z M 61.140625 366.847656 C 49.902344 366.847656 40.761719 357.707031 40.761719 346.46875 C 40.761719 335.230469 49.902344 326.085938 61.140625 326.085938 C 72.378906 326.085938 81.523438 335.230469 81.523438 346.46875 C 81.523438 357.707031 72.378906 366.847656 61.140625 366.847656 Z M 61.140625 366.847656 " fill-opacity="1" fill-rule="nonzero"/><path fill="#135981" d="M 225.675781 154.195312 C 225.675781 150.960938 230.171875 150.96875 233.042969 151.773438 C 235.921875 152.585938 238.730469 154.144531 239.097656 154.632812 L 242.589844 148.042969 C 237.375 145 231.117188 143.15625 225.3125 144.988281 C 220.664062 146.457031 217.484375 150.164062 217.484375 155.457031 C 217.484375 167.074219 235.078125 164.074219 235.078125 169.609375 C 235.078125 172.75 229.929688 172.46875 226.9375 171.640625 C 224.917969 171.089844 222.550781 170.203125 220.78125 169.074219 C 220.070312 168.621094 219.648438 168.316406 219.519531 168.152344 L 216.03125 175.082031 C 224.996094 181.160156 243.605469 182.105469 243.605469 168.832031 C 243.605469 167.25 243.355469 165.894531 242.855469 164.761719 C 239.386719 156.949219 225.675781 159.210938 225.675781 154.195312 Z M 225.675781 154.195312 " fill-opacity="1" fill-rule="nonzero"/><path fill="#135981" d="M 259.792969 164.664062 L 273.359375 164.664062 L 273.359375 158.21875 L 259.792969 158.21875 L 259.792969 151.53125 L 275.589844 151.53125 L 275.589844 144.554688 L 251.84375 144.554688 L 251.84375 178.960938 L 276.027344 178.960938 L 276.027344 171.980469 L 259.792969 171.980469 Z M 259.792969 164.664062 " fill-opacity="1" fill-rule="nonzero"/><path fill="#135981" d="M 300.054688 144.359375 C 287.859375 144.359375 279.597656 156.773438 284.085938 168.203125 C 288.769531 180.140625 303.566406 183.050781 312.214844 173.945312 C 322.75 162.847656 314.929688 144.359375 300.054688 144.359375 Z M 299.957031 172.175781 C 294.277344 172.175781 290.941406 167.355469 290.941406 161.804688 C 290.941406 147.9375 308.96875 148.011719 308.96875 161.707031 C 308.96875 164.246094 305.667969 172.175781 299.957031 172.175781 Z M 299.957031 172.175781 " fill-opacity="1" fill-rule="nonzero"/><g clip-path="url(#ea6d521db3)"><path fill="#135981" d="M 202.761719 275.539062 L 221.144531 275.539062 L 221.144531 279.289062 L 202.761719 279.289062 Z M 202.761719 275.539062 " fill-opacity="1" fill-rule="nonzero"/></g></svg>