<svg xmlns="http://www.w3.org/2000/svg" xmlns:xlink="http://www.w3.org/1999/xlink" width="500" zoomAndPan="magnify" viewBox="0 0 375 374.999991" height="500" preserveAspectRatio="xMidYMid meet" version="1.0"><defs><clipPath id="c7edbe3dba"><path d="M 82 196 L 347 196 L 347 347 L 82 347 Z M 82 196 " clip-rule="nonzero"/></clipPath><clipPath id="342ad2a1a3"><path d="M -50.316406 108.226562 L 108.09375 -50.1875 L 425.363281 267.085938 L 266.953125 425.496094 Z M -50.316406 108.226562 " clip-rule="nonzero"/></clipPath><clipPath id="90e223c741"><path d="M -50.316406 108.226562 L 108.09375 -50.1875 L 425.363281 267.085938 L 266.953125 425.496094 Z M -50.316406 108.226562 " clip-rule="nonzero"/></clipPath><clipPath id="d0b72422e6"><path d="M 28 28 L 293 28 L 293 179 L 28 179 Z M 28 28 " clip-rule="nonzero"/></clipPath><clipPath id="d56094c7a4"><path d="M -50.316406 108.226562 L 108.09375 -50.1875 L 425.363281 267.085938 L 266.953125 425.496094 Z M -50.316406 108.226562 " clip-rule="nonzero"/></clipPath><clipPath id="130c6f3f35"><path d="M -50.316406 108.226562 L 108.09375 -50.1875 L 425.363281 267.085938 L 266.953125 425.496094 Z M -50.316406 108.226562 " clip-rule="nonzero"/></clipPath><clipPath id="0d44d0ada3"><path d="M 28.839844 188.226562 L 346.160156 188.226562 L 346.160156 346.160156 L 28.839844 346.160156 Z M 28.839844 188.226562 " clip-rule="nonzero"/></clipPath><clipPath id="a615e23805"><path d="M 80.457031 196.386719 L 346.160156 196.386719 L 346.160156 346.160156 L 80.457031 346.160156 Z M 80.457031 196.386719 " clip-rule="nonzero"/></clipPath><clipPath id="89b7262aae"><path d="M -54.265625 106.902344 L 106.835938 -54.199219 L 429.042969 268.011719 L 267.9375 429.113281 Z M -54.265625 106.902344 " clip-rule="nonzero"/></clipPath><clipPath id="50035a9c53"><path d="M -54.265625 106.902344 L 106.835938 -54.199219 L 429.042969 268.011719 L 267.9375 429.113281 Z M -54.265625 106.902344 " clip-rule="nonzero"/></clipPath><clipPath id="d9fc0a81bc"><path d="M 80.457031 197 L 346.160156 197 L 346.160156 346.160156 L 80.457031 346.160156 Z M 80.457031 197 " clip-rule="nonzero"/></clipPath><clipPath id="a27a082421"><path d="M 429.261719 268.085938 L 268.15625 429.1875 L -54.050781 106.984375 L 107.054688 -54.121094 Z M 429.261719 268.085938 " clip-rule="nonzero"/></clipPath><clipPath id="5d78ee3c00"><path d="M 427.015625 265.839844 L 265.910156 426.945312 L -51.808594 109.222656 L 109.296875 -51.878906 Z M 427.015625 265.839844 " clip-rule="nonzero"/></clipPath><clipPath id="26076b37e8"><path d="M 429.261719 268.085938 L 268.15625 429.191406 L -54.050781 106.984375 L 107.054688 -54.121094 Z M 429.261719 268.085938 " clip-rule="nonzero"/></clipPath></defs><rect x="-37.5" width="450" fill="#ffffff" y="-37.499999" height="449.999989" fill-opacity="1"/><rect x="-37.5" width="450" fill="#ffffff" y="-37.499999" height="449.999989" fill-opacity="1"/><g clip-path="url(#c7edbe3dba)"><g clip-path="url(#342ad2a1a3)"><g clip-path="url(#90e223c741)"><path fill="#135981" d="M 222.03125 252.78125 L 201.050781 252.78125 C 197.539062 246.339844 193.671875 240.113281 189.484375 234.128906 L 346.046875 234.128906 L 346.046875 196.824219 L 82.402344 196.824219 C 104.625 204.84375 124.585938 217.710938 140.984375 234.128906 C 146.773438 239.921875 152.121094 246.160156 156.964844 252.78125 C 165.300781 264.171875 172.15625 276.703125 177.246094 290.085938 L 308.742188 290.085938 L 308.742188 308.738281 L 183.039062 308.738281 C 185.953125 320.710938 187.5 333.207031 187.5 346.042969 L 346.046875 346.042969 L 346.046875 252.78125 Z M 222.03125 252.78125 " fill-opacity="1" fill-rule="evenodd"/></g></g></g><g clip-path="url(#d0b72422e6)"><g clip-path="url(#d56094c7a4)"><g clip-path="url(#130c6f3f35)"><path fill="#135981" d="M 153.777344 66.257812 L 191.960938 66.257812 C 189.046875 54.285156 187.5 41.789062 187.5 28.953125 L 28.953125 28.953125 L 28.953125 122.214844 L 173.953125 122.214844 C 177.464844 128.65625 181.328125 134.882812 185.519531 140.867188 L 28.953125 140.867188 L 28.953125 178.171875 L 292.597656 178.171875 C 270.375 170.152344 250.417969 157.285156 234.015625 140.867188 C 228.226562 135.074219 222.882812 128.835938 218.035156 122.214844 C 209.703125 110.824219 202.847656 98.292969 197.757812 84.910156 L 66.261719 84.910156 L 66.261719 66.257812 Z M 153.777344 66.257812 " fill-opacity="1" fill-rule="evenodd"/></g></g></g><g clip-path="url(#0d44d0ada3)"><rect x="-37.5" width="450" fill="#ffffff" y="-37.499999" height="449.999989" fill-opacity="1"/><rect x="-37.5" width="450" fill="#ffffff" y="-37.499999" height="449.999989" fill-opacity="1"/></g><g clip-path="url(#a615e23805)"><g clip-path="url(#89b7262aae)"><g clip-path="url(#50035a9c53)"><path fill="#38b6ff" d="M 222.601562 253.863281 L 201.273438 253.863281 C 197.699219 247.3125 193.773438 240.984375 189.511719 234.898438 L 212.191406 234.902344 L 285.136719 234.898438 L 348.675781 234.898438 L 348.671875 196.976562 L 80.660156 196.976562 C 103.25 205.132812 123.535156 218.210938 140.210938 234.898438 C 146.097656 240.792969 151.53125 247.128906 156.457031 253.863281 C 164.925781 265.441406 171.898438 278.179688 177.070312 291.785156 L 310.75 291.785156 L 310.75 310.75 L 182.960938 310.75 C 185.925781 322.917969 187.496094 335.621094 187.496094 348.671875 L 348.671875 348.671875 L 348.671875 253.863281 Z M 222.601562 253.863281 " fill-opacity="1" fill-rule="evenodd"/></g></g></g><g clip-path="url(#d9fc0a81bc)"><g clip-path="url(#a27a082421)"><g clip-path="url(#5d78ee3c00)"><g clip-path="url(#26076b37e8)"><path fill="#000000" d="M 221.867188 310.730469 L 183.066406 310.730469 C 186.027344 322.898438 187.597656 335.59375 187.597656 348.640625 L 348.703125 348.636719 L 348.703125 253.871094 L 201.371094 253.871094 C 197.800781 247.324219 193.871094 240.996094 189.617188 234.917969 L 348.703125 234.917969 L 348.703125 197.007812 L 213.320312 197.007812 L 182.796875 197.011719 L 80.8125 197.011719 C 103.390625 205.164062 123.667969 218.234375 140.339844 234.917969 C 146.21875 240.804688 151.648438 247.144531 156.574219 253.871094 C 165.042969 265.445312 172.007812 278.175781 177.179688 291.777344 L 310.796875 291.777344 L 310.796875 310.730469 Z M 221.867188 310.730469 " fill-opacity="1" fill-rule="evenodd"/></g></g></g></g></svg>