<svg xmlns="http://www.w3.org/2000/svg" xmlns:xlink="http://www.w3.org/1999/xlink" width="500" zoomAndPan="magnify" viewBox="0 0 375 374.999991" height="500" preserveAspectRatio="xMidYMid meet" version="1.0"><defs><clipPath id="f6c200220d"><path d="M 63 198 L 375 198 L 375 375 L 63 375 Z M 63 198 " clip-rule="nonzero"/></clipPath><clipPath id="33beee396d"><path d="M -94.179688 93.605469 L 93.449219 -94.023438 L 469.234375 281.761719 L 281.605469 469.390625 Z M -94.179688 93.605469 " clip-rule="nonzero"/></clipPath><clipPath id="20bedac89d"><path d="M -94.179688 93.605469 L 93.449219 -94.023438 L 469.234375 281.761719 L 281.605469 469.390625 Z M -94.179688 93.605469 " clip-rule="nonzero"/></clipPath><clipPath id="eca8efd460"><path d="M 0 0 L 312 0 L 312 177 L 0 177 Z M 0 0 " clip-rule="nonzero"/></clipPath><clipPath id="e071b74578"><path d="M -94.179688 93.605469 L 93.449219 -94.023438 L 469.234375 281.761719 L 281.605469 469.390625 Z M -94.179688 93.605469 " clip-rule="nonzero"/></clipPath><clipPath id="f0729be20d"><path d="M -94.179688 93.605469 L 93.449219 -94.023438 L 469.234375 281.761719 L 281.605469 469.390625 Z M -94.179688 93.605469 " clip-rule="nonzero"/></clipPath><clipPath id="a2accd42ef"><path d="M 0 188.363281 L 375 188.363281 L 375 375 L 0 375 Z M 0 188.363281 " clip-rule="nonzero"/></clipPath><clipPath id="6d895723a5"><path d="M 60.714844 198.023438 L 375 198.023438 L 375 375 L 60.714844 375 Z M 60.714844 198.023438 " clip-rule="nonzero"/></clipPath><clipPath id="a60deca979"><path d="M -98.855469 92.039062 L 91.957031 -98.773438 L 473.589844 282.859375 L 282.773438 473.671875 Z M -98.855469 92.039062 " clip-rule="nonzero"/></clipPath><clipPath id="4fcd82765e"><path d="M -98.855469 92.039062 L 91.957031 -98.773438 L 473.589844 282.859375 L 282.773438 473.671875 Z M -98.855469 92.039062 " clip-rule="nonzero"/></clipPath><clipPath id="f6c30929f9"><path d="M 61 198.023438 L 375 198.023438 L 375 375 L 61 375 Z M 61 198.023438 " clip-rule="nonzero"/></clipPath><clipPath id="93afb82ce6"><path d="M 473.847656 282.949219 L 283.03125 473.761719 L -98.601562 92.132812 L 92.214844 -98.683594 Z M 473.847656 282.949219 " clip-rule="nonzero"/></clipPath><clipPath id="a16055ecc4"><path d="M 471.191406 280.289062 L 280.371094 471.109375 L -95.945312 94.789062 L 94.875 -96.027344 Z M 471.191406 280.289062 " clip-rule="nonzero"/></clipPath><clipPath id="6d9d3fa3de"><path d="M 473.847656 282.949219 L 283.03125 473.765625 L -98.597656 92.132812 L 92.214844 -98.683594 Z M 473.847656 282.949219 " clip-rule="nonzero"/></clipPath></defs><rect x="-37.5" width="450" fill="#ffffff" y="-37.499999" height="449.999989" fill-opacity="1"/><rect x="-37.5" width="450" fill="#ffffff" y="-37.499999" height="449.999989" fill-opacity="1"/><g clip-path="url(#f6c200220d)"><g clip-path="url(#33beee396d)"><g clip-path="url(#20bedac89d)"><path fill="#135981" d="M 228.398438 264.820312 L 203.550781 264.820312 C 199.390625 257.191406 194.8125 249.816406 189.847656 242.730469 L 375.289062 242.730469 L 375.289062 198.542969 L 63.019531 198.542969 C 89.34375 208.042969 112.980469 223.28125 132.40625 242.730469 C 139.261719 249.59375 145.59375 256.976562 151.332031 264.820312 C 161.207031 278.3125 169.324219 293.152344 175.355469 309.007812 L 221.996094 309.003906 L 244.96875 309.007812 L 331.101562 309.007812 L 331.101562 331.097656 L 227.445312 331.097656 L 182.214844 331.101562 C 185.671875 345.28125 187.5 360.078125 187.5 375.285156 L 375.289062 375.285156 L 375.289062 264.820312 Z M 228.398438 264.820312 " fill-opacity="1" fill-rule="evenodd"/></g></g></g><g clip-path="url(#eca8efd460)"><g clip-path="url(#e071b74578)"><g clip-path="url(#f0729be20d)"><path fill="#135981" d="M 147.558594 43.894531 L 192.785156 43.894531 C 189.332031 29.714844 187.5 14.914062 187.5 -0.289062 L -0.285156 -0.289062 L -0.285156 110.175781 L 171.453125 110.175781 C 175.613281 117.804688 180.191406 125.179688 185.152344 132.265625 L -0.285156 132.265625 L -0.285156 176.449219 L 118.898438 176.449219 L 157.523438 176.453125 L 193.101562 176.449219 L 311.980469 176.449219 C 285.660156 166.949219 262.023438 151.714844 242.59375 132.265625 C 235.738281 125.402344 229.40625 118.015625 223.667969 110.175781 C 213.796875 96.683594 205.675781 81.839844 199.648438 65.988281 L 43.898438 65.988281 L 43.898438 43.894531 Z M 147.558594 43.894531 " fill-opacity="1" fill-rule="evenodd"/></g></g></g><g clip-path="url(#a2accd42ef)"><rect x="-37.5" width="450" fill="#ffffff" y="-37.499999" height="449.999989" fill-opacity="1"/><rect x="-37.5" width="450" fill="#ffffff" y="-37.499999" height="449.999989" fill-opacity="1"/></g><g clip-path="url(#6d895723a5)"><g clip-path="url(#a60deca979)"><g clip-path="url(#4fcd82765e)"><path fill="#38b6ff" d="M 229.074219 266.101562 L 203.8125 266.101562 C 199.582031 258.34375 194.929688 250.847656 189.882812 243.640625 L 216.746094 243.644531 L 303.140625 243.640625 L 378.398438 243.640625 L 378.394531 198.722656 L 60.953125 198.722656 C 87.710938 208.382812 111.742188 223.875 131.488281 243.640625 C 138.460938 250.621094 144.898438 258.128906 150.730469 266.101562 C 160.765625 279.816406 169.019531 294.90625 175.148438 311.019531 L 333.480469 311.019531 L 333.480469 333.480469 L 182.125 333.480469 C 185.636719 347.894531 187.496094 362.941406 187.496094 378.394531 L 378.394531 378.394531 L 378.394531 266.101562 Z M 229.074219 266.101562 " fill-opacity="1" fill-rule="evenodd"/></g></g></g><g clip-path="url(#f6c30929f9)"><g clip-path="url(#93afb82ce6)"><g clip-path="url(#a16055ecc4)"><g clip-path="url(#6d9d3fa3de)"><path fill="#000000" d="M 228.203125 333.460938 L 182.25 333.460938 C 185.757812 347.871094 187.617188 362.90625 187.617188 378.355469 L 378.433594 378.351562 L 378.433594 266.109375 L 203.925781 266.109375 C 199.699219 258.359375 195.046875 250.863281 190.003906 243.664062 L 216.855469 243.660156 L 378.433594 243.660156 L 378.433594 198.761719 L 218.082031 198.761719 L 181.929688 198.765625 L 61.136719 198.765625 C 87.878906 208.421875 111.898438 223.902344 131.640625 243.664062 C 138.605469 250.636719 145.039062 258.144531 150.871094 266.113281 C 160.902344 279.820312 169.148438 294.902344 175.277344 311.011719 L 222.671875 311.011719 L 246.019531 311.007812 L 311.089844 311.007812 L 333.539062 311.011719 L 333.539062 333.457031 Z M 228.203125 333.460938 " fill-opacity="1" fill-rule="evenodd"/></g></g></g></g></svg>